<?xml version="1.0" encoding="UTF-8" standalone="no"?>
<!-- Created with Inkscape (http://www.inkscape.org/) -->

<svg
   width="512"
   height="150"
   version="1.1"
   viewBox="0 0 135.47 39.688"
   id="svg1568"
   sodipodi:docname="hibret_bank.svg"
   inkscape:version="1.1.2 (0a00cf5339, 2022-02-04)"
   xmlns:inkscape="http://www.inkscape.org/namespaces/inkscape"
   xmlns:sodipodi="http://sodipodi.sourceforge.net/DTD/sodipodi-0.dtd"
   xmlns="http://www.w3.org/2000/svg"
   xmlns:svg="http://www.w3.org/2000/svg">
  <defs
     id="defs1572" />
  <sodipodi:namedview
     id="namedview1570"
     pagecolor="#ffffff"
     bordercolor="#999999"
     borderopacity="1"
     inkscape:pageshadow="0"
     inkscape:pageopacity="0"
     inkscape:pagecheckerboard="0"
     showgrid="false"
     inkscape:zoom="1.5034585"
     inkscape:cx="227.14295"
     inkscape:cy="87.132435"
     inkscape:window-width="1920"
     inkscape:window-height="1043"
     inkscape:window-x="0"
     inkscape:window-y="0"
     inkscape:window-maximized="1"
     inkscape:current-layer="svg1568" />
  <g
     transform="matrix(.68398 0 0 .68398 -1.929 -4.2667)"
     clip-rule="evenodd"
     fill-rule="evenodd"
     id="g1566"
     inkscape:export-filename="/home/brookmg/Desktop/hibret_bank.png"
     inkscape:export-xdpi="96.275902"
     inkscape:export-ydpi="96.275902">
    <g
       fill="#4a176d"
       id="g1518">
      <path
         d="m31.358 38.606c-0.9707 0.52-1.0938 0.5982-1.6414 0.5982-0.2395 0-0.6726-0.2549-1.1384-0.5746 0 0-0.308-0.2043-1.1982-0.7823-0.5888-0.3777-0.7798-0.6164-1.2948-0.6164-0.5242 0-0.799 0.1969-3.0571 1.3987-1.5044 0.7978-1.1245 1.0494-0.3394 1.5626 2.2542 1.4641 0.9887 0.6407 4.0985 2.6855 0.9807 0.6481 1.5615 1.1222 2.0971 1.1222 0.5342 0 1.511-0.4782 4.6646-2.15 8.6134-4.5684 16.085-8.5272 22.607-11.985l0.8443-4.8652z"
         id="path1512" />
      <path
         d="m27.73 58.765c-1.5068 0.7874-1.6036 0.6299-2.6897-0.076-3.1668-2.0445-13.857-8.9041-16.187-10.435-0.59148-0.3903-1.3218-0.7127-1.6857-0.6984-0.48375 0.0142-0.64703 0.169-1.8835 0.8226-2.7054 1.4187-2.519 1.4268-1.8916 1.8225 0.60367 0.372 16.709 10.775 20.599 13.281 0.4973 0.3252 0.9004 0.5193 1.3862 0.5193 0.5027 0 1.2487-0.1941 1.8977-0.5389 9.984-5.2381 18.511-9.7037 25.866-13.562l0.8591-4.8986c-7.4514 3.9049-16.107 8.4452-26.27 13.765z"
         id="path1514" />
      <path
         d="m28.563 48.66c-0.8696 0.4524-1.0522 0.5166-1.6098 0.5166-0.3202 0-0.912-0.3937-1.6591-0.8691-2.6286-1.6563-6.9798-4.3033-7.287-4.5079 0 0-0.2785-0.1823-1.0317-0.6658-0.6021-0.3849-1.0324-0.7191-1.564-0.7191-0.5453 0-0.5528 0.0196-1.6878 0.6063-2.8482 1.4619-3.0226 1.5754-2.4774 1.9211 3.4174 2.177 6.7972 4.331 13.158 8.3366 1.1466 0.7218 1.1767 0.7218 1.6639 0.7218 0.5227 0 0.7512-0.0061 1.5988-0.4463 10.236-5.2919 18.955-9.8059 26.464-13.684l0.8696-4.8692c-7.4998 3.8732-16.215 8.3777-26.437 13.66z"
         id="path1516" />
    </g>
    <g
       fill="#00b0ad"
       id="g1526">
      <path
         d="m31.264 29.81c0.2361 0 0.6703 0.2569 1.1411 0.5779 0 0 0.3068 0.2042 1.2019 0.7787 0.5895 0.3819 0.785 0.6198 1.2932 0.6198 0.5275 0 0.805-0.196 3.0679-1.3985 1.508-0.8036 1.1292-1.0537 0.3415-1.5647-2.2603-1.4688-0.9944-0.6388-4.107-2.6962-0.9885-0.6435-1.5647-1.1268-2.1043-1.1268-0.5355 0-1.5146 0.4833-4.6759 2.1555-8.5983 4.557-16.058 8.5159-22.572 11.971l-0.85036 4.8734 25.617-13.593c0.9771-0.5184 1.1025-0.5975 1.6474-0.5975z"
         id="path1520" />
      <path
         d="m35.921 11.319c3.1674 2.0539 13.883 8.9324 16.218 10.462 0.5925 0.3948 1.3221 0.716 1.6858 0.7078 0.4853-0.0122 0.6475-0.1742 1.8909-0.8255 2.706-1.4272 2.5214-1.4312 1.8908-1.826-0.6026-0.375-16.738-10.807-20.633-13.323-0.4974-0.31919-0.9006-0.51451-1.392-0.51451-0.5049 0-1.2467 0.19532-1.899 0.53424-9.9639 5.2315-18.476 9.6981-25.82 13.552l-0.86263 4.9137c7.444-3.901 16.086-8.437 26.229-13.753 1.5033-0.7929 1.601-0.6316 2.6924 0.0721z"
         id="path1522" />
      <path
         d="m33.015 19.831c0.3173 0 0.9116 0.3967 1.6608 0.8677 2.6347 1.6643 6.994 4.3153 7.299 4.5218 0 0 0.279 0.1861 1.0425 0.67 0.5963 0.3844 1.024 0.7235 1.5559 0.7235 0.5463 0 0.5586-0.0257 1.6992-0.6125 2.8452-1.4673 3.0275-1.5783 2.4839-1.9235-3.4319-2.1847-6.8171-4.3383-13.193-8.3592-1.1426-0.7188-1.1748-0.7188-1.6629-0.7188-0.5243 0-0.7532 0.0068-1.6025 0.4467-10.214 5.2804-18.922 9.7893-26.425 13.674l-0.87323 4.8798c7.4958-3.8788 16.201-8.3748 26.399-13.649 0.8732-0.4541 1.0521-0.5198 1.6162-0.5198z"
         id="path1524" />
    </g>
    <g
       fill="#4a176d"
       id="g1548">
      <path
         d="m73.753 47.481h-7.0356l1.562-9.4814h-4.8488l-3.431 20.995 4.8528 0.0053 1.1685-7.1104h7.0395l-1.1751 7.1011h4.6952l3.4191-20.991h-4.6866z"
         id="path1528" />
      <path
         d="m81.415 43.765 4.1062 2.5031-4.9907 2.6968-1.5306 9.0351h4.9361l3.0639-18h-4.9429z"
         id="path1530" />
      <path
         d="m98.585 45.196c-0.8467-0.9612-2.4082-1.7422-4.3017-1.7422-1.5647 0-2.3905 0.4809-2.4329 0.4809l-0.4083 2.6022c0.0079 0 0.8245-0.2136 1.4898-0.14 3.0075 0.3363 2.6429 3.6659 2.4766 4.7115-0.3222 2.0221-1.4363 4.1293-3.5137 4.8849-1.3534 0.5003-2.1427 0.2592-2.1427 0.2592l2.5575-16.248-4.3916-0.0047-2.9182 18.552c0.0098-0.016 3.3082 0.4595 5.7275 0.4475 2.3924-0.0101 4.5827-0.6886 6.2955-2.2077 1.527-1.3604 2.4518-3.3906 2.8458-5.9405 0.0952-0.6397 0.1432-1.2479 0.1285-1.8166-0.0502-1.6309-0.5068-2.8118-1.4121-3.8386z"
         id="path1532" />
      <path
         d="m103.98 45.229c-0.821 0.7446-1.105 2.633-1.35 4.1356l-1.628 9.6357h4.616l1.709-9.8105c0.199-1.222 0.842-1.8093 1.824-1.8093h1.604l1.247-3.3802c-4.934 0-6.936 0.2417-8.022 1.2287z"
         id="path1534" />
      <path
         d="m132.56 46.92 0.44-3.054h-2.182l0.546-3.8664-4.094 1.3922-0.358 2.4742h-1.477l-0.435 3.054h1.472l-0.828 5.7116c-0.126 0.8065-0.239 1.6297-0.338 2.4515-0.229 1.7478 0.504 2.7204 0.826 3.0566 0.563 0.6097 1.265 0.8599 2.421 0.8599l0.122-0.0047c1.224-0.016 1.989-0.3735 2.209-0.525l0.418-2.8491c-0.217 0.0687-0.601 0.1521-1.064 0.1521-0.616 0-0.957-0.3722-0.974-1.0787 0-0.1421 0.023-0.3215 0.051-0.529l1.069-7.2452z"
         id="path1536" />
      <path
         d="m152.18 49.369 8e-3 -0.0409c0.147 0 1.123-0.3867 2.168-1.3517 1.049-0.9742 1.434-1.5961 1.619-3.0245 0.18-1.5012-0.579-3.2337-1.884-4.0174-1.643-0.9703-2.777-0.9345-4.882-0.9345l-8.15 0.0045-3.058 17.995 4.78-0.0039 2.594-15.254h2.997c1.803 0 2.836 0.8805 2.764 2.3583-0.066 1.2224-0.698 1.7923-1.315 2.1836-0.665 0.4347-1.359 0.6667-3.116 0.6687l-2.058 0.0019-0.442 2.5949h1.818c3.274 0.0871 3.898 1.548 3.604 2.643-0.321 1.197-1.414 1.986-4.464 2.0867h-1.761l-0.462 2.7164h3.974c1.439 0 3.752-0.0299 5.04-0.6284 2.419-1.1269 2.969-2.7866 3.128-4.0376 0.095-0.7389 0.02-2.3213-1.012-3.1362-0.996-0.7864-1.89-0.8247-1.89-0.8247z"
         id="path1538" />
      <path
         d="m178.36 45c-2.386 0-4.497 0.3815-6.289 1.1241l-2.069 12.876 4.306-0.0038 1.795-11.007 0.144-0.0372c0.492-0.1295 1.036-0.2007 1.578-0.2007 1.155 0 1.757 0.4687 1.789 1.403 0 0.152-0.013 0.3078-0.049 0.4758l-1.528 9.3556 4.355-0.0026 1.541-9.3755c0.054-0.3513 0.075-0.6938 0.068-1.0182-0.064-2.4168-1.913-3.589-5.641-3.589z"
         id="path1540" />
      <path
         d="m188.87 40.004-2.873 17.996h4.318l1.136-6.911 2.966 6.911 5.064-7e-4 -3.809-7.7598 5.325-6.4496h-4.6l-4.773 6.135 1.57-9.9249z"
         id="path1542" />
      <path
         d="m117.29 55.947c-1.77-0.177-3.283-1.6878-3.076-3.8417 0.316-3.3608 1.669-4.3632 2.138-4.8267 0.536-0.5285 1.199-0.7954 1.981-0.7954 1.179 0 1.749 0.7362 1.692 2.1826-0.011 0.371-0.07 0.7733-0.152 1.2042l-0.047 0.194h-4.665s-0.226 0.6027-0.374 1.2862c-0.14 0.6425-0.146 0.9718-0.146 0.9718l8.896 0.0339c0.265-1.02 0.423-1.9906 0.453-2.8921 0.068-1.6957-0.295-3.0249-1.067-3.9609-0.825-0.9992-2.086-1.503-3.737-1.503-2.182 0-4.104 0.6522-5.708 1.9476-1.612 1.294-2.687 3.045-3.21 5.2081-0.155 0.6405-0.242 1.2602-0.266 1.8278-0.061 1.6468 0.562 3.2976 1.64 4.3052 1.095 1.022 2.45 1.7113 4.434 1.7113 1.988 0 4.457-0.5624 6.837-2.3167l-1.717-1.8948c-1.845 1.1547-2.974 1.2556-3.906 1.1586z"
         id="path1544" />
      <path
         d="m163.99 44c-1.212-0.0019-2.664 0.1924-4.24 0.569l-0.449 2.6971c1.578-0.5435 2.703-0.6455 3.434-0.6455 1.558 0.0013 2.195 0.3932 2.206 1.2622 0 0.1389-0.239 1.5732-0.261 1.7076-0.277 1.6757-1 6.0644-1 6.0644-0.032 0.1867-0.269 0.1912-1.541 0.1893-0.872-0.0026-1.527-0.2396-1.888-0.6875-0.279-0.3453-0.376-0.8124-0.293-1.3495 0.146-0.9092 0.622-1.5916 1.416-2.0389 0.757-0.4288 1.758-0.49 2.871-0.5072l0.409-2.3982c-0.177-0.0102-0.674-0.0223-0.84-0.0223-1.869 0-3.627 0.4364-4.985 1.2501-0.487 0.2931-0.924 0.6327-1.294 1.0188-1.032 1.0774-1.574 2.4607-1.532 3.9051 0.039 1.2246 0.731 1.9497 1.607 2.3766 1.061 0.5155 2.387 0.6072 3.166 0.6072 0.378 0 0.677 0.0038 0.692 0h5.781l0.807-4.6818s0.795-5.0539 0.886-5.6146c0.423-2.6461-1.439-3.6942-4.952-3.7019z"
         id="path1546" />
    </g>
    <g
       fill="#00b0ad"
       id="g1564">
      <path
         d="m99.535 12c-2.1069 0-3.8603 0.6417-5.1993 1.9111-1.3356 1.2615-2.1606 3.0929-2.5293 5.4418l-0.5073 3.2248h-4.4061l-1.8927 5.3343h0.3767c0.8495 0 1.6168-0.2057 2.2733-0.6258 0.5942-0.3805 1.0492-0.8889 1.3602-1.5108h1.7382l-1.0213 6.2246h4.4644l2.0724-12.701c0.1924-1.2134 0.5704-2.0918 0.9875-2.6372 0.3853-0.4946 0.8621-0.7419 1.5558-0.7491 0.7076-0.0099 1.1141 0.2393 1.3458 0.7372 0.257 0.5355 0.291 1.4185 0.097 2.6253l-2.1305 12.725h4.6465l2.071-12.591c0.371-2.3589 0.109-4.2001-0.784-5.4715-0.899-1.2866-2.42-1.9375-4.5183-1.9375z"
         id="path1550" />
      <path
         d="m157.64 12c-2.063 0-3.777 0.6417-5.099 1.9111-1.304 1.2615-2.151 3.0929-2.519 5.4418l-1.021 6.3684h4.536l1.008-6.4205c0.192-1.2384 0.501-2.1346 0.909-2.6642 0.379-0.4866 0.864-0.724 1.48-0.724 0.657 0 1.083 0.2433 1.315 0.7372 0.252 0.5355 0.263 1.4198 0.077 2.628l-2.027 12.722h4.529l2.011-12.591c0.367-2.3589 0.109-4.2001-0.762-5.4715-0.881-1.2866-2.372-1.9375-4.437-1.9375z"
         id="path1552" />
      <path
         d="m187.84 14.595c-1.545-0.0581-2.92 0.3117-4.08 0.9364-0.174-0.3811-0.273-1.122-0.037-2.5748l0.342-1.9566h-4.819l-0.324 1.8384c-0.463 2.7914 0.125 4.6371 1.739 5.7326-0.467 0.9225-0.957 2.5642-1.114 4.0394-0.033 0.2978-0.146 1.1913-0.146 1.1913l1.589-0.0033c-1.249 0.9205-2.023 2.298-2.33 4.1107l-0.659 4.0883 4.704 0.0026 0.669-3.8935c0.146-0.8723 0.48-1.5128 0.812-1.8688 0.305-0.3308 0.749-0.4933 1.365-0.4933h0.046l0.556-3.237h-0.604c-0.307 0-1.189 0.0079-1.189 0.0079s0.149-1.989 0.906-2.9254c0.41-0.4986 1.132-1.075 2.814-1.0017 2.374 0.1043 2.362 2.72 2.155 3.9363l-1.607 9.4603h4.713l1.445-9.3222s2.119-7.7348-6.946-8.0676z"
         id="path1554" />
      <path
         d="m119.7 27.731s-5.355 0.3848-6.155 0.3789c-0.652-4e-3 -1.379-0.1022-1.706-0.3104-0.387-0.2471-0.554-0.6821-0.505-1.3174 0.117-1.5691 1.583-3.3359 3.909-5.2595 1.49-1.2159 2.636-2.5926 3.401-4.0846 0.799-1.5526 1.185-2.9576 1.329-4.8542l0.023-0.2834h-4.535l-0.023 0.3361c-0.11 1.5078-0.383 2.7316-0.802 3.641-0.418 0.8976-1.029 1.7049-1.83 2.3731-2.029 1.7431-3.493 3.272-4.34 4.5347-0.858 1.2824-1.342 2.6241-1.448 3.9909-0.132 1.7971 0.334 3.1171 1.381 3.929 0.839 0.6485 2.083 0.976 3.689 0.976 0.36 0 0.744-0.0125 1.144-0.0454l2.558-0.2063c0.184 0.4363 0.531 0.7974 1.025 1.0715 0.474 0.2656 1.002 0.3994 1.568 0.3994 0.098 0 0.202-4e-3 0.304-0.0138l1.027-0.0811-0.534-3.4479z"
         id="path1556" />
      <path
         d="m175.26 20.55s2.536-4.6709-0.252-7.1215c-0.559-0.4976-3.26-2.1044-6.972-1.1111-1.626 0.4365-2.402 0.9758-2.402 0.9758l-0.638 3.7088c1.58-1.2523 5.926-1.9861 6.693-0.0631 0.815 2.0394-2.818 5.6889-2.825 5.685h3.645l-3.917 9.3756h4.719l4.685-11.45z"
         id="path1558" />
      <path
         d="m131.52 18.536 0.8-4.6797-1.386-6e-3c-0.921 0-1.559-0.1819-1.887-0.5371-0.33-0.3487-0.434-0.9573-0.297-1.8001l0.089-0.5127h-4.624l-0.113 0.6695c-0.42 2.5601 0.479 4.2947 2.984 5.0389l-0.32 1.8338h-5.654l-2.109 6.1167h1.065c0.872 0 1.664-0.2197 2.359-0.6477 0.625-0.3757 1.125-0.8838 1.453-1.5037h2.197l-1.624 9.4925h4.764l1.623-9.4925h2.019c0.118 0.6199 0.435 1.128 0.93 1.5037 0.552 0.428 1.28 0.6477 2.153 0.6477h1.061l-0.099-6.1167z"
         id="path1560" />
      <path
         d="m83.884 26.14c0.2235-1.4148 0.1229-2.6894-0.3023-3.8039-0.4219-1.1238-1.1534-2.0194-2.182-2.6603-0.9451-0.5933-2.1156-0.9459-3.4787-1.0504l0.7795-4.9588h-2.1255c-1.0976 0-1.3578-0.1653-1.4189-0.2388-0.1525-0.1838-0.1867-0.5774-0.0947-1.174l0.1952-1.2462-4.6387-0.0079-0.1932 1.2151c-0.3017 1.7614-0.585 3.4203 0.1202 4.2768 0.3116 0.3737 0.7835 0.5649 1.4091 0.5649 0 0 1.5228-0.0106 1.5557-0.0106l-0.2406 1.5617c-2.157 0.1825-3.9841 0.9227-5.4411 2.2092-1.5373 1.3605-2.5455 3.1742-2.8846 5.3622l-0.9438 5.8207h4.8103l0.9549-5.9126c0.1577-1.0127 0.464-1.9023 1.0647-2.5247 0.5041-0.5325 1.0319-0.8308 1.8173-0.9703l-1.4768 9.4076h4.5868l1.5149-9.4176c0.7282 0.1277 1.3039 0.4498 1.6693 0.9803 0.42 0.6145 0.5508 1.4618 0.3839 2.5247l-0.9267 5.9126h4.544z"
         id="path1562" />
    </g>
  </g>
</svg>
