<?xml version="1.0" standalone="no"?>
<!DOCTYPE svg PUBLIC "-//W3C//DTD SVG 20010904//EN"
 "http://www.w3.org/TR/2001/REC-SVG-20010904/DTD/svg10.dtd">
<svg version="1.0" xmlns="http://www.w3.org/2000/svg"
 width="608.000000pt" height="608.000000pt" viewBox="0 0 608.000000 608.000000"
 preserveAspectRatio="xMidYMid meet">

<g transform="translate(0.000000,608.000000) scale(0.100000,-0.100000)"
fill="#000000" stroke="none">
<path d="M5096 5781 c-4 -7 -5 -15 -2 -18 9 -9 19 4 14 18 -4 11 -6 11 -12 0z"/>
<path d="M1148 5773 c12 -2 32 -2 45 0 12 2 2 4 -23 4 -25 0 -35 -2 -22 -4z"/>
<path d="M3518 5773 c12 -2 30 -2 40 0 9 3 -1 5 -23 4 -22 0 -30 -2 -17 -4z"/>
<path d="M1076 5745 c-3 -9 0 -15 9 -15 16 0 20 16 6 24 -5 3 -11 -1 -15 -9z"/>
<path d="M1126 5751 c-4 -7 -5 -15 -2 -18 9 -9 19 4 14 18 -4 11 -6 11 -12 0z"/>
<path d="M3015 5750 c-4 -6 6 -10 22 -10 22 0 25 2 13 10 -19 12 -27 12 -35 0z"/>
<path d="M2753 5743 c9 -2 25 -2 35 0 9 3 1 5 -18 5 -19 0 -27 -2 -17 -5z"/>
<path d="M5090 5740 c0 -5 5 -10 10 -10 6 0 10 5 10 10 0 6 -4 10 -10 10 -5 0
-10 -4 -10 -10z"/>
<path d="M3438 5703 c12 -2 32 -2 45 0 12 2 2 4 -23 4 -25 0 -35 -2 -22 -4z"/>
<path d="M5091 4448 c0 -705 4 -1254 9 -1243 12 30 13 2505 0 2505 -7 0 -10
-421 -9 -1262z"/>
<path d="M2791 5683 c-7 -8 -10 -17 -7 -20 9 -9 29 13 25 25 -2 6 -10 3 -18
-5z"/>
<path d="M3230 5680 c0 -5 5 -10 10 -10 6 0 10 5 10 10 0 6 -4 10 -10 10 -5 0
-10 -4 -10 -10z"/>
<path d="M2742 5665 c-1 -33 13 -61 23 -46 4 7 3 16 -3 20 -5 3 -12 15 -15 26
l-5 20 0 -20z"/>
<path d="M2980 5664 c0 -8 5 -12 10 -9 6 3 10 10 10 16 0 5 -4 9 -10 9 -5 0
-10 -7 -10 -16z"/>
<path d="M3025 5667 c-4 -10 -5 -21 -1 -24 10 -10 18 4 13 24 -4 17 -4 17 -12
0z"/>
<path d="M3060 5670 c0 -5 6 -10 14 -10 8 0 18 5 21 10 3 6 -3 10 -14 10 -12
0 -21 -4 -21 -10z"/>
<path d="M2906 5661 c-4 -5 5 -8 19 -6 35 3 44 15 12 15 -14 0 -28 -4 -31 -9z"/>
<path d="M3161 5660 c0 -8 4 -24 9 -35 l9 -20 0 20 c0 11 -4 27 -9 35 -9 13
-10 13 -9 0z"/>
<path d="M2868 5653 c7 -3 16 -2 19 1 4 3 -2 6 -13 5 -11 0 -14 -3 -6 -6z"/>
<path d="M3210 5650 c0 -5 5 -10 10 -10 6 0 10 5 10 10 0 6 -4 10 -10 10 -5 0
-10 -4 -10 -10z"/>
<path d="M3290 5650 c34 -11 62 -12 56 -2 -3 5 -22 9 -43 9 -33 1 -35 0 -13
-7z"/>
<path d="M3420 5651 c0 -12 23 -31 37 -31 21 0 15 14 -12 27 -14 6 -25 8 -25
4z"/>
<path d="M2675 5630 c-3 -5 3 -10 14 -10 12 0 21 5 21 10 0 6 -6 10 -14 10 -8
0 -18 -4 -21 -10z"/>
<path d="M3000 5615 c0 -8 2 -15 4 -15 2 0 6 7 10 15 3 8 1 15 -4 15 -6 0 -10
-7 -10 -15z"/>
<path d="M3140 5545 c0 -49 3 -85 7 -82 3 4 6 41 6 82 0 41 -3 78 -6 82 -4 3
-7 -33 -7 -82z"/>
<path d="M3328 5606 c-12 -9 -18 -28 -19 -57 0 -24 -4 -69 -9 -99 -8 -57 4
-95 15 -44 3 16 10 36 14 44 4 8 6 41 3 72 -4 47 -1 59 12 64 9 3 16 12 16 20
0 17 -10 17 -32 0z"/>
<path d="M3550 5600 c-14 -10 -21 -22 -17 -26 4 -4 7 -2 7 4 0 7 6 12 14 12 8
0 16 7 20 15 7 19 6 19 -24 -5z"/>
<path d="M2782 5590 c0 -14 2 -19 5 -12 2 6 2 18 0 25 -3 6 -5 1 -5 -13z"/>
<path d="M2811 5603 c-1 -17 16 -25 25 -12 4 7 3 9 -4 5 -5 -3 -13 0 -15 6 -4
9 -6 10 -6 1z"/>
<path d="M3210 5600 c0 -5 5 -10 11 -10 5 0 7 5 4 10 -3 6 -8 10 -11 10 -2 0
-4 -4 -4 -10z"/>
<path d="M3505 5600 c3 -5 8 -10 11 -10 2 0 4 5 4 10 0 6 -5 10 -11 10 -5 0
-7 -4 -4 -10z"/>
<path d="M2750 5586 c0 -9 5 -16 10 -16 6 0 10 4 10 9 0 6 -4 13 -10 16 -5 3
-10 -1 -10 -9z"/>
<path d="M3175 5590 c-3 -5 -1 -10 4 -10 6 0 11 5 11 10 0 6 -2 10 -4 10 -3 0
-8 -4 -11 -10z"/>
<path d="M2503 5573 c9 -2 23 -2 30 0 6 3 -1 5 -18 5 -16 0 -22 -2 -12 -5z"/>
<path d="M3367 5573 c-11 -10 -8 -20 8 -27 10 -4 15 1 15 14 0 20 -11 26 -23
13z"/>
<path d="M3486 5571 c-4 -6 -2 -19 4 -30 5 -11 10 -31 10 -45 0 -14 5 -28 11
-32 8 -4 9 3 3 27 -4 19 -8 44 -9 56 -2 27 -11 38 -19 24z"/>
<path d="M3620 5576 c0 -2 14 -6 30 -8 17 -3 30 -1 30 4 0 4 -13 8 -30 8 -16
0 -30 -2 -30 -4z"/>
<path d="M3212 5545 c0 -16 2 -22 5 -12 2 9 2 23 0 30 -3 6 -5 -1 -5 -18z"/>
<path d="M2650 5553 c0 -5 5 -15 10 -23 8 -12 10 -11 10 8 0 12 -4 22 -10 22
-5 0 -10 -3 -10 -7z"/>
<path d="M2766 5535 c16 -65 24 -80 18 -35 -3 25 -10 50 -16 55 -6 6 -7 -1 -2
-20z"/>
<path d="M3751 5524 c0 -11 3 -14 6 -6 3 7 2 16 -1 19 -3 4 -6 -2 -5 -13z"/>
<path d="M2434 5514 c3 -9 6 -18 6 -20 0 -2 7 -4 15 -4 18 0 19 12 3 28 -17
17 -31 15 -24 -4z"/>
<path d="M3652 5498 c-71 -77 -132 -154 -132 -167 0 -10 -10 -12 -45 -7 -25 4
-50 4 -55 1 -16 -10 8 -35 31 -35 11 0 19 -4 19 -10 0 -5 -9 -10 -20 -10 -14
0 -18 -5 -13 -16 3 -9 9 -12 12 -7 16 22 79 44 66 23 -3 -5 -1 -10 5 -10 6 0
10 8 8 18 -2 10 2 16 10 14 8 -1 11 2 7 8 -3 5 -2 10 4 10 5 0 11 10 13 23 2
15 9 21 23 20 19 -2 35 13 35 32 -1 6 -7 1 -15 -9 -17 -23 -20 -14 -4 15 6 11
17 18 24 15 8 -3 12 0 9 7 -2 7 12 29 31 50 34 37 45 67 26 67 -5 0 -23 -15
-39 -32z"/>
<path d="M3800 5519 c0 -5 5 -7 10 -4 6 3 10 8 10 11 0 2 -4 4 -10 4 -5 0 -10
-5 -10 -11z"/>
<path d="M2927 5501 c3 -12 8 -21 12 -21 4 0 5 -17 3 -39 -2 -23 1 -42 8 -46
9 -6 11 2 8 29 -2 20 -2 36 0 36 8 0 32 -29 32 -39 0 -6 7 -11 15 -11 8 0 15
-4 15 -9 0 -5 9 -11 20 -14 35 -9 22 15 -42 72 -71 65 -78 69 -71 42z"/>
<path d="M3172 5490 c0 -14 2 -19 5 -12 2 6 2 18 0 25 -3 6 -5 1 -5 -13z"/>
<path d="M3845 5500 c3 -5 8 -10 11 -10 2 0 4 5 4 10 0 6 -5 10 -11 10 -5 0
-7 -4 -4 -10z"/>
<path d="M2472 5445 c0 -16 2 -22 5 -12 2 9 2 23 0 30 -3 6 -5 -1 -5 -18z"/>
<path d="M3910 5454 c31 -17 41 -17 35 -1 -3 6 -17 13 -32 14 l-28 1 25 -14z"/>
<path d="M2676 5445 c4 -8 8 -15 10 -15 2 0 4 7 4 15 0 8 -4 15 -10 15 -5 0
-7 -7 -4 -15z"/>
<path d="M3155 5429 c6 -30 45 -55 45 -29 0 6 -7 10 -15 10 -8 0 -15 6 -15 14
0 8 -4 17 -9 21 -6 3 -8 -4 -6 -16z"/>
<path d="M3967 5429 c7 -7 15 -10 18 -7 3 3 -2 9 -12 12 -14 6 -15 5 -6 -5z"/>
<path d="M2440 5418 c0 -19 37 -31 47 -15 3 7 2 9 -2 4 -5 -4 -17 0 -27 10
-16 14 -18 14 -18 1z"/>
<path d="M2590 5420 c0 -5 5 -10 11 -10 5 0 7 5 4 10 -3 6 -8 10 -11 10 -2 0
-4 -4 -4 -10z"/>
<path d="M2830 5410 c-8 -5 -11 -12 -7 -16 4 -4 13 -2 19 4 15 15 7 24 -12 12z"/>
<path d="M3796 5404 c-9 -23 -8 -24 18 -24 14 0 27 -4 30 -9 3 -5 18 -12 33
-16 16 -3 38 -18 51 -32 12 -15 22 -20 22 -13 0 9 5 7 15 -6 9 -12 14 -14 15
-6 0 8 9 25 20 39 11 14 20 30 20 34 0 15 -22 10 -36 -8 -12 -17 -17 -15 -83
20 -78 41 -96 45 -105 21z"/>
<path d="M2763 5372 c-59 -55 -161 -80 -215 -51 -15 8 -19 8 -14 0 4 -6 2 -11
-3 -11 -6 0 -11 -4 -11 -10 0 -5 9 -10 20 -10 11 0 20 -7 20 -15 0 -16 16 -20
24 -6 3 5 15 7 26 4 11 -3 17 -9 14 -14 -3 -5 -1 -9 4 -9 6 0 13 7 16 16 4 10
14 14 26 11 11 -3 22 -2 25 3 2 4 17 10 32 13 31 6 75 58 79 94 1 13 1 23 0
23 -1 0 -20 -17 -43 -38z"/>
<path d="M2098 5386 c-10 -7 -15 -16 -12 -19 7 -7 44 14 44 25 0 12 -13 9 -32
-6z"/>
<path d="M2605 5390 c3 -5 14 -10 23 -10 15 0 15 2 2 10 -20 13 -33 13 -25 0z"/>
<path d="M2190 5379 c0 -5 5 -7 10 -4 6 3 10 8 10 11 0 2 -4 4 -10 4 -5 0 -10
-5 -10 -11z"/>
<path d="M3103 5382 c-24 -2 -43 -7 -43 -11 0 -5 -12 -7 -27 -5 l-28 4 28 -9
c16 -5 34 -14 41 -20 7 -6 15 -8 18 -5 3 3 20 7 38 9 41 5 48 12 29 28 -8 7
-33 11 -56 9z"/>
<path d="M3660 5375 c0 -8 4 -15 10 -15 5 0 7 7 4 15 -4 8 -8 15 -10 15 -2 0
-4 -7 -4 -15z"/>
<path d="M2485 5369 c-4 -6 -5 -12 -2 -15 2 -3 7 2 10 11 7 17 1 20 -8 4z"/>
<path d="M2915 5373 c-55 -10 -111 -28 -123 -40 -7 -7 -10 -13 -5 -13 5 0 14
5 21 12 7 7 12 8 12 4 0 -5 7 -3 16 5 10 8 18 9 22 3 9 -13 124 -14 120 -2 -2
5 -7 8 -10 6 -4 -2 -13 4 -20 13 -7 9 -22 14 -33 12z"/>
<path d="M3390 5375 c0 -5 5 -17 10 -25 5 -8 10 -10 10 -5 0 6 -5 17 -10 25
-5 8 -10 11 -10 5z"/>
<path d="M3200 5361 c0 -16 25 -29 67 -33 33 -3 43 0 46 14 3 9 2 19 -1 22 -9
10 -112 7 -112 -3z"/>
<path d="M3341 5354 c0 -11 3 -14 6 -6 3 7 2 16 -1 19 -3 4 -6 -2 -5 -13z"/>
<path d="M3176 5333 c-6 -14 -5 -15 5 -6 7 7 10 15 7 18 -3 3 -9 -2 -12 -12z"/>
<path d="M3645 5340 c3 -5 8 -10 11 -10 2 0 4 5 4 10 0 6 -5 10 -11 10 -5 0
-7 -4 -4 -10z"/>
<path d="M2265 5330 c3 -5 8 -10 11 -10 2 0 4 5 4 10 0 6 -5 10 -11 10 -5 0
-7 -4 -4 -10z"/>
<path d="M4125 5330 c-3 -5 -1 -10 4 -10 6 0 11 5 11 10 0 6 -2 10 -4 10 -3 0
-8 -4 -11 -10z"/>
<path d="M3754 5315 c-7 -18 4 -37 17 -29 5 3 29 -6 53 -20 43 -25 45 -25 67
-7 20 16 37 61 23 61 -3 0 -17 -9 -30 -19 -25 -20 -25 -20 -61 5 -41 27 -61
30 -69 9z"/>
<path d="M2388 5313 c7 -3 16 -2 19 1 4 3 -2 6 -13 5 -11 0 -14 -3 -6 -6z"/>
<path d="M2080 5300 c0 -5 5 -10 11 -10 5 0 7 5 4 10 -3 6 -8 10 -11 10 -2 0
-4 -4 -4 -10z"/>
<path d="M4010 5300 c0 -5 5 -10 10 -10 6 0 10 5 10 10 0 6 -4 10 -10 10 -5 0
-10 -4 -10 -10z"/>
<path d="M4160 5300 c0 -5 5 -10 11 -10 5 0 7 5 4 10 -3 6 -8 10 -11 10 -2 0
-4 -4 -4 -10z"/>
<path d="M2405 5280 c-3 -6 -18 -8 -33 -4 -25 5 -25 4 -9 -9 20 -17 67 -11 67
9 0 16 -16 19 -25 4z"/>
<path d="M4197 5283 c-12 -11 -8 -23 8 -23 8 0 15 7 15 15 0 16 -12 20 -23 8z"/>
<path d="M2182 5263 c2 -10 11 -19 21 -21 24 -5 21 15 -4 28 -18 10 -20 9 -17
-7z"/>
<path d="M2725 5270 c3 -5 8 -10 11 -10 2 0 4 5 4 10 0 6 -5 10 -11 10 -5 0
-7 -4 -4 -10z"/>
<path d="M2680 5250 c0 -5 5 -10 10 -10 6 0 10 5 10 10 0 6 -4 10 -10 10 -5 0
-10 -4 -10 -10z"/>
<path d="M3623 5246 c3 -16 19 -26 41 -26 24 0 107 -41 101 -50 -2 -4 1 -7 8
-7 7 0 32 -9 57 -20 64 -29 82 -35 75 -22 -4 6 0 18 9 27 10 12 12 22 6 32 -8
12 -13 11 -31 -8 -19 -21 -23 -22 -37 -9 -58 51 -235 115 -229 83z"/>
<path d="M2092 5220 c0 -19 2 -27 5 -17 2 9 2 25 0 35 -3 9 -5 1 -5 -18z"/>
<path d="M4092 5228 c-16 -16 -15 -28 2 -28 7 0 19 -7 26 -15 7 -9 15 -13 18
-10 3 3 16 -2 29 -10 40 -26 29 9 -14 44 -42 35 -44 36 -61 19z"/>
<path d="M2410 5223 c-8 -3 -33 -14 -54 -25 l-40 -20 -17 23 -17 23 -37 -19
c-46 -25 -59 -40 -51 -60 5 -15 9 -14 36 2 16 9 30 21 30 25 0 4 7 8 16 8 9 0
12 -5 8 -12 -4 -7 -3 -10 1 -5 5 4 15 1 24 -7 23 -19 61 -27 55 -11 -3 6 8 20
23 30 15 10 22 12 16 4 -7 -7 -13 -17 -13 -21 0 -13 30 -9 32 5 2 18 5 67 4
66 -1 0 -8 -3 -16 -6z"/>
<path d="M3925 5220 c-5 -9 -4 -15 3 -18 7 -2 12 -11 12 -20 0 -15 2 -15 10
-2 5 8 5 17 1 20 -4 3 -10 12 -13 20 -4 12 -6 12 -13 0z"/>
<path d="M1946 5205 c4 -8 11 -15 16 -15 6 0 5 6 -2 15 -7 8 -14 15 -16 15 -2
0 -1 -7 2 -15z"/>
<path d="M1845 5200 c3 -5 11 -10 16 -10 6 0 7 5 4 10 -3 6 -11 10 -16 10 -6
0 -7 -4 -4 -10z"/>
<path d="M1971 5177 c2 -1 13 -9 24 -17 19 -14 19 -14 6 3 -7 9 -18 17 -24 17
-6 0 -8 -1 -6 -3z"/>
<path d="M2040 5161 c0 -12 5 -21 10 -21 6 0 10 6 10 14 0 8 -4 18 -10 21 -5
3 -10 -3 -10 -14z"/>
<path d="M4280 5156 c0 -33 -65 -88 -100 -84 -24 3 -25 1 -25 -54 1 -64 -5
-68 -54 -41 -35 21 -41 17 -34 -20 4 -20 9 -25 18 -17 9 7 16 6 25 -5 22 -27
48 -18 55 18 3 17 5 43 3 57 -3 22 1 25 32 27 21 1 41 9 51 22 9 11 19 17 23
14 3 -4 6 5 6 19 0 14 6 28 14 31 9 4 12 14 9 27 -8 30 -23 35 -23 6z"/>
<path d="M4014 5126 c-30 -37 -51 -45 -72 -24 -6 6 -15 9 -18 5 -12 -12 6 -37
33 -47 16 -6 36 -15 45 -20 22 -12 38 -13 19 -1 -8 6 -11 16 -6 31 5 15 10 19
14 11 10 -16 39 -3 47 21 4 13 -1 27 -14 40 -19 20 -20 20 -48 -16z m46 -20
c0 -8 -4 -18 -10 -21 -5 -3 -10 3 -10 14 0 12 5 21 10 21 6 0 10 -6 10 -14z"/>
<path d="M2266 5141 c-3 -5 1 -12 10 -15 22 -8 25 -4 9 11 -8 7 -16 9 -19 4z"/>
<path d="M1840 5121 c0 -6 5 -13 10 -16 6 -3 10 1 10 9 0 9 -4 16 -10 16 -5 0
-10 -4 -10 -9z"/>
<path d="M2909 5128 c0 -2 -2 -27 -3 -56 -2 -29 -7 -57 -12 -62 -5 -5 -35 -11
-67 -14 -32 -2 -64 -10 -72 -16 -8 -7 -19 -9 -24 -6 -5 4 -12 2 -16 -4 -13
-21 -54 -10 -75 19 -11 16 -30 31 -43 33 -20 3 -92 -27 -121 -51 -20 -16 -86
-51 -98 -51 -7 0 -7 4 1 14 10 12 9 14 -7 9 -13 -3 -18 -11 -15 -27 3 -16 -3
-26 -22 -36 -23 -12 -26 -19 -21 -45 16 -77 16 -76 -66 -159 -76 -76 -79 -78
-116 -71 -20 4 -42 8 -49 9 -7 1 -15 5 -19 9 -4 4 -12 -3 -19 -16 -25 -46 -58
-103 -74 -127 -27 -39 -61 -118 -61 -140 0 -11 -4 -20 -10 -20 -5 0 -14 -9
-20 -20 -9 -16 -8 -20 5 -20 8 0 15 7 15 15 0 23 19 18 30 -7 5 -13 9 -16 9
-8 1 10 5 8 16 -6 14 -20 11 -48 -13 -114 -8 -25 -10 -33 -19 -79 -5 -25 -14
-46 -22 -49 -8 -3 -11 0 -7 7 4 6 3 11 -3 11 -5 0 -14 -8 -20 -17 -10 -19 -62
-23 -116 -9 l-30 7 22 -22 c18 -18 25 -20 37 -10 8 7 17 8 20 3 9 -15 -5 -22
-50 -22 -55 0 -64 -21 -27 -65 41 -48 133 -95 188 -95 25 0 45 -4 45 -10 0 -5
-7 -10 -16 -10 -8 0 -12 -5 -9 -10 4 -6 10 -8 15 -5 4 3 10 -2 14 -10 3 -9 0
-15 -9 -15 -8 0 -24 -9 -36 -21 -17 -17 -25 -19 -47 -10 -15 5 -51 13 -80 16
-40 5 -52 11 -48 21 7 18 -2 18 -20 -1 -9 -8 -33 -15 -55 -15 -21 0 -39 -5
-39 -11 0 -17 92 -101 129 -116 23 -10 60 -14 110 -11 l76 3 3 -28 c2 -15 -1
-27 -7 -27 -6 0 -20 -9 -32 -21 -17 -17 -25 -19 -47 -11 -42 16 -133 23 -175
13 -43 -10 -58 -21 -39 -28 8 -3 28 -21 45 -40 45 -49 82 -66 162 -72 55 -5
69 -9 66 -21 -22 -85 -22 -113 -2 -134 15 -16 19 -30 15 -59 -3 -29 1 -45 16
-65 15 -18 19 -34 15 -54 -11 -49 69 -107 82 -59 7 26 33 15 33 -14 0 -12 -7
-28 -15 -35 -8 -7 -15 -23 -15 -36 0 -13 -6 -24 -12 -24 -52 0 -210 -113 -194
-138 3 -6 36 -14 72 -17 82 -9 134 9 198 69 l46 43 45 -46 c48 -49 50 -53 35
-80 -14 -27 20 -55 57 -47 l28 6 -27 -22 c-15 -13 -30 -35 -33 -50 -4 -16 -11
-26 -15 -23 -4 2 -5 -12 -2 -33 2 -20 5 -51 6 -69 1 -20 5 -28 11 -23 7 6 16
1 24 -11 11 -19 10 -20 -8 -14 -12 4 -21 2 -21 -4 0 -6 5 -11 10 -11 6 0 10
-8 10 -17 0 -14 2 -15 9 -5 10 17 100 -31 131 -70 19 -25 20 -30 6 -43 -8 -9
-32 -16 -53 -16 -278 -2 -292 -3 -309 -27 -12 -18 -13 -26 -4 -37 7 -8 9 -15
4 -15 -5 0 -9 -16 -10 -35 0 -22 3 -31 8 -23 4 7 8 9 8 3 0 -29 -20 -33 -157
-36 -78 -2 -145 0 -148 3 -9 8 -54 -15 -60 -30 -6 -15 17 -42 35 -42 7 0 9 -7
6 -16 -4 -11 -1 -14 13 -12 11 2 53 -19 93 -46 83 -55 83 -60 4 -101 -21 -11
-43 -28 -50 -37 -6 -10 -16 -18 -23 -18 -18 0 -16 5 12 36 31 33 26 43 -9 17
-31 -22 -41 -44 -25 -54 14 -9 3 -29 -17 -29 -24 0 -16 -40 11 -50 13 -5 100
-9 192 -8 346 3 413 0 413 -18 0 -11 5 -14 16 -10 9 3 22 6 30 6 8 0 14 7 14
15 0 8 7 15 15 15 17 0 38 70 29 94 -3 9 -1 16 5 16 6 0 11 -5 11 -11 0 -5 5
-7 10 -4 13 8 1218 7 1231 -1 6 -3 8 -12 5 -20 -3 -7 0 -27 5 -44 8 -22 17
-30 34 -30 13 0 27 -5 30 -10 4 -6 13 -7 23 -2 21 11 551 10 572 -1 10 -5 28
4 54 25 l39 32 -39 11 c-28 8 -40 17 -42 33 -2 12 -8 22 -14 22 -18 0 -83 34
-108 57 -14 13 -19 23 -12 23 8 0 20 7 29 15 8 8 19 12 25 9 10 -6 48 28 48
44 0 6 16 17 35 26 19 9 37 21 40 26 3 6 12 10 18 10 7 0 3 -7 -7 -15 -11 -8
-17 -18 -13 -21 14 -14 38 27 35 58 -3 31 -5 33 -41 32 -28 -1 -37 2 -33 12 4
10 0 11 -21 3 -35 -13 -158 -21 -210 -13 l-43 6 0 74 c0 60 -3 75 -17 83 -10
5 -111 8 -226 7 -144 -2 -203 0 -190 7 26 14 155 136 198 188 12 14 22 42 23
66 3 48 -22 119 -46 128 -13 5 -10 9 16 20 33 14 42 41 21 62 -9 9 -2 23 27
57 22 25 44 45 49 46 6 0 33 -18 60 -41 79 -65 99 -72 182 -65 82 6 114 21
112 51 -1 17 -2 17 -6 3 -6 -26 -19 -22 -59 15 -37 33 -71 54 -137 83 -21 10
-36 22 -34 28 3 6 -7 23 -21 39 -24 25 -25 29 -10 43 14 15 18 15 41 -1 24
-16 27 -15 46 4 13 13 21 34 21 55 0 18 9 45 20 59 16 20 19 34 14 64 -5 31
-2 42 15 57 17 15 19 26 14 65 -3 25 -10 50 -14 55 -21 23 -6 32 57 34 85 4
105 12 160 64 25 24 50 45 55 46 5 2 9 9 9 17 0 26 -147 26 -229 0 -23 -7 -92
51 -84 71 4 11 26 14 92 14 70 0 93 4 121 21 49 29 112 101 100 113 -18 18
-185 6 -243 -19 -14 -6 -20 -2 -24 14 -4 14 -13 21 -30 21 -21 0 -24 4 -21 28
3 25 7 27 51 30 28 2 47 -1 47 -7 0 -16 46 -13 60 4 6 8 9 18 6 24 -4 5 17 32
46 59 60 57 61 82 3 82 -19 0 -35 4 -35 10 0 12 -65 40 -91 40 -15 0 -19 8
-19 39 0 22 5 43 10 46 6 3 10 12 10 18 0 7 -5 4 -11 -6 -15 -26 -31 -10 -27
30 1 21 -3 37 -11 42 -8 5 -11 16 -8 24 3 9 -1 18 -9 21 -12 5 -12 9 -2 26 7
11 17 20 22 20 12 0 35 32 36 48 0 8 -16 46 -35 86 -19 40 -36 84 -36 97 -1
18 -2 20 -6 6 -4 -14 -13 -6 -39 37 -37 59 -29 56 -120 41 -26 -5 -35 1 -74
45 -24 27 -50 50 -57 50 -7 0 -13 5 -13 11 0 13 -21 34 -39 40 -11 4 -10 8 3
22 10 9 13 17 8 17 -6 0 -7 14 -2 35 4 20 4 38 -1 41 -5 3 -9 14 -9 25 0 10
-5 19 -11 19 -5 0 -7 -5 -3 -11 4 -8 1 -8 -14 0 -14 7 -19 17 -16 29 4 11 3
13 -3 5 -7 -9 -13 -9 -30 0 -150 84 -193 94 -235 52 -28 -28 -52 -28 -127 0
-24 8 -59 16 -77 17 -29 1 -37 7 -50 34 -9 18 -17 40 -18 48 -1 9 -7 21 -12
26 -11 11 -300 17 -311 7 -10 -11 -35 -8 -28 3 3 6 4 10 1 10 -3 0 -6 -1 -7
-2z m302 -50 c9 -4 20 -20 24 -35 12 -53 31 -70 82 -78 26 -3 81 -18 121 -31
l74 -24 34 30 c19 16 45 30 57 30 20 0 155 -70 201 -105 18 -13 18 -19 8 -65
l-12 -50 98 -96 97 -95 52 6 c49 6 52 5 77 -27 21 -28 106 -175 106 -183 0 -2
-15 -22 -34 -44 l-35 -42 15 -47 c8 -26 24 -81 35 -122 12 -41 23 -81 25 -88
2 -7 17 -15 34 -18 47 -10 56 -29 24 -51 -14 -10 -46 -35 -69 -56 -49 -43 -61
-37 -45 24 12 43 6 109 -9 109 -12 0 -21 -37 -21 -82 0 -22 -5 -38 -12 -38
-22 0 -48 33 -48 62 0 57 -54 247 -74 260 -8 5 -4 21 12 49 54 94 10 169 -99
169 -21 0 -39 3 -39 8 0 9 -109 122 -168 175 -35 31 -41 42 -36 63 8 32 -12
79 -42 99 -33 21 -89 19 -122 -5 l-28 -21 -69 26 c-39 14 -102 32 -141 40 -94
19 -104 24 -104 45 0 29 -48 60 -92 60 -39 0 -75 -25 -103 -73 -7 -11 -36 -22
-85 -31 -41 -8 -106 -26 -143 -40 l-68 -26 -49 26 c-45 23 -50 24 -83 11 -46
-20 -63 -46 -66 -103 -2 -38 -7 -50 -34 -72 -27 -22 -124 -119 -173 -173 -11
-12 -26 -16 -53 -12 -30 4 -43 0 -69 -22 -42 -36 -41 -53 1 -21 45 34 81 33
118 -3 31 -32 34 -46 19 -85 -9 -26 -56 -56 -85 -56 -26 0 -75 55 -75 84 0 14
-4 26 -10 26 -16 0 -12 -30 11 -76 l20 -43 -30 -95 c-17 -53 -34 -121 -37
-152 -5 -38 -12 -58 -23 -61 -9 -4 -24 -13 -33 -20 -23 -20 -38 -8 -37 30 1
18 -3 43 -9 57 l-10 25 -11 -27 c-7 -19 -7 -44 -1 -79 6 -28 7 -55 4 -60 -6
-11 -124 89 -124 105 0 6 21 18 48 26 l47 16 17 82 c10 45 25 99 33 118 21 52
19 69 -15 104 -16 17 -30 36 -30 42 0 12 60 122 99 182 l25 38 56 -6 55 -6 75
76 c41 42 83 80 93 86 16 8 17 18 12 71 -7 70 -18 58 115 134 41 24 84 43 95
43 12 0 37 -13 55 -30 39 -35 31 -33 77 -16 21 8 72 22 113 31 97 21 100 23
119 75 13 36 23 46 46 52 39 9 206 6 226 -4z m-65 -192 c47 -54 13 -136 -56
-136 -35 0 -90 46 -90 75 0 24 27 73 47 83 30 17 75 7 99 -22z m-150 -95 c43
-72 142 -72 179 0 15 29 18 30 63 23 96 -13 231 -56 244 -77 4 -7 8 -26 8 -43
0 -66 82 -105 156 -74 30 13 33 12 89 -33 58 -48 145 -146 145 -164 0 -5 -6
-23 -14 -39 -32 -65 18 -144 90 -144 32 0 37 -4 57 -47 11 -27 22 -52 23 -58
1 -5 9 -37 18 -70 29 -107 20 -131 -34 -100 -24 14 -110 21 -110 9 0 -10 44
-68 70 -92 33 -30 129 -73 154 -70 26 4 33 -29 13 -56 -13 -17 -16 -17 -38 -3
-63 41 -229 76 -229 48 0 -4 21 -37 48 -72 45 -60 51 -65 112 -81 36 -10 77
-20 91 -23 19 -3 28 -13 32 -31 4 -22 0 -28 -26 -39 -32 -13 -36 -12 -132 31
-16 7 -52 14 -80 16 -60 3 -63 -7 -20 -73 36 -56 79 -88 137 -100 71 -16 73
-17 57 -37 -43 -54 -49 -92 -19 -120 19 -18 19 -18 -11 -36 -27 -16 -30 -22
-25 -50 5 -28 3 -33 -25 -45 -29 -12 -30 -16 -27 -63 3 -48 2 -50 -35 -71 -29
-17 -39 -19 -45 -9 -19 30 -212 76 -226 54 -8 -13 58 -110 91 -135 17 -13 61
-29 97 -36 36 -7 66 -16 66 -20 0 -3 -14 -19 -31 -36 -27 -26 -32 -28 -60 -18
-26 10 -33 9 -50 -8 -13 -13 -18 -27 -14 -40 4 -13 2 -19 -8 -19 -9 0 -17 5
-19 11 -5 15 -96 23 -112 10 -7 -6 -25 -12 -40 -13 -14 -1 -26 -8 -26 -15 0
-21 -38 -25 -77 -7 -70 32 -91 52 -109 107 -20 60 -23 217 -5 257 24 52 39 72
45 61 12 -18 44 -12 66 12 16 16 21 32 18 60 -4 42 -1 44 19 20 14 -17 14 -17
8 1 -3 11 0 23 7 27 9 6 5 11 -12 17 l-25 9 25 8 c14 5 34 9 45 9 17 1 21 10
25 58 3 35 1 60 -5 62 -5 3 31 5 80 6 139 3 163 6 180 20 14 12 14 15 -2 32
-10 11 -13 22 -8 26 16 12 18 45 3 39 -23 -8 -83 134 -65 152 6 6 7 14 3 18
-4 4 -11 1 -16 -7 -7 -12 -11 -7 -16 18 -4 18 -11 35 -15 38 -14 8 -11 24 5
24 8 0 16 7 20 15 4 13 2 13 -14 5 -27 -14 -56 -12 -70 5 -13 16 -70 21 -70 6
0 -4 9 -20 20 -34 11 -14 20 -30 20 -36 0 -9 21 -62 40 -101 4 -9 11 -31 15
-50 9 -39 22 -65 49 -97 11 -13 17 -26 14 -29 -4 -3 -142 -7 -309 -10 -249 -3
-306 -7 -319 -19 -26 -24 -73 -28 -113 -11 -20 8 -37 19 -37 23 0 4 -136 10
-303 11 -166 2 -304 5 -306 7 -1 2 11 21 27 42 17 21 33 54 37 73 7 39 8 42
59 153 20 43 36 80 36 82 0 10 -42 4 -69 -10 -26 -13 -30 -13 -46 5 -19 21
-50 26 -59 11 -4 -5 2 -7 11 -5 10 3 26 -1 37 -9 18 -13 18 -14 0 -48 -10 -19
-17 -38 -15 -43 1 -6 -2 -19 -8 -30 -5 -12 -17 -38 -26 -58 -10 -21 -22 -35
-27 -32 -6 4 -8 -2 -3 -15 8 -27 -14 -59 -26 -39 -7 10 -9 9 -9 -4 0 -9 5 -20
11 -23 7 -5 5 -15 -5 -31 -9 -13 -16 -28 -16 -33 0 -13 50 -23 162 -30 l97 -6
-12 -25 c-9 -17 -10 -31 -4 -45 6 -11 13 -27 17 -35 4 -8 17 -17 29 -20 28 -6
29 -24 1 -28 -36 -6 -21 -18 17 -14 36 5 36 4 30 -27 -8 -41 5 -73 37 -90 14
-8 26 -21 26 -30 1 -13 3 -13 15 3 21 28 41 13 60 -43 15 -46 21 -167 11 -216
-3 -11 -5 -25 -5 -30 -1 -6 -21 -32 -45 -57 -59 -63 -103 -75 -167 -46 -26 12
-45 26 -42 31 3 5 -3 7 -13 4 -11 -3 -37 -9 -59 -13 -22 -4 -53 -13 -69 -21
l-29 -15 6 31 c5 24 2 35 -15 51 -24 22 -38 26 -38 10 0 -5 -12 -10 -27 -9
-19 0 -37 12 -56 35 l-29 34 24 0 c33 1 107 23 143 42 31 16 105 114 105 137
0 19 -95 10 -139 -12 -19 -9 -40 -17 -46 -17 -7 0 -23 -9 -37 -20 -18 -14 -28
-16 -36 -8 -8 8 -5 16 11 29 12 10 17 18 11 19 -6 0 -17 -7 -24 -15 -30 -36
-72 6 -51 52 13 29 1 59 -29 68 -15 5 -20 15 -20 40 0 26 -6 39 -25 51 -23 15
-24 19 -12 38 22 34 27 66 11 66 -8 0 -14 9 -14 19 0 11 -4 23 -10 26 -25 15
-8 34 38 41 65 9 92 25 127 74 17 23 36 47 43 55 6 7 12 21 12 29 0 21 -77 22
-127 1 -19 -8 -39 -15 -44 -15 -5 0 -9 7 -9 15 0 8 9 15 19 15 11 0 23 5 26
10 3 6 -3 10 -14 10 -23 0 -51 -25 -51 -45 0 -20 -31 -33 -60 -26 -19 5 -26
14 -28 39 -2 18 0 32 5 32 31 1 150 32 170 45 13 9 44 44 69 78 l45 62 -46 3
c-49 3 -128 -18 -183 -49 -40 -23 -64 -15 -60 20 2 21 10 27 38 32 36 6 97 38
141 74 26 21 69 78 69 90 0 4 -30 5 -66 1 l-67 -7 7 48 c4 26 9 55 10 63 5 33
21 77 40 115 19 35 26 41 65 46 79 10 110 72 76 153 l-16 37 100 100 c95 95
124 112 148 88 5 -5 32 -9 58 -7 54 3 82 30 88 84 2 17 7 36 10 41 13 20 206
79 269 82 9 1 25 -12 34 -28z m-348 -37 c44 -51 18 -120 -50 -131 -33 -5 -41
-2 -68 27 -38 41 -37 74 5 113 36 34 78 31 113 -9z m979 16 c74 -44 39 -150
-48 -150 -26 0 -79 52 -79 77 1 27 24 64 51 79 32 18 39 17 76 -6z m390 -389
c29 -44 29 -54 -4 -90 -42 -45 -73 -49 -111 -13 -41 39 -43 83 -5 118 40 37
90 30 120 -15z m-1561 -719 c-10 -10 -16 -12 -16 -5 0 7 5 15 10 18 6 3 11 16
11 28 2 21 2 21 6 -2 3 -13 -2 -30 -11 -39z m-16 -39 c0 -5 -5 -15 -10 -23 -8
-12 -10 -11 -10 8 0 12 5 22 10 22 6 0 10 -3 10 -7z m-30 -68 c-7 -9 -15 -13
-17 -11 -7 7 7 26 19 26 6 0 6 -6 -2 -15z m787 -421 c-3 -3 -12 -4 -19 -1 -8
3 -5 6 6 6 11 1 17 -2 13 -5z m-203 -107 c4 -57 4 -126 1 -153 -3 -27 -2 -83
3 -124 11 -92 6 -113 -21 -106 -11 3 -29 0 -39 -5 -28 -15 -44 -6 -25 13 9 8
13 18 10 22 -4 3 -2 16 4 29 33 69 53 209 48 335 -2 50 0 92 4 92 5 0 11 -47
15 -103z m193 56 c-3 -10 -5 -4 -5 12 0 17 2 24 5 18 2 -7 2 -21 0 -30z m3
-122 c0 -92 21 -211 46 -260 16 -32 16 -35 0 -46 -9 -7 -31 -12 -48 -11 -32 2
-32 2 -32 56 0 30 4 114 9 185 5 72 9 136 8 143 0 6 3 12 8 12 5 0 9 -36 9
-79z m548 -259 c30 -9 24 -27 -8 -27 -14 0 -28 5 -32 10 -4 6 -8 2 -8 -9 0
-12 -5 -16 -16 -12 -9 3 -22 6 -30 6 -8 0 -14 7 -14 16 0 12 6 15 26 10 17 -5
23 -3 19 4 -7 11 26 12 63 2z m-1200 -22 l22 -21 -21 -22 c-20 -22 -21 -22
-35 -2 -10 13 -11 21 -4 23 6 2 1 13 -11 23 l-22 19 25 0 c13 0 34 -9 46 -20z
m-98 3 c-8 -3 -19 -13 -24 -21 -7 -12 -10 -12 -17 -1 -11 19 -1 29 29 28 16 0
21 -3 12 -6z m1222 -37 c4 -5 4 -14 2 -18 -6 -9 -54 20 -54 32 0 11 43 -1 52
-14z m153 -6 c-5 -8 -11 -8 -17 -2 -6 6 -7 16 -3 22 5 8 11 8 17 2 6 -6 7 -16
3 -22z m-1439 -17 c-7 -7 -26 7 -26 19 0 6 6 6 15 -2 9 -7 13 -15 11 -17z
m904 11 c0 -2 -7 -4 -15 -4 -8 0 -15 4 -15 10 0 5 7 7 15 4 8 -4 15 -8 15 -10z
m563 -9 c4 -8 2 -17 -3 -20 -15 -9 -12 -25 5 -25 16 0 20 -28 7 -45 -4 -6 -19
-11 -34 -12 -23 -1 -26 2 -19 16 5 9 12 35 16 59 7 43 18 54 28 27z m-1483
-50 c0 -19 5 -37 10 -40 6 -3 10 -11 10 -17 0 -6 -3 -8 -7 -5 -3 4 -12 2 -20
-5 -11 -8 -17 -7 -28 8 -13 17 -12 35 1 86 8 29 34 9 34 -27z m1251 -1 c7 -9
25 -21 39 -26 15 -6 20 -12 12 -15 -7 -3 -24 2 -37 11 -13 9 -32 16 -42 17
-11 0 -13 3 -5 6 6 2 10 9 6 14 -9 16 13 10 27 -7z m-1021 -2 c0 -13 -12 -22
-22 -16 -10 6 -1 24 13 24 5 0 9 -4 9 -8z m693 -3 c91 -14 109 -23 83 -42 -18
-13 -18 -14 0 -14 11 0 27 7 37 15 14 13 21 13 41 2 13 -7 30 -9 37 -5 8 5 10
4 5 -3 -5 -8 3 -12 23 -12 16 0 42 -5 56 -10 24 -9 26 -12 14 -27 -13 -17 -12
-17 12 -1 15 9 30 13 35 9 5 -4 35 -13 67 -20 31 -7 57 -17 57 -23 0 -9 -22
-32 -95 -98 -19 -18 -22 -18 -103 8 -50 16 -80 31 -78 39 3 6 -4 13 -14 16
-14 3 -17 1 -13 -11 5 -11 2 -14 -8 -10 -42 16 -257 41 -344 40 -216 -3 -331
-19 -451 -64 -57 -21 -155 -22 -162 0 -2 6 3 12 12 12 9 0 16 -5 16 -12 0 -6
3 -8 7 -5 3 4 -2 16 -12 27 -13 14 -21 17 -26 9 -7 -13 -29 -4 -29 12 0 6 5 7
10 4 6 -3 10 -2 10 4 0 6 -9 15 -19 20 -16 9 -18 8 -13 -11 l5 -21 -21 21
c-12 12 -22 24 -22 26 0 2 18 6 41 10 23 4 54 13 70 21 32 17 99 20 99 5 0 -5
7 -10 15 -10 12 0 13 4 6 19 -9 16 -7 20 13 23 17 4 23 1 19 -9 -7 -19 12 -16
28 4 10 11 10 14 2 9 -7 -4 -13 -3 -13 2 0 5 15 13 33 16 17 4 59 12 92 18 33
7 88 12 122 13 33 0 56 3 50 7 -19 12 224 9 306 -3z m447 -49 c0 -5 -4 -10 -9
-10 -6 0 -13 5 -16 10 -3 6 1 10 9 10 9 0 16 -4 16 -10z m-451 -175 c78 -8
149 -20 159 -26 9 -5 44 -18 77 -28 60 -17 57 -17 -375 -18 -439 -1 -490 1
-490 20 0 6 3 8 6 4 4 -3 22 0 42 9 19 8 37 12 40 9 3 -3 11 0 18 6 7 6 56 13
109 16 53 3 97 9 99 12 9 13 181 11 315 -4z m-820 -66 c-22 -14 -33 -10 -19 6
7 8 17 12 22 9 6 -4 5 -10 -3 -15z m1631 -179 c3 -74 7 -117 8 -95 1 23 7 46
14 53 18 18 278 17 278 -1 0 -7 -41 -39 -90 -72 -50 -33 -89 -66 -88 -73 2 -7
39 -39 82 -70 44 -31 81 -63 84 -69 6 -19 -591 -19 -607 0 -6 8 -8 17 -4 20 3
4 72 7 153 7 133 0 148 2 168 20 23 22 25 33 13 64 -7 18 -8 18 -14 3 -6 -16
-79 -17 -991 -17 -646 0 -987 3 -991 10 -12 20 -25 10 -25 -19 0 -53 25 -61
193 -61 136 0 148 -1 145 -17 -3 -17 -27 -18 -306 -21 -197 -1 -302 1 -302 8
0 5 38 38 85 72 47 34 85 67 85 72 0 6 -41 38 -90 70 -50 32 -89 64 -87 70 5
14 256 21 270 7 6 -6 9 -33 8 -61 -1 -27 3 -50 8 -50 5 0 10 60 10 136 1 75 3
140 7 145 3 5 404 8 992 7 l987 -3 5 -135z m-1669 -256 c21 -25 -12 -28 -266
-24 -37 0 -60 14 -50 30 10 16 302 11 316 -6z m1665 4 c3 -5 3 -12 -1 -16 -9
-9 -208 -18 -268 -12 -51 5 -63 21 -25 32 36 10 287 7 294 -4z m-1696 -128 c0
-5 -5 -10 -11 -10 -5 0 -7 5 -4 10 3 6 8 10 11 10 2 0 4 -4 4 -10z"/>
<path d="M2890 4550 c0 -22 53 -200 58 -195 6 6 -38 188 -49 200 -6 5 -9 4 -9
-5z"/>
<path d="M3255 4490 c-22 -89 -14 -114 9 -29 9 35 20 72 22 82 3 9 1 17 -4 17
-6 0 -18 -31 -27 -70z"/>
<path d="M2547 4365 c22 -32 149 -155 159 -155 12 0 -98 120 -139 152 l-42 33
22 -30z"/>
<path d="M3080 4347 c0 -30 4 -46 10 -42 13 8 13 55 0 75 -7 11 -10 2 -10 -33z"/>
<path d="M3552 4305 c-91 -88 -104 -119 -16 -37 58 54 119 122 110 122 -4 0
-46 -38 -94 -85z"/>
<path d="M3358 4313 c-22 -25 -51 -84 -44 -90 5 -6 66 85 66 99 0 12 -5 10
-22 -9z"/>
<path d="M2810 4308 c0 -17 40 -82 46 -75 6 5 -33 87 -41 87 -3 0 -5 -6 -5
-12z"/>
<path d="M2600 4112 c0 -9 81 -62 94 -62 20 0 -1 21 -44 44 -27 15 -50 23 -50
18z"/>
<path d="M3523 4092 c-24 -15 -43 -30 -43 -35 0 -8 64 23 95 47 35 27 -6 18
-52 -12z"/>
<path d="M2378 4014 c40 -18 162 -44 162 -35 0 3 -35 16 -78 29 -90 25 -136
29 -84 6z"/>
<path d="M3716 4010 c-32 -10 -63 -23 -68 -28 -10 -10 120 19 162 36 l25 11
-30 -1 c-16 0 -56 -8 -89 -18z"/>
<path d="M3450 3880 c0 -5 5 -10 11 -10 5 0 7 5 4 10 -3 6 -8 10 -11 10 -2 0
-4 -4 -4 -10z"/>
<path d="M2315 3810 c-18 -8 -17 -9 7 -9 15 -1 30 4 33 9 7 12 -12 12 -40 0z"/>
<path d="M3800 3812 c0 -14 35 -21 51 -11 11 7 11 9 -3 9 -9 0 -23 3 -32 6 -9
3 -16 2 -16 -4z"/>
<path d="M2010 3780 c0 -5 4 -10 9 -10 6 0 13 5 16 10 3 6 -1 10 -9 10 -9 0
-16 -4 -16 -10z"/>
<path d="M2352 3756 c7 -8 15 -12 17 -11 5 6 -10 25 -20 25 -5 0 -4 -6 3 -14z"/>
<path d="M3830 3730 c0 -5 5 -10 11 -10 5 0 7 5 4 10 -3 6 -8 10 -11 10 -2 0
-4 -4 -4 -10z"/>
<path d="M2250 3711 c-7 -15 -7 -21 0 -21 12 0 25 28 17 36 -3 3 -10 -4 -17
-15z"/>
<path d="M2365 3720 c3 -5 8 -10 11 -10 2 0 4 5 4 10 0 6 -5 10 -11 10 -5 0
-7 -4 -4 -10z"/>
<path d="M3905 3690 c3 -5 8 -10 11 -10 2 0 4 5 4 10 0 6 -5 10 -11 10 -5 0
-7 -4 -4 -10z"/>
<path d="M2215 3671 c-3 -5 -2 -12 3 -15 5 -3 9 1 9 9 0 17 -3 19 -12 6z"/>
<path d="M2272 3659 c-7 -11 -8 -19 -2 -19 5 0 10 5 10 11 0 5 5 7 10 4 6 -3
10 -2 10 4 0 19 -16 19 -28 0z"/>
<path d="M3066 3565 c-3 -9 1 -18 10 -22 19 -7 28 2 21 22 -8 19 -23 19 -31 0z"/>
<path d="M2250 3490 c0 -5 5 -10 10 -10 6 0 10 5 10 10 0 6 -4 10 -10 10 -5 0
-10 -4 -10 -10z"/>
<path d="M2212 3435 c-7 -8 -9 -15 -4 -15 5 0 15 7 22 15 16 19 -1 19 -18 0z"/>
<path d="M3890 3441 c0 -4 11 -6 25 -3 14 2 25 6 25 8 0 2 -11 4 -25 4 -14 0
-25 -4 -25 -9z"/>
<path d="M3843 3423 c9 -2 23 -2 30 0 6 3 -1 5 -18 5 -16 0 -22 -2 -12 -5z"/>
<path d="M2370 3406 c0 -2 7 -6 15 -10 8 -3 15 -1 15 4 0 6 -7 10 -15 10 -8 0
-15 -2 -15 -4z"/>
<path d="M2130 3340 c0 -11 4 -20 9 -20 11 0 22 26 14 34 -12 12 -23 5 -23
-14z"/>
<path d="M3620 3294 c0 -8 5 -12 10 -9 6 3 10 10 10 16 0 5 -4 9 -10 9 -5 0
-10 -7 -10 -16z"/>
<path d="M3580 3270 c-9 -6 -10 -10 -3 -10 6 0 15 5 18 10 8 12 4 12 -15 0z"/>
<path d="M2515 3180 c-3 -5 -1 -10 4 -10 6 0 11 5 11 10 0 6 -2 10 -4 10 -3 0
-8 -4 -11 -10z"/>
<path d="M2550 3180 c0 -5 5 -10 11 -10 5 0 7 5 4 10 -3 6 -8 10 -11 10 -2 0
-4 -4 -4 -10z"/>
<path d="M3527 3163 c-4 -3 -7 -11 -7 -17 0 -6 5 -5 12 2 6 6 9 14 7 17 -3 3
-9 2 -12 -2z"/>
<path d="M2180 3140 c0 -5 5 -10 10 -10 6 0 10 5 10 10 0 6 -4 10 -10 10 -5 0
-10 -4 -10 -10z"/>
<path d="M2470 3114 c0 -3 7 -12 15 -20 16 -17 18 -14 9 10 -6 15 -24 23 -24
10z"/>
<path d="M3660 3110 c20 -13 33 -13 25 0 -3 6 -14 10 -23 10 -15 0 -15 -2 -2
-10z"/>
<path d="M2355 3090 c-4 -7 3 -8 22 -4 38 9 42 14 10 14 -14 0 -29 -5 -32 -10z"/>
<path d="M3708 3093 c7 -3 16 -2 19 1 4 3 -2 6 -13 5 -11 0 -14 -3 -6 -6z"/>
<path d="M3790 3090 c-12 -8 -11 -10 8 -10 12 0 22 5 22 10 0 13 -11 13 -30 0z"/>
<path d="M2745 3070 c3 -5 8 -10 11 -10 2 0 4 5 4 10 0 6 -5 10 -11 10 -5 0
-7 -4 -4 -10z"/>
<path d="M2751 3024 c0 -11 3 -14 6 -6 3 7 2 16 -1 19 -3 4 -6 -2 -5 -13z"/>
<path d="M3396 2983 c6 -77 14 -80 14 -5 0 34 -4 62 -9 62 -5 0 -7 -26 -5 -57z"/>
<path d="M2481 2987 c-9 -12 -8 -16 3 -20 19 -7 32 11 19 24 -6 6 -14 5 -22
-4z"/>
<path d="M3717 2910 c-3 -13 0 -20 9 -20 15 0 19 26 5 34 -5 3 -11 -3 -14 -14z"/>
<path d="M2390 2890 c-9 -6 -10 -10 -3 -10 6 0 15 5 18 10 8 12 4 12 -15 0z"/>
<path d="M3421 2874 c0 -11 3 -14 6 -6 3 7 2 16 -1 19 -3 4 -6 -2 -5 -13z"/>
<path d="M2350 2855 c-8 -9 -8 -15 -2 -15 12 0 26 19 19 26 -2 2 -10 -2 -17
-11z"/>
<path d="M3781 2865 c-2 -24 14 -31 39 -17 l25 13 -27 -4 c-15 -2 -29 1 -32 7
-2 6 -5 7 -5 1z"/>
<path d="M2298 2853 c6 -2 18 -2 25 0 6 3 1 5 -13 5 -14 0 -19 -2 -12 -5z"/>
<path d="M3420 2810 c0 -5 5 -10 10 -10 6 0 10 5 10 10 0 6 -4 10 -10 10 -5 0
-10 -4 -10 -10z"/>
<path d="M2470 2789 c0 -5 5 -7 10 -4 6 3 10 8 10 11 0 2 -4 4 -10 4 -5 0 -10
-5 -10 -11z"/>
<path d="M3585 2782 c-17 -9 -24 -17 -17 -20 7 -2 19 2 27 8 8 7 22 9 31 6 10
-4 14 -1 12 6 -6 17 -20 18 -53 0z"/>
<path d="M2686 2781 c-4 -5 -2 -12 3 -15 5 -4 12 -2 15 3 4 5 2 12 -3 15 -5 4
-12 2 -15 -3z"/>
<path d="M2560 2765 c-10 -13 -9 -15 8 -15 15 0 20 5 16 15 -4 8 -7 15 -9 15
-1 0 -8 -7 -15 -15z"/>
<path d="M2645 2740 c-3 -5 -2 -10 4 -10 5 0 13 5 16 10 3 6 2 10 -4 10 -5 0
-13 -4 -16 -10z"/>
<path d="M3508 2743 c6 -2 18 -2 25 0 6 3 1 5 -13 5 -14 0 -19 -2 -12 -5z"/>
<path d="M2952 2710 c0 -14 2 -19 5 -12 2 6 2 18 0 25 -3 6 -5 1 -5 -13z"/>
<path d="M3187 2793 c-4 -3 -7 -13 -7 -22 1 -13 3 -13 11 2 11 19 8 33 -4 20z"/>
<path d="M2540 2470 c-13 -8 -13 -10 2 -10 9 0 20 5 23 10 8 13 -5 13 -25 0z"/>
<path d="M3618 2443 c7 -3 16 -2 19 1 4 3 -2 6 -13 5 -11 0 -14 -3 -6 -6z"/>
<path d="M2477 2428 c2 -5 10 -8 18 -8 8 0 16 3 18 8 3 4 -5 7 -18 7 -13 0
-21 -3 -18 -7z"/>
<path d="M2788 2433 c7 -3 16 -2 19 1 4 3 -2 6 -13 5 -11 0 -14 -3 -6 -6z"/>
<path d="M3480 2430 c-12 -7 -12 -10 3 -16 21 -8 29 -3 19 13 -5 8 -13 9 -22
3z"/>
<path d="M2575 2420 c-7 -12 2 -12 30 0 19 8 19 9 -2 9 -12 1 -25 -3 -28 -9z"/>
<path d="M3691 2411 c-7 -5 -9 -11 -4 -14 5 -3 15 -2 22 2 7 5 9 11 4 14 -5 3
-15 2 -22 -2z"/>
<path d="M2635 2399 c-3 -4 0 -9 7 -11 16 -6 58 2 58 11 0 9 -60 10 -65 0z"/>
<path d="M2580 2379 c0 -5 5 -7 10 -4 6 3 10 8 10 11 0 2 -4 4 -10 4 -5 0 -10
-5 -10 -11z"/>
<path d="M3600 2350 c0 -5 7 -10 15 -10 8 0 15 5 15 10 0 6 -7 10 -15 10 -8 0
-15 -4 -15 -10z"/>
<path d="M2840 2306 c0 -9 40 -13 46 -5 3 5 -6 9 -20 9 -14 0 -26 -2 -26 -4z"/>
<path d="M3238 2303 c6 -2 18 -2 25 0 6 3 1 5 -13 5 -14 0 -19 -2 -12 -5z"/>
<path d="M3290 2306 c0 -2 7 -6 15 -10 8 -3 15 -1 15 4 0 6 -7 10 -15 10 -8 0
-15 -2 -15 -4z"/>
<path d="M2294 2165 c-3 -8 -3 -19 0 -24 9 -13 36 -2 36 14 0 19 -30 27 -36
10z"/>
<path d="M2423 2173 c-17 -6 -16 -30 1 -36 21 -8 40 17 24 30 -7 6 -19 8 -25
6z"/>
<path d="M3216 2163 c-3 -4 -6 -15 -6 -26 0 -13 5 -17 16 -13 9 3 18 6 20 6 2
0 4 6 4 14 0 15 -24 28 -34 19z"/>
<path d="M3327 2164 c-16 -16 -6 -35 16 -32 12 2 22 10 22 18 0 16 -26 25 -38
14z"/>
<path d="M2336 2133 c-4 -10 -14 -31 -22 -46 -22 -39 -8 -101 23 -105 20 -3
21 0 16 32 -5 31 -3 36 14 36 10 0 27 6 36 13 16 11 16 14 -2 47 -20 39 -55
51 -65 23z m34 -43 c0 -19 -11 -26 -23 -14 -8 8 3 34 14 34 5 0 9 -9 9 -20z"/>
<path d="M2940 2116 c0 -28 -24 -53 -35 -36 -4 7 -2 17 4 23 6 6 11 15 11 19
0 15 -27 8 -45 -12 -17 -19 -18 -26 -7 -66 7 -24 12 -55 12 -69 0 -19 5 -25
21 -25 20 0 21 4 17 49 -5 46 -3 50 19 56 31 7 51 49 33 70 -18 22 -30 19 -30
-9z"/>
<path d="M3034 2116 c-9 -23 0 -51 16 -51 10 0 16 12 18 33 2 24 -1 32 -13 32
-8 0 -18 -6 -21 -14z"/>
<path d="M3590 2112 c0 -10 10 -26 21 -36 18 -15 21 -26 16 -62 -5 -46 11 -82
31 -70 6 3 15 -1 20 -10 6 -11 16 -15 27 -11 24 10 13 32 -16 32 -22 0 -24 5
-29 60 -5 62 -31 115 -56 115 -8 0 -14 -8 -14 -18z"/>
<path d="M3836 2121 c-3 -5 -10 -41 -16 -81 -8 -54 -7 -76 1 -87 7 -7 16 -10
20 -6 13 13 23 183 11 183 -6 0 -13 -4 -16 -9z"/>
<path d="M2557 2113 c-11 -21 -16 -62 -7 -68 13 -8 43 42 36 60 -6 16 -22 20
-29 8z"/>
<path d="M2612 2093 c4 -36 32 -39 32 -3 0 16 -6 26 -18 28 -14 3 -17 -2 -14
-25z"/>
<path d="M2660 2078 c-6 -24 -15 -56 -20 -72 -14 -42 -12 -58 6 -54 18 3 54
97 54 140 0 45 -28 35 -40 -14z"/>
<path d="M3470 2105 c0 -8 2 -15 4 -15 2 0 11 -3 20 -6 12 -4 16 0 16 15 0 14
-6 21 -20 21 -11 0 -20 -7 -20 -15z"/>
<path d="M2500 2089 c-7 -11 -9 -27 -6 -35 8 -21 36 -17 36 5 0 11 3 26 6 35
9 24 -23 20 -36 -5z"/>
<path d="M3395 2090 c-22 -25 -32 -104 -15 -125 21 -26 28 -17 32 48 3 34 8
70 13 80 10 23 -8 22 -30 -3z"/>
<path d="M3298 2033 c4 -89 8 -99 27 -83 18 15 21 120 3 138 -26 26 -34 12
-30 -55z"/>
<path d="M3230 2071 c-13 -24 -13 -118 -1 -126 15 -8 20 6 27 78 7 69 -4 88
-26 48z"/>
<path d="M3550 2061 c-5 -11 -10 -41 -10 -66 0 -39 3 -46 18 -43 14 3 17 15
19 66 3 62 -7 78 -27 43z"/>
<path d="M2432 2058 c6 -18 28 -21 28 -4 0 9 -7 16 -16 16 -9 0 -14 -5 -12
-12z"/>
<path d="M3065 2014 c-12 -40 -13 -60 -6 -67 7 -7 14 -7 20 -1 16 17 43 102
36 113 -15 26 -34 8 -50 -45z"/>
<path d="M3892 2058 c5 -15 28 -18 29 -3 0 6 -7 12 -17 13 -10 3 -15 -1 -12
-10z"/>
<path d="M3755 2050 c-7 -12 2 -30 15 -30 5 0 14 9 20 20 9 17 8 20 -9 20 -11
0 -23 -4 -26 -10z"/>
<path d="M2945 2021 c-9 -16 3 -31 26 -31 14 0 19 6 17 17 -4 20 -33 29 -43
14z"/>
<path d="M3457 1976 c-8 -20 20 -43 35 -28 14 14 3 42 -16 42 -7 0 -16 -6 -19
-14z"/>
<path d="M2273 1965 c-3 -9 -3 -18 0 -21 9 -9 27 6 27 22 0 19 -19 18 -27 -1z"/>
<path d="M2380 1966 c0 -17 27 -29 35 -16 4 6 3 15 0 20 -9 15 -35 12 -35 -4z"/>
<path d="M3130 1940 c0 -15 5 -20 18 -18 9 2 17 10 17 18 0 8 -8 16 -17 18
-13 2 -18 -3 -18 -18z"/>
<path d="M3886 1952 c-2 -4 -1 -14 4 -21 11 -19 41 -6 34 14 -6 16 -29 20 -38
7z"/>
<path d="M1776 5094 c-7 -18 19 -54 38 -54 6 0 0 10 -14 21 -17 14 -21 22 -12
26 14 5 16 23 3 23 -5 0 -12 -7 -15 -16z"/>
<path d="M1820 5090 c0 -5 5 -10 10 -10 6 0 10 5 10 10 0 6 -4 10 -10 10 -5 0
-10 -4 -10 -10z"/>
<path d="M2153 5071 c-19 -9 -31 -22 -28 -29 3 -7 -3 -16 -13 -19 -9 -3 -27
-15 -39 -25 -21 -20 -21 -20 -54 16 -32 36 -49 45 -49 26 0 -17 77 -90 94 -90
19 0 51 27 57 48 3 8 27 26 54 41 27 15 50 32 53 39 5 17 -36 13 -75 -7z"/>
<path d="M2575 5080 c4 -6 11 -8 16 -5 14 9 11 15 -7 15 -8 0 -12 -5 -9 -10z"/>
<path d="M1707 5053 c-12 -12 -7 -22 8 -17 8 4 15 10 15 15 0 11 -14 12 -23 2z"/>
<path d="M3940 5041 c0 -5 7 -12 16 -15 14 -5 15 -4 4 9 -14 17 -20 19 -20 6z"/>
<path d="M4458 5023 c7 -3 16 -2 19 1 4 3 -2 6 -13 5 -11 0 -14 -3 -6 -6z"/>
<path d="M2145 5000 c-3 -5 -1 -10 4 -10 6 0 11 5 11 10 0 6 -2 10 -4 10 -3 0
-8 -4 -11 -10z"/>
<path d="M2456 5002 c-3 -5 1 -9 9 -9 8 0 15 4 15 9 0 4 -4 8 -9 8 -6 0 -12
-4 -15 -8z"/>
<path d="M2671 4993 c-9 -10 -7 -12 11 -9 13 3 26 5 31 5 4 1 7 5 7 10 0 14
-34 9 -49 -6z"/>
<path d="M4247 4989 c4 -13 8 -18 11 -10 2 7 -1 18 -6 23 -8 8 -9 4 -5 -13z"/>
<path d="M4355 4989 c-4 -6 0 -16 8 -22 8 -7 21 -22 29 -35 10 -14 18 -19 23
-13 3 6 2 11 -4 11 -6 0 -8 6 -5 13 2 7 -5 23 -16 35 -24 25 -26 26 -35 11z"/>
<path d="M4200 4980 c0 -5 5 -10 10 -10 6 0 10 5 10 10 0 6 -4 10 -10 10 -5 0
-10 -4 -10 -10z"/>
<path d="M2425 4970 c-3 -6 1 -7 9 -4 18 7 21 14 7 14 -6 0 -13 -4 -16 -10z"/>
<path d="M1636 4955 c-3 -9 0 -15 9 -15 16 0 20 16 6 24 -5 3 -11 -1 -15 -9z"/>
<path d="M1679 4944 c-12 -15 -11 -16 9 -10 16 5 24 3 28 -8 3 -9 10 -16 15
-16 4 0 38 -29 74 -65 36 -36 69 -65 75 -65 5 0 10 -4 10 -10 0 -19 16 -10 39
21 12 17 20 37 17 45 -5 13 -10 12 -35 -5 -34 -25 -51 -27 -51 -6 0 8 -8 19
-17 24 -10 5 -40 32 -68 60 -53 54 -74 61 -96 35z"/>
<path d="M1830 4945 c0 -5 59 -38 75 -41 6 -1 28 -10 49 -19 38 -16 41 -16 53
1 16 22 11 29 -25 32 -17 1 -49 9 -72 17 -42 15 -80 20 -80 10z"/>
<path d="M4260 4925 c0 -8 5 -15 10 -15 6 0 10 -5 10 -10 0 -15 39 -55 46 -47
7 7 -47 86 -58 87 -5 0 -8 -7 -8 -15z"/>
<path d="M2040 4920 c0 -5 5 -10 10 -10 6 0 10 5 10 10 0 6 -4 10 -10 10 -5 0
-10 -4 -10 -10z"/>
<path d="M4090 4910 c0 -5 5 -10 10 -10 6 0 10 5 10 10 0 6 -4 10 -10 10 -5 0
-10 -4 -10 -10z"/>
<path d="M4518 4903 c7 -3 16 -2 19 1 4 3 -2 6 -13 5 -11 0 -14 -3 -6 -6z"/>
<path d="M4185 4872 c11 -38 65 -112 81 -112 7 0 19 -9 26 -20 14 -22 62 -28
74 -9 3 6 14 9 24 6 23 -6 47 8 31 17 -6 4 -11 2 -11 -4 0 -6 -4 -8 -10 -5 -5
3 2 16 17 29 19 16 24 28 19 41 -6 17 -10 15 -36 -13 -51 -56 -129 -35 -192
52 -21 28 -28 33 -23 18z"/>
<path d="M4481 4876 c-47 -12 -63 -29 -36 -39 28 -11 73 4 79 26 3 12 4 22 3
23 -1 1 -22 -4 -46 -10z"/>
<path d="M3904 4828 c11 -29 21 -35 30 -19 3 5 -1 12 -10 15 -9 3 -14 12 -11
19 3 8 -1 14 -7 14 -10 0 -11 -7 -2 -29z"/>
<path d="M4180 4800 c0 -5 9 -14 20 -20 19 -10 20 -10 8 9 -13 22 -28 28 -28
11z"/>
<path d="M4610 4796 c0 -9 5 -16 10 -16 6 0 10 4 10 9 0 6 -4 13 -10 16 -5 3
-10 -1 -10 -9z"/>
<path d="M1556 4781 c-3 -5 8 -14 24 -20 28 -9 29 -9 20 9 -11 21 -35 26 -44
11z"/>
<path d="M3885 4770 c-16 -7 -17 -9 -3 -9 9 -1 20 4 23 9 7 11 7 11 -20 0z"/>
<path d="M4447 4773 c-4 -3 -7 -11 -7 -17 0 -6 5 -5 12 2 6 6 9 14 7 17 -3 3
-9 2 -12 -2z"/>
<path d="M1690 4751 c0 -5 18 -25 39 -44 22 -19 37 -37 35 -40 -3 -2 0 -16 5
-31 l11 -26 -90 0 c-50 0 -90 -4 -90 -9 0 -8 112 -36 138 -34 8 1 11 -7 7 -21
-5 -20 -4 -20 7 2 8 16 17 21 30 16 18 -5 19 -2 12 41 -6 42 -5 47 12 43 23
-4 59 55 49 80 -5 13 -10 11 -28 -12 l-23 -28 -57 36 c-31 20 -57 32 -57 27z"/>
<path d="M1538 4743 c7 -3 16 -2 19 1 4 3 -2 6 -13 5 -11 0 -14 -3 -6 -6z"/>
<path d="M4525 4709 c-38 -22 -87 -52 -107 -66 l-37 -25 -26 28 c-18 20 -25
23 -21 11 3 -10 6 -23 6 -28 0 -5 7 -9 15 -9 8 0 15 -7 15 -15 0 -8 7 -15 16
-15 18 0 87 39 92 52 2 4 13 3 25 -4 19 -10 20 -9 9 4 -14 17 0 34 18 23 6 -3
13 1 16 9 6 14 90 34 121 28 7 -2 9 5 6 18 -6 23 -23 27 -23 5 0 -8 -4 -15
-10 -15 -5 0 -10 9 -10 20 0 30 -26 25 -105 -21z"/>
<path d="M1607 4724 c-8 -14 8 -37 22 -33 8 3 8 10 -2 23 -8 11 -17 15 -20 10z"/>
<path d="M2217 4700 c-3 -13 0 -20 10 -20 9 0 13 6 10 14 -4 10 -1 13 9 9 7
-3 14 0 14 6 0 20 -37 12 -43 -9z"/>
<path d="M4270 4710 c0 -5 5 -10 11 -10 5 0 7 5 4 10 -3 6 -8 10 -11 10 -2 0
-4 -4 -4 -10z"/>
<path d="M1422 4698 c-14 -14 -16 -28 -3 -28 9 0 24 30 18 36 -2 2 -9 -2 -15
-8z"/>
<path d="M3980 4703 c1 -18 18 -35 24 -24 4 6 4 16 1 21 -7 12 -25 13 -25 3z"/>
<path d="M1462 4688 c-7 -7 -12 -16 -12 -20 0 -15 15 -8 28 12 13 22 3 27 -16
8z"/>
<path d="M4225 4670 c-3 -5 -1 -10 4 -10 6 0 11 5 11 10 0 6 -2 10 -4 10 -3 0
-8 -4 -11 -10z"/>
<path d="M4690 4651 c5 -11 14 -23 20 -26 5 -3 7 -12 3 -20 -3 -8 0 -15 6 -15
6 0 11 5 11 10 0 19 -30 70 -41 70 -6 0 -6 -7 1 -19z"/>
<path d="M1997 4633 c-7 -11 10 -40 18 -31 4 4 3 14 -3 24 -5 9 -12 12 -15 7z"/>
<path d="M4068 4633 c7 -3 16 -2 19 1 4 3 -2 6 -13 5 -11 0 -14 -3 -6 -6z"/>
<path d="M4601 4624 c0 -11 3 -14 6 -6 3 7 2 16 -1 19 -3 4 -6 -2 -5 -13z"/>
<path d="M1960 4609 c0 -5 5 -7 10 -4 6 3 10 8 10 11 0 2 -4 4 -10 4 -5 0 -10
-5 -10 -11z"/>
<path d="M4500 4607 c0 -9 4 -18 9 -21 5 -4 8 1 7 9 -3 21 -16 31 -16 12z"/>
<path d="M4320 4599 c0 -5 -4 -7 -10 -4 -5 3 -10 -1 -10 -10 0 -13 4 -14 20
-5 21 11 27 30 10 30 -5 0 -10 -5 -10 -11z"/>
<path d="M4450 4590 c-8 -5 -11 -12 -7 -16 4 -4 15 0 24 9 18 18 8 23 -17 7z"/>
<path d="M1440 4580 c0 -5 12 -13 28 -16 15 -4 29 -10 32 -13 3 -3 23 -15 45
-25 22 -11 61 -34 87 -52 47 -33 88 -37 88 -8 0 8 5 14 10 14 6 0 10 9 10 20
0 25 -8 25 -35 0 l-22 -21 -95 56 c-87 51 -148 69 -148 45z"/>
<path d="M1402 4549 c-11 -16 -9 -19 7 -19 25 0 34 15 18 28 -9 8 -16 6 -25
-9z"/>
<path d="M4750 4520 c0 -5 5 -10 10 -10 6 0 10 5 10 10 0 6 -4 10 -10 10 -5 0
-10 -4 -10 -10z"/>
<path d="M1525 4510 c3 -5 11 -10 16 -10 6 0 7 5 4 10 -3 6 -11 10 -16 10 -6
0 -7 -4 -4 -10z"/>
<path d="M4415 4510 c4 -6 11 -8 16 -5 14 9 11 15 -7 15 -8 0 -12 -5 -9 -10z"/>
<path d="M4620 4496 c-20 -8 -59 -26 -89 -40 -55 -28 -80 -24 -82 13 0 10 -2
11 -6 4 -2 -7 1 -29 7 -48 9 -27 17 -35 35 -35 12 0 26 7 29 16 3 8 11 12 17
9 5 -4 18 0 27 8 9 9 29 19 45 22 15 4 30 11 33 16 10 16 34 10 27 -7 -4 -12
-2 -15 8 -12 13 5 14 24 4 56 -5 15 -10 14 -55 -2z"/>
<path d="M4265 4490 c3 -5 11 -10 16 -10 6 0 7 5 4 10 -3 6 -11 10 -16 10 -6
0 -7 -4 -4 -10z"/>
<path d="M1570 4479 c0 -5 5 -7 10 -4 6 3 10 8 10 11 0 2 -4 4 -10 4 -5 0 -10
-5 -10 -11z"/>
<path d="M1600 4460 c-12 -8 -11 -10 8 -10 12 0 22 5 22 10 0 13 -11 13 -30 0z"/>
<path d="M4395 4439 c-4 -6 -5 -13 -2 -16 7 -7 27 6 27 18 0 12 -17 12 -25 -2z"/>
<path d="M4625 4440 c-17 -6 -15 -8 13 -14 25 -6 30 -11 22 -21 -6 -7 -8 -19
-4 -28 5 -14 7 -14 23 1 10 9 15 22 12 27 -2 6 2 4 11 -3 12 -10 22 -11 36 -3
11 6 21 9 23 7 2 -2 12 7 22 20 21 29 13 30 -57 9 -42 -13 -52 -13 -65 -1 -10
8 -24 11 -36 6z"/>
<path d="M1387 4406 c-7 -17 1 -26 24 -26 32 0 179 -52 180 -64 1 -6 1 -17 0
-23 -1 -7 3 -13 9 -13 6 0 15 -10 20 -22 7 -18 9 -19 9 -5 1 10 -6 29 -15 42
-10 15 -12 25 -5 25 6 0 11 -5 11 -11 0 -5 5 -7 12 -3 6 4 8 3 5 -3 -4 -6 0
-13 8 -17 10 -3 15 1 15 13 0 11 5 21 10 23 6 2 12 19 14 39 2 20 6 41 10 48
4 6 2 11 -3 11 -6 0 -11 -3 -11 -7 0 -5 -9 -22 -19 -39 l-19 -32 -106 39
c-114 42 -141 47 -149 25z"/>
<path d="M1889 4403 c-1 -5 -1 -15 0 -24 1 -9 -5 -19 -14 -22 -8 -4 -15 -12
-15 -18 0 -8 7 -5 19 5 20 18 34 66 20 66 -5 0 -10 -3 -10 -7z"/>
<path d="M4825 4400 c-3 -5 -1 -10 4 -10 6 0 11 5 11 10 0 6 -2 10 -4 10 -3 0
-8 -4 -11 -10z"/>
<path d="M4700 4380 c0 -5 5 -10 11 -10 5 0 7 5 4 10 -3 6 -8 10 -11 10 -2 0
-4 -4 -4 -10z"/>
<path d="M1329 4338 c-6 -23 -6 -57 0 -53 12 7 20 55 10 55 -5 0 -9 -1 -10 -2z"/>
<path d="M1465 4330 c-16 -7 -17 -9 -3 -9 9 -1 20 4 23 9 7 11 7 11 -20 0z"/>
<path d="M4810 4319 c0 -16 27 -46 35 -38 2 2 -5 15 -15 29 -15 19 -20 21 -20
9z"/>
<path d="M1545 4310 c4 -6 11 -8 16 -5 14 9 11 15 -7 15 -8 0 -12 -5 -9 -10z"/>
<path d="M4667 4293 c-4 -3 -7 -11 -7 -17 0 -6 5 -5 12 2 6 6 9 14 7 17 -3 3
-9 2 -12 -2z"/>
<path d="M4758 4251 c-18 -16 -30 -32 -26 -36 11 -11 88 29 85 44 -4 25 -25
23 -59 -8z"/>
<path d="M1345 4251 c-11 -19 3 -28 52 -34 26 -4 65 -11 86 -17 33 -10 37 -14
32 -38 -5 -24 -4 -23 13 8 11 21 15 40 10 46 -5 6 -36 17 -71 23 -34 7 -74 14
-89 17 -14 3 -29 0 -33 -5z"/>
<path d="M1621 4205 c-1 -11 -13 -43 -28 -72 -25 -51 -28 -53 -60 -47 -40 8
-44 -8 -8 -32 21 -14 30 -14 54 -4 26 11 31 19 42 79 6 38 9 74 6 82 -4 9 -6
7 -6 -6z"/>
<path d="M1338 4203 c7 -3 16 -2 19 1 4 3 -2 6 -13 5 -11 0 -14 -3 -6 -6z"/>
<path d="M4516 4178 c14 -47 36 -63 86 -64 26 0 45 3 42 7 -8 13 61 -3 78 -18
10 -9 34 -19 55 -24 21 -4 48 -11 61 -14 18 -6 22 -4 22 14 0 11 -6 21 -14 21
-8 0 -53 16 -100 36 l-85 36 -55 -16 c-68 -20 -62 -21 -69 14 -4 17 -11 30
-17 30 -7 0 -9 -9 -4 -22z"/>
<path d="M1652 4165 c0 -16 2 -22 5 -12 2 9 2 23 0 30 -3 6 -5 -1 -5 -18z"/>
<path d="M4845 4180 c-3 -5 -2 -10 4 -10 5 0 13 5 16 10 3 6 2 10 -4 10 -5 0
-13 -4 -16 -10z"/>
<path d="M1885 4140 c-3 -5 -1 -10 4 -10 6 0 11 5 11 10 0 6 -2 10 -4 10 -3 0
-8 -4 -11 -10z"/>
<path d="M1850 4090 c0 -5 7 -7 15 -4 8 4 15 8 15 10 0 2 -7 4 -15 4 -8 0 -15
-4 -15 -10z"/>
<path d="M1486 4061 c-4 -5 -2 -12 3 -15 5 -4 12 -2 15 3 4 5 2 12 -3 15 -5 4
-12 2 -15 -3z"/>
<path d="M1615 4040 c-3 -5 1 -10 9 -10 9 0 16 5 16 10 0 6 -4 10 -9 10 -6 0
-13 -4 -16 -10z"/>
<path d="M1575 4020 c-3 -5 1 -10 9 -10 9 0 16 5 16 10 0 6 -4 10 -9 10 -6 0
-13 -4 -16 -10z"/>
<path d="M1660 4015 c-10 -12 -10 -15 3 -15 8 0 20 7 27 15 10 12 10 15 -3 15
-8 0 -20 -7 -27 -15z"/>
<path d="M4457 3913 c-12 -11 -8 -23 8 -23 8 0 15 7 15 15 0 16 -12 20 -23 8z"/>
<path d="M4410 3860 c-13 -8 -12 -10 3 -10 9 0 17 5 17 10 0 12 -1 12 -20 0z"/>
<path d="M1680 3795 c-10 -12 -9 -15 4 -15 10 0 15 4 11 9 -3 5 3 12 12 14 15
4 15 5 2 6 -9 0 -22 -6 -29 -14z"/>
<path d="M1778 3803 c7 -3 16 -2 19 1 4 3 -2 6 -13 5 -11 0 -14 -3 -6 -6z"/>
<path d="M1872 3771 c-10 -6 -9 -10 7 -14 14 -3 21 0 21 9 0 16 -9 18 -28 5z"/>
<path d="M4320 3770 c-11 -8 -7 -9 15 -4 37 8 45 14 19 14 -10 0 -26 -5 -34
-10z"/>
<path d="M4522 3688 c-6 -6 -12 -17 -12 -22 0 -6 5 -4 11 4 8 11 12 12 16 2 5
-13 23 -7 23 9 0 6 -4 8 -9 5 -5 -4 -11 -1 -13 4 -2 7 -8 6 -16 -2z"/>
<path d="M1620 3678 c0 -10 2 -18 4 -18 2 0 11 -3 20 -6 9 -3 16 -1 16 6 0 6
-4 9 -9 5 -6 -3 -14 3 -20 12 -10 17 -10 17 -11 1z"/>
<path d="M1687 3619 c7 -7 15 -10 18 -7 3 3 -2 9 -12 12 -14 6 -15 5 -6 -5z"/>
<path d="M1900 3586 c0 -9 5 -16 10 -16 6 0 10 4 10 9 0 6 -4 13 -10 16 -5 3
-10 -1 -10 -9z"/>
<path d="M4395 3590 c3 -5 8 -10 11 -10 2 0 4 5 4 10 0 6 -5 10 -11 10 -5 0
-7 -4 -4 -10z"/>
<path d="M4235 3580 c4 -6 11 -8 16 -5 14 9 11 15 -7 15 -8 0 -12 -5 -9 -10z"/>
<path d="M1788 3573 c7 -3 16 -2 19 1 4 3 -2 6 -13 5 -11 0 -14 -3 -6 -6z"/>
<path d="M4497 3559 c7 -7 15 -10 18 -7 3 3 -2 9 -12 12 -14 6 -15 5 -6 -5z"/>
<path d="M4495 3470 c-17 -19 -17 -19 9 -7 14 7 26 15 26 20 0 13 -17 7 -35
-13z"/>
<path d="M1078 3424 c-5 -7 -7 -48 -5 -91 2 -67 4 -77 16 -66 10 11 11 30 5
91 -5 42 -12 72 -16 66z"/>
<path d="M1690 3410 c14 -11 32 -19 40 -19 9 0 6 4 -6 9 -12 5 -25 13 -29 19
-3 6 -12 11 -18 11 -7 0 -1 -9 13 -20z"/>
<path d="M1858 3363 c7 -3 16 -2 19 1 4 3 -2 6 -13 5 -11 0 -14 -3 -6 -6z"/>
<path d="M4245 3220 c-3 -5 -1 -10 4 -10 6 0 11 5 11 10 0 6 -2 10 -4 10 -3 0
-8 -4 -11 -10z"/>
<path d="M1081 3129 c0 -35 4 -73 9 -84 6 -13 7 10 3 60 -7 98 -13 110 -12 24z"/>
<path d="M4210 2990 c-6 -11 -15 -18 -21 -15 -5 4 -9 1 -9 -4 0 -6 6 -11 14
-11 16 0 46 26 46 41 0 16 -19 9 -30 -11z"/>
<path d="M1111 2973 c-16 -17 -11 -25 8 -14 7 5 12 13 10 19 -2 6 -10 4 -18
-5z"/>
<path d="M1940 2950 c0 -5 4 -10 9 -10 6 0 13 5 16 10 3 6 -1 10 -9 10 -9 0
-16 -4 -16 -10z"/>
<path d="M1130 2881 c0 -7 -4 -9 -10 -6 -6 3 -10 -5 -10 -19 0 -38 17 -40 23
-3 2 17 3 34 1 36 -2 2 -4 -1 -4 -8z"/>
<path d="M5051 2854 c0 -11 3 -14 6 -6 3 7 2 16 -1 19 -3 4 -6 -2 -5 -13z"/>
<path d="M5036 2799 c-11 -36 -13 -59 -6 -64 4 -2 10 12 13 32 6 37 1 58 -7
32z"/>
<path d="M1761 2776 c-10 -12 -6 -26 10 -26 11 0 19 29 10 35 -5 2 -14 -1 -20
-9z"/>
<path d="M1132 2755 c0 -16 2 -22 5 -12 2 9 2 23 0 30 -3 6 -5 -1 -5 -18z"/>
<path d="M2066 2744 c-11 -8 -16 -14 -10 -14 13 0 39 18 34 24 -3 2 -14 -2
-24 -10z"/>
<path d="M4060 2750 c0 -13 46 -43 59 -38 6 1 -5 13 -24 26 -19 12 -35 18 -35
12z"/>
<path d="M3965 2740 c-3 -5 -2 -10 4 -10 5 0 13 5 16 10 3 6 2 10 -4 10 -5 0
-13 -4 -16 -10z"/>
<path d="M4250 2710 c-12 -8 -9 -10 12 -10 15 0 30 5 33 10 8 13 -25 13 -45 0z"/>
<path d="M1878 2703 c7 -3 16 -2 19 1 4 3 -2 6 -13 5 -11 0 -14 -3 -6 -6z"/>
<path d="M4180 2700 c0 -5 5 -10 11 -10 5 0 7 5 4 10 -3 6 -8 10 -11 10 -2 0
-4 -4 -4 -10z"/>
<path d="M1160 2677 c0 -11 8 -17 25 -17 16 0 25 6 25 16 0 13 -3 14 -13 5
-10 -8 -17 -7 -25 1 -9 9 -12 8 -12 -5z"/>
<path d="M1194 2574 c-4 -14 -3 -29 2 -34 5 -5 10 6 10 26 2 40 -3 44 -12 8z"/>
<path d="M4982 2560 c0 -19 2 -27 5 -17 2 9 2 25 0 35 -3 9 -5 1 -5 -18z"/>
<path d="M4950 2459 c0 -5 5 -7 10 -4 6 3 10 8 10 11 0 2 -4 4 -10 4 -5 0 -10
-5 -10 -11z"/>
<path d="M1237 2417 c3 -15 9 -30 14 -33 14 -8 10 20 -5 41 -13 18 -14 18 -9
-8z"/>
<path d="M4928 2415 c2 -14 6 -25 7 -25 1 0 5 11 7 25 3 16 1 25 -7 25 -8 0
-10 -9 -7 -25z"/>
<path d="M3865 2400 c-3 -5 -1 -10 4 -10 6 0 11 5 11 10 0 6 -2 10 -4 10 -3 0
-8 -4 -11 -10z"/>
<path d="M2300 2390 c0 -5 5 -10 11 -10 5 0 7 5 4 10 -3 6 -8 10 -11 10 -2 0
-4 -4 -4 -10z"/>
<path d="M4901 2368 c-1 -16 4 -28 9 -28 12 0 12 8 0 35 -8 18 -9 17 -9 -7z"/>
<path d="M2356 2363 c6 -4 14 -15 17 -23 5 -11 6 -9 4 4 -1 11 -9 21 -17 23
-10 3 -11 2 -4 -4z"/>
<path d="M3801 2354 c0 -11 3 -14 6 -6 3 7 2 16 -1 19 -3 4 -6 -2 -5 -13z"/>
<path d="M3765 2310 c-3 -5 -1 -10 4 -10 6 0 11 5 11 10 0 6 -2 10 -4 10 -3 0
-8 -4 -11 -10z"/>
<path d="M4892 2300 c0 -14 2 -19 5 -12 2 6 2 18 0 25 -3 6 -5 1 -5 -13z"/>
<path d="M4045 2300 c3 -5 10 -10 16 -10 5 0 9 5 9 10 0 6 -7 10 -16 10 -8 0
-12 -4 -9 -10z"/>
<path d="M4850 2266 c0 -8 4 -17 9 -20 5 -4 7 3 4 14 -6 23 -13 26 -13 6z"/>
<path d="M1310 2230 c0 -5 5 -10 11 -10 5 0 7 5 4 10 -3 6 -8 10 -11 10 -2 0
-4 -4 -4 -10z"/>
<path d="M1340 2181 c16 -31 32 -36 18 -7 -6 14 -15 26 -20 26 -5 0 -4 -9 2
-19z"/>
<path d="M4141 2184 c0 -11 3 -14 6 -6 3 7 2 16 -1 19 -3 4 -6 -2 -5 -13z"/>
<path d="M4776 2115 c-3 -8 -1 -15 3 -15 5 0 11 7 15 15 3 8 1 15 -3 15 -5 0
-11 -7 -15 -15z"/>
<path d="M4928 2097 c-30 -63 -113 -173 -198 -261 -78 -82 -82 -87 -43 -65 48
27 99 86 179 208 61 92 88 141 82 147 -3 2 -11 -11 -20 -29z"/>
<path d="M4756 2074 c-5 -14 -4 -15 9 -4 17 14 19 20 6 20 -5 0 -12 -7 -15
-16z"/>
<path d="M1426 2065 c-3 -8 -1 -15 4 -15 6 0 10 7 10 15 0 8 -2 15 -4 15 -2 0
-6 -7 -10 -15z"/>
<path d="M4720 2045 c0 -16 16 -20 24 -6 3 5 -1 11 -9 15 -9 3 -15 0 -15 -9z"/>
<path d="M1446 2033 c5 -5 12 -12 15 -16 3 -5 9 -2 12 7 5 12 0 16 -15 16 -12
0 -17 -3 -12 -7z"/>
<path d="M1675 2030 c3 -5 11 -10 16 -10 6 0 7 5 4 10 -3 6 -11 10 -16 10 -6
0 -7 -4 -4 -10z"/>
<path d="M1771 1994 c0 -11 3 -14 6 -6 3 7 2 16 -1 19 -3 4 -6 -2 -5 -13z"/>
<path d="M1585 1990 c-3 -5 -1 -10 4 -10 6 0 11 5 11 10 0 6 -2 10 -4 10 -3 0
-8 -4 -11 -10z"/>
<path d="M4400 1990 c0 -5 5 -10 10 -10 6 0 10 5 10 10 0 6 -4 10 -10 10 -5 0
-10 -4 -10 -10z"/>
<path d="M1535 1949 c-4 -12 -3 -25 2 -30 6 -6 10 2 10 21 0 35 -3 38 -12 9z"/>
<path d="M1840 1941 c0 -5 8 -11 18 -15 9 -3 24 -9 32 -13 13 -5 13 -5 0 8
-19 19 -50 31 -50 20z"/>
<path d="M4348 1903 c7 -3 16 -2 19 1 4 3 -2 6 -13 5 -11 0 -14 -3 -6 -6z"/>
<path d="M1603 1883 c-19 -7 -16 -21 7 -33 17 -9 20 -8 17 9 -4 25 -8 30 -24
24z"/>
<path d="M1733 1883 c-18 -7 -16 -23 2 -23 8 0 15 7 15 15 0 8 -1 15 -2 14 -2
0 -9 -3 -15 -6z"/>
<path d="M4530 1870 c0 -5 5 -10 11 -10 5 0 7 5 4 10 -3 6 -8 10 -11 10 -2 0
-4 -4 -4 -10z"/>
<path d="M1666 1862 c-3 -6 -1 -14 5 -17 15 -10 25 3 12 16 -7 7 -13 7 -17 1z"/>
<path d="M4410 1830 c0 -5 5 -10 11 -10 5 0 7 5 4 10 -3 6 -8 10 -11 10 -2 0
-4 -4 -4 -10z"/>
<path d="M4440 1811 c0 -5 5 -13 10 -16 6 -3 10 -2 10 4 0 5 -4 13 -10 16 -5
3 -10 2 -10 -4z"/>
<path d="M1470 1804 c0 -17 99 -107 225 -204 66 -52 164 -132 219 -179 141
-123 198 -166 278 -208 39 -20 109 -69 154 -108 94 -81 221 -171 229 -163 3 3
-27 30 -67 60 -40 30 -188 140 -328 245 -276 205 -599 460 -667 526 -24 23
-43 37 -43 31z"/>
<path d="M1790 1706 c0 -2 7 -6 15 -10 8 -3 15 -1 15 4 0 6 -7 10 -15 10 -8 0
-15 -2 -15 -4z"/>
<path d="M2008 1703 c7 -3 16 -2 19 1 4 3 -2 6 -13 5 -11 0 -14 -3 -6 -6z"/>
<path d="M4143 1703 c9 -2 23 -2 30 0 6 3 -1 5 -18 5 -16 0 -22 -2 -12 -5z"/>
<path d="M1875 1680 c-3 -6 1 -7 9 -4 18 7 21 14 7 14 -6 0 -13 -4 -16 -10z"/>
<path d="M1835 1670 c-3 -5 -1 -10 4 -10 6 0 11 5 11 10 0 6 -2 10 -4 10 -3 0
-8 -4 -11 -10z"/>
<path d="M4292 1668 c6 -18 28 -21 28 -4 0 9 -7 16 -16 16 -9 0 -14 -5 -12
-12z"/>
<path d="M4260 1650 c0 -5 5 -10 11 -10 5 0 7 5 4 10 -3 6 -8 10 -11 10 -2 0
-4 -4 -4 -10z"/>
<path d="M1939 1603 c-12 -14 -12 -15 0 -9 8 5 17 3 22 -5 6 -10 9 -8 9 9 0
26 -12 28 -31 5z"/>
<path d="M4180 1610 c0 -5 5 -10 11 -10 5 0 7 5 4 10 -3 6 -8 10 -11 10 -2 0
-4 -4 -4 -10z"/>
<path d="M2018 1563 c-25 -6 -23 -12 23 -55 45 -42 54 -45 63 -22 4 10 2 14
-6 11 -16 -5 -66 22 -72 40 -3 7 1 13 9 13 8 0 15 5 15 10 0 10 -3 11 -32 3z"/>
<path d="M4120 1511 c0 -5 9 -7 20 -4 11 3 20 7 20 9 0 2 -9 4 -20 4 -11 0
-20 -4 -20 -9z"/>
<path d="M4057 1484 c7 -3 9 -13 6 -22 -6 -15 -3 -14 15 2 28 24 28 26 -5 25
-16 0 -23 -3 -16 -5z"/>
<path d="M2116 1448 c3 -4 9 -8 15 -8 5 0 9 4 9 8 0 5 -7 9 -15 9 -8 0 -12 -4
-9 -9z"/>
<path d="M3985 1440 c4 -6 11 -8 16 -5 14 9 11 15 -7 15 -8 0 -12 -5 -9 -10z"/>
<path d="M2155 1420 c3 -5 8 -10 11 -10 2 0 4 5 4 10 0 6 -5 10 -11 10 -5 0
-7 -4 -4 -10z"/>
<path d="M3865 1320 c-3 -5 -2 -10 4 -10 5 0 13 5 16 10 3 6 2 10 -4 10 -5 0
-13 -4 -16 -10z"/>
<path d="M3830 1290 c0 -5 5 -10 10 -10 6 0 10 5 10 10 0 6 -4 10 -10 10 -5 0
-10 -4 -10 -10z"/>
<path d="M2380 1252 c19 -15 38 -27 41 -27 4 0 11 -3 15 -7 11 -11 34 -10 34
2 0 6 -8 10 -18 10 -9 0 -34 11 -54 25 -49 33 -62 32 -18 -3z"/>
<path d="M3730 1270 c0 -5 5 -10 11 -10 5 0 7 5 4 10 -3 6 -8 10 -11 10 -2 0
-4 -4 -4 -10z"/>
<path d="M3790 1260 c-13 -8 -13 -10 2 -10 9 0 20 5 23 10 8 13 -5 13 -25 0z"/>
<path d="M3750 1235 c-10 -12 -10 -15 4 -15 9 0 16 7 16 15 0 8 -2 15 -4 15
-2 0 -9 -7 -16 -15z"/>
<path d="M2570 1160 c-12 -7 -10 -9 8 -7 12 0 22 5 22 9 0 11 -12 10 -30 -2z"/>
<path d="M3620 1140 c-8 -5 -12 -12 -9 -15 8 -8 39 5 39 16 0 11 -11 11 -30
-1z"/>
<path d="M2545 1130 c3 -5 8 -10 11 -10 2 0 4 5 4 10 0 6 -5 10 -11 10 -5 0
-7 -4 -4 -10z"/>
<path d="M1535 1104 c-38 -20 -175 -154 -175 -171 0 -23 15 -14 80 52 35 36
69 65 75 65 6 0 29 -18 50 -41 52 -53 249 -202 348 -262 42 -25 77 -45 77 -43
0 18 -35 66 -45 62 -28 -10 -405 277 -405 308 0 23 28 38 57 32 15 -4 46 -23
68 -42 56 -49 180 -136 240 -168 49 -26 105 -35 105 -17 0 5 -9 7 -20 4 -36
-9 -174 72 -300 178 -43 36 -88 59 -113 59 -7 -1 -25 -8 -42 -16z"/>
<path d="M2587 1114 c-8 -8 1 -24 14 -24 5 0 9 7 9 15 0 15 -12 20 -23 9z"/>
<path d="M4555 1108 c-11 -6 -51 -36 -88 -65 -111 -89 -221 -153 -262 -153
-22 0 -34 -4 -30 -10 10 -16 42 -12 88 11 59 31 181 114 250 171 55 46 85 56
121 42 9 -3 16 -12 16 -19 0 -23 -195 -185 -341 -283 -42 -28 -79 -58 -82 -67
-6 -13 -3 -14 16 -4 77 41 237 158 352 258 39 33 75 61 80 61 6 0 48 -38 95
-85 66 -67 86 -82 93 -70 6 11 -1 23 -25 43 -18 15 -57 53 -87 85 -86 91 -142
116 -196 85z"/>
<path d="M3502 1054 c9 -9 21 -13 28 -9 14 9 -5 25 -30 25 -12 0 -12 -3 2 -16z"/>
<path d="M3450 1040 c-13 -8 -12 -10 3 -10 9 0 17 5 17 10 0 12 -1 12 -20 0z"/>
<path d="M2690 1020 c0 -5 7 -10 16 -10 8 0 12 5 9 10 -3 6 -10 10 -16 10 -5
0 -9 -4 -9 -10z"/>
<path d="M3440 1000 c0 -5 5 -10 10 -10 6 0 10 5 10 10 0 6 -4 10 -10 10 -5 0
-10 -4 -10 -10z"/>
<path d="M3370 970 c0 -6 5 -10 11 -10 8 0 8 -5 -1 -15 -9 -10 -9 -15 -1 -15
6 0 11 2 11 4 0 2 3 11 6 19 3 8 -2 17 -10 20 -9 4 -16 2 -16 -3z"/>
<path d="M2805 930 c3 -5 8 -10 11 -10 2 0 4 5 4 10 0 6 -5 10 -11 10 -5 0 -7
-4 -4 -10z"/>
<path d="M3301 904 c-10 -12 -15 -13 -21 -4 -4 7 -14 10 -21 8 -10 -3 -7 -8 9
-17 18 -10 29 -10 52 1 16 7 26 16 24 20 -8 13 -28 9 -43 -8z"/>
<path d="M3240 860 c8 -5 20 -10 25 -10 6 0 3 5 -5 10 -8 5 -19 10 -25 10 -5
0 -3 -5 5 -10z"/>
<path d="M2940 826 c0 -9 5 -16 10 -16 6 0 10 4 10 9 0 6 -4 13 -10 16 -5 3
-10 -1 -10 -9z"/>
<path d="M3159 799 c12 -12 25 -18 28 -15 9 9 -18 36 -35 36 -12 0 -11 -5 7
-21z"/>
<path d="M1536 759 c-18 -49 -46 -147 -46 -161 0 -22 9 -23 38 -2 16 11 21 22
16 36 -3 11 2 40 11 65 16 41 16 46 2 61 -14 13 -17 13 -21 1z"/>
<path d="M3145 760 c-3 -5 -2 -10 4 -10 5 0 13 5 16 10 3 6 2 10 -4 10 -5 0
-13 -4 -16 -10z"/>
<path d="M4575 720 c-3 -5 -1 -10 4 -10 6 0 11 5 11 10 0 6 -2 10 -4 10 -3 0
-8 -4 -11 -10z"/>
<path d="M3091 704 c0 -11 3 -14 6 -6 3 7 2 16 -1 19 -3 4 -6 -2 -5 -13z"/>
<path d="M1613 693 c-3 -10 -11 -24 -17 -32 -6 -8 -11 -26 -12 -40 0 -14 -4
-43 -8 -63 -10 -47 2 -49 46 -7 18 17 27 28 20 24 -29 -15 -22 37 16 107 2 4
-6 12 -18 18 -17 9 -21 8 -27 -7z"/>
<path d="M4513 683 c-27 -9 -11 -29 43 -55 l55 -27 -3 27 c-2 16 -8 26 -16 24
-7 -1 -25 6 -40 16 -15 11 -33 17 -39 15z"/>
<path d="M4407 628 c-9 -34 73 -122 94 -101 6 6 -1 22 -21 43 -16 17 -30 38
-30 46 0 7 -9 18 -19 23 -15 9 -20 7 -24 -11z"/>
<path d="M1700 630 c0 -5 7 -10 15 -10 8 0 15 5 15 10 0 6 -7 10 -15 10 -8 0
-15 -4 -15 -10z"/>
<path d="M4307 624 c-13 -13 -7 -24 14 -24 11 0 19 5 17 12 -5 14 -22 21 -31
12z"/>
<path d="M4337 564 c-3 -4 4 -21 17 -38 13 -17 26 -39 29 -49 5 -14 11 -16 26
-7 20 10 19 12 -10 55 -28 42 -47 54 -62 39z"/>
<path d="M4575 550 c3 -5 13 -10 21 -10 8 0 14 5 14 10 0 6 -9 10 -21 10 -11
0 -17 -4 -14 -10z"/>
<path d="M1698 533 c-23 -27 -29 -52 -18 -74 13 -24 30 -25 30 -1 0 22 22 72
33 72 4 0 7 5 7 10 0 16 -36 11 -52 -7z"/>
<path d="M1766 501 c-17 -19 -17 -21 -2 -27 22 -8 28 -1 24 26 l-3 22 -19 -21z"/>
<path d="M4247 513 c-12 -12 -7 -21 14 -26 11 -3 25 -19 32 -36 7 -19 18 -31
29 -31 24 0 23 13 -7 60 -23 37 -51 50 -68 33z"/>
<path d="M4191 481 c-11 -7 -9 -15 13 -43 14 -19 26 -40 26 -46 0 -15 27 -16
35 -1 4 5 0 18 -8 27 -9 9 -19 29 -22 45 -7 28 -20 33 -44 18z"/>
<path d="M1913 443 c-15 -5 -18 -33 -4 -33 13 0 33 28 24 33 -4 2 -14 2 -20 0z"/>
<path d="M4100 428 c0 -7 7 -22 15 -32 8 -11 15 -28 15 -38 0 -13 8 -18 26
-18 14 0 24 3 22 8 -2 4 -12 26 -23 50 -12 26 -26 42 -37 42 -10 0 -18 -6 -18
-12z"/>
<path d="M1960 417 c0 -8 -7 -28 -16 -46 -17 -34 -13 -61 9 -61 15 0 42 93 32
110 -9 14 -25 12 -25 -3z"/>
<path d="M4026 402 c-6 -9 39 -83 56 -93 8 -4 20 -4 28 1 13 8 12 12 -6 24
-12 9 -27 29 -34 46 -12 28 -33 39 -44 22z"/>
<path d="M1878 389 c-24 -13 -23 -36 2 -49 11 -6 20 -9 21 -8 6 27 7 68 1 68
-4 0 -15 -5 -24 -11z"/>
<path d="M2050 373 c0 -10 -9 -32 -19 -49 -14 -23 -16 -35 -8 -43 16 -16 37
-14 37 4 0 8 8 30 17 50 15 31 15 37 3 45 -22 14 -30 12 -30 -7z"/>
<path d="M3937 364 c-4 -4 2 -13 13 -21 11 -8 23 -28 28 -45 9 -35 29 -48 38
-25 9 23 -28 92 -51 95 -12 2 -24 0 -28 -4z"/>
<path d="M2112 349 c2 -6 8 -10 13 -10 5 0 11 4 13 10 2 6 -4 11 -13 11 -9 0
-15 -5 -13 -11z"/>
<path d="M3860 334 c-8 -9 -6 -14 9 -19 13 -4 24 -21 31 -46 11 -41 19 -46 37
-28 8 8 7 18 -3 37 -8 15 -14 34 -14 43 0 21 -46 31 -60 13z"/>
<path d="M2165 316 c-28 -28 -31 -52 -11 -78 19 -26 23 -23 30 24 4 23 11 47
17 54 21 25 -11 25 -36 0z"/>
<path d="M2400 326 c0 -9 7 -16 16 -16 9 0 14 5 12 12 -6 18 -28 21 -28 4z"/>
<path d="M2232 295 c-7 -15 -8 -26 -2 -30 15 -9 30 4 30 25 0 29 -16 32 -28 5z"/>
<path d="M3798 314 c-10 -9 35 -104 50 -104 10 0 12 7 8 23 -4 12 -9 37 -13
55 -5 30 -28 43 -45 26z"/>
<path d="M3705 289 c-4 -6 1 -16 10 -23 9 -6 20 -27 24 -46 4 -22 13 -36 25
-38 16 -4 18 1 12 35 -12 65 -51 105 -71 72z"/>
<path d="M2377 243 c-3 -21 -9 -48 -13 -60 -5 -18 -2 -23 12 -23 15 0 22 12
31 51 13 54 11 69 -11 69 -8 0 -16 -16 -19 -37z"/>
<path d="M3257 272 c-23 -5 -47 -53 -47 -92 0 -37 47 -90 80 -90 20 0 20 1 -5
23 -36 30 -47 108 -20 137 20 22 18 28 -8 22z"/>
<path d="M3332 264 c1 -9 9 -19 16 -22 9 -3 13 2 10 14 -1 9 -9 19 -16 22 -9
3 -13 -2 -10 -14z"/>
<path d="M2830 199 c0 -39 -4 -79 -10 -89 -7 -13 -6 -19 4 -23 23 -9 34 7 37
58 4 90 0 125 -16 125 -12 0 -15 -15 -15 -71z"/>
<path d="M3620 264 c0 -4 7 -12 16 -18 9 -7 19 -27 23 -46 4 -23 13 -36 25
-38 17 -4 18 0 11 29 -4 19 -8 43 -9 54 -2 15 -11 21 -34 23 -18 2 -32 0 -32
-4z"/>
<path d="M2476 248 c-3 -7 -6 -26 -9 -43 -2 -16 -6 -37 -8 -45 -3 -9 4 -16 19
-18 18 -3 22 1 22 25 0 36 22 69 40 58 9 -5 10 -22 6 -56 -6 -44 -5 -49 12
-49 16 0 20 9 25 47 7 61 1 73 -35 73 -16 0 -38 5 -49 10 -14 8 -20 8 -23 -2z"/>
<path d="M3564 228 c4 -13 9 -38 13 -56 4 -23 10 -32 22 -30 9 2 15 12 13 23
-1 11 -3 35 -4 53 -2 27 -6 32 -26 32 -21 0 -23 -4 -18 -22z"/>
<path d="M2722 228 c-19 -19 -16 -127 4 -135 8 -3 20 -1 27 6 8 8 8 11 -1 11
-15 0 -16 44 -1 71 10 20 4 59 -10 59 -4 0 -12 -5 -19 -12z"/>
<path d="M3486 209 c10 -19 14 -43 10 -61 -5 -26 -4 -28 14 -18 29 15 27 74
-2 94 -34 24 -40 19 -22 -15z"/>
<path d="M4315 203 c-33 -19 -49 -31 -35 -27 34 9 97 42 105 54 10 16 -6 10
-70 -27z"/>
<path d="M3413 204 c-15 -24 -15 -29 -2 -53 8 -14 23 -27 33 -29 15 -3 16 -1
6 18 -7 12 -10 38 -8 56 5 41 -5 43 -29 8z"/>
<path d="M2894 182 c12 -14 17 -32 14 -58 -2 -31 1 -39 15 -42 16 -3 18 3 15
55 -3 56 -4 58 -33 61 -29 4 -29 3 -11 -16z"/>
<path d="M2996 174 c-10 -26 -7 -69 6 -82 7 -7 21 -12 32 -12 19 0 19 1 4 16
-11 12 -14 27 -11 55 5 31 2 39 -10 39 -8 0 -18 -7 -21 -16z"/>
<path d="M3064 168 c1 -13 9 -24 19 -26 20 -4 23 18 5 36 -18 18 -25 15 -24
-10z"/>
<path d="M2363 3 c9 -2 23 -2 30 0 6 3 -1 5 -18 5 -16 0 -22 -2 -12 -5z"/>
<path d="M3798 3 c7 -3 16 -2 19 1 4 3 -2 6 -13 5 -11 0 -14 -3 -6 -6z"/>
</g>
</svg>
