<?xml version="1.0" standalone="no"?>
<!DOCTYPE svg PUBLIC "-//W3C//DTD SVG 20010904//EN"
 "http://www.w3.org/TR/2001/REC-SVG-20010904/DTD/svg10.dtd">
<svg version="1.0" xmlns="http://www.w3.org/2000/svg"
 width="886.000000pt" height="327.000000pt" viewBox="0 0 886.000000 327.000000"
 preserveAspectRatio="xMidYMid meet">

<g transform="translate(0.000000,327.000000) scale(0.100000,-0.100000)"
fill="#000000" stroke="none">
<path d="M2009 2374 c-23 -29 1 -49 65 -52 l56 -3 0 -84 0 -85 -60 0 c-53 0
-60 2 -60 20 0 15 7 20 29 20 16 0 36 3 45 6 21 8 21 50 0 58 -28 11 -120 6
-132 -6 -7 -7 -12 -40 -12 -78 0 -38 5 -71 12 -78 16 -16 220 -16 236 0 8 8
12 54 12 143 0 89 -4 135 -12 143 -19 19 -162 16 -179 -4z"/>
<path d="M4352 2348 c-19 -19 -17 -1201 2 -1217 9 -7 38 -11 73 -9 l58 3 3 58
3 58 39 -35 c126 -113 321 -137 488 -59 67 32 158 115 199 184 84 141 84 347
0 488 -41 69 -131 152 -202 186 -149 73 -360 49 -477 -54 -20 -17 -38 -31 -42
-31 -3 0 -7 98 -8 218 l-3 217 -60 3 c-38 2 -65 -2 -73 -10z m562 -459 c72
-27 145 -93 181 -166 27 -51 30 -68 30 -148 0 -71 -5 -100 -22 -137 -29 -63
-96 -134 -158 -166 -43 -23 -62 -27 -140 -27 -103 0 -145 17 -220 86 -123 113
-134 337 -24 463 93 106 228 142 353 95z"/>
<path d="M6562 2348 c-8 -8 -12 -56 -12 -165 l0 -153 -63 0 c-36 0 -68 -5 -75
-12 -7 -7 -12 -33 -12 -58 0 -25 5 -51 12 -58 7 -7 39 -12 75 -12 l63 0 0
-374 c0 -310 2 -376 14 -385 9 -7 38 -11 73 -9 l58 3 3 383 2 382 78 0 c47 0
83 5 90 12 7 7 12 33 12 58 0 25 -5 51 -12 58 -7 7 -43 12 -90 12 l-78 0 -2
163 -3 162 -60 3 c-38 2 -65 -2 -73 -10z"/>
<path d="M1304 2045 c-109 -24 -196 -82 -237 -159 -31 -59 -31 -193 0 -252 27
-50 83 -101 141 -126 53 -24 72 -18 72 22 0 25 -7 33 -47 54 -57 28 -77 49
-98 99 -47 113 11 223 145 273 68 26 207 24 298 -4 l72 -23 -25 -34 -26 -33
-57 30 c-52 27 -63 30 -133 26 -93 -5 -138 -30 -168 -92 -35 -72 -23 -154 31
-204 14 -12 63 -38 109 -57 46 -19 94 -46 107 -60 30 -35 29 -80 -3 -101 -56
-37 -226 5 -297 73 -40 38 -65 26 -120 -59 -66 -103 -66 -104 -27 -144 159
-164 486 -191 642 -54 65 57 90 111 95 206 4 76 2 89 -23 139 -32 67 -60 88
-193 151 -109 50 -133 52 -140 7 -4 -27 31 -51 129 -92 112 -47 149 -92 149
-186 0 -70 -17 -112 -65 -158 -104 -101 -339 -98 -492 6 -39 26 -40 33 -9 71
l23 30 35 -22 c98 -61 235 -79 315 -42 75 34 104 118 67 197 -22 44 -62 73
-149 107 -121 48 -157 108 -101 173 22 26 30 28 93 28 63 0 73 -3 121 -37 29
-21 58 -38 66 -38 14 0 104 93 132 136 8 11 12 27 9 35 -15 38 -151 101 -255
118 -81 13 -109 13 -186 -4z"/>
<path d="M2825 2046 c-38 -11 -61 -26 -96 -64 -77 -84 -82 -110 -87 -459 l-4
-303 -54 0 -54 0 0 375 0 375 40 0 c34 0 41 4 46 25 10 39 -11 55 -73 55 -101
0 -93 41 -93 -455 0 -419 1 -435 19 -445 25 -13 207 -13 232 0 18 10 19 24 19
253 0 133 5 258 10 278 26 93 132 127 230 73 40 -22 55 -26 68 -17 24 14 114
202 107 222 -7 21 -64 59 -114 77 -63 21 -140 25 -196 10z m184 -92 l40 -16
-26 -51 c-14 -29 -26 -53 -28 -55 -1 -1 -18 5 -38 13 -46 19 -127 19 -174 0
-51 -22 -55 -19 -38 23 42 100 145 134 264 86z"/>
<path d="M3510 2050 c-191 -40 -330 -235 -330 -463 1 -238 137 -410 354 -448
81 -14 184 -1 248 32 l39 20 20 -25 c20 -25 25 -26 128 -26 70 0 111 4 119 12
17 17 17 869 0 886 -18 18 -162 16 -177 -2 -7 -8 -11 -34 -9 -58 3 -41 5 -43
36 -46 27 -3 35 1 39 17 3 12 14 21 24 21 18 0 19 -14 19 -376 l0 -375 -52 3
-53 3 -3 57 c-2 44 -7 60 -22 68 -26 14 -41 5 -73 -41 -89 -128 -336 -124
-458 8 -151 164 -122 481 56 603 56 38 153 64 208 55 60 -10 135 -54 163 -94
13 -19 22 -36 21 -38 -2 -1 -21 7 -44 18 -133 65 -293 10 -357 -124 -35 -73
-41 -132 -22 -207 33 -129 112 -199 236 -208 166 -12 268 86 290 276 16 143
-12 266 -80 352 -62 78 -207 123 -320 100z m185 -251 c59 -16 110 -75 125
-142 31 -136 -55 -257 -180 -257 -135 0 -229 176 -163 305 26 50 51 73 100 91
47 16 67 17 118 3z"/>
<path d="M1952 2038 c-17 -17 -17 -869 0 -886 19 -19 222 -16 242 4 14 13 16
59 16 353 0 249 -3 340 -12 349 -7 7 -40 12 -78 12 -64 0 -90 -10 -90 -36 0
-23 31 -44 66 -44 l34 0 -2 -282 -3 -283 -52 -3 -53 -3 0 375 0 376 53 0 c71
0 98 28 61 64 -19 20 -163 23 -182 4z"/>
<path d="M5740 2039 c-220 -43 -393 -288 -364 -518 27 -220 185 -383 399 -414
292 -42 535 171 535 468 0 144 -47 252 -155 354 -107 101 -257 141 -415 110z
m199 -145 c76 -22 170 -116 201 -199 31 -85 25 -196 -15 -279 -123 -248 -477
-228 -576 33 -28 76 -23 203 11 275 70 146 226 216 379 170z"/>
<path d="M7300 2040 c-123 -26 -256 -133 -317 -256 -33 -68 -37 -84 -41 -177
-7 -166 32 -270 144 -377 72 -69 146 -107 239 -123 122 -21 273 18 357 92 20
17 38 31 41 31 3 0 7 -24 9 -52 l3 -53 58 -3 c35 -2 64 2 73 9 12 10 14 83 14
444 0 361 -2 434 -14 444 -9 7 -38 11 -73 9 l-58 -3 -3 -57 -3 -57 -54 43
c-29 24 -79 54 -112 66 -66 25 -192 35 -263 20z m254 -164 c69 -34 129 -100
157 -175 28 -76 24 -214 -10 -279 -34 -65 -87 -118 -149 -149 -49 -24 -69 -28
-142 -28 -73 0 -92 4 -136 27 -67 35 -138 115 -164 186 -18 46 -21 72 -18 137
8 144 86 251 218 299 67 24 173 16 244 -18z"/>
</g>
</svg>
