<svg version="1.1" id="Layer_1" xmlns="http://www.w3.org/2000/svg" xmlns:xlink="http://www.w3.org/1999/xlink" x="0px" y="0px"
	 width="100%" viewBox="0 0 139 185" enable-background="new 0 0 139 185" xml:space="preserve">
<path fill="#FFFFFF" opacity="1.000000" stroke="none" 
	d="
M5.000000,186.000000 
	C3.672903,186.000000 2.345806,186.000000 1.000000,186.000000 
	C1.000000,156.312439 1.000000,126.624878 1.337744,96.588364 
	C4.692630,106.355904 18.423134,108.413376 25.982351,102.615677 
	C34.862488,95.804863 31.417831,83.617813 21.526756,80.903252 
	C12.744401,78.492973 5.329032,81.417450 1.000000,90.000000 
	C1.000000,60.333332 1.000000,30.666664 1.000000,1.000000 
	C2.010820,1.000000 3.005410,1.000000 4.500000,1.468657 
	C5.000000,23.134277 5.000000,44.331242 5.000000,64.762001 
	C12.604710,64.762001 19.678677,64.762001 27.000000,64.762001 
	C27.000000,43.256565 27.000000,22.128283 27.000000,1.000000 
	C53.354229,1.000000 79.708458,1.000000 106.440498,1.331960 
	C94.982567,11.834044 83.189842,22.054832 71.295570,32.156048 
	C63.677124,38.626015 55.850086,44.850266 48.226822,51.314705 
	C42.412785,56.244953 36.771919,61.379417 31.583017,65.956413 
	C37.056576,70.665016 42.186829,75.078293 47.718185,79.836609 
	C62.843090,66.979050 78.488075,53.746468 94.056030,40.423862 
	C106.420105,29.843046 118.652641,19.108408 131.029938,8.543235 
	C133.836670,6.147426 137.000519,4.170005 140.000000,2.000001 
	C140.000000,62.354229 140.000000,122.708458 139.666199,183.440659 
	C138.500671,183.320160 137.578552,182.927734 136.850693,182.307388 
	C125.232773,172.405273 113.611618,162.506577 102.047905,152.541306 
	C87.114944,139.672501 72.252785,126.721512 57.312389,113.861389 
	C54.003571,111.013283 50.495102,108.397102 47.814270,106.260483 
	C41.986774,110.900307 36.726788,115.088287 31.217739,119.474564 
	C31.944454,120.249504 32.944508,121.543617 34.163570,122.580154 
	C44.781319,131.608093 55.425556,140.605042 66.087891,149.580368 
	C73.856384,156.119720 81.752014,162.510986 89.426994,169.157593 
	C95.743042,174.627335 101.818123,180.375336 108.000000,186.000000 
	C81.312439,186.000000 54.624878,186.000000 27.468658,185.531342 
	C27.000000,163.451569 27.000000,141.840454 27.000000,121.075272 
	C19.543848,121.075272 12.517216,121.075272 5.000000,121.075272 
	C5.000000,142.141830 5.000000,164.070923 5.000000,186.000000 
z"/>
<path fill="#0078D7" opacity="1.000000" stroke="none" 
	d="
M108.468658,186.000000 
	C101.818123,180.375336 95.743042,174.627335 89.426994,169.157593 
	C81.752014,162.510986 73.856384,156.119720 66.087891,149.580368 
	C55.425556,140.605042 44.781319,131.608093 34.163570,122.580154 
	C32.944508,121.543617 31.944454,120.249504 31.217739,119.474564 
	C36.726788,115.088287 41.986774,110.900307 47.814270,106.260483 
	C50.495102,108.397102 54.003571,111.013283 57.312389,113.861389 
	C72.252785,126.721512 87.114944,139.672501 102.047905,152.541306 
	C113.611618,162.506577 125.232773,172.405273 136.850693,182.307388 
	C137.578552,182.927734 138.500671,183.320160 139.666199,183.909317 
	C140.609482,186.403900 138.903702,185.996918 137.558746,185.997559 
	C128.018265,186.002136 118.477791,186.000000 108.468658,186.000000 
z"/>
<path fill="#0078D7" opacity="1.000000" stroke="none" 
	d="
M140.000000,1.500001 
	C137.000519,4.170005 133.836670,6.147426 131.029938,8.543235 
	C118.652641,19.108408 106.420105,29.843046 94.056030,40.423862 
	C78.488075,53.746468 62.843090,66.979050 47.718185,79.836609 
	C42.186829,75.078293 37.056576,70.665016 31.583017,65.956413 
	C36.771919,61.379417 42.412785,56.244953 48.226822,51.314705 
	C55.850086,44.850266 63.677124,38.626015 71.295570,32.156048 
	C83.189842,22.054832 94.982567,11.834044 106.909157,1.331960 
	C118.000000,1.000000 129.000000,1.000000 140.000000,1.500001 
z"/>
<path fill="#0078D7" opacity="1.000000" stroke="none" 
	d="
M5.468577,186.000000 
	C5.000000,164.070923 5.000000,142.141830 5.000000,121.075272 
	C12.517216,121.075272 19.543848,121.075272 27.000000,121.075272 
	C27.000000,141.840454 27.000000,163.451569 27.000000,185.531342 
	C19.979052,186.000000 12.958103,186.000000 5.468577,186.000000 
z"/>
<path fill="#0078D7" opacity="1.000000" stroke="none" 
	d="
M26.531422,1.000000 
	C27.000000,22.128283 27.000000,43.256565 27.000000,64.762001 
	C19.678677,64.762001 12.604710,64.762001 5.000000,64.762001 
	C5.000000,44.331242 5.000000,23.134277 5.000000,1.468657 
	C12.020947,1.000000 19.041895,1.000000 26.531422,1.000000 
z"/>
<path fill="#0078D7" opacity="1.000000" stroke="none" 
	d="
M1.000000,90.428467 
	C5.329032,81.417450 12.744401,78.492973 21.526756,80.903252 
	C31.417831,83.617813 34.862488,95.804863 25.982351,102.615677 
	C18.423134,108.413376 4.692630,106.355904 1.337744,96.119705 
	C1.000000,94.285645 1.000000,92.571281 1.000000,90.428467 
z"/>
</svg>