<?xml version="1.0" encoding="utf-8"?>
<!-- Generator: Adobe Illustrator 28.0.0, SVG Export Plug-In . SVG Version: 6.00 Build 0)  -->
<svg version="1.1" id="Layer_1" xmlns="http://www.w3.org/2000/svg" xmlns:xlink="http://www.w3.org/1999/xlink" x="0px" y="0px"
	 viewBox="0 0 1080 395.08" style="enable-background:new 0 0 1080 395.08;" xml:space="preserve">
<style type="text/css">
	.st0{fill:#0D1B33;}
	.st1{fill:#7CC243;}
	.st2{opacity:0.59;fill:#7CC243;}
	.st3{fill:url(#SVGID_1_);}
	.st4{fill:url(#SVGID_00000179629859705083761450000007386257263824058812_);}
	.st5{fill:url(#SVGID_00000115495621871357773130000004216757868449568684_);}
	.st6{fill:url(#SVGID_00000019666144560741090700000014649319095316248243_);}
	.st7{fill:url(#SVGID_00000000222729618508805380000014587535410652512903_);}
	.st8{opacity:0.59;fill:url(#SVGID_00000057866662263875248350000011934292530657604771_);}
	.st9{opacity:0.59;fill:url(#SVGID_00000027594405171480940430000016664627765589022648_);}
	.st10{opacity:0.59;fill:url(#SVGID_00000137108616533890732230000000352023395238756518_);}
	.st11{opacity:0.59;fill:url(#SVGID_00000052785311522894930640000013955089895301608837_);}
	.st12{fill:url(#SVGID_00000064344452750653987800000012848965188948052125_);}
	.st13{fill:url(#SVGID_00000111912062010689909110000014831060096951572101_);}
	.st14{fill:url(#SVGID_00000096041624095547568540000014507946153677209489_);}
	.st15{fill:url(#SVGID_00000155829483603324264690000015914202843034350741_);}
	.st16{fill:url(#SVGID_00000053526226428255721010000012608347455170532011_);}
	.st17{fill:url(#SVGID_00000133492570755880407660000012205446862908590217_);}
	.st18{fill:url(#SVGID_00000008828237668081223400000008910802631511175296_);}
	.st19{fill:url(#SVGID_00000062168017611601081080000009321228798334234279_);}
	.st20{fill:url(#SVGID_00000075868402576262212980000003051994232621858462_);}
	.st21{opacity:0.59;fill:url(#SVGID_00000157284187167008785650000015999430491427839637_);}
	.st22{opacity:0.59;fill:url(#SVGID_00000038412710587700039050000006144994651531368064_);}
	.st23{opacity:0.59;fill:url(#SVGID_00000036235034987082374570000014384721643396179388_);}
	.st24{opacity:0.59;fill:url(#SVGID_00000095340658754049848750000001035640804263688379_);}
	.st25{fill:url(#SVGID_00000086672572667257239780000016279053932160442241_);}
	.st26{fill:url(#SVGID_00000150068317267820204870000003058728249129861024_);}
	.st27{fill:url(#SVGID_00000156587933197504474560000004189959383409050240_);}
	.st28{fill:url(#SVGID_00000106869551550283826270000004292851263671159462_);}
	.st29{fill:url(#SVGID_00000054973194019989332790000006350714546753419434_);}
	.st30{fill:url(#SVGID_00000093144940812847367700000013124018508907977911_);}
	.st31{fill:url(#SVGID_00000143589900310021098080000000197815152041398928_);}
	.st32{fill:url(#SVGID_00000025418217907289838450000002604274924458662076_);}
	.st33{fill:url(#SVGID_00000074436963210124506880000017219612648762746785_);}
	.st34{opacity:0.59;fill:url(#SVGID_00000003106484758629492070000001007620307789004421_);}
	.st35{opacity:0.59;fill:url(#SVGID_00000060015668265202020920000011000639005734351523_);}
	.st36{opacity:0.59;fill:url(#SVGID_00000098189286879994735660000003880888802983289773_);}
	.st37{opacity:0.59;fill:url(#SVGID_00000066513990525648511920000012031513257895309442_);}
	.st38{fill:url(#SVGID_00000089539619537357008400000016101571506877496969_);}
	.st39{fill:url(#SVGID_00000032629569179599000940000001846208806639204740_);}
	.st40{fill:url(#SVGID_00000058589082341762927970000013008376331222562692_);}
	.st41{fill:url(#SVGID_00000033367474998075003000000002044616632543565954_);}
	.st42{fill:url(#SVGID_00000144326795366699279630000007918721995853924529_);}
	.st43{fill:url(#SVGID_00000106147541660832124760000007792994119280683967_);}
	.st44{fill:url(#SVGID_00000129907830116676047980000006116855524671549373_);}
	.st45{fill:url(#SVGID_00000041296897388767669300000004677779733514004390_);}
	.st46{fill:url(#SVGID_00000141439057540776362160000016175867669529823107_);}
	.st47{opacity:0.59;fill:url(#SVGID_00000155134117761878018160000007696038272810265004_);}
	.st48{opacity:0.59;fill:url(#SVGID_00000160192682993537349150000005422775455035476379_);}
	.st49{opacity:0.59;fill:url(#SVGID_00000121995387643851840850000001873174535723154581_);}
	.st50{opacity:0.59;fill:url(#SVGID_00000001658035619547101530000001765691151491798201_);}
	.st51{fill:url(#SVGID_00000098929845805833007730000011419214068349472959_);}
	.st52{fill:url(#SVGID_00000109030022044393784840000013679610090505750448_);}
	.st53{fill:url(#SVGID_00000152222044760706008910000008724220341729323184_);}
	.st54{fill:url(#SVGID_00000067947190939644521480000004997281240580124606_);}
	.st55{opacity:0.59;fill:url(#SVGID_00000098184373432995894690000000876423414458207926_);}
	.st56{opacity:0.59;fill:url(#SVGID_00000088815235311918028910000016992574519813771926_);}
	.st57{opacity:0.59;fill:url(#SVGID_00000112615881096142208080000005654060912283568527_);}
	.st58{opacity:0.59;fill:url(#SVGID_00000052102949753357103180000016695823059635710609_);}
	.st59{fill:url(#SVGID_00000150091694838306124470000008203170438529379978_);}
	.st60{fill:url(#SVGID_00000047037320138925989620000009327961510822323884_);}
	.st61{fill:url(#SVGID_00000127726736224205080120000009569907016041338023_);}
	.st62{fill:url(#SVGID_00000177469225820668492750000006189080202671341759_);}
	.st63{opacity:0.59;fill:#F2F2F3;}
	.st64{fill:#F2F2F3;}
</style>
<g>
	<path class="st1" d="M770.23,267.21c0,0.8,0,1.32,0,1.85c0,12.75,0,25.51,0,38.26c0,1.72-0.01,1.76-1.69,1.66
		c-7.42-0.48-13.94-3.11-19.45-8.16c-5.74-5.26-9-11.8-10.02-19.48c-0.21-1.62-0.28-3.27-0.29-4.91
		c-0.13-14.8-0.22-29.61-0.34-44.41c-0.03-4.18-0.14-8.36-0.18-12.54c-0.11-11.63,3.49-21.95,10.68-31.12
		c9.64-12.31,22.3-19.58,37.53-22.2c14.91-2.56,29.13-0.16,42.11,7.83c10.99,6.76,19.16,16.04,23.37,28.38
		c1.25,3.65,2.02,7.56,2.32,11.4c1.23,16-3.38,30.17-14.75,41.64c-7.39,7.47-16.19,12.91-26.56,15.5
		c-12.83,3.21-25.51,2.85-38.02-1.5C773.41,268.88,771.99,268.04,770.23,267.21z M795.57,244.64c1.7-0.11,2.89-0.14,4.07-0.27
		c7.19-0.8,12.88-4.32,17.5-9.73c3.66-4.29,5.82-9.27,5.96-14.89c0.21-8.35-2.97-15.24-9.66-20.39c-6.02-4.63-12.8-6.47-20.32-5.49
		c-5.54,0.72-10.19,3.21-14.4,6.88c-9.62,8.38-11.89,21.32-5.05,31.49C779.1,240.3,786.64,244.04,795.57,244.64z"/>
	<path class="st1" d="M504.31,152.45c-1.87,1.95-3.64,3.89-5.51,5.73c-5.23,5.15-10.53,10.23-15.75,15.39
		c-0.85,0.84-1.35,0.79-2.18,0c-6.24-5.92-13.64-9.53-22.21-10.37c-7.96-0.79-15.53,0.81-22.5,4.8
		c-9.88,5.66-16.19,14.07-18.77,25.16c-1.93,8.29-1.06,16.36,2.42,24.14c2.58,5.76,6.33,10.62,11.29,14.51
		c6.94,5.45,14.83,8.28,23.68,8.31c8.89,0.03,16.99-2.38,24-8.02c1.08-0.87,2.09-1.84,3.21-2.83c0.33,0.28,0.65,0.52,0.93,0.8
		c6.73,6.72,13.45,13.46,20.2,20.17c0.7,0.7,0.79,1.11,0.01,1.85c-6.55,6.16-13.91,11.07-22.26,14.45
		c-6.74,2.73-13.73,4.33-20.99,4.87c-10.86,0.81-21.34-0.77-31.46-4.76c-9.17-3.61-17.21-8.95-24.09-16.03
		c-11.23-11.55-17.76-25.33-19.5-41.35c-1.55-14.22,0.99-27.71,7.61-40.36c6.48-12.39,15.9-22.01,28.18-28.73
		c11.69-6.4,24.26-9.33,37.53-8.52c17.23,1.05,32.33,7.31,44.83,19.41c0.41,0.4,0.83,0.79,1.24,1.2
		C504.27,152.32,504.29,152.41,504.31,152.45z"/>
	<path class="st1" d="M546.5,174.25c2.14-1.56,3.92-3.09,5.92-4.27c5.6-3.33,11.71-5.08,18.24-5.21c6.76-0.14,13.32,0.76,19.5,3.73
		c6.65,3.2,11.27,8.3,14.38,14.91c2.87,6.12,3.97,12.65,4.48,19.3c0.24,3.1,0.26,6.23,0.26,9.34c0.02,18.7,0.01,37.4,0.01,56.1
		c0,1.77-0.01,1.82-1.77,1.69c-7.29-0.52-13.67-3.21-19.09-8.13c-5.78-5.24-9.25-11.73-10.27-19.48c-0.2-1.5-0.17-3.03-0.17-4.54
		c0-9.31,0.14-18.62-0.02-27.93c-0.12-6.78-2.79-12.36-9.22-15.35c-4.63-2.15-9.38-1.35-13.97,0.48c-5.33,2.12-7.55,6.57-8.44,11.82
		c-0.39,2.33-0.46,4.73-0.46,7.11c-0.04,17.96-0.02,35.93-0.02,53.89c0,2.27,0,2.27-2.23,2.11c-15.16-1.05-26.97-12.26-28.81-27.37
		c-0.19-1.58-0.27-3.19-0.27-4.78c-0.01-35.23-0.01-70.46-0.01-105.68c0-1.94,0-1.99,1.97-1.91c10.81,0.41,19.06,5.35,24.99,14.28
		c3.63,5.48,4.97,11.63,5.02,18.11c0.02,3.44,0,6.89,0,10.33C546.5,173.23,546.5,173.66,546.5,174.25z"/>
	<path class="st1" d="M727.71,242.72c0,9.39,0,18.78,0,28.17c0,1.72-0.01,1.78-1.7,1.68c-6.09-0.35-11.5-2.47-16.18-6.37
		c-1.16-0.97-2.26-2.03-3.29-3.14c-0.59-0.64-1-0.69-1.75-0.24c-2.57,1.53-5.12,3.12-7.8,4.42c-9.7,4.72-19.96,6.53-30.62,4.85
		c-20.26-3.19-34.43-14.44-42.6-33.18c-3.3-7.57-4.43-15.6-3.86-23.82c0.84-12.24,5.39-22.99,13.5-32.18
		c8.49-9.61,19.16-15.41,31.78-17.53c8.34-1.4,16.64-0.94,24.66,1.8c20.25,6.92,32.64,20.93,36.99,41.89
		c0.69,3.34,0.78,6.84,0.84,10.27C727.8,227.14,727.71,234.93,727.71,242.72z M673.77,244.56c14.23,0,25.35-11.36,25.34-25.87
		c-0.01-13.93-11.68-25.35-25.89-25.34c-13.65,0.01-25.31,11.93-25.32,25.89C647.89,233.16,659.54,244.56,673.77,244.56z"/>
	<path class="st1" d="M971.34,243.3c0,9.19,0,18.37,0,27.56c0,1.76-0.01,1.83-1.79,1.71c-6.03-0.4-11.43-2.42-16.07-6.34
		c-1.16-0.98-2.28-2.01-3.3-3.12c-0.68-0.74-1.17-0.71-1.96-0.19c-4.97,3.32-10.27,5.97-16.06,7.58
		c-15.06,4.19-29.4,2.44-42.71-5.72c-14.94-9.16-23.68-22.65-25.65-40.06c-1.99-17.57,3.68-32.72,16.32-45.05
		c8.96-8.74,19.92-13.69,32.39-14.76c13.91-1.19,26.6,2.41,37.7,11.01c11.93,9.24,18.79,21.45,20.75,36.39
		c0.32,2.43,0.35,4.91,0.36,7.36C971.37,227.55,971.34,235.42,971.34,243.3z M917.28,244.56c14.01,0.1,25.75-11.82,25.94-25.49
		c0.2-14.19-11.11-25.64-25.09-25.72c-14.57-0.09-26.05,11.02-26.09,25.25C892,233.12,903.06,244.5,917.28,244.56z"/>
</g>
<g>
	<path class="st2" d="M280.43,224.57l-106.44,0c-11.38,0-20.6-9.22-20.6-20.6v0c0-11.16,9.05-20.21,20.21-20.21h147.64v0
		C321.25,206.3,302.97,224.57,280.43,224.57z"/>
	<g>
		<path class="st2" d="M171.87,129.91c-0.75,0-1.48,0.06-2.2,0.14c1.47-0.09,2.94-0.14,4.43-0.14H171.87z"/>
		<path class="st2" d="M319.49,129.91l-29.51,40.81h38.69c22.54,0,40.81-18.27,40.81-40.81H319.49z"/>
		<path class="st2" d="M240.07,170.1l29.06-40.19h-95.02C202.83,129.91,227.73,146.23,240.07,170.1z"/>
		<path class="st1" d="M240.38,170.72c-0.1-0.21-0.19-0.42-0.3-0.62l-0.45,0.62H240.38z"/>
		<path class="st1" d="M172.72,170.72v0.07c0.46-0.02,0.91-0.07,1.38-0.07H172.72z"/>
		<path class="st1" d="M269.92,128.82l-0.79,1.09l-29.06,40.19c0.11,0.2,0.2,0.42,0.3,0.62h-0.75l-9.44,13.06l-30.68,42.09
			c-6.13,7.17-15.23,11.72-25.4,11.72c-18.47,0-33.44-14.97-33.44-33.44c0-18,14.24-32.64,32.06-33.37v-0.07h1.38h65.52l0.45-0.62
			c-12.35-23.87-37.24-40.19-65.97-40.19h-0.01c-1.49,0-2.96,0.06-4.43,0.14c-38.94,2.29-69.82,34.59-69.82,74.11
			c0,41.01,33.24,74.25,74.25,74.25c23.83,0,45.01-11.23,58.6-28.68l2.71-3.74c0,0,0,0,0,0l45.13-62.21l9.44-13.06l29.51-40.81
			l7.41-10.25C308.64,106.45,283.12,110.56,269.92,128.82z"/>
	</g>
</g>
</svg>
