<svg xmlns="http://www.w3.org/2000/svg" viewBox="0 0 958.16 192.3"><defs><style>.cls-1{fill:#8dc63f;}.cls-1,.cls-2{opacity:0.59;isolation:isolate;}.cls-2,.cls-3{fill:#7dc242;}</style></defs><title>Asset 1</title><g id="Layer_2" data-name="Layer 2"><g id="Layer_1-2" data-name="Layer 1"><path class="cls-1" d="M67.78,65.67H202.84a37.41,37.41,0,0,1-37.41,37.41H67.9a18.7,18.7,0,0,1-18.7-18.7h0A18.71,18.71,0,0,1,67.9,65.67h-.12Z"/><path class="cls-2" d="M66,16.33h0Z"/><path class="cls-1" d="M201.23,16.33l-27,37.41h35.46a37.41,37.41,0,0,0,37.41-37.41H201.23Z"/><path class="cls-1" d="M128.48,53.05l26.45-36.72H68.07A68,68,0,0,1,128.48,53.05Z"/><path class="cls-3" d="M128.77,53.74l-.29-.57-.4.57Z"/><path class="cls-3" d="M155.85,15.36l-.92,1L128.48,53.05l.29.57h-.69l-8.66,12.05L91.31,104.29A30.64,30.64,0,1,1,66.81,53.8h61.27l.4-.58A68,68,0,0,0,68.07,16.33H64a68,68,0,1,0,57.71,109.76l2.53-3.39h0l41.31-57,8.66-11.93,27-37.41,6.83-9.18A37.4,37.4,0,0,0,155.85,15.36Z"/><path class="cls-3" d="M466.36,38.59v14A33.85,33.85,0,0,1,477.83,45a39.25,39.25,0,0,1,14.4-2.75q39.59,0,39.59,46.41v63.11h0A32.88,32.88,0,0,1,499.17,119V90.86a20.39,20.39,0,0,0-4.3-14.17,15.67,15.67,0,0,0-12.16-4.76,15.5,15.5,0,0,0-11.94,4.76,20.13,20.13,0,0,0-4.41,14.17v60.93h0a32.76,32.76,0,0,1-32.94-32.59V5.78h0a32.82,32.82,0,0,1,32.94,32.7Z"/><path class="cls-3" d="M666.13,98.09a51.23,51.23,0,0,1,8.38-28.29,56.73,56.73,0,0,1,22.2-20.19,63.76,63.76,0,0,1,52.55-3.21,58.81,58.81,0,0,1,19.57,11.87A56.63,56.63,0,0,1,782.2,76.34,52.93,52.93,0,0,1,787,98.78a51.71,51.71,0,0,1-4.88,22.32,55.24,55.24,0,0,1-13.25,18,57.32,57.32,0,0,1-19.45,11.82,66.67,66.67,0,0,1-45.56,0l-2.35-1-2.41-1V192.3h0a32.93,32.93,0,0,1-32.81-32.94Zm32.82.69A23.39,23.39,0,0,0,702.79,112,28.27,28.27,0,0,0,713,121.9a26.57,26.57,0,0,0,13.48,3.61,27.13,27.13,0,0,0,13.71-3.61,28.28,28.28,0,0,0,10.16-9.64,23.87,23.87,0,0,0,3.84-13.2,25.5,25.5,0,0,0-8.26-18.93,27.43,27.43,0,0,0-38.56,0A25.28,25.28,0,0,0,699,99Z"/><path class="cls-3" d="M852.31,42.32a56.29,56.29,0,1,0,33.33,101.61,29.42,29.42,0,0,0,23,10.9V98.61A56.29,56.29,0,0,0,852.31,42.32Zm0,82.91A26.68,26.68,0,1,1,879,98.55v.06a26.62,26.62,0,0,1-26.63,26.62Z"/><path class="cls-3" d="M599.06,42.32a56.29,56.29,0,1,0,33.28,101.61,29.6,29.6,0,0,0,22.95,10.9V98.61A56.29,56.29,0,0,0,599.06,42.32Zm0,82.91a26.68,26.68,0,1,1,26.62-26.74v.12A26.69,26.69,0,0,1,599.06,125.23Z"/><path class="cls-3" d="M371.29,120.75A40.16,40.16,0,1,1,400,52.3l23.4-22.94a73.15,73.15,0,1,0-1,103.44l.58-.57L400,109.28A40.21,40.21,0,0,1,371.29,120.75Z"/><path class="cls-3" d="M931.42,39.85V24.65h-5.73V22.76h13.14v1.89h-5.74v15.2Z"/><path class="cls-3" d="M958.16,39.85h-2V26.66h0L950.7,39.74h-1.78l-5.45-13.08h0V39.85h-2V22.64H944l5.74,14.29h0l5.73-14.29h2.7Z"/></g></g></svg>