<?xml version="1.0" encoding="UTF-8" standalone="no"?>
<!-- Created with Inkscape (http://www.inkscape.org/) -->

<svg
   width="512"
   height="356"
   viewBox="0 0 135.46666 94.191665"
   version="1.1"
   id="svg6600"
   sodipodi:docname="cbe_birr_light.svg"
   inkscape:version="1.1.2 (0a00cf5339, 2022-02-04)"
   xmlns:inkscape="http://www.inkscape.org/namespaces/inkscape"
   xmlns:sodipodi="http://sodipodi.sourceforge.net/DTD/sodipodi-0.dtd"
   xmlns="http://www.w3.org/2000/svg"
   xmlns:svg="http://www.w3.org/2000/svg">
  <sodipodi:namedview
     id="namedview6602"
     pagecolor="#ffffff"
     bordercolor="#999999"
     borderopacity="1"
     inkscape:pageshadow="0"
     inkscape:pageopacity="0"
     inkscape:pagecheckerboard="0"
     inkscape:document-units="mm"
     showgrid="false"
     units="px"
     inkscape:zoom="0.44069177"
     inkscape:cx="173.59072"
     inkscape:cy="639.90303"
     inkscape:window-width="1920"
     inkscape:window-height="1043"
     inkscape:window-x="0"
     inkscape:window-y="0"
     inkscape:window-maximized="1"
     inkscape:current-layer="l3nTFZHaGYy8EOdzrHJQp25" />
  <defs
     id="defs6597" />
  <g
     inkscape:label="Layer 1"
     inkscape:groupmode="layer"
     id="layer1">
    <g
       id="g6801"
       transform="translate(-0.00104382,0.00145777)">
      <g
         id="layer2"
         inkscape:label="L2"
         style="display:inline">
        <g
           id="g20358"
           transform="matrix(0.02645833,0,0,0.02645833,-235.50542,-38.283031)">
          <g
             id="l3nTFZHaGYy8EOdzrHJQp25"
             fill="#ffffff">
            <g
               id="g20285"
               inkscape:export-filename="/home/brookmg/Desktop/cbe_light_transparent.png"
               inkscape:export-xdpi="96.275902"
               inkscape:export-ydpi="96.275902" />
          </g>
          <g
             id="l2txtZAOQC1doniW5OaAjoe"
             fill="#8c2d85"
             transform="matrix(0.60436159,0,0,0.60436159,8146.5504,1139.2788)">
            <g
               id="g20295">
              <path
                 id="p10Cc5ZsHX"
                 d="m 2026,5394 c -301,-23 -676,-80 -702,-107 -9,-9 0,-57 37,-192 26,-99 197,-740 379,-1425 183,-685 338,-1259 345,-1276 12,-30 18,-32 161,-68 567,-139 1125,-173 1517,-91 233,48 466,169 570,297 90,110 147,252 147,367 0,134 -64,327 -141,424 -60,75 -185,187 -296,265 -46,31 -83,60 -83,64 0,3 29,27 65,53 163,116 243,296 232,525 -18,370 -315,755 -757,980 -165,84 -500,174 -709,190 -180,13 -544,11 -765,-6 z m 899,-570 c 89,-20 223,-70 284,-107 72,-42 162,-126 199,-185 32,-50 63,-139 82,-236 20,-97 -14,-183 -89,-230 -69,-44 -143,-64 -275,-75 -137,-12 -548,-15 -632,-5 l -51,6 -17,67 c -9,36 -25,98 -35,136 -10,39 -31,115 -46,170 -14,55 -33,125 -41,155 -44,162 -64,245 -64,270 0,25 4,29 43,36 147,25 527,24 642,-2 z m 362,-1373 c 211,-52 320,-158 359,-344 40,-188 -71,-311 -316,-353 -152,-26 -414,-8 -528,37 -13,5 -30,26 -38,46 -15,34 -158,562 -166,608 -3,17 4,21 52,27 30,3 168,5 305,3 211,-3 263,-7 332,-24 z" />
              <path
                 id="pGdFj5SJ8"
                 d="m 4625,5353 c -165,-2 -305,-5 -312,-7 -13,-6 -6,-34 218,-871 226,-844 375,-1392 398,-1466 21,-68 33,-79 77,-79 33,0 39,20 25,87 -6,31 -9,58 -7,61 3,2 143,8 313,13 169,5 325,14 345,20 44,11 78,54 78,98 0,28 -107,431 -477,1791 -47,173 -89,325 -94,338 -8,21 -12,22 -136,20 -71,-2 -263,-4 -428,-5 z m -12,-166 c 14,-59 6,-67 -62,-67 -51,0 -62,3 -75,22 -22,31 -21,75 2,81 9,3 42,4 72,4 54,-2 54,-2 63,-40 z m 210,37 c 42,-6 47,-10 58,-41 18,-54 9,-63 -66,-63 -66,0 -66,0 -81,35 -19,45 -18,63 4,68 27,7 36,7 85,1 z m 310,-13 c 4,-4 8,-25 10,-47 l 2,-39 -60,-3 c -33,-1 -66,2 -73,6 -15,10 -34,81 -25,95 6,9 133,-1 146,-12 z m -472,-222 c 14,-14 19,-30 17,-52 -3,-31 -4,-32 -60,-35 -69,-4 -98,18 -98,73 v 35 h 60 c 47,0 64,-4 81,-21 z m 273,-23 c 19,-38 19,-39 0,-53 -23,-17 -111,-11 -130,9 -7,7 -15,27 -19,45 -7,37 3,42 80,40 48,-2 51,-4 69,-41 z m 248,32 c 9,-7 19,-28 23,-45 6,-29 4,-34 -20,-43 -69,-26 -130,-2 -141,57 -6,29 -4,32 22,36 59,9 101,7 116,-5 z m -454,-231 c 16,-45 15,-64 -4,-71 -22,-8 -107,-7 -120,2 -14,8 -35,82 -28,94 3,4 36,8 73,8 67,0 67,0 79,-33 z m 260,0 c 24,-67 15,-77 -73,-77 -51,0 -54,1 -64,31 -23,67 -15,75 79,78 43,1 47,-1 58,-32 z m 272,-18 c 14,-52 6,-59 -72,-59 -54,0 -59,2 -73,30 -8,16 -15,38 -15,50 0,18 6,20 75,20 h 74 z m -477,-191 c 9,-7 20,-28 23,-45 6,-29 3,-34 -20,-43 -35,-13 -82,-13 -106,0 -20,11 -45,74 -35,90 9,14 118,12 138,-2 z m 271,-10 c 9,-12 16,-35 16,-50 0,-34 -28,-44 -95,-34 -50,8 -65,26 -65,75 v 31 h 64 c 56,0 67,-3 80,-22 z m 261,6 c 10,-11 15,-29 13,-53 l -3,-36 -56,-3 c -51,-3 -59,0 -78,24 -12,15 -21,40 -21,55 0,29 0,29 64,29 46,0 69,-5 81,-16 z m -165,-345 c 14,-53 6,-59 -77,-59 h -62 l -10,38 c -18,62 -18,62 64,62 h 74 z" />
              <path
                 id="pZA4WBB5N"
                 d="m 5654,5333 c 3,-10 28,-108 56,-218 28,-110 87,-333 130,-495 43,-162 122,-461 175,-665 123,-472 172,-644 191,-673 52,-79 544,-198 959,-233 239,-20 641,3 676,38 7,7 1,45 -21,129 -60,228 -92,339 -100,347 -4,5 -50,-1 -103,-12 -52,-11 -156,-25 -232,-31 -114,-9 -152,-8 -228,5 -138,24 -294,81 -325,117 -12,15 -93,307 -276,998 -63,239 -131,497 -152,573 l -37,137 h -359 c -338,0 -359,-1 -354,-17 z" />
              <path
                 id="pEolOFqKi"
                 d="m 7490,5343 c 0,-4 48,-187 106,-408 485,-1832 436,-1658 467,-1678 102,-67 533,-167 877,-203 249,-26 701,-7 740,32 10,10 -103,460 -119,477 -4,4 -55,-2 -112,-14 -86,-19 -138,-23 -299,-23 -188,-1 -198,0 -280,27 -122,40 -193,77 -208,108 -6,15 -111,397 -232,850 -120,452 -225,826 -232,831 -16,10 -708,11 -708,1 z" />
              <path
                 id="pmzRZFoxR"
                 d="m 2467,1919 c -90,-21 -160,-78 -199,-164 -35,-76 -33,-221 5,-330 35,-102 73,-168 137,-238 131,-144 359,-223 542,-188 79,15 186,49 194,62 7,13 -24,143 -39,163 -11,13 -23,10 -95,-19 -103,-42 -179,-58 -229,-49 -143,26 -275,172 -303,338 -21,116 0,192 65,242 64,48 158,43 342,-19 51,-17 95,-28 98,-26 7,8 -44,165 -58,176 -57,46 -347,79 -460,52 z" />
              <path
                 id="pFTdMBQjl"
                 d="m 3190,1920 c -25,-5 -60,-12 -77,-15 -22,-4 -33,-12 -33,-23 0,-19 155,-604 197,-743 19,-67 31,-89 48,-97 87,-40 347,-58 456,-32 137,32 209,99 209,195 0,54 -17,86 -83,152 l -61,63 26,27 c 65,70 73,136 30,228 -38,79 -74,120 -146,167 -100,64 -166,80 -356,84 -91,2 -185,-1 -210,-6 z m 330,-151 c 116,-19 197,-96 188,-180 -6,-58 -40,-72 -183,-77 l -125,-4 -11,28 c -18,47 -49,177 -49,206 0,20 6,28 23,31 42,8 92,7 157,-4 z m 164,-419 c 73,-35 100,-124 52,-169 -20,-18 -40,-24 -104,-28 -108,-8 -130,-1 -149,45 -22,53 -45,144 -39,158 12,31 173,27 240,-6 z" />
              <path
                 id="pk7mNKdKm"
                 d="m 3980,1895 c 0,-22 163,-645 211,-807 l 19,-66 78,-4 c 118,-7 620,-4 626,3 4,3 -2,38 -11,78 l -18,71 -210,1 c -115,0 -228,3 -249,7 -39,7 -40,8 -58,77 -30,118 -45,109 194,115 113,3 209,8 213,12 4,3 -2,37 -13,75 l -19,68 -221,3 -221,2 -26,81 c -14,44 -25,93 -25,110 v 29 l 188,1 c 178,0 282,5 290,14 2,2 -1,28 -8,57 -23,97 16,88 -385,88 -312,0 -355,-2 -355,-15 z" />
            </g>
          </g>
          <g
             id="l6WDwpWqDIsJkP2dlA3cUkj"
             fill="#e0a94c"
             transform="matrix(0.60436159,0,0,0.60436159,8146.5504,1139.2788)">
            <g
               id="g20309">
              <path
                 id="pnx7BX4S"
                 d="m 7074,6020 c -8,-8 -2,-36 24,-103 53,-141 54,-145 31,-157 -14,-8 -19,-21 -19,-55 0,-58 8,-75 35,-75 28,0 42,16 47,54 2,24 9,31 36,38 31,8 43,30 22,43 -5,3 -10,15 -10,26 0,14 7,19 29,19 16,0 36,6 44,14 17,18 52,185 40,197 -5,5 -22,5 -38,1 -26,-7 -31,-15 -46,-76 -10,-38 -25,-76 -33,-85 -15,-14 -17,-14 -32,0 -8,9 -26,49 -38,90 -21,68 -25,74 -52,77 -16,2 -34,-2 -40,-8 z" />
              <path
                 id="pCpZ1E7bP"
                 d="m 6012,5993 c -19,-9 -40,-27 -49,-39 -26,-40 -45,-335 -22,-349 6,-4 26,-4 45,-1 l 34,7 v 147 c 0,173 8,197 60,197 52,0 61,-28 63,-198 l 2,-142 38,-3 c 36,-3 37,-2 37,31 0,19 3,49 6,66 6,31 7,31 70,31 34,0 66,5 69,10 4,6 4,24 0,40 -10,45 -51,52 -81,15 -33,-42 -48,-28 -61,55 -13,80 -28,104 -88,131 -49,23 -80,23 -123,2 z" />
              <path
                 id="pV0MXqXKq"
                 d="m 7852,5994 c -49,-34 -3,-91 53,-66 29,14 32,42 7,65 -23,21 -32,21 -60,1 z" />
              <path
                 id="pGqvGCCUe"
                 d="m 4279,5973 c -2,-138 -18,-304 -29,-317 -18,-22 -53,-20 -76,5 -16,18 -20,40 -22,135 l -4,114 h -39 -39 v -105 c 0,-169 22,-198 148,-199 70,-1 75,0 102,31 23,26 29,44 35,106 8,83 4,232 -7,242 -3,4 -20,9 -37,11 -28,5 -31,3 -32,-23 z" />
              <path
                 id="p1AhAwjuM9"
                 d="m 4450,5938 c 0,-83 40,-170 100,-220 42,-34 43,-36 31,-68 -18,-52 -15,-60 24,-60 39,0 48,12 69,92 l 13,53 49,3 c 74,4 91,10 97,34 15,56 -41,78 -79,31 -16,-20 -26,-25 -33,-18 -8,8 -3,38 16,103 15,55 22,96 17,101 -5,5 -23,7 -39,4 -29,-4 -32,-9 -64,-114 -21,-66 -39,-109 -47,-109 -35,0 -63,60 -79,172 -5,36 -12,47 -28,52 -44,12 -47,8 -47,-56 z" />
              <path
                 id="pmtiVBGOX"
                 d="m 4960,5992 c -14,-2 -28,-7 -32,-10 -4,-4 -3,-75 1,-157 8,-170 18,-196 78,-216 21,-7 59,-9 91,-6 80,8 102,33 113,128 11,103 11,227 -1,250 -11,20 -54,26 -65,8 -4,-6 -10,-81 -14,-167 l -6,-156 -34,-7 c -71,-15 -81,7 -81,180 0,138 -7,160 -50,153 z" />
              <path
                 id="p183NW0OtZ"
                 d="m 5483,5993 c -22,-4 -23,-8 -23,-109 0,-96 -1,-104 -19,-104 -11,0 -33,14 -49,31 -26,28 -31,29 -55,18 -27,-12 -32,-26 -21,-66 6,-21 12,-23 75,-23 h 69 v -50 -50 h -55 c -49,0 -57,-3 -67,-24 -13,-31 -5,-54 24,-66 19,-7 27,-4 48,20 21,24 34,29 80,32 l 55,3 -3,55 c -1,30 1,60 5,67 5,7 37,13 73,15 65,3 65,3 68,35 2,23 -3,35 -20,47 -31,22 -35,21 -53,-14 -9,-18 -23,-30 -35,-30 -31,0 -43,36 -37,107 7,67 -4,114 -25,112 -7,-1 -23,-4 -35,-6 z" />
              <path
                 id="p10p5RFmJG"
                 d="m 7456,5988 c -22,-13 -20,-72 4,-144 15,-42 35,-74 73,-112 l 52,-52 -16,-45 c -9,-25 -14,-47 -10,-49 4,-3 22,-1 41,2 l 35,7 62,189 c 34,104 60,193 57,198 -3,4 -20,8 -39,8 h -33 l -38,-112 c -22,-61 -44,-113 -50,-115 -20,-7 -64,93 -71,161 -5,57 -8,65 -28,69 -13,2 -30,0 -39,-5 z" />
              <path
                 id="p1sWkKRsI"
                 d="m 6444,5977 c -8,-21 13,-132 31,-168 10,-18 38,-54 63,-81 44,-48 45,-49 34,-87 -16,-52 -17,-51 22,-51 40,0 44,4 72,85 l 21,60 59,3 c 91,5 124,52 62,90 -26,15 -27,15 -53,-16 -52,-62 -58,-34 -20,85 14,43 25,81 25,86 0,4 -16,7 -35,7 -41,0 -48,-10 -85,-130 -21,-69 -30,-85 -46,-85 -24,0 -60,71 -69,140 -3,27 -11,55 -17,62 -14,17 -57,17 -64,0 z" />
              <path
                 id="p12xODqIcd"
                 d="m 7856,5861 c -4,-5 -9,-66 -13,-135 l -6,-126 h 41 42 l -1,88 c -1,132 -10,176 -36,180 -11,2 -24,-1 -27,-7 z" />
              <path
                 id="p10XxLMKWx"
                 d="m 5696,3028 c -53,-75 -320,-487 -336,-519 -27,-51 -25,-64 12,-129 77,-136 215,-223 448,-285 438,-117 526,-152 625,-250 34,-33 78,-88 99,-122 21,-35 43,-60 48,-57 9,6 153,219 286,426 46,70 82,137 82,151 0,38 -92,170 -151,217 -102,81 -191,116 -489,192 -107,27 -221,60 -253,73 -137,55 -251,149 -319,264 l -36,62 z" />
            </g>
          </g>
        </g>
      </g>
    </g>
  </g>
</svg>
