<svg width="70" height="19" viewBox="0 0 70 19" fill="none" xmlns="http://www.w3.org/2000/svg">
<path d="M16.4531 8.81908C18.2534 9.27161 19.7635 6.94531 19.7635 6.94531C21.2519 9.26951 22.4563 7.39784 22.4563 7.39784C22.4563 7.39784 21.3456 9.27161 17.8086 9.19747L16.4531 8.81908Z" fill="#9F4A3E"/>
<path d="M23.3943 4.96289C23.3943 4.96289 20.8267 10.2534 16.4141 8.85241C16.4141 8.85241 24.4693 11.3354 27.4209 6.9052L23.3943 4.96289Z" fill="#DA3939"/>
<path d="M25.9292 8.68871V15.9551H17.6907V7.15627C17.4788 7.10661 17.2956 7.04505 17.1641 6.99609V16.8433C17.1641 17.5889 17.6823 18.1932 18.3223 18.1932H25.2983C25.9376 18.1932 26.4559 17.5889 26.4559 16.8433V8.32571C26.2831 8.4544 26.0803 8.59079 25.9292 8.68871Z" fill="#E5EADB"/>
<path d="M17.69 1.4702H25.9292V5.8591L26.4559 6.16335V1.34919C26.4559 0.603604 25.9376 0 25.2983 0H18.3216C17.6823 0 17.1641 0.603604 17.1641 1.34919V7.51395C17.3991 7.48108 17.5774 7.42512 17.6907 7.38176V1.4702H17.69Z" fill="#E5EADB"/>
<path d="M15.7531 7.82494V13.1042H12.5175V8.35301C12.5175 7.0248 11.9727 6.46246 11.1208 6.46246C10.1843 6.46246 9.50304 7.09264 9.50304 8.52297V13.1042H6.26752V8.35301C6.26752 7.0248 5.73945 6.46246 4.87077 6.46246C3.91746 6.46246 3.23622 7.09264 3.23622 8.52297V13.1042H0V3.87388H3.08305V4.84468C3.78107 4.09559 4.75187 3.7207 5.84227 3.7207C7.10193 3.7207 8.17484 4.18023 8.8225 5.16852C9.5548 4.24877 10.6956 3.7207 12.0245 3.7207C14.1703 3.7207 15.7538 4.96358 15.7538 7.82494" fill="#39B54A"/>
<path d="M38.4937 8.4894C38.4937 11.4193 36.4675 13.2581 33.9635 13.2581C32.8913 13.2581 32.0227 12.9343 31.3918 12.2873V16.4083H28.1562V3.87458H31.2386V4.79362C31.852 4.06202 32.7542 3.7207 33.9635 3.7207C36.4675 3.7207 38.4937 5.5595 38.4937 8.4894ZM35.2239 8.4894C35.2239 7.09334 34.3727 6.2925 33.2823 6.2925C32.1919 6.2925 31.3407 7.09334 31.3407 8.4894C31.3407 9.88546 32.1926 10.6863 33.2823 10.6863C34.372 10.6863 35.2239 9.88616 35.2239 8.4894Z" fill="#39B54A"/>
<path d="M49.383 9.30773H42.6735C42.9463 10.2436 43.7464 10.7891 44.9389 10.7891C45.8412 10.7891 46.4371 10.5338 47.068 9.98827L48.771 11.7592C47.8856 12.7475 46.5909 13.2581 44.8375 13.2581C41.5502 13.2581 39.4219 11.2319 39.4219 8.47192C39.4219 5.71197 41.5845 3.7207 44.4969 3.7207C47.2218 3.7207 49.4355 5.45738 49.4355 8.50619C49.4355 8.74469 49.4019 9.05174 49.3844 9.30703M42.6217 7.60392H46.4028C46.2321 6.63312 45.5173 6.02042 44.5123 6.02042C43.5072 6.02042 42.8092 6.63242 42.6217 7.60392Z" fill="#39B54A"/>
<path d="M50.196 12.3041L51.1668 10.0904C52.0187 10.6178 53.2616 10.9416 54.3855 10.9416C55.5095 10.9416 55.8326 10.7031 55.8326 10.3114C55.8326 9.06783 50.3828 10.4814 50.3828 6.78559C50.3828 5.04821 51.9837 3.7207 54.8793 3.7207C56.1733 3.7207 57.6043 3.99278 58.5233 4.50406L57.5525 6.70026C56.6328 6.18968 55.713 6.01972 54.8954 6.01972C53.8057 6.01972 53.414 6.32607 53.414 6.66669C53.414 7.94455 58.8472 6.56457 58.8472 10.2261C58.8472 11.9299 57.2804 13.2574 54.2827 13.2574C52.716 13.2574 51.0983 12.8657 50.1953 12.3034" fill="#39B54A"/>
<path d="M70.0008 3.87458V13.1049H66.9185V12.1852C66.3058 12.9175 65.4028 13.2581 64.1935 13.2581C61.6903 13.2581 59.6641 11.4186 59.6641 8.47192C59.6641 5.52523 61.6903 3.7207 64.1935 3.7207C65.2664 3.7207 66.1351 4.02775 66.7653 4.67402V3.87388H70.0008V3.87458ZM66.8163 8.47261C66.8163 7.07585 65.9652 6.2925 64.8755 6.2925C63.7858 6.2925 62.9339 7.07585 62.9339 8.47261C62.9339 9.86937 63.7851 10.6863 64.8755 10.6863C65.9659 10.6863 66.8163 9.88615 66.8163 8.47261Z" fill="#39B54A"/>
</svg>
