<svg xmlns="http://www.w3.org/2000/svg" width="2475.7932" height="553.4806" viewBox="0 0 2475.7932 553.4806"><defs><style>.cls-1{fill:#fff;stroke-width:0;}.cls-1,.cls-3{stroke:#1d1d1b;stroke-miterlimit:10;}.cls-2,.cls-3{fill:#f8d214;}</style></defs><g id="Layer_2" data-name="Layer 2"><g id="Layer_1-2" data-name="Layer 1"><path class="cls-1" d="M331.9348,451.73H0V368.2461H31.3425V186.4837H0V103H199.3118v83.4834H166.218V368.2461h82.4809V312.3369h83.2359Z"/><path class="cls-1" d="M1258.3628,451.73H926.428V368.2461h31.3425V186.4837H926.428V103H1125.74v83.4834H1092.646V368.2461h82.481V312.3369h83.2358Z"/><path class="cls-2" d="M408.1284,448.8627q-38.24-50.6661-49.3042-116.8006Q347.68,266.4278,374.8206,195.2157a237.8514,237.8514,0,0,1,24.08-46.5105,312.7863,312.7863,0,0,1,34.2826-42.0794,377.8067,377.8067,0,0,1,44.9959-39.6847Q587.0755-15.2475,694.8855,3.4756q53.4243,9.02,96.2654,34.2838a252.928,252.928,0,0,1,73.8077,66.3154q63.95,84.7312,49.4673,193.915-14.4792,109.1813-119.583,188.5183Q693.2265,563.202,585.6538,552.072,478.0053,541.44,408.1284,448.8627ZM583.9942,316.13q50.9759,67.541,81.8843,81.2465,30.5328,14.4405,57.323-5.79,26.49-19.9932,22.2363-52.8913Q740.9561,305.5172,689.1,236.8024q-50.3247-66.6781-81.3744-81.1689-30.5435-14.4326-57.9052,6.23-26.2062,19.7789-21.9417,52.669Q532.1274,247.423,583.9942,316.13Z"/><path class="cls-1" d="M1483.4854,451.73H1284.6808V368.2461h32.0914V186.4837h-32.0914V103h198.8046v83.4834h-31.8377V368.2461h31.8377Z"/><path class="cls-1" d="M1649.3713,451.73h-143.155V368.2461h30.5876V186.4837h-30.5876V103h165.2155l126.8557,182.2576V186.4837h-28.3291V103h140.6428v83.4834h-30.334v269.763h-114.82L1618.536,245.4V368.2461h30.8353Z"/><path class="cls-1" d="M2265.3785,451.73H1932.701V368.2461h27.0729V186.4837H1932.2V103h333.1788V214.5651h-91.5032V186.4837h-79.22v53.6506h68.9415v70.9464h-68.9415v57.1654h79.22V340.1647h91.5032Z"/><path class="cls-3" d="M2297.2864,235.8421V187.37h4.5615v9.2939h120.4375l-124.999-20.956V151.8362l124.999-24.6H2301.8479v9.293h-4.5615V108.65h4.5615v9.2929h167.6513V108.65h4.5616v39.542L2336.3645,173.886,2474.0608,196.3v39.542h-4.5616v-9.293H2301.8479v9.293Z"/><path class="cls-3" d="M2297.2864,342.262V293.79h4.5615v9.293l51.2812-6.7422V269.554l-51.2812-7.4707v9.2929h-4.5615V243.3137h4.5615v9.294l172.2129,26.24v29.8848L2301.8479,332.969v9.293Zm60.28-46.2852,95.5371-12.3916-95.5371-13.667Z"/><path class="cls-3" d="M2321.8176,444.8548q-10.6026,0-18.1826-13.12-7.582-13.12-7.5811-31.707,0-18.4072,7.5811-31.6162,7.5805-13.2144,18.1826-13.2109H2449.53q10.6,0,18.1826,13.2109,7.5806,13.21,7.5811,31.6162,0,18.5874-7.5811,31.707t-18.1826,13.12H2421.053V414.97h39.57q4.1893,0,7.15-4.3731a20.3617,20.3617,0,0,0,0-21.1386q-2.9591-4.374-7.15-4.3731h-149.9q-4.1924,0-7.1494,4.3731a20.3558,20.3558,0,0,0,0,21.1386q2.9589,4.3727,7.1494,4.3731h77.6621V400.0276h4.5615v44.8272Z"/></g></g></svg>