<svg xmlns="http://www.w3.org/2000/svg" xml:space="preserve" style="fill-rule:evenodd;clip-rule:evenodd;stroke-linejoin:round;stroke-miterlimit:2" viewBox="0 0 2437 936"><path d="M2253.32 833.517c-30.534-15.938-35.26-61.042-34.57-170.639l.69-167.994-57.903-.091 13.007-31.107h44.896v-79.571l107.526-39.778-.052 116.692 49.284.092-12.995 34.453-36.237-.039-.195 290.729c2.37 23.437 10.247 37.213 21.471 47.253h-94.922ZM1196.76 115.105c8.216 22.5 26.797 45.729 13.581 71.797-6.433 26.432-31.446 47.878-57.878 52.161-27.513 2.5-53.945-2.148-74.31-18.932-14.648-76.458 16.432-147.188 76.81-189.349l41.797 84.323Z" style="fill:#ce1041"/><path d="M1303.4 348.022c-13.764 46.263-150.404 15.898-193.269-60.013 56.263 6.25 119.675-43.594 120.742-100.391l72.527 160.404ZM1359.31 342.045c6.25-2.773 18.841-9.023 21.966-22.422L1234.271.782c-9.831-1.25-16.966-2.148-29.466 6.784l154.505 334.479ZM1425.4 272.826c62.513-94.674 9.817-250.078-124.87-271.875l124.87 271.875ZM1411.6 476.668c19.7-16.537 54.362-16.928 76.809-6.303 9.454 4.74 18.516 11.042 24.414 19.31l-43.32 67.357c-5.508-4.349-9.453-6.302-16.536-9.844-21.472-9.271-44.115-3.854-57.122 7.865v196.549c-.287 33.972 5.612 64.987 23.241 81.133h-98.463c-20.495-15.742-25.599-40.963-27.578-63.021l-.781-261.328c.885-21.172-4.531-30.533-13.008-42.344l102.018.391c8.268 5.912 8.659 16.159 12.995 24.037l17.331-13.802ZM1536.07 541.264c-.781-24.818 4.726-54.544-11.511-76.003h94.623c6.302 4.714 9.844 12.592 11.81 20.078 5.13 6.693 4.739 16.146 7.083 24.024l.794 278.476c3.945 16.537 10.248 33.281 22.461 46.276l-101.237.196c-33.086-32.005-22.252-84.675-24.804-139.037l.781-154.01ZM1685.74 544.037c10.235-28.372 42.149-42.552 65.391-57.903 35.443-13.008 74.44-45.3 114.219-18.907 33.086 21.654 62.239 46.081 83.112 79.557 5.117 12.996 7.474 27.566 11.015 41.355 0 18.516 3.946 32.305 3.555 50.807 1.185 20.091 1.185 38.216 0 57.904-1.185 33.476-16.94 63.411-43.32 86.654-39.401 35.051-89.024 74.83-142.592 47.669-48.046-22.461-104.765-66.967-101.223-128.021-1.98-43.321-3.933-80.742 1.966-122.891 2.357-12.2 1.185-25.599 7.877-36.224Zm98.464 196.928c4.726 17.33 13.789 38.593 34.661 40.963 12.214.391 21.276-9.844 28.36-18.516 22.057-43.32 18.906-90.586 18.906-139.817-7.084-36.628 1.575-86.654-37.813-109.102-13.776-5.13-24.414 4.336-33.086 12.982-15.351 23.255-17.122 49.831-18.112 79.375-5.117 47.265.391 86.458 7.084 134.115ZM2033.14 833.517c-30.521-15.938-35.247-61.042-34.557-170.639l.69-167.994-57.904-.091 12.995-31.107h44.909v-79.571l107.526-39.778-.052 116.692 49.284.092-12.995 34.453-36.237-.039-.195 290.729c2.357 23.437 10.234 37.213 21.458 47.253h-94.922ZM1050.04 508.386c-.651-21.211-4.544-30.533-13.008-42.344l102.019.391c8.268 5.912 8.658 16.159 12.995 24.037l17.33-13.802c19.688-16.537 54.349-16.928 76.797-6.303 9.466 4.74 18.515 11.042 24.427 19.31l-43.32 67.357c-5.521-4.349-9.454-6.302-16.55-9.844-21.458-9.271-44.114-3.854-57.109 7.865v196.549c-.3 33.972 5.612 64.987 23.242 81.133h-98.476c-20.482-15.742-26.316-39.219-27.566-63.021l-.781-261.328ZM278.425 611.771l-37.279 76.251c-25.313 45.013-60.807 100.195-115.3 113.906-21.093 7.383-39.726.703-60.117-.703L0 908.79c4.922 5.273 11.849 9.726 18.633 12.305 115.651 44.114 162.226-3.334 276.133-260.665l107.565 229.206h143.255l-67.669-154.674 38.307-79.974 105.82 231.132 137.097.886-239.922-527.305-110.521 54.922 86.615 196.771-37.969 77.331L298.62 346.069l-116.432 59.323 96.237 206.379ZM718.776 704.727c2.76-38.203 23.633-74.049 59.089-93.346 35.052-21.667 76.015-30.325 112.252-49.232 6.302-5.117 14.18-11.419 14.571-19.7.403-10.235-4.727-18.112-13.777-21.667-55.143-11.81-100.833 22.852-141.015 57.122 5.117-25.221 9.062-52.773 20.872-76.419 5.912-6.302 9.454-14.961 17.331-19.687 38.997-19.31 87.839-24.818 131.563-21.667 35.833 2.357 68.919 27.969 81.132 60.651 6.302 15.378 5.912 32.695 7.084 48.45l.403 213.477c.391 18.516 9.063 35.846 20.091 50.808H926.354c-12.213-11.029-18.229-24.805-21.666-42.136-28.555 25.208-88.125 62.63-123.672 37.813-36.823-16.55-70.508-72.084-62.24-124.467Zm180.794-74.244c-.781-14.766-11.419-16.342-18.906-16.342-24.414 3.542-45.442 23.985-57.109 44.896-10.443 18.711-12.904 34.466-13.789 50.808-.091 17.63-1.185 30.729 5.911 44.114 3.933 8.672 12.604 12.617 20.873 14.974 15.755 3.151 30.338-1.185 42.539-9.453 28.75-16.159 23.632-48.451 24.036-77.201l-3.555-51.796ZM2422.71 783.894c5.118 5.234 7.67 11.419 7.67 18.529 0 7.317-2.566 13.606-7.722 18.828-5.143 5.208-11.354 7.812-18.606 7.812-7.292 0-13.516-2.591-18.659-7.76-5.182-5.183-7.774-11.471-7.774-18.88 0-7.149 2.552-13.321 7.644-18.529 5.169-5.325 11.432-7.982 18.789-7.982 7.252 0 13.476 2.657 18.658 7.982Zm3.946-4.076c-6.25-6.249-13.789-9.375-22.604-9.375-8.425 0-15.755 2.904-22.006 8.686-6.653 6.184-9.973 13.958-9.973 23.294 0 8.997 3.072 16.575 9.244 22.734 6.159 6.159 13.737 9.245 22.735 9.245 8.698 0 16.158-3.008 22.382-9.023 6.394-6.225 9.597-13.868 9.597-22.956 0-8.815-3.125-16.354-9.375-22.605Zm-18.659 20.183c-1.224.859-2.904 1.289-5.078 1.289h-3.594v-10.273h2.253c2.304 0 4.101.247 5.377.729 1.914.755 2.865 2.096 2.865 4.036 0 1.94-.612 3.346-1.823 4.219Zm-8.672 7.669h1.94l2.044.143c1.42.078 2.474.274 3.165.56 1.276.495 2.148 1.354 2.603 2.604.287.756.483 2.201.56 4.336.092 2.136.287 3.777.573 4.909h8.854l-.312-1.003a5.177 5.177 0 0 1-.234-1.041 9.538 9.538 0 0 1-.065-1.042v-3.164c0-3.62-1.042-6.263-3.125-7.943-1.133-.898-2.8-1.575-5.027-2.044 2.422-.26 4.467-1.055 6.133-2.383 1.667-1.328 2.501-3.489 2.501-6.471 0-3.906-1.576-6.719-4.74-8.464-1.849-1.002-4.18-1.614-6.98-1.809-.494-.04-2.929-.053-7.317-.065-4.375-.027-7.67-.027-9.87-.027v35.456h9.297V807.67Z" style="fill:#ce1041"/></svg>