<?xml version="1.0" encoding="UTF-8" standalone="no"?>
<!-- Created with Inkscape (http://www.inkscape.org/) -->

<svg
   version="1.1"
   id="svg575"
   width="682.66669"
   height="682.66669"
   viewBox="0 0 682.66669 682.66669"
   xmlns="http://www.w3.org/2000/svg"
   xmlns:svg="http://www.w3.org/2000/svg">
  <defs
     id="defs579" />
  <g
     id="g581">
    <g
       id="g1396"
       transform="translate(-87.76998,13.021183)">
      <path
         style="fill:#0172bb;stroke-width:1.33333"
         d="M 510.68053,657.13291 C 436.87683,646.38535 382.78357,592.1972 371.82639,518.03519 c -2.30869,-15.62604 -1.9857,-42.11486 0.69198,-56.74937 0.73797,-4.03333 4.67238,-26.23333 8.74314,-49.33334 4.07075,-23.1 11.29744,-64.07622 16.05931,-91.05827 4.76188,-26.98205 9.55917,-50.80104 10.66067,-52.93108 1.10148,-2.13004 4.20662,-5.55382 6.90032,-7.6084 l 4.89761,-3.73558 h 144.5465 144.54649 l 3.8906,4.35437 c 7.2608,8.1262 4.293,20.5582 -6.6716,27.94723 -4.4885,3.02485 -4.617,3.03174 -56.63491,3.03549 -56.63061,0.004 -68.12187,0.85757 -91.15402,6.77031 -54.66603,14.03369 -106.66723,56.88477 -132.29341,109.01508 -31.6047,64.2922 -23.69566,132.94801 20.30484,176.25975 42.18647,41.5261 108.48569,50.30819 165.14694,21.8756 51.71943,-25.9528 86.52896,-85.10679 78.00226,-132.55405 -6.7955,-37.81356 -38.98003,-63.91613 -78.9295,-64.01397 -39.09906,-0.0957 -78.00832,31.40607 -86.62424,70.13297 -7.09687,31.89905 10.07956,57.14443 41.20452,60.56108 7.87592,0.86456 9.9785,1.63281 12.50388,4.56875 3.5194,4.09154 3.80596,7.35734 1.10404,12.58228 -3.56356,6.89116 -7.86204,8.56609 -19.95388,7.77513 -24.84245,-1.625 -44.42901,-14.54824 -55.31077,-36.49412 -14.7084,-29.6633 -4.23566,-73.55671 25.04837,-104.98291 14.44428,-15.5009 40.51319,-31.09095 60.8148,-36.3692 12.63115,-3.284 40.3846,-3.23266 52.66352,0.0975 40.70046,11.03812 67.38946,40.88302 73.41566,82.09711 4.1719,28.5317 -5.9843,69.30943 -24.7686,99.44773 -27.92089,44.79717 -76.26368,78.13121 -127.36974,87.82587 -11.82831,2.24378 -39.09596,2.54552 -52.58064,0.58184 z M 307.73994,474.00094 c -2.33587,-1.01593 -5.26072,-3.80739 -6.49966,-6.20323 -1.97104,-3.81157 -2.06494,-5.69909 -0.75125,-15.10064 9.84201,-70.43512 -25.96585,-131.72496 -89.19973,-152.67702 -12.57341,-4.16609 -24.20638,-6.36968 -39.30231,-7.44485 -7.33333,-0.52229 -14.85455,-1.72489 -16.71382,-2.67243 -4.93778,-2.51644 -7.09795,-7.44912 -6.31279,-14.41506 0.86269,-7.65375 5.32944,-13.86168 12.22803,-16.99466 5.16486,-2.34558 10.70505,-2.48334 100.79858,-2.5063 92.16861,-0.0235 95.47478,0.062 99.59404,2.57361 8.77544,5.35073 9.02592,2.52348 -9.48465,107.05534 -9.1872,51.88142 -17.5632,95.98143 -18.61335,98 -2.61441,5.02541 -7.287,9.00741 -12.695,10.81876 -5.73979,1.92245 -7.7876,1.85443 -13.04809,-0.43352 z M 425.05706,217.02309 c -2.96236,-1.43125 -7.07007,-8.47499 -7.07007,-12.12348 0,-5.86768 33.75488,-191.228094 35.40423,-194.417581 3.14046,-6.0729547 10.85099,-10.52956472 18.21759,-10.52956472 5.12281,0 7.16993,0.74685 10.69048,3.90019802 4.31123,3.861555 4.34805,3.996963 3.71613,13.6666667 -0.35104,5.371559 -0.62342,19.36647 -0.60533,31.099804 0.0276,17.905639 0.51995,23.154297 3.06409,32.666665 6.83111,25.540992 16.8978,43.502772 34.09992,60.843742 18.71851,18.8696 37.96423,29.83718 64.14423,36.55395 10.59112,2.71727 16.2151,3.14887 49.93534,3.83223 41.72204,0.84552 42.19474,0.9394 46.09264,9.15356 2.5125,5.2948 1.6356,10.92718 -2.7622,17.74148 -6.2925,9.74998 1.4089,9.21878 -132.19862,9.11814 -81.59868,-0.0615 -120.73275,-0.54162 -122.72843,-1.50581 z"
         id="path1161" />
    </g>
  </g>
</svg>
