<?xml version="1.0" encoding="UTF-8" standalone="no"?>
<!-- Created with Inkscape (http://www.inkscape.org/) -->

<svg
   width="512"
   height="356"
   version="1.1"
   viewBox="0 0 135.47 94.192"
   id="svg60"
   sodipodi:docname="cbe_birr_normal.svg"
   inkscape:version="1.1.2 (0a00cf5339, 2022-02-04)"
   xmlns:inkscape="http://www.inkscape.org/namespaces/inkscape"
   xmlns:sodipodi="http://sodipodi.sourceforge.net/DTD/sodipodi-0.dtd"
   xmlns="http://www.w3.org/2000/svg"
   xmlns:svg="http://www.w3.org/2000/svg">
  <defs
     id="defs64" />
  <sodipodi:namedview
     id="namedview62"
     pagecolor="#ffffff"
     bordercolor="#999999"
     borderopacity="1"
     inkscape:pageshadow="0"
     inkscape:pageopacity="0"
     inkscape:pagecheckerboard="0"
     showgrid="false"
     inkscape:zoom="1.4355939"
     inkscape:cx="280.37176"
     inkscape:cy="290.47211"
     inkscape:window-width="1920"
     inkscape:window-height="1043"
     inkscape:window-x="0"
     inkscape:window-y="0"
     inkscape:window-maximized="1"
     inkscape:current-layer="l7iQ2CdurcfLPukPomC1rrf" />
  <g
     id="g58">
    <g
       transform="matrix(.013157 0 0 .013157 -37.102 -246.99)"
       id="g5">
      <g
         id="lm4bzKSffSPoV650If1Z3e"
         fill="#1b1a17" />
      <rect
         x="2820.6"
         y="18773"
         width="10290"
         height="7130"
         fill-rule="evenodd"
         stroke-width="100"
         id="rect3" />
    </g>
    <g
       id="l75UwCQye8f2gHPX3GHu5Lm"
       transform="matrix(.013157 0 0 .013157 .0075291 .0012564)"
       fill="#882b7a">
      <path
         id="p1D7ERCeGp"
         d="m0 3565v-3565h10290v7130h-10290zm2778 1829c90-7 167-16 171-18 4-3 43-12 87-21 357-73 645-219 875-445 178-176 289-370 334-585 52-256-48-522-241-637-30-18-54-35-54-39 0-3 26-23 58-44 168-111 313-247 370-346 44-80 78-183 92-284 11-78 11-101-3-168-73-355-432-576-1002-617-194-14-566 8-785 46-14 2-68 11-120 19-157 25-456 96-471 112-4 4-21 62-39 128-17 66-74 280-126 475-53 195-104 387-114 425-10 39-27 104-38 145-45 168-134 501-159 595-14 55-41 154-59 220s-78 293-134 505-104 393-106 402c-7 24 17 32 188 62 203 36 355 53 573 66 105 6 204 13 220 14 74 8 334 2 483-10zm2421-112c11-37 44-159 75-272 55-208 140-520 197-730 17-63 46-169 64-235s44-163 58-215 51-189 83-305c31-115 64-236 73-268 15-55 15-60-4-95-31-58-65-68-228-70-78-1-222-5-319-8l-178-7v-23c0-13 5-44 12-69 7-24 9-47 6-50-10-10-79-8-90 3-12 12-45 127-273 977-56 206-185 689-221 825-24 91-70 263-102 382-33 120-57 219-56 221 1 1 201 3 443 4l440 2zm1172 23c30-119 92-348 109-405 18-61 35-127 146-555 25-93 60-224 78-290 19-66 48-174 65-240 53-199 44-183 127-221 41-18 102-41 136-50 76-20 230-44 241-37 4 2 51 6 105 8 105 5 196 18 280 42 30 8 55 13 56 11 6-7 103-364 126-463 6-26-5-34-62-43-289-49-689-33-1071 44-169 34-386 96-456 131s-41-51-251 748c-60 231-117 445-125 475-63 228-232 876-230 880 2 3 163 5 359 5h357zm1831 20c4-11 44-157 88-325 87-329 158-594 280-1050 23-85 50-189 61-230s27-82 37-91c18-17 132-63 237-95 50-16 91-19 235-18 169 1 222 8 395 50 18 5 23-5 44-88 13-51 40-156 61-233s39-147 41-155c5-20-81-36-266-50-330-23-724 20-1104 121-104 27-254 82-274 100-5 3-22 56-37 115-16 60-54 204-85 319-31 116-80 302-110 415-29 113-70 266-90 340s-54 203-75 285c-51 197-113 432-139 524-11 41-19 77-17 80s163 6 357 6c340-1 353-1 361-20zm-5372-3424c47-13 91-29 98-36 7-6 21-43 31-81s22-78 27-88c6-16 4-18-12-12-168 69-313 99-382 78-46-14-89-53-108-99-23-54-18-178 10-246 45-108 123-199 204-238 91-44 185-35 335 33 37 17 69 29 70 27 5-6 47-165 47-177s-101-46-187-63c-264-50-538 88-653 326-67 140-90 269-65 366 31 121 92 189 201 222 76 24 276 17 384-12zm713 19c118-17 248-87 311-167 36-45 76-138 76-178 0-42-32-108-66-134l-29-23 25-20c105-83 140-146 125-225-16-88-83-139-225-169-69-15-213-15-285-1-11 3-50 10-87 17s-73 17-81 24c-8 6-38 99-67 206s-63 233-75 280c-35 127-95 357-95 362 0 4 60 16 170 32 54 7 238 5 303-4zm1168-85c10-38 19-73 19-77 0-5-110-8-245-8-227 0-245-1-245-17 0-19 47-193 53-200 3-2 104-4 225-5l220-2 17-60c9-34 19-69 21-78 5-17-10-18-215-18-178 0-221-3-221-13 0-18 38-165 45-177 4-6 107-10 249-10h244l16-63c8-35 18-71 22-81 6-15-21-16-352-14l-357 3-43 150c-47 167-194 726-194 738 0 4 163 6 361 5l361-3z" />
      <path
         id="pvVIMrZop"
         d="m2395 4834c-94-12-165-27-165-34 0-5 16-66 35-137 19-70 67-252 108-403l74-275 314-3c371-3 483 6 578 49 36 17 76 40 90 52 34 32 61 95 61 147 0 57-34 198-59 248-58 113-173 213-315 275-149 64-229 78-476 82-118 2-228 1-245-1z" />
      <path
         d="m4455 5210c-9-15 4-68 22-85 20-20 131-21 139-1 3 8 0 32-6 55l-11 41h-69c-38 0-72-5-75-10z"
         id="path9" />
      <path
         id="pmc2yQJ4f"
         d="m4716 5212c-2-4 0-27 6-50 8-32 16-44 35-48 25-7 120-1 128 8 3 2-1 24-8 49l-13 44-71 3c-39 2-74-1-77-6z" />
      <path
         id="pe8uofdwf"
         d="m4983 5180c8-60 20-70 86-70 79 0 87 7 70 61l-14 44-148 6z" />
      <path
         d="m4513 4995c-2-7 0-31 6-53 9-33 16-41 42-46 44-8 91-7 108 3 13 8 9 58-9 90-10 18-140 24-147 6z"
         id="path13" />
      <path
         id="p15430Pq2D"
         d="m4825 5001c-49-6-50-7-46-36 7-62 16-68 108-68 61 0 65 6 45 60-19 53-23 54-107 44z" />
      <path
         id="p16NI1DLmS"
         d="m5100 5e3c-36-3-65-9-65-15 1-32 19-76 33-84 21-10 121-6 133 6 11 11-7 78-24 89-6 5-41 7-77 4z" />
      <path
         id="p1G8iKf7VP"
         d="m4574 4748c10-63 19-69 95-66 75 3 82 12 57 72l-15 36h-144z" />
      <path
         d="m4834 4777c-2-7 1-31 8-53l13-39h70c79 0 87 8 61 69l-15 36h-66c-45 0-67-4-71-13z"
         id="path18" />
      <path
         id="pXOdei2GK"
         d="m5095 4780c-8-13 14-82 29-92 17-12 121-9 133 3 7 7 7 22-2 52l-12 42-71 3c-42 2-73-1-77-8z" />
      <path
         id="pl2vqM7wY"
         d="m4644 4560c-16-16 7-92 31-100 26-9 115-4 127 8s-7 78-25 89c-20 12-121 15-133 3z" />
      <path
         id="pz3uEnDIr"
         d="m4903 4553c-3-8-1-32 6-53 11-37 13-38 64-42 100-7 115 7 81 77-15 32-16 33-80 33-48 0-67-4-71-15z" />
      <path
         id="p1HiHTtj2B"
         d="m5164 4555c-9-22 4-63 26-85 20-20 71-26 118-14 25 7 30 44 9 83-11 21-20 24-80 27-53 3-69 0-73-11z" />
      <path
         id="p4iWKLBjd"
         d="m4986 4242c-3-5 0-29 7-53l13-44 64-1c83-2 92 5 76 59l-12 42-71 3c-39 2-74-1-77-6z" />
      <path
         id="pGfC7PqWn"
         d="m3337 1762c-7-10 39-205 55-235 9-17 21-19 133-16 108 4 127 7 152 25 59 46 18 160-74 205-39 19-68 24-154 27-62 3-109 0-112-6z" />
      <path
         id="p1H1EY02XW"
         d="m3440 1357c0-36 44-184 58-194 22-18 164-17 207 1 42 18 54 40 47 89-6 51-56 102-108 110-73 12-204 8-204-6z" />
    </g>
    <g
       id="l7iQ2CdurcfLPukPomC1rrf"
       transform="matrix(.013157 0 0 .013157 -.97921 .0012659)"
       fill="#942e7b">
      <path
         id="p14U0TC3ek"
         d="m 2550.4408,4834 c 0,-5 -25,-7 -55,-6 -30,2 -55,0 -55,-5 0,-4 -25,-8 -55,-8 -89,0 -96,55 68,-555 l 74,-275 314,-3 c 371,-3 483,6 578,49 78,36 108,61 132,114 24,52 24,110 -1,213 -23,96 -43,139 -99,209 -78,99 -258,212 -316,197 -18,-5 -25,-2 -25,9 0,11 -26,22 -92,38 -74,18 -131,23 -280,27 -104,2 -188,0 -188,-4 z" />
      <path
         id="pnVPsdwrV"
         d="m 2813.2204,3473 c -137,-3 -183,-7 -183,-16 1,-6 14,-59 30,-117 16,-58 55,-202 85,-320 57,-220 66,-240 112,-240 12,0 42,-7 67,-15 24,-8 75,-17 112,-20 38,-3 96,-7 130,-11 82,-8 269,19 340,49 145,62 205,160 183,299 -41,255 -225,379 -579,390 -63,2 -197,2 -297,1 z" />
      <path
         id="pz7hfqBdI"
         d="m 3431.4408,1761 c -12,-8 -12,-22 3,-98 10,-48 24,-103 32,-122 l 14,-33 124,3 c 108,4 128,7 153,25 34,25 38,40 23,92 -14,54 -60,103 -89,95 -16,-4 -20,-2 -16,9 5,11 -6,18 -39,27 -53,13 -185,14 -205,2 z" />
      <path
         id="p3GZboAgk"
         d="m 3520.4408,1357 c 0,-36 44,-184 58,-194 22,-18 164,-17 207,1 18,8 38,23 43,33 19,35 -15,142 -40,127 -13,-8 -65,15 -72,32 -8,20 -196,21 -196,1 z" />
    </g>
    <g
       id="l2x9HFKck8lmXDEiOjKiqPf"
       transform="matrix(.013157 0 0 .013157 -1.213 -1.9244)"
       fill="#e0aa49">
      <path
         id="pomL9MIeC"
         d="m7178 6163c-16-2-28-6-28-7 0-14 54-165 70-197 15.864-45.025 19.782-61.819-9.3464-62.012-12 4-10.654 2.0123-10.654-56.988v-71l37 3c36 3 37 5 38 40 0 44 6 51 45 50 33-1 38 12 15 42-25 33-19 48 18 45 41-4 53 4 60 38 3 16 13 59 21 96 9 38 14 72 12 76-4 5-32 6-67 2-4-1-10-16-13-35-4-19-13-57-22-85-25-86-66-63-95 55-12 49-18.432 76.069-30.432 74.069-3-1-25.568-5.0694-40.568-7.0694z" />
      <path
         id="p2fi232ny"
         d="m5778.5 3166c-9-18-86-138-172-268-214-322-197-282-155-364 49-92 138-175 249-228 63-30 145-56 317-99 333-82 444-133 548-249 27-31 62-80 76-109 30-61 32-60 86 26 18 28 53 82 78 119 106 157 238 359 244 375 8 20-25 86-76 155-73 98-196 170-373 218-50 14-107 29-126 35-19 5-75 19-125 30-49 12-99 25-110 29-11 5-45 16-75 26-136 44-274 159-334 278-15 31-30 57-32 57s-11-14-20-31z" />
    </g>
    <g
       id="l4xcRfBrbcIWSfwRJwSktCL"
       transform="matrix(.026458 0 0 .026458 30.318 560.56)"
       fill="#e3a756">
      <g
         stroke-width=".49726"
         id="g55">
        <path
           id="p1FJPwFWrP"
           d="m1847-18196c-31.989-15.837-41.723-25.721-43.214-120.7l-0.9946-77.075h20.387c12.432 0 21.879 2.487 22.874 6.465 0.9946 2.983 1.4919 38.288 0.9946 78.068-0.9946 81.052 2.9835 94.478 26.852 94.478 30.333 0 36.3-18.894 35.305-109.4l-0.9946-67.128h38.786l1.4919 33.813 1.4916 33.315h69.118v18.897c0 16.408-1.989 19.392-14.918 24.365-15.415 5.967-19.89 2.983-26.355-14.42-1.989-5.47-8.4533-8.951-15.912-8.951-11.934 0-12.432 1.491-12.432 28.84 0 40.776-10.94 60.168-44.753 76.578-23.659 11.715-36.746 8.269-57.728 2.847z" />
        <path
           id="pOGmmwzm"
           d="m2761-18198c-19.89-13.426-10.94-36.796 13.923-36.796 23.868 0 32.819 20.884 15.912 36.3-11.437 10.441-15.912 10.441-29.835 0.496z" />
        <path
           id="p3pu6iPjt"
           d="m978.63-18198c-0.61176-3.596-2.8056-37.694-3.3028-78.967-0.99453-78.566-4.4753-92.986-24.863-98.455-5.9671-1.493-15.415 1.492-22.874 6.961-11.437 9.447-12.431 12.928-13.426 68.124l-1.4918 58.179h-39.78v-52.212c0-82.048 12.431-98.457 73.097-99.949 35.802-0.994 48.234 4.476 61.66 27.35 7.9561 12.928 9.4479 26.354 9.4479 89.008 0.4973 45.747-0.8899 78.075-4.3706 80.063-10.594 1.086-24.681-0.327-34.096-0.108z" />
        <path
           id="pBZyK9CrT"
           d="m1064.9-18197c-1.6458-11.43-5.0856-28.109 0.3843-56.95 7.4588-36.797 25.857-67.626 49.228-82.544 21.879-13.924 22.377-13.924 11.934-38.786-4.4753-9.946-6.4643-20.387-4.9725-22.376 1.989-3.978 36.797-3.482 39.283 0.497 0.4973 0.994 5.9671 17.901 11.934 37.791l11.437 35.802h34.808c30.333 0 34.311 0.996 34.311 9.449 0 5.469 1.4917 12.928 2.9835 17.403 1.989 4.973-1.9891 9.946-11.934 14.918-15.912 7.956-20.885 5.967-27.349-12.928-1.989-4.973-7.9561-8.951-13.923-8.951-9.4478 0-9.945 1.988-7.4587 16.409 1.4917 8.951 8.4533 32.818 14.918 52.212 6.4644 19.89 10.442 36.797 8.4534 37.791-1.4918 0.994-11.407 0.944-21.353-0.05l-16.218 0.122-18.122-59.749c-9.4479-31.328-19.393-56.687-22.376-56.687-6.4643 0-18.398 12.929-26.852 28.84-2.9835 6.465-8.4533 28.842-11.437 49.229-5.4697 35.802-3.9027 33.956-12.455 39.074-7.4588 0.498-21.112-0.302-25.224-0.523z" />
        <path
           id="pGAADuiMt"
           d="m1314.9-18199-15.415-1.492 1.4918-74.091c1.4918-80.059 4.9726-93.981 27.846-110.89 9.9451-7.459 20.885-9.945 42.267-9.945 62.654 0.994 72.599 14.918 75.086 109.89 2.4863 84.036 0.9945 90.004-19.89 88.015-8.9505-0.994-17.404-1.492-18.896-1.989-1.4917-0.497-2.4862-35.803-2.9834-78.567l-1.3654-82.422-28.066-8.107c-30.091 4.311-0.5616-1.564-19.797 2.018-11.934 11.437-12.431 13.924-12.431 88.511 0 83.043 0.4973 82.048-27.846 79.064z" />
        <path
           id="pDNurJT9U"
           d="m1583-18198-16.41-1.99v-103.93h-12.431c-10.94 0-15.415 4.475-30.332 28.84-0.4973 0.995-24.863-8.453-30.83-11.933-0.9946-0.498 0-8.951 1.4917-18.896l3.4808-17.902h68.621v-49.724h-25.857c-31.824 0-35.802-2.985-37.294-22.875-0.9945-12.43 1.4918-16.409 11.437-20.884 17.901-8.455 20.885-7.459 29.338 8.949 7.4589 13.924 9.4479 14.919 36.797 14.919h29.338l-0.9946 28.841c-0.9945 15.414-0.4973 31.326 0.9946 34.808 1.4917 3.978 13.426 5.966 35.802 5.966h33.813l1.989 17.404c1.989 15.415 0 18.399-12.929 24.864-18.896 9.447-17.404 9.944-23.371-7.46-4.4753-11.933-8.4534-14.917-19.393-14.917-17.901 0-20.885 8.453-16.907 50.72 2.9836 34.31 0 59.173-6.9616 57.682-1.989 0-10.94-1.492-19.393-2.486z" />
        <path
           id="pP4LhQopY"
           d="m2175.7-18206c-3.4808-5.965-12.431-32.321-19.89-58.675-7.956-27.349-16.409-48.731-19.89-48.731-15.415 0-36.3 46.244-39.283 89.009-1.9891 22.873-1.9891 22.873-20.885 22.873h-19.393l1.4918-22.375c2.9835-47.738 14.918-75.087 43.758-102.93l27.349-25.856-7.4588-22.875c-4.4754-12.43-7.9561-23.867-7.9561-24.862 0-2.487 39.78 0.498 41.272 2.984 0.9944 0.994 6.4642 18.398 12.928 38.288l11.437 35.802h33.813c33.316 0 33.813 0 39.283 15.416 2.9836 8.95 5.4698 16.409 5.4698 17.403 0 1.492-30.333 16.907-32.819 16.907-0.9945 0-4.9726-6.464-9.4478-14.918-7.4588-14.917-27.349-21.382-27.349-8.453 0 5.968 20.387 73.098 26.852 88.512 2.9834 6.464 0 8.95-14.42 10.442-14.42 1.492-19.89 0-24.863-7.957z" />
        <path
           id="pRYhwGV7i"
           d="m2562.1-18199c-7.9562-4.972-10.442-32.322-4.9725-50.223 15.415-51.217 20.387-60.167 44.753-81.55l25.36-21.879-8.4534-23.869c-4.4753-12.928-7.9561-24.365-7.9561-25.359 0-2.486 40.278 1.989 41.77 4.475 0.4973 0.994 3.4808 9.447 6.4642 18.896 11.934 39.781 50.72 162.1 53.704 169.56 2.4863 6.464-0.4972 8.95-14.918 10.442-9.9453 0.994-19.89-0.497-21.879-2.984-2.4864-2.983-11.934-29.835-21.382-59.173-8.9505-29.835-18.896-54.201-21.382-54.699-6.9616-0.497-26.355 29.339-32.322 50.722-2.4864 9.943-4.9726 28.342-4.9726 41.768 0 12.928-1.4918 23.372-3.4809 23.869-2.4862 0-8.9506 0.995-14.918 1.491-5.9669 0.498-12.928 0-15.415-1.491z" />
        <path
           id="pnCNA2PFU"
           d="m2758-18290c-1.4917-16.907-2.9836-47.239-2.9836-67.128v-36.798h39.781v28.841c0 16.41-1.4918 46.245-2.9836 67.129-3.4808 37.295-3.4808 38.288-16.907 38.288-12.929 0-13.426-1.491-16.907-30.332z" />
        <path
           id="peJe6LYmP"
           d="m1641.1-19781c-11.934-23.371-10.442-34.809 4.9725-34.809 5.4698 0 9.9452-3.48 9.9452-7.458 0-10.443 25.857-32.322 38.289-32.322 12.431 0 15.415 11.936 5.4698 18.399-3.4808 1.99-12.431 2.984-19.89 1.99-10.94-0.996-13.923 0.994-13.923 8.453 0 5.47 2.9836 10.938 5.9671 11.934 4.4753 1.491 3.978 7.955-3.4808 24.366-13.426 31.823-15.415 32.817-27.349 9.447z" />
        <path
           id="pcdPHG8Li"
           d="m1717.7-19859c4.9726-5.966 7.4589-13.426 5.4699-15.912-1.4919-2.982 0.4971-5.469 4.4753-5.469 11.437 0 9.4478 6.465-5.4699 20.387-11.437 9.945-12.431 9.945-4.4753 0.994z" />
        <path
           id="ptBk37rpf"
           d="m1782.9-19915c-2.9835-5.469 16.41-12.928 21.382-7.955 1.9891 1.49 0 4.972-3.9779 7.458-9.448 5.968-13.426 5.968-17.404 0.497z" />
        <path
           id="p19uy6PbxE"
           d="m1815.2-19926c0-14.42 23.371-23.371 68.621-25.858 5.967 0 10.94-2.486 10.94-4.972 0-1.989 4.4753-2.985 9.945-1.492 5.4699 1.492 9.9453 0.497 9.9453-1.99 0-2.486 3.4807-4.476 7.4588-4.476 15.912 0 6.4643 8.951-15.912 14.919-13.426 2.983-28.344 7.458-33.813 9.449-32.819 12.43-57.184 18.397-57.184 14.42z" />
        <path
           id="p1GeZokeil"
           d="m1934.5-19964c0-5.471 34.311-13.426 38.786-8.951 4.4753 4.973-1.989 8.453-20.885 11.438-10.94 1.49-17.901 0.993-17.901-2.487z" />
        <path
           id="piYfQzlSA"
           d="m1979.3-19971c0-8.951 28.344-19.393 31.824-11.438 1.4916 3.483 2.4862 3.483 2.4862-0.495 0.4972-7.46 15.415-8.951 15.415-1.493 0 2.486-5.9671 5.968-13.426 7.956-7.956 1.492-18.896 4.476-24.863 6.963-8.4534 3.48-11.437 2.982-11.437-1.493z" />
        <path
           id="pVwPPadeh"
           d="m2034-19990c0-2.485 2.9837-4.972 6.9617-4.972 3.9781 0 8.9505 2.487 10.442 4.972 1.4917 2.983-1.4919 4.973-6.9615 4.973-5.9672 0-10.443-1.99-10.443-4.973z" />
        <path
           id="pu6XgZtCU"
           d="m2083.7-20005c0-2.486 3.4809-4.971 7.4589-4.971 3.9781 0 7.4588 2.485 7.4588 4.971 0 2.985-3.4807 4.973-7.4588 4.973-3.978 0-7.4589-1.988-7.4589-4.973z" />
        <path
           id="pycm5s7Bf"
           d="m2107.1-20013c-4.4755-4.475-4.4755-11.436 0.4971-10.939 10.442 1.989 20.885-1.492 27.349-7.956 10.94-10.94 33.316-14.918 33.316-5.967 0 3.978-10.94 11.934-25.36 17.901-27.846 11.437-30.83 11.934-35.802 6.961z" />
        <path
           id="pUeBDDcil"
           d="m2224.4-20098c-9.4478-1.493-10.442-3.481-6.4644-10.942 4.4754-8.95 21.879-8.95 27.349 0 3.9779 6.466-8.9506 12.93-20.885 10.942z" />
      </g>
    </g>
  </g>
</svg>
