<svg width="301.532" height="280.59" version="1.0" xmlns="http://www.w3.org/2000/svg"><path style="fill:#fff;fill-rule:evenodd;stroke:#fff;stroke-width:1px;stroke-linecap:butt;stroke-linejoin:miter;stroke-opacity:1" d="M328.355 88.125c-2.133 2.376-4.32 4.715-6.42 7.114l-131.058 245.34c.01-.546-.04-1.115.447-1.481 1.508-2.036 1.902-4.602 2.921-6.871.616-1.82.577-3.872-.186-5.643 3.111-.092 5.809-2.348 6.986-5.148.702-1.728 1.37-3.484 1.826-5.293.625-2.838-.153-6.151-2.603-7.905-1.47-1.126-3.426-1.552-5.243-1.238-5.16-3.09-9.965-6.767-15.283-9.59-3.776-1.812-8.424-2.057-12.164-.015-2.55 1.34-4.653 3.437-6.215 5.841-2.864.43-5.936.743-8.34 2.5-2.04 1.847-2.839 4.546-3.806 7.026-1.127 1.955-1.314 4.411-.393 6.484 1.057 2.55 3.652 4.366 6.426 4.393.698.045 1.394-.043 2.082-.153 1.067 4.319 3.843 8.245 7.766 10.411 1.697 1.013 3.475 1.88 5.265 2.714-.299.293-.366 1.514-.852.8-1.388-1.376-3.169-2.328-5.103-2.643a9.965 9.965 0 0 0-4.058.08c-2.285-4.585-7.197-8.008-12.417-7.789-4.237.216-7.855 3.06-10.2 6.429-3.294 4.646-5.335 10.502-4.32 16.223.726 4.714 4.213 8.603 8.384 10.693-1.253 2.012-1.847 4.541-1.035 6.831a7.608 7.608 0 0 0 1.033 2.076c-1.374.302-2.711.805-3.912 1.543-2.577-2.193-6.761-2.306-9.29.024-.407.355-.652 1.045-1.286.657-2.197-.491-4.455-.959-6.694-.974-2.331.919-4.233 2.77-5.25 5.056-1.164 2.171-2.688 4.36-2.591 6.938.052 2.74 1.828 5.335 4.38 6.35 2.268.887 4.701 1.225 7.021 1.95 1.48.446 3.07.65 4.573.735 3.237 6.278 7.81 12.028 13.793 15.876 2.245 1.438 5 2.596 7.691 1.826 2.528-.666 4.286-2.85 5.28-5.164.607-1.528 1.864-2.727 2.2-4.374.898-3.135-.483-6.88-3.479-8.34-1.35-.752-2.988-.93-4.157-2.01-.54-.38.763.202.998.227 1.886.568 3.702 1.386 5.62 1.834 1.92.32 3.937-.114 5.639-.998 2.142-2.273 3.44-5.152 4.84-7.901 1.435-3.375-.31-7.596-3.597-9.141-1.079-.522-2.282-.68-3.428-1.003 2.075-2.48 3.024-5.855 2.436-9.046-.193-1.215-.584-2.393-1.102-3.507.7-.702 1.286-1.514 1.764-2.38 1.673 1.737 3.288 3.62 5.377 4.869 3.32 1.909 8.05 1.49 10.572-1.545 1.229-1.488 1.715-3.41 2.586-5.103.319-.641.563-1.372.924-1.962.517-.19 1.023-.41 1.502-.682-24.68 46.2-49.358 92.4-74.039 138.598h434.57c-7.971-14.869-15.944-29.737-23.916-44.605h69.13l-15.952-29.752 14.809-7.6 3.933 7.303c4.735-2.43 9.471-4.859 14.207-7.287-13.136-24.38-26.26-48.759-39.396-73.139l-3.947.498c.888-.96 1.775-1.923 2.662-2.885-7.805-14.489-15.599-28.978-23.409-43.464l-2.779 1.427 2.233-2.447c-6.612-12.281-13.231-24.557-19.85-36.84-.335.091-.397-.876-.656-1.164-1.296-2.712-2.904-5.26-4.245-7.95-14.194-26.343-28.375-52.687-42.572-79.026-9.36 4.801-18.718 9.608-28.078 14.412l-.037-15.248a1048.574 1048.574 0 0 1-10.587 11.704c-.945 1.07-1.911 2.134-2.479 3.462l-1.907 3.568-7.207-13.45-.052-16.474a941.143 941.143 0 0 1-10.52 11.703c-.962 1.097-1.958 2.181-2.538 3.54-.288.325-.575 1.704-.864.732l-6.229-11.62-.049-16.492a1053.288 1053.288 0 0 1-10.523 11.713c-.96 1.098-1.957 2.181-2.536 3.54l-13.335 24.958-43.94-81.949c.038-5.682-.023-11.366 0-17.049l-5.751 6.342zm-109.14 104.246c-3.145.093-5.844 2.521-6.738 5.46-1.187 3.655-1.977 7.51-4 10.83-1.034 2.047-2.11 4.142-2.559 6.4.04 1.27-.913 2.286-1.291 3.45-1.508 3.278-3.495 6.506-3.64 10.214-.256.28-.971.137-1.382.326-1.953.419-3.706 1.518-5.062 2.96-1.894 1.319-2.682 3.56-3.701 5.52-3.268 6.46-6.636 12.873-9.733 19.416-2.279 5.706-3.434 12.178-1.625 18.177 1.255 4.714 5.103 8.698 9.875 9.856 3.51.914 7.385-.111 10.048-2.554 3.315-2.934 4.994-7.148 6.921-11.024 1.112-2.41 1.958-5.122 1.45-7.793.642.126 1.18-.052 1.608-.55 1.116-.832 2.078-1.876 2.764-3.09 1.191 1.209 2.525 2.276 3.776 3.408 1.038 1.162 2.598 1.551 3.904 2.313 2.955 1.437 6.744 1.806 9.557-.157 2.12-1.493 3.118-4.004 4.294-6.22.994-1.776.995-4.014.339-5.909-.556-1.66-1.976-2.828-3.438-3.687-.874-.514-1.898-.524-2.844-.774-1.813-.855-2.999-2.568-4.453-3.886-2.107-2.164-4.07-4.46-6.105-6.69 3.294-1.845 5.445-5.526 5.506-9.293 4.084 3.296 8.094 6.707 12.427 9.674 2.875 1.713 6.842 1.861 9.517-.324 1.89-1.481 2.684-3.814 3.6-5.938.488-.728.816-1.533.906-2.413.57-3.506-1.73-7.393-5.258-8.207-.56-.11-1.148-.056-1.535-.561-4.537-3.544-8.93-7.27-13.435-10.854 2.622-2.45 3.964-6.156 3.51-9.716-.308-3.453-3.258-6.6-6.801-6.692-.56.003-1.153.107-1.547-.377a7.672 7.672 0 0 0-4.855-1.295zm-16.23 54.498c-.772.68-.75-.131-.778-.78-.356-.584.981-1.203.712-.299l.065 1.08zm307.341 8.46c.813.274 1.367 1.054 1.237 1.923-.024.727-.307 1.695-1.025 1.979-.85.365-1.654-.158-2.475-.36-.467-.377-.931-.8-.766-1.46.129-1.168 1.09-2.499 2.402-2.225l.627.142zM192.106 267.8c.746-.435.879-.434 0 0zm319.79 31.082c-.42.335-.94 1.409-1.178.407-.115-.457-1.109-1.357-.149-1.272.724-.341 1.039.131 1.273.764l.048.088zM172.662 314.91c3.946 2.26 7.498 5.139 11.461 7.374.38.21 1.305.697.435.675-3.534-1.452-6.604-3.492-10-5.219-1.113-.699-2.208-1.73-2.39-3.095l.494.265zm111.852 179.563c-5.428.061-11.123 1.453-15.221 5.191-.505.549-.897.944-.73-.083v-4.485h-18.667c-.003 3.024.005 6.083-.004 9.086-2.348-3.117-5.704-5.337-9.333-6.693-6.52-2.523-13.63-2.45-20.513-2.393h-12.687v9.088c-3.195-4.266-8.233-6.721-13.321-7.915-6.769-1.616-13.773-1.08-20.665-1.173h-8.555v23.3l-10.318-23.3h-14.775c-7.084 15.96-14.159 31.925-21.237 47.888h20.328l3.672-8.892h9.303l3.676 8.894c10.195-.054 20.392.103 30.586-.092 6.145-.34 12.53-1.601 17.562-5.35a19.365 19.365 0 0 0 3.744-3.655v9.117c6.973-.124 13.95.13 20.92-.123 5.886-.232 11.953-1.4 16.943-4.682 1.774-1.178 3.377-2.628 4.674-4.32v9.103h18.666v-1.998c6.63 2.06 13.657 3.299 20.597 2.364 5.1-.607 10.352-2.608 13.602-6.76 4.76-6.067 4.247-15.73-1.44-21.038-.645-.428.783-.362.935-.92.552-.353.894-.855 1.054-1.487.45-1.163.154-2.462.24-3.683v-11.648c-5.638-1.655-11.387-3.219-17.302-3.333-.578-.023-1.156-.01-1.734-.009zm283.963.017c-6.856.124-13.907 2.524-18.701 7.574-4.289 4.427-6.367 10.648-6.353 16.747a29.818 29.818 0 0 0 .407 5.056h-15.219l.04 1.95h-12.569v-30.721h-18.668v28.771c-2.553-.006-5.17.013-7.683-.01 3.755-3.632 5.178-9.237 4.488-14.275-.573-5.611-4.524-10.662-9.776-12.678-5.013-2.1-10.555-1.847-15.877-1.786-4.473-.042-8.948-.015-13.421-.022v47.888h18.668v-13.92c2.184-.03 4.375-.172 6.523-.588v14.508h67.252v-9.597c3.405 4.897 8.779 8.312 14.617 9.47 7.556 1.68 15.731.776 22.604-2.845v2.972h18.914v-19.117h-14.596v-23.268c-3.37-2.185-6.985-4.063-10.897-5.057-3.171-.868-6.474-1.15-9.753-1.052zm-148.674.606c-5.177.028-10.354-.019-15.532 0v23.302c-3.438-7.767-6.876-15.535-10.316-23.302h-14.781l-10.291 23.207v-23.207h-19.047c-2 4.562-3.997 9.126-5.996 13.69-1.988-4.564-3.977-9.126-5.963-13.69h-19.06v47.888h18.505v-6.662h13.028v6.662h27.916l3.671-8.892h9.303l3.674 8.892h28.025v-13.92c4.901-.035 10.062-.788 14.123-3.734 4.498-3.06 6.703-8.7 6.424-14.021-.08-3.468-1.227-6.925-3.434-9.623-2.797-3.605-7.23-5.54-11.654-6.192-2.84-.455-5.727-.432-8.595-.398zm150.775 16.447a13.349 13.349 0 0 1 7.479 2.684c2.153 1.554 4.143 3.323 6.326 4.837-3.15 2.118-5.805 4.992-9.306 6.56-2.934 1.11-6.317 1.383-9.292.267-1.782-.524-2.799-2.283-3.125-4.01-.393-2.108-.412-4.345.207-6.411.447-1.544 1.584-2.934 3.193-3.325 1.446-.501 2.993-.674 4.518-.602zm-385.9.668c2.402.133 5.068.266 6.978 1.916 1.556 2.013 1.344 4.748 1.095 7.133-.112 1.738-1.286 3.438-3.042 3.826-1.995.686-4.128.792-6.22.82v-13.728l1.189.033zm42.539 0c2.419.135 5.129.262 7.025 1.965 1.536 2.087 1.289 4.862 1.022 7.295-.17 1.67-1.342 3.247-3.026 3.618-1.993.688-4.123.789-6.213.817v-13.728c.398.01.795.022 1.192.033zm41.658 9.486c-.466-.106-.407-.516 0 0z" transform="matrix(.60512 0 0 .60512 -66.16 -48.701)"/><path d="m327.5 98.79 206.429 385h-412.5L327.857 97.363" style="fill:#000;fill-rule:evenodd;stroke:#000;stroke-width:1px;stroke-linecap:butt;stroke-linejoin:miter;stroke-opacity:1" transform="matrix(.60512 0 0 .60512 -66.16 -48.701)"/><path d="m397.975 157.198 138.739 258.754H259.477l138.738-259.714" style="fill:#02893c;fill-opacity:1;fill-rule:evenodd;stroke:#000;stroke-width:3;stroke-linecap:butt;stroke-linejoin:miter;stroke-miterlimit:4;stroke-dasharray:none;stroke-opacity:1" transform="matrix(.60512 0 0 .60512 -66.16 -48.701)"/><path style="fill:#fcf700;fill-opacity:1;fill-rule:evenodd;stroke:#000;stroke-width:3;stroke-linecap:butt;stroke-linejoin:miter;stroke-miterlimit:4;stroke-dasharray:none;stroke-opacity:1" d="m418.178 169.32 138.739 258.754H279.68L418.418 168.36" transform="matrix(.60512 0 0 .60512 -66.16 -48.701)"/><path style="fill:#da251c;fill-opacity:1;fill-rule:evenodd;stroke:#000;stroke-width:3;stroke-linecap:butt;stroke-linejoin:miter;stroke-miterlimit:4;stroke-dasharray:none;stroke-opacity:1" d="M440.402 180.432 579.14 439.186H301.904l138.738-259.714" transform="matrix(.60512 0 0 .60512 -66.16 -48.701)"/><path style="opacity:1;fill:none;fill-rule:evenodd;stroke:#fff;stroke-width:3.6;stroke-linecap:butt;stroke-linejoin:miter;stroke-miterlimit:3.9;stroke-dasharray:none;stroke-dashoffset:0;stroke-opacity:1" d="m309.508 246.873 17.529-32.432M267.14 325.26l17.94-33.193M230.49 393.07l17.925-33.164M192.182 463.948l17.46-32.305M287.893 463.948h-45.456M378.302 463.948h-47.477M469.468 463.948H423.76" transform="matrix(.60512 0 0 .60512 -66.16 -48.701)"/><text transform="matrix(.6522 0 0 .56144 -66.16 -48.701)" y="576.748" x="119.179" style="font-style:normal;font-weight:400;line-height:0%;font-family:'Bitstream Vera Sans';fill:#000;fill-opacity:1;stroke:none;stroke-width:1px;stroke-linecap:butt;stroke-linejoin:miter;stroke-opacity:1" xml:space="preserve"><tspan y="576.748" x="119.179" style="font-size:51.2553px;line-height:1.25">ADDIS MAP P.L.C.</tspan></text><g style="fill:#000"><text xml:space="preserve" style="font-style:normal;font-weight:400;line-height:0%;font-family:'Bitstream Vera Sans';fill:#000;fill-opacity:1;stroke:none;stroke-width:1px;stroke-linecap:butt;stroke-linejoin:miter;stroke-opacity:1" x="140.83" y="650.454" transform="matrix(.26855 -.49169 .57361 .3133 -387.81 61.34)"><tspan x="140.83" y="650.454" style="font-size:58.2131px;line-height:1.25">አዲስ </tspan></text><text xml:space="preserve" style="font-style:normal;font-weight:400;line-height:0%;font-family:'Bitstream Vera Sans';fill:#000;fill-opacity:1;stroke:none;stroke-width:1px;stroke-linecap:butt;stroke-linejoin:miter;stroke-opacity:1" x="277.001" y="659.078" transform="matrix(.2724 -.49874 .5655 .30886 -387.81 61.34)"><tspan x="277.001" y="659.078" style="font-size:53.7613px;line-height:1.25">ማፕ</tspan></text></g><path transform="matrix(.62135 0 0 .58932 -66.16 -48.701)" d="M345.307 421.12v10.97h6.498c2.18 0 3.79-.447 4.833-1.343 1.056-.91 1.584-2.293 1.585-4.151 0-1.872-.529-3.25-1.585-4.132-1.043-.895-2.654-1.343-4.833-1.343h-6.498m0-12.314v9.025h5.997c1.978 0 3.449-.368 4.412-1.103.976-.75 1.464-1.886 1.464-3.41 0-1.51-.488-2.64-1.464-3.39-.963-.748-2.434-1.122-4.412-1.122h-5.997m-4.051-3.33h10.348c3.089 0 5.469.642 7.14 1.926 1.671 1.283 2.507 3.109 2.507 5.475 0 1.832-.428 3.289-1.284 4.372-.855 1.083-2.112 1.758-3.77 2.026 1.992.427 3.536 1.323 4.633 2.687 1.11 1.35 1.664 3.042 1.664 5.074 0 2.674-.909 4.74-2.727 6.197-1.819 1.457-4.406 2.186-7.762 2.186h-10.75v-29.942m38.166 3.99-5.495 14.902h11.01l-5.515-14.901m-2.287-3.991h4.593l11.411 29.942h-4.211l-2.728-7.681h-13.497l-2.727 7.68h-4.272l11.431-29.941m20.356 0h5.455l13.277 25.048v-25.048h3.93v29.942h-5.454L401.42 410.37v25.049h-3.93v-29.942m34.775 3.329v23.284h4.893c4.132 0 7.153-.936 9.065-2.808 1.925-1.872 2.888-4.827 2.888-8.864 0-4.011-.963-6.946-2.888-8.804-1.912-1.872-4.933-2.808-9.065-2.808h-4.893m-4.051-3.33h8.323c5.802 0 10.06 1.21 12.775 3.63 2.714 2.407 4.07 6.178 4.07 11.312 0 5.16-1.363 8.95-4.09 11.37-2.728 2.42-6.98 3.63-12.755 3.63h-8.323v-29.941m31.606 0h4.052v29.942h-4.052v-29.942m26.313 15.903c.869.294 1.711.923 2.527 1.885.829.963 1.657 2.287 2.486 3.971l4.112 8.183h-4.352l-3.83-7.681c-.99-2.006-1.953-3.336-2.889-3.991-.922-.655-2.186-.983-3.79-.983h-4.412v12.655h-4.051v-29.942h9.145c3.423 0 5.976.715 7.66 2.146 1.685 1.43 2.528 3.59 2.528 6.477 0 1.886-.441 3.45-1.324 4.693-.869 1.244-2.14 2.106-3.81 2.587m-10.148-12.574v10.629h5.094c1.952 0 3.423-.448 4.412-1.344 1.003-.909 1.504-2.24 1.504-3.99 0-1.752-.501-3.07-1.504-3.952-.99-.895-2.46-1.343-4.412-1.343h-5.094m32.83.662-5.495 14.9h11.01l-5.515-14.9m-2.286-3.991h4.592l11.412 29.942h-4.212l-2.727-7.681h-13.497l-2.728 7.68h-4.272l11.432-29.941" style="font-style:normal;font-weight:400;font-size:41.0728px;font-family:'Bitstream Vera Sans';fill:#000;fill-opacity:1;stroke:none;stroke-width:1px;stroke-linecap:butt;stroke-linejoin:miter;stroke-opacity:1"/><path d="M406.883 323.996c0-1.725.414-3.267 1.243-4.626.83-1.36 1.824-2.421 2.985-3.184a17.089 17.089 0 0 1 3.93-1.84c1.425-.498 2.636-.813 3.63-.945.995-.166 1.841-.249 2.537-.249 2.62 0 4.759.614 6.417 1.84 1.658 1.194 2.487 2.786 2.487 4.776 0 .1-.016.282-.05.547v.547c0 1.724-.182 4.46-.547 8.207-.331 3.714-.497 6.45-.497 8.208v.696c0 .696.116 1.21.348 1.542.232.332.464.53.696.597.233.066.349.166.349.298a.473.473 0 0 1-.2.398.806.806 0 0 1-.497.15c-.166 0-.315.016-.447.05l-2.189.248c-.033 0-.216.016-.547.05-.332.066-.58.099-.746.099-1.26 0-1.89-1.194-1.89-3.581 0-.763.033-1.874.099-3.333 0-.431.15-2.504.448-6.218.331-3.714.497-6.052.497-7.013v-.697c.033-.331.05-.58.05-.746 0-1.06-.232-1.973-.697-2.735-.43-.796-.978-1.36-1.641-1.692-.63-.364-1.21-.613-1.741-.746-.53-.166-.978-.248-1.343-.248-2.155 0-3.963.928-5.422 2.785-1.426 1.824-2.139 4.079-2.139 6.765 0 .796.083 2.04.249 3.73.199 1.692.298 2.72.298 3.084 0 1.294.216 2.09.647 2.388.133.033.282.1.448.199.199.1.298.215.298.348a.442.442 0 0 1-.05.2c-.099.198-.812.38-2.138.546-1.327.166-2.189.249-2.587.249-1.194-.1-1.79-1.194-1.79-3.283v-.746c.033-.332.05-.58.05-.746 0-.498-.1-1.41-.3-2.736-.165-1.326-.248-2.388-.248-3.183m40.757-7.61c0-.432-.116-.78-.348-1.045-.199-.299-.43-.448-.696-.448-.199 0-.68.116-1.443.348-.73.2-1.475.365-2.238.498.066.53.1.945.1 1.243-.034.597-.2 1.343-.498 2.238-.265.863-.812 1.741-1.641 2.637-.83.895-1.824 1.343-2.985 1.343-.862 0-1.608-.216-2.238-.647-.63-.431-.945-.796-.945-1.094 0-.133.248-.614.746-1.443.497-.862.746-1.509.746-1.94 0-.165-.066-.381-.199-.646-.1-.266-.15-.464-.15-.597 0-.431.415-.78 1.244-1.045.863-.265 1.94-.464 3.234-.597 1.293-.165 2.006-.265 2.138-.298l3.035-.746c.928-.232 1.525-.348 1.79-.348 3.648 0 5.472.862 5.472 2.586 0 .166-.15.78-.448 1.84l-1.492 4.477c-.033.133-.05.249-.05.348 0 .266.15.398.448.398h3.98c1.89 0 2.834.58 2.834 1.741 0 .299-.696 1.493-2.089 3.582l-5.421 8.456-.299.447a23.49 23.49 0 0 0-.597.946c-.199.331-.315.563-.348.696 0 .199.1.431.298.696.2.266.299.448.299.547 0 .1-.033.183-.1.25-.1.099-.746.215-1.94.347-1.16.1-1.956.15-2.387.15-.763 0-1.194-.481-1.293-1.443 0-.663.182-1.293.547-1.89l5.77-9.053.995-1.393c.331-.464.63-.912.895-1.343.265-.464.398-.829.398-1.094a.478.478 0 0 0-.15-.348c-.198-.232-.546-.348-1.044-.348a180.413 180.413 0 0 1-.298 0h-4.179c-1.06 0-1.591-.398-1.591-1.194 0-.033.149-.498.447-1.393l1.095-3.382c.398-1.095.597-1.775.597-2.04m16.498 9.153c1.128 0 2.238.116 3.333.348 1.094.199 1.724.298 1.89.298.232 0 1.243-.298 3.034-.895-.962-1.857-1.442-3.681-1.442-5.472 0-1.426.348-2.653 1.044-3.68a6.331 6.331 0 0 1 2.736-2.289 15.081 15.081 0 0 1 3.382-1.144 17.968 17.968 0 0 1 3.532-.348c5.604 0 8.406 1.492 8.406 4.477 0 .796-.149 1.542-.447 2.238a5.028 5.028 0 0 1-1.144 1.79 9.429 9.429 0 0 1-1.642 1.294c-.597.365-1.26.68-1.99.945a50.31 50.31 0 0 1-2.089.647c-.663.166-1.326.298-1.99.398-.663.066-1.226.132-1.69.199-.465.033-.88.05-1.244.05l-.497.05.397.696c.166.232.349.48.548.746.199.265.398.514.597.746.198.199.43.381.696.547.298.166.597.282.895.348 1.327 0 2.288-.133 2.885-.398s1.177-.398 1.741-.398l1.592-.149c.132 0 .331-.017.597-.05.265-.033.48-.05.646-.05.63 0 1.128.233 1.493.697.398.464.597 1.028.597 1.691 0 .365-.597 2.04-1.791 5.024-1.194 2.985-1.79 4.825-1.79 5.521 0 .166.032.282.099.349.066.1.199.149.398.149h.298c.166-.033.265-.05.299-.05l3.034-.298c.199 0 .43-.166.696-.498.265-.331.547-.696.846-1.094.331-.431.912-.813 1.74-1.144.863-.332 1.924-.498 3.184-.498.398 0 .995.034 1.79.1-.895.332-1.342.928-1.342 1.79 0 .531.232 1.178.696 1.94.498.73 1.227 1.31 2.189 1.741v.1c-1.725.763-3.217 1.144-4.477 1.144-.995 0-1.824-.116-2.487-.348-.63-.232-1.061-.498-1.293-.796l-.597-.796c-.166-.298-.332-.48-.498-.547a.938.938 0 0 0-.298-.05c-.133 0-.365.033-.696.1-.299.066-.78.132-1.443.199-.663.066-1.459.1-2.388.1l-1.541.148c-1.029.1-1.741.15-2.14.15-.364 0-.663-.166-.895-.498-.232-.331-.348-.73-.348-1.194 0-.397.249-1.226.746-2.487l2.189-5.869.398-1.144c.166-.398.248-.746.248-1.045 0-.331-.082-.58-.248-.746a.613.613 0 0 0-.498-.248h-.447l-1.493.198-3.78.398c-.73.133-1.326.2-1.79.2a3.053 3.053 0 0 1-1.543-.399c-.43-.265-.746-.547-.945-.845a5.55 5.55 0 0 0-.696-.846c-.232-.265-.464-.398-.696-.398a.96.96 0 0 0-.498.15l-1.194.397c-.398.1-.646.2-.746.299-.066.066-.1.232-.1.497a165.004 165.004 0 0 0 0 .2c-.132 1.425-.696 2.553-1.69 3.382-.962.829-2.023 1.243-3.184 1.243-.53 0-1.227-.132-2.089-.398-.829-.298-1.244-.663-1.244-1.094 0-.166.25-.647.747-1.442.53-.83.795-1.51.795-2.04 0-.066-.082-.249-.248-.547-.133-.298-.2-.53-.2-.696 0-.233.1-.431.3-.597.165-.133.43-.2.795-.2m13.082-2.287c.464 0 1.078-.116 1.84-.349.763-.232 1.592-.58 2.488-1.044.895-.464 1.658-1.144 2.288-2.04a5.186 5.186 0 0 0 .994-3.083c0-.863-.331-1.625-.994-2.289-.664-.696-1.46-1.044-2.388-1.044-.53 0-1.177.166-1.94.497-.763.332-1.542.995-2.338 1.99-.762.995-1.144 2.222-1.144 3.68 0 .63.1 1.41.299 2.339.199.895.497 1.343.895 1.343m58.416 12.733c0 .299-.331.614-.994.945-.664.332-1.426.498-2.288.498-1.36 0-2.52-.431-3.482-1.293-.962-.896-1.443-2.073-1.443-3.532-.597.1-1.376.166-2.338.199-.961.033-1.74.083-2.338.15-.596.065-1.01.198-1.243.397-.597.498-.895 1.31-.895 2.437 0 .398.033.912.1 1.542.099.63.148 1.028.148 1.194.033.1.05.2.05.299 0 .298-.1.514-.298.646-.166.1-.514.2-1.045.299-.497.1-.895.199-1.194.298-3.382 1.293-6.068 1.94-8.058 1.94-1.956 0-3.697-.431-5.223-1.293-1.525-.896-2.288-2.355-2.288-4.377 0-1.791.547-3.4 1.642-4.825a15.81 15.81 0 0 1 3.979-3.73 187.999 187.999 0 0 1 4.775-2.985 20.039 20.039 0 0 0 4.278-3.482c1.227-1.327 1.94-2.786 2.139-4.377.033-.2.05-.531.05-.995v-.995c0-.464.033-.763.099-.895.1-.133.315-.2.647-.2h3.133a3.06 3.06 0 0 1 .398-.05c.332 0 .564.084.697.25.132.132.199.398.199.795 0 .133-.017.315-.05.548v1.641c-.166 1.492-.713 2.852-1.642 4.079a13.629 13.629 0 0 1-3.283 3.183 77.268 77.268 0 0 1-3.88 2.487 35.366 35.366 0 0 0-3.929 2.637c-1.293.994-2.271 2.022-2.935 3.084-.762 1.227-1.144 2.52-1.144 3.88 0 1.193.448 2.188 1.343 2.984.929.763 2.106 1.144 3.532 1.144.066 0 .68-.1 1.84-.299.067-1.293.299-2.437.697-3.432.43-1.028.912-1.824 1.442-2.387a8.159 8.159 0 0 1 1.84-1.393c.697-.398 1.294-.663 1.791-.796a5.268 5.268 0 0 1 1.343-.199h1.045c2.62-.132 4.924-.414 6.914-.845 2.023-.432 3.3-.647 3.83-.647.63 0 .945.232.945.696 0 .2-.066.481-.199.846-.132.365-.199.58-.199.647 0 .43.249 1.06.746 1.89.498.796.746 1.26.746 1.392" style="font-style:normal;font-weight:400;font-size:49.7413px;font-family:'Bitstream Vera Sans';fill:#000;fill-opacity:1;stroke:none;stroke-width:1px;stroke-linecap:butt;stroke-linejoin:miter;stroke-opacity:1" transform="matrix(.56733 0 0 .64544 -66.16 -48.701)"/><text transform="matrix(.28275 .52496 -.54644 .28053 -66.16 -48.701)" y="-305.649" x="371.436" style="font-style:normal;font-weight:400;line-height:0%;font-family:'Bitstream Vera Sans';fill:#000;fill-opacity:1;stroke:none;stroke-width:1px;stroke-linecap:butt;stroke-linejoin:miter;stroke-opacity:1" xml:space="preserve"><tspan y="-305.649" x="371.436" style="font-size:32.5521px;line-height:1.25">ENTERTAINMENT</tspan></text></svg>