<?xml version="1.0" encoding="utf-8"?>
<!-- Generator: Adobe Illustrator 28.0.0, SVG Export Plug-In . SVG Version: 6.00 Build 0)  -->
<svg version="1.1" id="Layer_1" xmlns="http://www.w3.org/2000/svg" xmlns:xlink="http://www.w3.org/1999/xlink" x="0px" y="0px"
	 viewBox="0 0 1080 395.08" style="enable-background:new 0 0 1080 395.08;" xml:space="preserve">
<style type="text/css">
	.st0{fill:#0D1B33;}
	.st1{fill:#7CC243;}
	.st2{opacity:0.59;fill:#7CC243;}
	.st3{fill:url(#SVGID_1_);}
	.st4{fill:url(#SVGID_00000035518676095617913080000001607144851513125534_);}
	.st5{fill:url(#SVGID_00000106829108331519678650000003104186966978871737_);}
	.st6{fill:url(#SVGID_00000168094476940155988510000014407534069231929259_);}
	.st7{fill:url(#SVGID_00000155844935350926904200000005225983518552629923_);}
	.st8{opacity:0.59;fill:url(#SVGID_00000171706817355866999100000000897769322237842563_);}
	.st9{opacity:0.59;fill:url(#SVGID_00000047039365226851608040000000211978509157555332_);}
	.st10{opacity:0.59;fill:url(#SVGID_00000008856843079454739800000007940061774323677348_);}
	.st11{opacity:0.59;fill:url(#SVGID_00000116939464054532424040000011794727585446847109_);}
	.st12{fill:url(#SVGID_00000101070584282079153460000006917173984296669372_);}
	.st13{fill:url(#SVGID_00000057866835837351328400000008822625277743254201_);}
	.st14{fill:url(#SVGID_00000166658924085117744590000002842314667971693233_);}
	.st15{fill:url(#SVGID_00000027575579636132938840000003790008252940517791_);}
	.st16{fill:url(#SVGID_00000074422438475781785050000003782479879507402122_);}
	.st17{fill:url(#SVGID_00000136374689864213358680000018176860783040718495_);}
	.st18{fill:url(#SVGID_00000162314549007616058250000015376291691238410625_);}
	.st19{fill:url(#SVGID_00000008854155495635232580000013470764238150335629_);}
	.st20{fill:url(#SVGID_00000121278764950807062360000011130670296032223678_);}
	.st21{opacity:0.59;fill:url(#SVGID_00000024707730963372180930000012309341418909883050_);}
	.st22{opacity:0.59;fill:url(#SVGID_00000157276956484363476940000004622445979364282287_);}
	.st23{opacity:0.59;fill:url(#SVGID_00000046318193519682148130000010496831846387508103_);}
	.st24{opacity:0.59;fill:url(#SVGID_00000066504733429729616580000003949357012257173657_);}
	.st25{fill:url(#SVGID_00000127732506599726901090000015292199067685824145_);}
	.st26{fill:url(#SVGID_00000062183208145203953180000006962497935401822357_);}
	.st27{fill:url(#SVGID_00000127741819754564840010000002587770245620242089_);}
	.st28{fill:url(#SVGID_00000039847009514200466080000017583503041847523969_);}
	.st29{fill:url(#SVGID_00000099630463012208179070000008912566338614449835_);}
	.st30{fill:url(#SVGID_00000075872369988684671510000014261594699099447981_);}
	.st31{fill:url(#SVGID_00000065064059976508204240000004471683878742274440_);}
	.st32{fill:url(#SVGID_00000114050416946424321590000003751562350729631379_);}
	.st33{fill:url(#SVGID_00000165198220531801628930000014514193741903609232_);}
	.st34{opacity:0.59;fill:url(#SVGID_00000011013731512387677380000014111510650262148737_);}
	.st35{opacity:0.59;fill:url(#SVGID_00000093172596478365958000000014291276076203526825_);}
	.st36{opacity:0.59;fill:url(#SVGID_00000141420689955235731670000008584302671479424683_);}
	.st37{opacity:0.59;fill:url(#SVGID_00000107566031845672684230000004736018476495642755_);}
	.st38{fill:url(#SVGID_00000137840554917056474390000014130423523931840404_);}
	.st39{fill:url(#SVGID_00000054986500490391111960000013276822349040697257_);}
	.st40{fill:url(#SVGID_00000050661206317608284400000012257306641260612234_);}
	.st41{fill:url(#SVGID_00000165196359710055637180000017813031044206465717_);}
	.st42{fill:url(#SVGID_00000030480151664700173980000002281663229652952198_);}
	.st43{fill:url(#SVGID_00000146493240277748464090000001209037335105157566_);}
	.st44{fill:url(#SVGID_00000097458350375345495610000007683700422702185912_);}
	.st45{fill:url(#SVGID_00000157296457310268826580000011095630733651404462_);}
	.st46{fill:url(#SVGID_00000127019011201894939680000005663576577429691831_);}
	.st47{opacity:0.59;fill:url(#SVGID_00000016793490257442766610000016726195710922131347_);}
	.st48{opacity:0.59;fill:url(#SVGID_00000132084511901741679150000015885780261871672990_);}
	.st49{opacity:0.59;fill:url(#SVGID_00000103246322399247021120000002585856910117249413_);}
	.st50{opacity:0.59;fill:url(#SVGID_00000002361841554686351700000000248731679681249443_);}
	.st51{fill:url(#SVGID_00000124866506742035761610000006305385649954970808_);}
	.st52{fill:url(#SVGID_00000012439779016903942490000002224559915403604384_);}
	.st53{fill:url(#SVGID_00000118397578664758778750000012483286708871688832_);}
	.st54{fill:url(#SVGID_00000099633162087321710130000006540949712175485594_);}
	.st55{opacity:0.59;fill:url(#SVGID_00000033360669228912517420000001200582526042494652_);}
	.st56{opacity:0.59;fill:url(#SVGID_00000103256103138456365850000015079861541052855200_);}
	.st57{opacity:0.59;fill:url(#SVGID_00000047047324409779107550000005126073674728573365_);}
	.st58{opacity:0.59;fill:url(#SVGID_00000052071129153245484090000009974360864182749363_);}
	.st59{fill:url(#SVGID_00000044880946050505524260000012959769961143290288_);}
	.st60{fill:url(#SVGID_00000110458977413998302570000006868653263223408812_);}
	.st61{fill:url(#SVGID_00000094579248651831599320000008882954463232852904_);}
	.st62{fill:url(#SVGID_00000046329569233401421590000006288992205008252070_);}
	.st63{opacity:0.59;fill:#F2F2F3;}
	.st64{fill:#F2F2F3;}
</style>
<g>
	<linearGradient id="SVGID_1_" gradientUnits="userSpaceOnUse" x1="532.5281" y1="206.0369" x2="963.0016" y2="267.097">
		<stop  offset="0" style="stop-color:#86BD4C"/>
		<stop  offset="0.1381" style="stop-color:#81BD56"/>
		<stop  offset="0.3939" style="stop-color:#72BB71"/>
		<stop  offset="0.7363" style="stop-color:#55B996"/>
		<stop  offset="0.995" style="stop-color:#2EB8B4"/>
	</linearGradient>
	<path class="st3" d="M770.23,271.96c0,0.8,0,1.32,0,1.85c0,12.75,0,25.51,0,38.26c0,1.72-0.01,1.76-1.69,1.66
		c-7.42-0.48-13.94-3.11-19.45-8.16c-5.74-5.26-9-11.8-10.02-19.48c-0.21-1.62-0.28-3.27-0.29-4.91
		c-0.13-14.8-0.22-29.61-0.34-44.41c-0.03-4.18-0.14-8.36-0.18-12.54c-0.11-11.63,3.49-21.95,10.68-31.12
		c9.64-12.31,22.3-19.58,37.53-22.2c14.91-2.56,29.13-0.16,42.11,7.83c10.99,6.76,19.16,16.04,23.37,28.38
		c1.25,3.65,2.02,7.56,2.32,11.4c1.23,16-3.38,30.17-14.75,41.64c-7.39,7.47-16.19,12.91-26.56,15.5
		c-12.83,3.21-25.51,2.85-38.02-1.5C773.41,273.63,771.99,272.79,770.23,271.96z M795.57,249.39c1.7-0.11,2.89-0.14,4.07-0.27
		c7.19-0.8,12.88-4.32,17.5-9.73c3.66-4.29,5.82-9.27,5.96-14.89c0.21-8.35-2.97-15.24-9.66-20.39c-6.02-4.63-12.8-6.47-20.32-5.49
		c-5.54,0.72-10.19,3.21-14.4,6.88c-9.62,8.38-11.89,21.32-5.05,31.49C779.1,245.05,786.64,248.79,795.57,249.39z"/>
	
		<linearGradient id="SVGID_00000078728609649274147750000000284488859651126665_" gradientUnits="userSpaceOnUse" x1="530.9452" y1="217.1967" x2="961.4187" y2="278.2568">
		<stop  offset="0" style="stop-color:#86BD4C"/>
		<stop  offset="0.1381" style="stop-color:#81BD56"/>
		<stop  offset="0.3939" style="stop-color:#72BB71"/>
		<stop  offset="0.7363" style="stop-color:#55B996"/>
		<stop  offset="0.995" style="stop-color:#2EB8B4"/>
	</linearGradient>
	<path style="fill:url(#SVGID_00000078728609649274147750000000284488859651126665_);" d="M504.31,157.2
		c-1.87,1.95-3.64,3.89-5.51,5.73c-5.23,5.15-10.53,10.23-15.75,15.39c-0.85,0.84-1.35,0.79-2.18,0
		c-6.24-5.92-13.64-9.53-22.21-10.37c-7.96-0.79-15.53,0.81-22.5,4.8c-9.88,5.66-16.19,14.07-18.77,25.16
		c-1.93,8.29-1.06,16.36,2.42,24.14c2.58,5.76,6.33,10.62,11.29,14.51c6.94,5.45,14.83,8.28,23.68,8.31
		c8.89,0.03,16.99-2.38,24-8.02c1.08-0.87,2.09-1.84,3.21-2.83c0.33,0.28,0.65,0.52,0.93,0.8c6.73,6.72,13.45,13.46,20.2,20.17
		c0.7,0.7,0.79,1.11,0.01,1.85c-6.55,6.16-13.91,11.07-22.26,14.45c-6.74,2.73-13.73,4.33-20.99,4.87
		c-10.86,0.81-21.34-0.77-31.46-4.76c-9.17-3.61-17.21-8.95-24.09-16.03c-11.23-11.55-17.76-25.33-19.5-41.35
		c-1.55-14.22,0.99-27.71,7.61-40.36c6.48-12.39,15.9-22.01,28.18-28.73c11.69-6.4,24.26-9.33,37.53-8.52
		c17.23,1.05,32.33,7.31,44.83,19.41c0.41,0.4,0.83,0.79,1.24,1.2C504.27,157.06,504.29,157.16,504.31,157.2z"/>
	
		<linearGradient id="SVGID_00000042734709538947399400000014992536001952356538_" gradientUnits="userSpaceOnUse" x1="532.6729" y1="205.0163" x2="963.1464" y2="266.0764">
		<stop  offset="0" style="stop-color:#86BD4C"/>
		<stop  offset="0.1381" style="stop-color:#81BD56"/>
		<stop  offset="0.3939" style="stop-color:#72BB71"/>
		<stop  offset="0.7363" style="stop-color:#55B996"/>
		<stop  offset="0.995" style="stop-color:#2EB8B4"/>
	</linearGradient>
	<path style="fill:url(#SVGID_00000042734709538947399400000014992536001952356538_);" d="M546.5,179c2.14-1.56,3.92-3.09,5.92-4.27
		c5.6-3.33,11.71-5.08,18.24-5.21c6.76-0.14,13.32,0.76,19.5,3.73c6.65,3.2,11.27,8.3,14.38,14.91c2.87,6.12,3.97,12.65,4.48,19.3
		c0.24,3.1,0.26,6.23,0.26,9.34c0.02,18.7,0.01,37.4,0.01,56.1c0,1.77-0.01,1.82-1.77,1.69c-7.29-0.52-13.67-3.21-19.09-8.13
		c-5.78-5.24-9.25-11.73-10.27-19.48c-0.2-1.5-0.17-3.03-0.17-4.54c0-9.31,0.14-18.62-0.02-27.93c-0.12-6.78-2.79-12.36-9.22-15.35
		c-4.63-2.15-9.38-1.35-13.97,0.48c-5.33,2.12-7.55,6.57-8.44,11.82c-0.39,2.33-0.46,4.73-0.46,7.11
		c-0.04,17.96-0.02,35.93-0.02,53.89c0,2.27,0,2.27-2.23,2.11c-15.16-1.05-26.97-12.26-28.81-27.38c-0.19-1.58-0.27-3.19-0.27-4.78
		c-0.01-35.23-0.01-70.46-0.01-105.68c0-1.94,0-1.99,1.97-1.91c10.81,0.41,19.06,5.35,24.99,14.28c3.63,5.48,4.97,11.63,5.02,18.11
		c0.02,3.44,0,6.89,0,10.33C546.5,177.98,546.5,178.41,546.5,179z"/>
	
		<linearGradient id="SVGID_00000054250699814295963640000015481579055843314833_" gradientUnits="userSpaceOnUse" x1="532.9056" y1="203.3757" x2="963.3791" y2="264.4357">
		<stop  offset="0" style="stop-color:#86BD4C"/>
		<stop  offset="0.1381" style="stop-color:#81BD56"/>
		<stop  offset="0.3939" style="stop-color:#72BB71"/>
		<stop  offset="0.7363" style="stop-color:#55B996"/>
		<stop  offset="0.995" style="stop-color:#2EB8B4"/>
	</linearGradient>
	<path style="fill:url(#SVGID_00000054250699814295963640000015481579055843314833_);" d="M727.71,247.47c0,9.39,0,18.78,0,28.17
		c0,1.72-0.01,1.78-1.7,1.68c-6.09-0.35-11.5-2.47-16.18-6.37c-1.16-0.97-2.26-2.03-3.29-3.14c-0.59-0.64-1-0.69-1.75-0.24
		c-2.57,1.53-5.12,3.12-7.8,4.42c-9.7,4.72-19.96,6.53-30.62,4.85c-20.26-3.19-34.43-14.44-42.6-33.18
		c-3.3-7.57-4.43-15.6-3.86-23.82c0.84-12.24,5.39-22.99,13.5-32.18c8.49-9.61,19.16-15.41,31.78-17.53
		c8.34-1.4,16.64-0.94,24.66,1.8c20.25,6.92,32.64,20.93,36.99,41.89c0.69,3.34,0.78,6.84,0.84,10.27
		C727.8,231.89,727.71,239.68,727.71,247.47z M673.77,249.3c14.23,0,25.35-11.36,25.34-25.87c-0.01-13.93-11.68-25.35-25.89-25.34
		c-13.65,0.01-25.31,11.93-25.32,25.89C647.89,237.9,659.54,249.31,673.77,249.3z"/>
	
		<linearGradient id="SVGID_00000137109466121653389620000004366472266072523149_" gradientUnits="userSpaceOnUse" x1="537.6974" y1="169.5938" x2="968.1708" y2="230.6539">
		<stop  offset="0" style="stop-color:#86BD4C"/>
		<stop  offset="0.1381" style="stop-color:#81BD56"/>
		<stop  offset="0.3939" style="stop-color:#72BB71"/>
		<stop  offset="0.7363" style="stop-color:#55B996"/>
		<stop  offset="0.995" style="stop-color:#2EB8B4"/>
	</linearGradient>
	<path style="fill:url(#SVGID_00000137109466121653389620000004366472266072523149_);" d="M971.34,248.05c0,9.19,0,18.37,0,27.56
		c0,1.76-0.01,1.83-1.79,1.71c-6.03-0.4-11.43-2.42-16.07-6.34c-1.16-0.98-2.28-2.01-3.3-3.12c-0.68-0.74-1.17-0.71-1.96-0.19
		c-4.97,3.32-10.27,5.97-16.06,7.58c-15.06,4.19-29.4,2.44-42.71-5.72c-14.94-9.16-23.68-22.65-25.65-40.06
		c-1.99-17.57,3.68-32.72,16.32-45.05c8.96-8.74,19.92-13.69,32.39-14.76c13.91-1.19,26.6,2.41,37.7,11.01
		c11.93,9.24,18.79,21.45,20.75,36.39c0.32,2.43,0.35,4.91,0.36,7.36C971.37,232.3,971.34,240.17,971.34,248.05z M917.28,249.3
		c14.01,0.1,25.75-11.82,25.94-25.49c0.2-14.19-11.11-25.64-25.09-25.72c-14.57-0.09-26.05,11.02-26.09,25.25
		C892,237.87,903.06,249.24,917.28,249.3z"/>
</g>
<g>
	
		<linearGradient id="SVGID_00000127036823490561718500000015526934648763860354_" gradientUnits="userSpaceOnUse" x1="130.1818" y1="156.6344" x2="493.4892" y2="321.4966">
		<stop  offset="0" style="stop-color:#86BD4C"/>
		<stop  offset="0.1381" style="stop-color:#81BD56"/>
		<stop  offset="0.3939" style="stop-color:#72BB71"/>
		<stop  offset="0.7363" style="stop-color:#55B996"/>
		<stop  offset="0.995" style="stop-color:#2EB8B4"/>
	</linearGradient>
	<path style="opacity:0.59;fill:url(#SVGID_00000127036823490561718500000015526934648763860354_);" d="M280.43,229.32H174
		c-11.38,0-20.6-9.22-20.6-20.6v0c0-11.16,9.05-20.21,20.21-20.21h147.64v0C321.25,211.05,302.97,229.32,280.43,229.32z"/>
	<g>
		
			<linearGradient id="SVGID_00000048469513645018310060000017422063783953542308_" gradientUnits="userSpaceOnUse" x1="145.545" y1="122.7785" x2="508.8524" y2="287.6407">
			<stop  offset="0" style="stop-color:#86BD4C"/>
			<stop  offset="0.1381" style="stop-color:#81BD56"/>
			<stop  offset="0.3939" style="stop-color:#72BB71"/>
			<stop  offset="0.7363" style="stop-color:#55B996"/>
			<stop  offset="0.995" style="stop-color:#2EB8B4"/>
		</linearGradient>
		<path style="opacity:0.59;fill:url(#SVGID_00000048469513645018310060000017422063783953542308_);" d="M171.87,134.66
			c-0.75,0-1.48,0.06-2.2,0.14c1.47-0.09,2.94-0.14,4.43-0.14H171.87z"/>
		
			<linearGradient id="SVGID_00000155148495245741052560000007001474688783996328_" gradientUnits="userSpaceOnUse" x1="164.8466" y1="80.2434" x2="528.1541" y2="245.1056">
			<stop  offset="0" style="stop-color:#86BD4C"/>
			<stop  offset="0.1381" style="stop-color:#81BD56"/>
			<stop  offset="0.3939" style="stop-color:#72BB71"/>
			<stop  offset="0.7363" style="stop-color:#55B996"/>
			<stop  offset="0.995" style="stop-color:#2EB8B4"/>
		</linearGradient>
		<path style="opacity:0.59;fill:url(#SVGID_00000155148495245741052560000007001474688783996328_);" d="M319.49,134.66
			l-29.51,40.81h38.69c22.54,0,40.81-18.27,40.81-40.81H319.49z"/>
		
			<linearGradient id="SVGID_00000024723958703226289920000003549317586226472603_" gradientUnits="userSpaceOnUse" x1="152.1346" y1="108.257" x2="515.442" y2="273.1191">
			<stop  offset="0" style="stop-color:#86BD4C"/>
			<stop  offset="0.1381" style="stop-color:#81BD56"/>
			<stop  offset="0.3939" style="stop-color:#72BB71"/>
			<stop  offset="0.7363" style="stop-color:#55B996"/>
			<stop  offset="0.995" style="stop-color:#2EB8B4"/>
		</linearGradient>
		<path style="opacity:0.59;fill:url(#SVGID_00000024723958703226289920000003549317586226472603_);" d="M240.07,174.85l29.06-40.19
			h-95.02C202.83,134.66,227.73,150.98,240.07,174.85z"/>
		
			<linearGradient id="SVGID_00000103965721449399227710000005180251860337260949_" gradientUnits="userSpaceOnUse" x1="141.9364" y1="130.7308" x2="505.2438" y2="295.593">
			<stop  offset="0" style="stop-color:#86BD4C"/>
			<stop  offset="0.1381" style="stop-color:#81BD56"/>
			<stop  offset="0.3939" style="stop-color:#72BB71"/>
			<stop  offset="0.7363" style="stop-color:#55B996"/>
			<stop  offset="0.995" style="stop-color:#2EB8B4"/>
		</linearGradient>
		<path style="fill:url(#SVGID_00000103965721449399227710000005180251860337260949_);" d="M240.38,175.47
			c-0.1-0.21-0.19-0.42-0.3-0.62l-0.45,0.62H240.38z"/>
		
			<linearGradient id="SVGID_00000100357917232032634140000012275530257903283376_" gradientUnits="userSpaceOnUse" x1="130.4613" y1="156.0184" x2="493.7688" y2="320.8806">
			<stop  offset="0" style="stop-color:#86BD4C"/>
			<stop  offset="0.1381" style="stop-color:#81BD56"/>
			<stop  offset="0.3939" style="stop-color:#72BB71"/>
			<stop  offset="0.7363" style="stop-color:#55B996"/>
			<stop  offset="0.995" style="stop-color:#2EB8B4"/>
		</linearGradient>
		<path style="fill:url(#SVGID_00000100357917232032634140000012275530257903283376_);" d="M172.72,175.47v0.07
			c0.46-0.02,0.91-0.07,1.38-0.07H172.72z"/>
		
			<linearGradient id="SVGID_00000119838166570823198530000011712551773237208752_" gradientUnits="userSpaceOnUse" x1="131.7791" y1="153.1145" x2="495.0865" y2="317.9767">
			<stop  offset="0" style="stop-color:#86BD4C"/>
			<stop  offset="0.1381" style="stop-color:#81BD56"/>
			<stop  offset="0.3939" style="stop-color:#72BB71"/>
			<stop  offset="0.7363" style="stop-color:#55B996"/>
			<stop  offset="0.995" style="stop-color:#2EB8B4"/>
		</linearGradient>
		<path style="fill:url(#SVGID_00000119838166570823198530000011712551773237208752_);" d="M269.92,133.57l-0.79,1.09l-29.06,40.19
			c0.11,0.2,0.2,0.42,0.3,0.62h-0.75l-9.44,13.06l-30.68,42.09c-6.13,7.17-15.23,11.72-25.4,11.72c-18.47,0-33.44-14.97-33.44-33.44
			c0-18,14.24-32.64,32.06-33.37v-0.07h1.38h65.52l0.45-0.62c-12.35-23.87-37.24-40.19-65.97-40.19h-0.01
			c-1.49,0-2.96,0.06-4.43,0.14c-38.94,2.29-69.82,34.59-69.82,74.11c0,41.01,33.24,74.25,74.25,74.25
			c23.83,0,45.01-11.23,58.6-28.68l2.71-3.74c0,0,0,0,0,0l45.13-62.21l9.44-13.06l29.51-40.81l7.41-10.25
			C308.64,111.2,283.12,115.3,269.92,133.57z"/>
	</g>
</g>
</svg>
