<?xml version="1.0" encoding="UTF-8" standalone="no"?>
<!-- Created with Inkscape (http://www.inkscape.org/) -->

<svg
   width="142.75"
   height="150"
   viewBox="0 0 37.769269 39.687501"
   version="1.1"
   id="svg5"
   inkscape:version="1.1.2 (0a00cf5339, 2022-02-04)"
   sodipodi:docname="hibret_bank_no_text.svg"
   xmlns:inkscape="http://www.inkscape.org/namespaces/inkscape"
   xmlns:sodipodi="http://sodipodi.sourceforge.net/DTD/sodipodi-0.dtd"
   xmlns="http://www.w3.org/2000/svg"
   xmlns:svg="http://www.w3.org/2000/svg">
  <sodipodi:namedview
     id="namedview7"
     pagecolor="#ffffff"
     bordercolor="#999999"
     borderopacity="1"
     inkscape:pageshadow="0"
     inkscape:pageopacity="0"
     inkscape:pagecheckerboard="0"
     inkscape:document-units="mm"
     showgrid="false"
     units="px"
     width="512px"
     inkscape:zoom="2.7309025"
     inkscape:cx="105.64273"
     inkscape:cy="15.745711"
     inkscape:window-width="1920"
     inkscape:window-height="1043"
     inkscape:window-x="0"
     inkscape:window-y="0"
     inkscape:window-maximized="1"
     inkscape:current-layer="g899" />
  <defs
     id="defs2" />
  <g
     inkscape:label="Layer 1"
     inkscape:groupmode="layer"
     id="layer1">
    <g
       style="fill:none"
       id="g899"
       transform="matrix(0.68398292,0,0,0.68398292,-1.9289722,-4.2666522)">
      <path
         fill-rule="evenodd"
         clip-rule="evenodd"
         d="m 31.3582,38.6061 c -0.9707,0.52 -1.0938,0.5982 -1.6414,0.5982 -0.2395,0 -0.6726,-0.2549 -1.1384,-0.5746 0,0 -0.308,-0.2043 -1.1982,-0.7823 -0.5888,-0.3777 -0.7798,-0.6164 -1.2948,-0.6164 -0.5242,0 -0.799,0.1969 -3.0571,1.3987 -1.5044,0.7978 -1.1245,1.0494 -0.3394,1.5626 2.2542,1.4641 0.9887,0.6407 4.0985,2.6855 0.9807,0.6481 1.5615,1.1222 2.0971,1.1222 0.5342,0 1.511,-0.4782 4.6646,-2.15 8.6134,-4.5684 16.085,-8.5272 22.6066,-11.9848 L 57,25 Z"
         fill="#4a176d"
         id="path824" />
      <path
         fill-rule="evenodd"
         clip-rule="evenodd"
         d="M 27.7297,58.7647 C 26.2229,59.5521 26.1261,59.3946 25.04,58.6887 21.8732,56.6442 11.1826,49.7846 8.85262,48.2533 8.26114,47.863 7.53077,47.5406 7.16694,47.5549 6.68319,47.5691 6.51991,47.7239 5.28343,48.3775 2.57808,49.7962 2.7644,49.8043 3.39179,50.2 3.99546,50.572 20.1008,60.9754 23.9912,63.4807 24.4885,63.8059 24.8916,64 25.3774,64 c 0.5027,0 1.2487,-0.1941 1.8977,-0.5389 9.984,-5.2381 18.5113,-9.7037 25.8658,-13.5625 L 54,45 c -7.4514,3.9049 -16.1074,8.4452 -26.2703,13.7647 z"
         fill="#4a176d"
         id="path826" />
      <path
         fill-rule="evenodd"
         clip-rule="evenodd"
         d="m 28.5627,48.6595 c -0.8696,0.4524 -1.0522,0.5166 -1.6098,0.5166 -0.3202,0 -0.912,-0.3937 -1.6591,-0.8691 -2.6286,-1.6563 -6.9798,-4.3033 -7.287,-4.5079 0,0 -0.2785,-0.1823 -1.0317,-0.6658 -0.6021,-0.3849 -1.0324,-0.7191 -1.564,-0.7191 -0.5453,0 -0.5528,0.0196 -1.6878,0.6063 -2.8482,1.4619 -3.0226,1.5754 -2.4774,1.9211 3.4174,2.177 6.7972,4.331 13.1578,8.3366 C 25.5503,54 25.5804,54 26.0676,54 c 0.5227,0 0.7512,-0.0061 1.5988,-0.4463 10.2364,-5.2919 18.9554,-9.8059 26.464,-13.6845 L 55,35 c -7.4998,3.8732 -16.2153,8.3777 -26.4373,13.6595 z"
         fill="#4a176d"
         id="path828" />
      <path
         fill-rule="evenodd"
         clip-rule="evenodd"
         d="m 31.2642,29.8098 c 0.2361,0 0.6703,0.2569 1.1411,0.5779 0,0 0.3068,0.2042 1.2019,0.7787 0.5895,0.3819 0.785,0.6198 1.2932,0.6198 0.5275,0 0.805,-0.196 3.0679,-1.3985 1.508,-0.8036 1.1292,-1.0537 0.3415,-1.5647 -2.2603,-1.4688 -0.9944,-0.6388 -4.107,-2.6962 C 33.2143,25.4833 32.6381,25 32.0985,25 31.563,25 30.5839,25.4833 27.4226,27.1555 18.8243,31.7125 11.3644,35.6714 4.85036,39.1266 L 4,44 29.6168,30.4073 c 0.9771,-0.5184 1.1025,-0.5975 1.6474,-0.5975 z"
         fill="#00b0ad"
         id="path830" />
      <path
         fill-rule="evenodd"
         clip-rule="evenodd"
         d="m 35.9214,11.3193 c 3.1674,2.0539 13.8827,8.9324 16.2175,10.4616 0.5925,0.3948 1.3221,0.716 1.6858,0.7078 0.4853,-0.0122 0.6475,-0.1742 1.8909,-0.8255 2.706,-1.4272 2.5214,-1.4312 1.8908,-1.826 C 57.0038,19.4622 40.8684,9.02987 36.9733,6.51451 36.4759,6.19532 36.0727,6 35.5813,6 35.0764,6 34.3346,6.19532 33.6823,6.53424 23.7184,11.7657 15.2061,16.2323 7.86263,20.0863 L 7,25 c 7.444,-3.901 16.0858,-8.437 26.229,-13.7528 1.5033,-0.7929 1.601,-0.6316 2.6924,0.0721 z"
         fill="#00b0ad"
         id="path832" />
      <path
         fill-rule="evenodd"
         clip-rule="evenodd"
         d="m 33.0152,19.831 c 0.3173,0 0.9116,0.3967 1.6608,0.8677 2.6347,1.6643 6.994,4.3153 7.299,4.5218 0,0 0.279,0.1861 1.0425,0.67 0.5963,0.3844 1.024,0.7235 1.5559,0.7235 0.5463,0 0.5586,-0.0257 1.6992,-0.6125 2.8452,-1.4673 3.0275,-1.5783 2.4839,-1.9235 C 45.3246,21.8933 41.9394,19.7397 35.5636,15.7188 34.421,15 34.3888,15 33.9007,15 33.3764,15 33.1475,15.0068 32.2982,15.4467 22.0841,20.7271 13.3758,25.236 5.87323,29.1202 L 5,34 c 7.4958,-3.8788 16.2013,-8.3748 26.399,-13.6492 0.8732,-0.4541 1.0521,-0.5198 1.6162,-0.5198 z"
         fill="#00b0ad"
         id="path834" />
    </g>
  </g>
</svg>
