<svg xmlns:xlink="http://www.w3.org/1999/xlink"  xmlns="http://www.w3.org/2000/svg" viewBox="0 0 99.62 30"><defs><style>.cls-1{fill:#ec232b;}.cls-2{fill:#3c3b3d;}</style></defs><g id="Layer_2" data-name="Layer 2"><g id="Info"><g id="iceaddis_logo" data-name="iceaddis logo"><path class="cls-1" d="M84.74,0c0,.05.1,0,.15.05a1.3,1.3,0,0,1,1,1.42A1.29,1.29,0,1,1,84.2.06c.06,0,.14,0,.2-.06Z"/><path class="cls-1" d="M99.62,15.22a.05.05,0,0,0,0,0,1.25,1.25,0,0,1-1.13,1.08,1.28,1.28,0,1,1,1.1-1.64c0,.07,0,.15.05.21Z"/><path class="cls-1" d="M22.67,15.25H19.15c-.19,0-.16,0-.18.16a6,6,0,0,0,.14,1.75s0,.08,0,.12a1.31,1.31,0,0,0,.94.95,3.84,3.84,0,0,0,.95.15,8.25,8.25,0,0,0,1.49-.05,4.05,4.05,0,0,0,.5-.12.84.84,0,0,0,.56-.54,2.24,2.24,0,0,0,.13-.73s0,0,0-.06,0-.15.16-.15h2.37c.06,0,.09,0,.09.08a4.17,4.17,0,0,1-.1,1.22,2.57,2.57,0,0,1-1.11,1.53,4.48,4.48,0,0,1-1.48.58,10.17,10.17,0,0,1-2.46.19,10,10,0,0,1-2.11-.22A4.52,4.52,0,0,1,18,19.74a2.2,2.2,0,0,1-1.09-1.12,5.75,5.75,0,0,1-.42-1.47,16.78,16.78,0,0,1-.14-3.68,8.15,8.15,0,0,1,.35-2,2.73,2.73,0,0,1,1.92-1.9,7.61,7.61,0,0,1,1.58-.3,11.8,11.8,0,0,1,2.06,0,7.19,7.19,0,0,1,2,.36l.31.13A2.4,2.4,0,0,1,25.8,11a5.79,5.79,0,0,1,.42,1.53,16.8,16.8,0,0,1,.12,2.65c0,.12,0,.12-.14.12H22.67Zm-1.3-1.6h2.26c.12,0,.12,0,.12-.11s0-.5,0-.74a2.92,2.92,0,0,0-.17-.88.92.92,0,0,0-.58-.56,2.35,2.35,0,0,0-.52-.14,8.46,8.46,0,0,0-1.67-.05,3.42,3.42,0,0,0-.89.17,1,1,0,0,0-.68.69,5.08,5.08,0,0,0-.2,1.55c0,.05,0,.07.07.07h2.29Z"/><path class="cls-1" d="M13.36,13.17H12.22c-.16,0-.14,0-.15-.14a2.24,2.24,0,0,0-.07-.51,1.5,1.5,0,0,0-.94-1,2.39,2.39,0,0,0-.7-.17,4.7,4.7,0,0,0-1.67.11,1.06,1.06,0,0,0-.19.06,1.07,1.07,0,0,0-.73.77,5.56,5.56,0,0,0-.18,1.07,18.09,18.09,0,0,0,0,2.55,7.23,7.23,0,0,0,.17,1.31,1.22,1.22,0,0,0,.94.95,5,5,0,0,0,.86.14,7,7,0,0,0,1.37,0,2.25,2.25,0,0,0,.62-.15.83.83,0,0,0,.49-.5,3,3,0,0,0,.18-.93,3.54,3.54,0,0,0,0-.46c0-.13,0-.13.14-.13h2.33c.13,0,.13,0,.13.14,0,.33-.05.65-.07,1s-.05.5-.08.75a2.06,2.06,0,0,1-.61,1.29,3.08,3.08,0,0,1-1.23.73,5.82,5.82,0,0,1-1.42.31,12,12,0,0,1-2.16.06A7.36,7.36,0,0,1,7,19.93l-.3-.13a2.36,2.36,0,0,1-1.25-1.27A6.13,6.13,0,0,1,5,17a15.78,15.78,0,0,1-.11-3.22,9.18,9.18,0,0,1,.35-2.21c.06-.17.12-.33.19-.49A2.49,2.49,0,0,1,6.8,9.72a5,5,0,0,1,1.43-.4,13.61,13.61,0,0,1,3.19,0,7.21,7.21,0,0,1,1.38.29,2.35,2.35,0,0,1,1.61,1.65,6.38,6.38,0,0,1,.25,1.84c0,.08,0,.1-.1.1Z"/><path class="cls-2" d="M59.89,10.68V4.81c0-.12,0-.13.12-.13h.89c.17,0,.33,0,.5,0s.09,0,.09.09a.41.41,0,0,0,0,.11V20c0,.22,0,.2-.2.2H60c-.13,0-.13,0-.13-.13L60,18.94a.17.17,0,0,0,0-.12s0,0-.05,0a2.56,2.56,0,0,1-1.55,1.26,5,5,0,0,1-1.28.24,8.51,8.51,0,0,1-1.82-.05,4.44,4.44,0,0,1-1.47-.47,2.61,2.61,0,0,1-1.12-1.29,6,6,0,0,1-.4-1.44,16.62,16.62,0,0,1-.14-3.45,8.37,8.37,0,0,1,.33-2.11,3.85,3.85,0,0,1,.32-.79,2.67,2.67,0,0,1,1.54-1.28,5.18,5.18,0,0,1,1.41-.27,8.51,8.51,0,0,1,1.82.06,4,4,0,0,1,1.27.36,2,2,0,0,1,1,1l0,0Zm-6.12,4a15.81,15.81,0,0,0,.12,2.06,5.66,5.66,0,0,0,.28,1.13,1.63,1.63,0,0,0,.87.9,3.16,3.16,0,0,0,.9.24,6.3,6.3,0,0,0,1.84,0,2.76,2.76,0,0,0,1-.31,1.6,1.6,0,0,0,.69-.74,4.15,4.15,0,0,0,.2-.66,9.24,9.24,0,0,0,.2-1.57,14.5,14.5,0,0,0-.07-2.87,4.27,4.27,0,0,0-.33-1.16,1.68,1.68,0,0,0-.73-.76,2.89,2.89,0,0,0-.84-.29,6.45,6.45,0,0,0-1.7-.09,3.79,3.79,0,0,0-1,.21,1.64,1.64,0,0,0-1.06,1.07,5.21,5.21,0,0,0-.25,1.09A15.16,15.16,0,0,0,53.77,14.67Z"/><path class="cls-2" d="M48,10.71a.35.35,0,0,0,0-.19V4.77c0-.07,0-.09.09-.09.47,0,.94,0,1.41,0,.08,0,.1,0,.09.1V20c0,.21,0,.19-.19.19H48.14c-.16,0-.14,0-.13-.16,0-.4,0-.79.07-1.19,0,0,0,0,0-.05a0,0,0,0,0,0,0,2.66,2.66,0,0,1-1.79,1.34,6.67,6.67,0,0,1-2,.19,6,6,0,0,1-1.58-.23,3.31,3.31,0,0,1-.41-.14,2.61,2.61,0,0,1-1.49-1.48,6,6,0,0,1-.39-1.5,16.28,16.28,0,0,1-.15-3.12,9.64,9.64,0,0,1,.3-2.21,4.82,4.82,0,0,1,.2-.61,2.75,2.75,0,0,1,1.69-1.61,5.37,5.37,0,0,1,1.37-.27,8.27,8.27,0,0,1,2,.09,4.23,4.23,0,0,1,.78.19A2.18,2.18,0,0,1,48,10.71Zm0,3.91A13.25,13.25,0,0,0,47.9,13a4.83,4.83,0,0,0-.3-1.19,1.73,1.73,0,0,0-.94-.94,1.75,1.75,0,0,0-.32-.12,5.89,5.89,0,0,0-2.13-.17,4.16,4.16,0,0,0-.77.14,1.71,1.71,0,0,0-1.25,1.23l0,0a6.72,6.72,0,0,0-.26,1.78,17.6,17.6,0,0,0,.08,2.9,5,5,0,0,0,.28,1.19,1.62,1.62,0,0,0,.95,1,3.47,3.47,0,0,0,1.14.24,6.48,6.48,0,0,0,1.32,0,3.8,3.8,0,0,0,1-.24,1.62,1.62,0,0,0,1-1,5.48,5.48,0,0,0,.25-1.12A15.52,15.52,0,0,0,48,14.62Z"/><path class="cls-2" d="M36,14.69v-.26c0-.61,0-1.22,0-1.83a5.37,5.37,0,0,0-.21-1.13,1.25,1.25,0,0,0-.84-.83,3.88,3.88,0,0,0-.9-.18,7.65,7.65,0,0,0-1.79,0,3.28,3.28,0,0,0-1,.27,1.7,1.7,0,0,0-.43.26,1.32,1.32,0,0,0-.47,1,2.71,2.71,0,0,0,0,.29c0,.06,0,.09-.08.08H28.82c-.08,0-.12,0-.11-.09A4.76,4.76,0,0,1,29,10.71a1.86,1.86,0,0,1,1.19-1.18,5.84,5.84,0,0,1,1.24-.27,14.71,14.71,0,0,1,2.39-.06,7.16,7.16,0,0,1,2,.33,2.36,2.36,0,0,1,1,.6,2.56,2.56,0,0,1,.59,1.1,6.39,6.39,0,0,1,.21,1.51c0,.35,0,.7,0,1V20c0,.19,0,.18-.17.18H36.1c-.14,0-.14,0-.12-.15,0-.32.07-.64.1-1,0,0,0,0,0-.05s0,0,0,0a2.85,2.85,0,0,1-1.44,1,6.15,6.15,0,0,1-1.52.27,9.19,9.19,0,0,1-1.66,0A5.09,5.09,0,0,1,30,20a2.64,2.64,0,0,1-1.64-2,5.22,5.22,0,0,1,.14-2.48,2.19,2.19,0,0,1,1.46-1.51,6.2,6.2,0,0,1,1.28-.27A11.73,11.73,0,0,1,33,13.6a6.49,6.49,0,0,1,1.8.27,2.34,2.34,0,0,1,.66.31,1.42,1.42,0,0,1,.44.44S35.9,14.68,36,14.69Zm-3.14.15a10.42,10.42,0,0,0-1.11.05,3.71,3.71,0,0,0-1,.2,1,1,0,0,0-.61.58,2.5,2.5,0,0,0-.09.25A4.37,4.37,0,0,0,30,17.49a2.64,2.64,0,0,0,.17.67,1.14,1.14,0,0,0,.65.64l.38.11a6,6,0,0,0,1.34.14,7.5,7.5,0,0,0,1.71-.14,3,3,0,0,0,1.08-.42,1.51,1.51,0,0,0,.7-1,2.78,2.78,0,0,0-.14-1.66,1.19,1.19,0,0,0-.7-.69,2.87,2.87,0,0,0-.57-.17A8.44,8.44,0,0,0,32.82,14.84Z"/><path class="cls-2" d="M72.81,20.38a13.31,13.31,0,0,1-2.1-.15,6.77,6.77,0,0,1-1-.23,2.13,2.13,0,0,1-1.46-1.67,3.23,3.23,0,0,1-.1-.82v-.66c0-.06,0-.1.09-.1.49,0,1,0,1.49,0,.07,0,.09,0,.09.09,0,.26,0,.52,0,.77a2.44,2.44,0,0,0,.12.55,1.08,1.08,0,0,0,.66.66,3.66,3.66,0,0,0,.86.18,12.84,12.84,0,0,0,2.32,0,6.61,6.61,0,0,0,.89-.15,1.23,1.23,0,0,0,.94-1,3,3,0,0,0,0-1.43,1.28,1.28,0,0,0-1.26-1l-1.22,0a18.92,18.92,0,0,1-2.37-.19,6.64,6.64,0,0,1-1-.22,2,2,0,0,1-1.44-1.51,4.82,4.82,0,0,1-.14-1.65,4.11,4.11,0,0,1,.17-1,1.84,1.84,0,0,1,1.26-1.3,5.9,5.9,0,0,1,1.09-.24,14.35,14.35,0,0,1,2.7-.09,6.34,6.34,0,0,1,2.11.42,2.89,2.89,0,0,1,.77.47,2.09,2.09,0,0,1,.71,1.39c0,.21,0,.41,0,.62s0,.09-.09.09H75.65c-.18,0-.16,0-.16-.16a3,3,0,0,0-.1-.73,1.67,1.67,0,0,0-.08-.2.71.71,0,0,0-.46-.4,3.85,3.85,0,0,0-.89-.15,17.36,17.36,0,0,0-2,0,5.4,5.4,0,0,0-1.2.15.86.86,0,0,0-.67.65,2.91,2.91,0,0,0,0,1.55,1.39,1.39,0,0,0,1.21,1,5.49,5.49,0,0,0,.7,0l2.61.14a4.11,4.11,0,0,1,1.09.2,2.4,2.4,0,0,1,1.66,1.83,4.69,4.69,0,0,1,.11,1.45,4.28,4.28,0,0,1-.22,1.12A2.06,2.06,0,0,1,76,19.94a5.63,5.63,0,0,1-1.27.32A15.15,15.15,0,0,1,72.81,20.38Z"/><path class="cls-1" d="M2.73,14.79V20c0,.19,0,.17-.18.17H.2c-.05,0-.09,0-.08-.08V9.53c0-.21,0-.19.19-.19H2.65c.06,0,.08,0,.08.08a.48.48,0,0,0,0,.12Z"/><path class="cls-2" d="M65.88,14.77v5.28c0,.17,0,.17-.18.17H64.4c-.12,0-.12,0-.12-.12V9.52c0-.21,0-.18.19-.18h1.26c.15,0,.15,0,.15.15v5.28Z"/><path class="cls-2" d="M63.63,6.16A1.41,1.41,0,1,1,65,7.57,1.41,1.41,0,0,1,63.63,6.16Z"/><path class="cls-1" d="M1.41,4.76a1.39,1.39,0,0,1,1.4,1.41,1.41,1.41,0,0,1-1.42,1.4,1.41,1.41,0,0,1,0-2.81Z"/><path class="cls-1" d="M80.61,22.73a1.29,1.29,0,1,1-1.27-1.29A1.29,1.29,0,0,1,80.61,22.73Z"/><path class="cls-1" d="M93.56,15.08a1.29,1.29,0,1,1-1.29-1.3A1.29,1.29,0,0,1,93.56,15.08Z"/><path class="cls-1" d="M79.33,6A1.29,1.29,0,1,1,78,7.29,1.29,1.29,0,0,1,79.33,6Z"/><path class="cls-1" d="M96.63,15.06a1.29,1.29,0,1,1-2.57,0,1.3,1.3,0,0,1,1.29-1.29A1.28,1.28,0,0,1,96.63,15.06Z"/><path class="cls-1" d="M88.58,21.16a1.29,1.29,0,0,1-2.57,0,1.29,1.29,0,1,1,2.57,0Z"/><path class="cls-1" d="M88.58,8.86a1.29,1.29,0,1,1-1.29-1.29A1.27,1.27,0,0,1,88.58,8.86Z"/><path class="cls-1" d="M88.64,7.29a1.29,1.29,0,1,1,1.28,1.28A1.29,1.29,0,0,1,88.64,7.29Z"/><path class="cls-1" d="M85.85,19.56a1.29,1.29,0,1,1-1.28-1.29A1.29,1.29,0,0,1,85.85,19.56Z"/><path class="cls-1" d="M85.85,10.45a1.29,1.29,0,1,1-1.28-1.29A1.3,1.3,0,0,1,85.85,10.45Z"/><path class="cls-1" d="M88.64,22.71A1.29,1.29,0,1,1,89.92,24,1.3,1.3,0,0,1,88.64,22.71Z"/><path class="cls-1" d="M92.06,12.33a1.28,1.28,0,1,1-1.28-1.28A1.28,1.28,0,0,1,92.06,12.33Z"/><path class="cls-1" d="M90.47,15.06a1.29,1.29,0,1,1-2.57,0,1.29,1.29,0,0,1,2.57,0Z"/><path class="cls-1" d="M91.06,20.29a1.29,1.29,0,1,1,1.27,1.3A1.28,1.28,0,0,1,91.06,20.29Z"/><path class="cls-1" d="M85.85,4.29a1.29,1.29,0,1,1-2.57,0,1.29,1.29,0,1,1,2.57,0Z"/><path class="cls-1" d="M92.35,11a1.29,1.29,0,1,1,1.28-1.28A1.29,1.29,0,0,1,92.35,11Z"/><path class="cls-1" d="M84.57,23.93a1.28,1.28,0,1,1,1.28-1.28A1.28,1.28,0,0,1,84.57,23.93Z"/><path class="cls-1" d="M84.58,6.08a1.28,1.28,0,1,1-1.3,1.27A1.28,1.28,0,0,1,84.58,6.08Z"/><path class="cls-1" d="M92.06,17.68a1.28,1.28,0,1,1-1.27-1.29A1.27,1.27,0,0,1,92.06,17.68Z"/><path class="cls-1" d="M83.24,21.17A1.29,1.29,0,1,1,82,19.87,1.29,1.29,0,0,1,83.24,21.17Z"/><path class="cls-1" d="M83.24,8.85a1.29,1.29,0,1,1-2.57,0,1.29,1.29,0,0,1,2.57,0Z"/><path class="cls-1" d="M84.56,27a1.29,1.29,0,1,1,1.29-1.29A1.28,1.28,0,0,1,84.56,27Z"/><path class="cls-1" d="M85.85,28.71a1.29,1.29,0,1,1-2.57,0,1.29,1.29,0,0,1,2.57,0Z"/></g></g></g></svg>