<svg xmlns="http://www.w3.org/2000/svg" viewBox="0 0 227.89 90.71"><defs><style>.cls-1{fill:#d51d4f;}</style></defs><title>Asset 3</title><g id="Layer_2" data-name="Layer 2"><g id="Layer_1-2" data-name="Layer 1"><path d="M227.89,12.19c-1,4-2.93,7.78-1.72,12.06a2.23,2.23,0,0,1-.61.28c-4.8.4-5.3-.19-4.14-4.9.59-2.42,1.33-4.81,1.82-7.25.56-2.83-.12-4.75-1.62-5.27s-3.73.6-5.08,2.78a18.38,18.38,0,0,0-.88,1.86l1.69.54c-1.11,4-2.22,7.91-3.45,12.28.42-.25.3-.12.18-.11-4.64.33-5.35-.53-3.88-4.89.68-2,1.54-4,2.39-6.13l-2.6-.19c1.1-1.75,2-3.18,2.95-4.73l-3.23-.2V.43A9.69,9.69,0,0,1,213.1.07a3.09,3.09,0,0,1,1.81,2.12A32.69,32.69,0,0,1,215,7.46c1.52-.37,3-.84,4.6-1.1,4.63-.8,6.69.36,8.3,4.54Z"/><path class="cls-1" d="M22.29,70.44c1.4-.41,2.83-.76,4.21-1.23,15.57-5.32,30.89-4.8,45.81,2.26A47.32,47.32,0,0,1,91.17,87.22a4.4,4.4,0,0,1,.88,2.27,19.63,19.63,0,0,1-1.94-1.41C77.54,76.26,62.34,73.36,45.81,75c-12.22,1.18-23.93,4.62-35.62,8.15a28.81,28.81,0,0,1-4.56,1.09c-2.87.38-4-.6-3.68-3.42A16.35,16.35,0,0,1,3.85,75c3.4-6.06,8.4-10.84,13.59-15.31C25.16,53,33.17,46.67,41,40.13a27.41,27.41,0,0,0,3-3.62c-1.32-1-2.5-2.3-4-2.86C34.86,31.7,29.55,30,24.3,28.19a39.76,39.76,0,0,1-3.95-1.9c0-.26.08-.52.13-.79,1.2,0,2.41-.08,3.6,0,6.19.47,12.37,1.25,18.57,1.4,7.41.17,14.84-.21,22.26-.32a25.61,25.61,0,0,1,4.47.16q3.63.57,1.37,3.53a20.47,20.47,0,0,1-3.69,3.86c-9,6.86-18,13.61-26.95,20.45q-7.9,6-15.71,12.24a24.65,24.65,0,0,0-2.64,2.84c.18.25.35.51.53.77"/><path class="cls-1" d="M131.16,65.26H120.87c.76-4,1.48-7.93,2.21-11.82.36-2,.83-3.91,1.07-5.89.28-2.35-1-3.46-3.31-3.17A5.64,5.64,0,0,0,115.92,49c-1,5.38-2.06,10.76-3.1,16.22H101.33c.51-2.86,1-5.57,1.49-8.27,1.25-6.59,2.57-13.16,3.76-19.76.27-1.51.9-2,2.4-2,3.06.1,6.12,0,9.34,0-.08,1.16-.13,2.11-.2,3.12,11-5.24,13.37-5.09,18.18,1.29.76-.62,1.51-1.24,2.29-1.83A14,14,0,0,1,149.84,35c3.41.58,5.64,2.83,5.51,6.29a69.9,69.9,0,0,1-1.24,9.3c-.77,4.43-1.64,8.84-2.56,13.23-.12.59-.81,1.49-1.25,1.5-3.62.13-7.25.07-11.09.07,1-5.52,2.06-10.76,3-16,.64-3.48.27-4.52-1.64-4.92a5.65,5.65,0,0,0-6.2,4.08c-1,5.25-2,10.51-3,15.76,0,.28-.14.55-.26,1"/><path class="cls-1" d="M209.34,35.29c-.15,1.22-.25,2.12-.31,2.6,3-1,6-2.52,9.11-3,6.57-1.05,10.25,2.6,9.28,9.18-1,7-2.55,14-3.88,21.15h-11.7c.59-3.2,1.16-6.32,1.73-9.45.51-2.73,1.14-5.45,1.49-8.2.31-2.48-1-3.57-3.47-3.15a5.67,5.67,0,0,0-4.79,4.77c-1,5.32-2,10.63-3.08,16H192c1.83-9.55,3.63-19,5.5-28.45.12-.56.89-1.39,1.38-1.41,3.42-.12,6.84-.07,10.47-.07"/><path class="cls-1" d="M81.54,52c-.32,3,1.08,5,4,5.2a46.4,46.4,0,0,0,8-.7,17.93,17.93,0,0,0,2.61-.75c-.89,2.48-1.65,4.67-2.49,6.83a2,2,0,0,1-1,1c-5.7,2.35-11.46,3.07-17.12,0a10.35,10.35,0,0,1-5.37-7.86c-1.68-10.89,4.9-19.66,15.77-21a12.69,12.69,0,0,1,9.88,2.63c3.46,2.82,4.79,9.93,2.57,13.83a2.33,2.33,0,0,1-1.74.74c-4.28.07-8.57,0-12.85,0Zm.63-5.46c2.51,0,4.85.06,7.18-.05a1.76,1.76,0,0,0,1.22-1.1,3.25,3.25,0,0,0-2.79-4c-3.28-.49-5.53,1.52-5.61,5.18"/><path class="cls-1" d="M171.43,52c-.45,3,1.07,5.16,4.24,5.24a85.5,85.5,0,0,0,10-.84c-.7,1.92-1.5,4.22-2.41,6.48-.15.38-.72.67-1.15.86a20.9,20.9,0,0,1-12.78,1.43c-6.43-1.4-9.74-6-9.62-13A17.36,17.36,0,0,1,180.1,34.93c6.06,1,9.66,5.78,9,12-.52,5.07-.52,5.07-5.58,5.07H171.43m.45-5.44c2.13,0,4.16,0,6.2,0,2.23,0,2.93-.78,2.09-2.83a4.34,4.34,0,0,0-2.64-2.29c-3.14-.69-5.19,1.19-5.65,5.12"/><path class="cls-1" d="M59.3,21.92c-.57.85-1.08,1.6-1.65,2.46C43.53,16.19,29.47,15.73,16.49,26S.84,50.19,5.63,65.81c-.44.22-.86.47-1.31.65s-.92.32-1.37.46C-2.67,55.27-.8,36.18,13.25,24.15s34-11.2,46.05-2.23"/><path d="M124,15.26c-1.63.16-3.26.35-4.89.46-2.59.19-3.41-.82-2.67-3.34.4-1.36,1-2.66,1.37-4a8.77,8.77,0,0,0-.12-2.49c-.68.49-1.61.83-2,1.5-1.41,2.47-2.69,5-3.93,7.59a4,4,0,0,1-4.27,2.48,44.56,44.56,0,0,0-5.52.33c-3.69.27-5.3-1.88-3.69-5.21,1.89-3.92,4.67-6.76,9.43-7,3.91-.19,7.81-.75,11.72-.91a59.73,59.73,0,0,1,8,.36,3,3,0,0,1,2.09,1.25c1.37,2.44.36,4.85-.56,7.16-.68,1.7-2.22,2.07-3.91,2H124a.41.41,0,0,1,0-.11m-12.09-9c-4.58-.33-9.33,4.77-8.91,8.87.15,1.36,1,1.73,2.08,1.28A4,4,0,0,0,106.85,15c1.7-2.76,3.29-5.59,5.07-8.67m14.3,1.66-2-2.13c-.53.6-1.29,1.11-1.54,1.8a29.14,29.14,0,0,0-1.28,5,5.36,5.36,0,0,0,.5,2.09c.76-.37,1.89-.55,2.2-1.16a47.73,47.73,0,0,0,2.08-5.56"/><path d="M187,78V90.41h-3.53V72c2.29-.65,3.95,0,5.48,1.93,2.83,3.65,5.95,7.07,9.37,11.09V71.87H202V90.34a4.56,4.56,0,0,1-5.4-1.8c-2.88-3.7-6-7.18-9.09-10.75L187,78"/><path d="M150,80.49c3.29,1.59,4.18,3.15,3.67,6-.4,2.32-1.85,3.67-4.92,3.88-3.26.22-6.53,0-10,0V72c3.51,0,7.11-.16,10.7.06a3.67,3.67,0,0,1,3.43,3.31c.37,2.32-.46,4-2.89,5.11m-7.57,7.13c1.93-.09,3.63-.14,5.31-.26,1.47-.11,2.08-1,2.13-2.44a2.3,2.3,0,0,0-2.15-2.67c-1.72-.17-3.47,0-5.29,0Zm0-8.52a25.26,25.26,0,0,0,5-.1,3.22,3.22,0,0,0,1.8-2.13c.28-1.17-.52-2.06-1.83-2.11-1.62-.06-3.25,0-5,0Z"/><path d="M81.13,5.24c1.44.4,3.51.37,4.17,1.31s.16,3,.16,4.77l4.4-.47c.18-2.13.36-4.15.54-6.25,0,0,0-.06.09-.06,4.22-.48,4.5-.23,4,4-.42,3.47-1,6.93-1.36,10.4-.2,1.81-.19,3.64-.28,5.52-4.5.69-4.77.47-4.28-4.13.29-2.76.7-5.5,1.1-8.56l-4.58.4c-.42,4.12-.82,8.14-1.24,12.33.16-.12.11-.06,0-.05-5.26.75-4.52-.21-4-3.65.54-3.74.88-7.51,1.24-11.27a35.59,35.59,0,0,0,0-3.58V5.24"/><path d="M217,80.44l10.6,9.94c-3.43.41-6.12.49-8.26-2.28-1.86-2.4-4.13-4.49-6.22-6.71l-.67.37v8.68h-3.81V71.93h3.73v8.12l.69.39c1.88-2,3.85-3.94,5.61-6s4-3.35,6.89-2.41L217,80.44"/><path d="M179,90.32c-3.7.59-3.64.55-5.44-2.36a2.82,2.82,0,0,0-2-1.1,76,76,0,0,0-8.13,0,2.88,2.88,0,0,0-2.16,1.41c-.82,2.4-2.43,2.58-4.66,2.11.27-.68.46-1.27.73-1.83,2.57-5.17,5.17-10.32,7.7-15.51a2.48,2.48,0,0,1,2.61-1.65A2.53,2.53,0,0,1,170.29,73c2.66,5.36,5.43,10.67,8.14,16a12.66,12.66,0,0,1,.54,1.35m-11.5-14.86-4.15,8.44h8.25c-1.38-2.83-2.62-5.38-4.1-8.44"/><path class="cls-1" d="M62.09,77.51c.85.79,1.57,1.44,2.28,2.09C53.23,91.8,32.64,94.33,18.56,85.32l1.55-2.75a34.87,34.87,0,0,0,21.82,4.59,34.31,34.31,0,0,0,20.16-9.65"/><path d="M174.69,18c-4.18.74-4.47.52-4.38-4a24.12,24.12,0,0,1,.42-5.1A9.47,9.47,0,0,1,183,2.44c1.91.7,2.48,2.27,2.44,4.1-.09,4.06-.27,8.13-.38,12.2-.05,1.75,0,3.51,0,5.47.29-.16.23-.1.17-.1-4.54.62-4.78.39-4.63-4.16.14-4,.31-8,.38-12,.06-3.2-1-4.82-2.93-4.91s-3.25,1.47-3.42,4.61c-.18,3.36,0,6.74.05,10.34"/><path d="M201.29,10.76h-5.17a51.72,51.72,0,0,0,2.41-5c.64-1.76-.19-2.85-1.86-2.56a2.32,2.32,0,0,0-1.38,1.41c-1,3.09-2.37,4.11-5.64,4,.21-1.54.42-3.09.68-5a23,23,0,0,1,11.23-.9c1.94.4,2.54,1.65,1.82,3.53-.5,1.31-1.11,2.57-1.81,4.19,1.24,0,2.08,0,2.92,0,2.08.07,2.46.64,1.55,2.48-1.14,2.31-2.41,4.54-3.5,6.87-.65,1.38-1.08,2.88-1.75,4.73-.88,0-2.14,0-3.41,0-1.68,0-2-.8-1.35-2.18,1.43-3,2.89-6.05,4.32-9.09.32-.69.53-1.43.94-2.53"/><path d="M139.31,3.36C137.45,8.2,136.54,9,133,8.5a10.77,10.77,0,0,0,.77-2.21,13,13,0,0,0-.18-2.57c3.79-1.08,7.67-1.81,11.66-1,1.94.42,2.44,1.67,1.68,3.59-.44,1.13-.93,2.24-1.38,3.36a3.2,3.2,0,0,0,.06.75h2.84c1.63,0,2,.81,1.3,2.22-1.3,2.55-2.67,5.06-3.89,7.64a35.66,35.66,0,0,0-1.35,4.12c.25-.19.14,0,0,0-1.67-.08-3.34-.18-5-.28a46.74,46.74,0,0,1,1.5-4.7c1.2-2.79,2.56-5.51,4-8.57h-5.31c.36-.81.57-1.36.84-1.88a27.64,27.64,0,0,0,1.35-2.43c1-2.5.13-3.56-2.62-3.19"/><path class="cls-1" d="M71.28,35.61c2.23,2.36,0,3.2-1.19,4.7L68.5,37.09l2.78-1.48"/><path class="cls-1" d="M70.65,63.63c.93,1.46,3.67,1.38,1.91,4l-2.84-1.21c.27-.81.51-1.52.93-2.75"/></g></g></svg>