<?xml version="1.0" encoding="UTF-8"?>
<!-- Created with Inkscape (http://www.inkscape.org/) -->
<svg width="94" height="93" version="1.1" viewBox="0 0 24.871 24.606" xmlns="http://www.w3.org/2000/svg">
 <g transform="matrix(.14274 0 0 .14274 .16156 .20574)">
  <path d="m169.03 110.4c-0.4-0.9-1-1.6-1.5-2.4-0.6-0.8-1.2-1.5-1.9-2.1s-1.5-1-2.5-1.4c-0.8-0.2-1.8-0.3-2.8-0.2-1.9 0.2-3.8 0.9-5.5 1.7-3.5 1.7-6.8 3.9-10 6.2s-6.3 4.7-9.4 7.1l-8.4 6.5c-2.8 2.2-5.7 4.2-8.5 6.3-2.9 2-5.8 4.1-8.8 5.9l-4.5 2.8-4.7 2.5c-3.1001 1.8-6.5001 3.1-9.8001 4.6l-7.5 2.7-2.7 0.7-5.3 1.3c-1.8 0.4-3.6 0.6-5.4 1-3.6 0.7-7.2 0.9-10.8 1.2-3.6 0.1-7.2 0.3-10.8 0.2l-5.4-0.1-5.4-0.4c-0.5 0-0.9-0.1-1.4-0.1 20.8 15 48.1 20.9 74.9 13.6 28.8-7.8 50.3-28.9 59.5-54.8l-1.4-2.8z" fill="#21205f"/>
  <path d="m172.53 68.701c-0.6 0-1.6 0.1-2.5 0.4-1.8 0.5-3.7 1.4-5.6 2.4-3.8 2-7.4 4.6-11 7.1l-10.9 7.8c-3.7 2.6-7.4 5.1-11.1 7.6-1.9 1.2-3.8 2.3-5.7 3.5s-3.9 2.2-5.9 3.3003c-1.9 1.1-4 2.1-6 3.1s-4 2-6.1 2.7c-2.1 0.8-4.1 1.8-6.3 2.4l-6.5001 2-6.6 1.5c-2.2 0.5-4.4 0.7-6.6 1-2.2 0.4-4.5 0.5-6.7 0.6-2.3 0.2-4.5 0.3-6.7 0.2-2.3 0-4.5 0.1-6.7 0-2.3-0.1-4.5-0.1-6.7-0.3-4.5-0.3-8.9-0.6-13.4-1.1l-13.3-1.4c-4.4-0.4-8.9-0.8-13.3-0.7-2.2 0-4.4 0.2-6.4 0.7-1 0.2-1.8 0.5-2.6 1 3.6 10.7 9.2 20.2 16.2 28.3 0.4 0.1 0.7 0.1 1.1 0.1 4.8 0.7 9.6 1.3 14.4 1.8s9.6 0.9 14.4 1c2.4 0 4.8 0.1 7.2 0s4.8-0.2 7.1-0.4c2.3-0.3 4.7-0.6 7-0.9l7-1.5 6.8-2.1c2.2-0.8 4.4-1.8 6.6-2.7 2.2-1 4.3-2.1 6.4001-3.1 2.1-1.1 4.2-2.4 6.3-3.5 4.1-2.5 8.1-5.1 12-7.9s7.8-5.7 11.6-8.6c3.9-2.9 7.8-5.8 11.9-8.6 4.1-2.7 8.4-5.3003 13.3-6.7003 2.4-0.6 5.1-0.9 7.7-0.4 2.5 0.5 5 1.7 6.8 3.5003 0.9 0.9 1.8 1.8 2.6 2.8 2.5-11.1 2.7-22.9 0.3-34.7l-0.1-0.2z" fill="#21205f"/>
  <g fill="#f7923a">
   <path d="m34.626 103c4.9 0.6 9.8 1.1 14.6 1.6 4.9 0.4 9.7 0.7 14.6 0.8 2.4 0 4.9 0 7.3-0.1 2.4-0.2 4.8-0.3 7.2-0.5 2.4-0.4 4.8-0.6 7.1-1.1l6.9-1.6 7-2.3003c2.2001-0.9 4.3001-1.9 6.5001-2.8 2.2-1 4.3-2.2 6.4-3.3s4.2-2.5 6.2-3.7c4.1-2.6 8-5.3 11.9-8.2 3-2.2 5.9-4.5 8.9-6.8-4.1 1.3-8.1 2.4-11.9 3.5l-0.5 0.1c-1 0.2-1.9 0.4-2.9 0.7-2 0.5-4 1-6.2 1.4l-0.4 0.1c-0.9 0.1-1.9 0.3-2.8 0.5-2 0.4-4 0.7-6.2 1.1l-0.6 0.1-3 0.3c-1.9 0.2-3.8 0.4-5.8001 0.6l-1 0.1-9.7 0.2-10.1-0.7c-2-0.2-4-0.5-6-0.8-1-0.1-1.9-0.3-2.9-0.4l-0.6-0.1c-2.1-0.4-4-0.8-5.9-1.2l-3-0.6-0.4-0.1c-2.1-0.5-4.1-1.1-6-1.6-1-0.3-1.9-0.6-2.9-0.8l-0.5-0.1c-5.6-1.7-11.4-3.7-17.5-6-6-2.3-11.8-4.7-16.8-6.7-1.4-0.6-3.8-1.6-6.8-2.9-1.5-0.6-3.1-1.3-4.9-2-4.4 13.8-5.2 28.9-1.9 43.9 0.8-0.3 1.6-0.6 2.4-0.8 5.2-1.3 10.3-1.2 15.3-0.9 5.1 0 10 0.5 14.9 1.1z"/>
   <path d="m65.326 16.301c9.9 9.9 30.8 26.3 86.1 11.2-15.9-17-38.7-27.6-64-27.5-10.2 0-20 1.8-29 5.1 1.2 3.7 3.3 7.6 6.9 11.2z"/>
   <path d="m165.83 48.401c-1.3-2.6-2.7-5.1-4.2-7.6-17 3-32.3 4.6-45.8 4.6-28.2 0.1-48.7-6.2-61.2-19-4.8-4.9-7.8-10.2-9.7-15.2-15 8.4-27.2 21.2-34.8 36.6 16.7 10.4 77.7 41.2 155.7 0.6z"/>
  </g>
 </g>
</svg>
