<?xml version="1.0" encoding="UTF-8"?>
<svg xmlns="http://www.w3.org/2000/svg" xmlns:xlink="http://www.w3.org/1999/xlink" width="365pt" height="178.32pt" viewBox="0 0 365 178.32" version="1.1">
<defs>
<clipPath id="clip1">
  <path d="M 166 126 L 211 126 L 211 178.320313 L 166 178.320313 Z M 166 126 "/>
</clipPath>
<clipPath id="clip2">
  <path d="M 220 125 L 272 125 L 272 178.320313 L 220 178.320313 Z M 220 125 "/>
</clipPath>
</defs>
<g id="surface1">
<path style=" stroke:none;fill-rule:nonzero;fill:rgb(8.599854%,7.499695%,27.799988%);fill-opacity:1;" d="M 179.882813 0.00390625 C 180.519531 0.00390625 181.222656 0.00390625 181.859375 0.00390625 C 182.5 0.195313 183.203125 0.449219 183.902344 0.640625 C 185.054688 1.40625 185.882813 2.492188 186.519531 3.644531 C 187.414063 4.21875 188.5625 4.601563 189.011719 5.621094 C 189.585938 6.960938 189.203125 8.492188 189.074219 9.898438 C 188.371094 9.449219 187.734375 9.003906 187.03125 8.558594 C 186.011719 8.558594 184.925781 8.492188 183.902344 8.683594 C 182.054688 9.261719 180.96875 10.984375 180.011719 12.515625 C 181.542969 12.515625 183.074219 12.578125 184.605469 12.644531 C 189.777344 14.492188 192.328125 19.855469 193.222656 24.898438 C 194.5625 24.261719 195.839844 23.367188 196.863281 22.28125 C 197.820313 20.046875 197.757813 17.6875 197.5 15.324219 C 196.671875 13.921875 195.714844 12.578125 194.5625 11.429688 C 196.671875 9.066406 199.160156 6.898438 202.289063 6.066406 C 204.394531 5.367188 206.628906 5.683594 208.800781 5.683594 C 216.96875 7.472656 222.269531 14.878906 225.460938 22.089844 C 228.140625 27.773438 228.714844 34.15625 228.269531 40.347656 C 226.734375 39.835938 225.269531 39.132813 224.117188 37.984375 C 223.546875 45.132813 225.777344 51.964844 227.949219 58.667969 C 228.652344 60.902344 229.734375 63.007813 230.949219 65.050781 C 227.886719 64.730469 225.140625 63.070313 222.460938 61.601563 C 217.734375 58.667969 213.011719 55.476563 209.371094 51.136719 C 206.820313 47.941406 204.585938 44.496094 202.800781 40.792969 C 202.605469 43.664063 202.542969 46.664063 203.371094 49.476563 C 199.734375 48.835938 196.160156 47.304688 193.988281 44.175781 C 194.5 51.261719 194.054688 58.539063 191.246094 65.179688 C 189.902344 68.179688 187.542969 70.921875 188.117188 74.496094 C 191.308594 75.328125 195.96875 76.539063 195.585938 80.753906 C 190.351563 78.773438 184.734375 79.09375 179.242188 78.519531 C 180.136719 76.925781 181.414063 75.519531 182.945313 74.496094 C 182.882813 72.839844 183.011719 70.988281 181.796875 69.648438 C 179.5625 66.773438 178.09375 63.390625 177.328125 59.816406 C 176.5625 63.136719 175.03125 66.390625 172.414063 68.6875 C 170.753906 70.15625 169.414063 72.007813 169.285156 74.371094 C 172.414063 74.6875 175.988281 75.390625 177.648438 78.390625 C 177.457031 78.710938 177.011719 79.414063 176.820313 79.730469 C 171.457031 78.007813 165.777344 79.15625 160.285156 79.476563 C 161.242188 77.496094 162.585938 75.648438 164.625 74.753906 C 164.625 74.113281 164.625 73.414063 164.625 72.773438 C 163.542969 69.773438 162.457031 66.710938 162.902344 63.453125 C 161.882813 66.328125 159.710938 68.5625 157.222656 70.222656 C 156.582031 70.796875 155.625 70.730469 154.859375 70.796875 C 149.625 70.988281 144.199219 70.730469 139.285156 68.753906 C 137.6875 68.050781 135.835938 67.605469 134.878906 66.007813 C 144.839844 63.582031 154.796875 58.730469 160.796875 50.175781 C 162.519531 47.816406 163.667969 45.132813 164.625 42.324219 C 165.074219 40.476563 165.457031 38.621094 165.457031 36.707031 C 165.199219 36.773438 164.625 36.898438 164.371094 36.898438 C 162.585938 43.984375 156.457031 48.773438 150.074219 51.644531 C 150.648438 49.410156 150.964844 47.050781 150.710938 44.75 C 142.796875 54.070313 132.199219 60.902344 120.710938 65.050781 C 122.625 61.347656 124.667969 57.710938 126.199219 53.816406 C 128.304688 48.710938 129.519531 43.347656 130.09375 37.921875 C 128.816406 39.007813 127.410156 39.898438 125.816406 40.347656 C 125.6875 37.539063 125.753906 34.730469 125.878906 31.984375 C 126.070313 32.558594 126.261719 33.195313 126.453125 33.773438 C 126.453125 33.195313 126.390625 32.621094 126.199219 32.050781 C 126.453125 25.410156 129.519531 19.152344 133.476563 13.921875 C 136.222656 10.726563 139.347656 7.601563 143.433594 6.066406 C 146.113281 5.046875 149.050781 5.367188 151.667969 6.324219 C 153.902344 7.472656 156.007813 9.066406 157.15625 11.367188 C 155.242188 13.027344 153.710938 15.386719 153.648438 18.003906 C 153.839844 20.941406 155.5 24.132813 158.5625 24.835938 C 160.730469 25.601563 163.03125 25.089844 165.136719 24.515625 C 164.945313 22.855469 163.925781 21.324219 163.796875 19.601563 C 163.15625 17.558594 163.859375 15.515625 164.179688 13.535156 C 164.882813 11.6875 165.777344 9.960938 166.859375 8.300781 C 165.011719 7.34375 163.734375 5.683594 162.648438 4.023438 C 164.945313 4.789063 167.691406 5.558594 169.859375 4.023438 C 173.179688 2.109375 176.4375 0.640625 179.882813 0.00390625 "/>
<path style=" stroke:none;fill-rule:nonzero;fill:rgb(99.198914%,99.598694%,100%);fill-opacity:1;" d="M 172.542969 68.753906 C 175.09375 66.390625 176.628906 63.199219 177.457031 59.878906 C 178.222656 63.453125 179.691406 66.839844 181.925781 69.710938 C 183.136719 71.050781 183.011719 72.839844 183.074219 74.5625 C 181.542969 75.648438 180.328125 76.988281 179.371094 78.582031 C 178.859375 78.519531 178.351563 78.519531 177.839844 78.519531 C 176.117188 75.519531 172.605469 74.816406 169.476563 74.496094 C 169.542969 72.136719 170.882813 70.285156 172.542969 68.753906 "/>
<path style=" stroke:none;fill-rule:nonzero;fill:rgb(85.099792%,30.599976%,22.698975%);fill-opacity:1;" d="M 177.777344 78.457031 C 178.285156 78.457031 178.796875 78.519531 179.308594 78.519531 C 184.796875 79.09375 190.414063 78.773438 195.648438 80.753906 C 195.777344 80.5 195.96875 79.921875 196.03125 79.667969 C 202.605469 80.882813 209.246094 81.964844 215.691406 83.816406 C 234.589844 89.179688 252.523438 98.691406 266.695313 112.480469 C 267.335938 113.117188 267.71875 113.945313 268.101563 114.714844 C 263.1875 114.136719 258.84375 111.777344 254.25 110.117188 C 236.757813 102.902344 218.375 97.476563 199.542969 95.433594 C 179.882813 93.007813 159.839844 94.09375 140.371094 97.859375 C 132.328125 99.328125 124.476563 101.628906 116.6875 103.988281 C 110.050781 106.03125 103.664063 108.648438 97.15625 111.136719 C 93.386719 112.542969 89.6875 114.332031 85.601563 114.714844 C 85.664063 114.457031 85.726563 113.882813 85.726563 113.628906 C 99.773438 99.648438 117.519531 89.882813 136.476563 84.265625 C 144.328125 82.15625 152.308594 80.242188 160.476563 79.539063 C 165.96875 79.15625 171.648438 78.070313 177.011719 79.796875 C 177.203125 79.476563 177.585938 78.773438 177.777344 78.457031 "/>
<g clip-path="url(#clip1)" clip-rule="nonzero">
<path style=" stroke:none;fill-rule:nonzero;fill:rgb(8.599854%,7.499695%,27.799988%);fill-opacity:1;" d="M 179.882813 128.949219 C 188.5625 124.734375 198.777344 125.308594 207.523438 128.949219 C 208.414063 129.460938 209.371094 129.90625 210.269531 130.351563 C 210.394531 134.503906 210.332031 138.585938 210.269531 142.734375 C 205.863281 138.714844 199.925781 136.734375 193.988281 136.417969 C 189.585938 136.289063 185.054688 138.074219 181.988281 141.332031 C 180.457031 142.992188 179.5 145.035156 178.605469 147.078125 C 177.839844 151.863281 177.777344 157.226563 180.777344 161.375 C 183.074219 165.011719 187.222656 166.929688 191.371094 167.632813 C 194.054688 167.824219 196.734375 167.3125 199.351563 166.546875 C 199.289063 163.800781 199.605469 160.992188 198.648438 158.375 C 197.628906 155.054688 195.648438 152.183594 193.605469 149.375 C 199.226563 149.183594 204.777344 149.882813 210.394531 149.695313 C 210.394531 157.609375 210.394531 165.523438 210.394531 173.441406 C 209.628906 173.824219 208.863281 174.207031 208.097656 174.589844 C 200.5625 177.972656 191.882813 179.632813 183.902344 177.078125 C 177.457031 175.164063 171.839844 170.566406 168.839844 164.503906 C 165.96875 159.140625 165.519531 152.886719 166.476563 147.011719 C 167.816406 139.289063 172.859375 132.460938 179.882813 128.949219 "/>
</g>
<path style=" stroke:none;fill-rule:nonzero;fill:rgb(8.599854%,7.499695%,27.799988%);fill-opacity:1;" d="M 110.113281 127.542969 C 110.6875 127.542969 111.835938 127.542969 112.347656 127.605469 C 122.878906 136.417969 133.476563 145.164063 144.007813 153.96875 C 144.070313 145.164063 144.007813 136.417969 144.007813 127.605469 C 148.03125 127.605469 151.988281 127.605469 156.007813 127.605469 C 155.945313 144.265625 156.136719 160.992188 156.074219 177.652344 C 155.113281 177.460938 153.964844 177.714844 153.199219 176.886719 C 142.730469 168.207031 132.328125 159.394531 121.859375 150.714844 C 121.984375 159.652344 121.859375 168.589844 121.921875 177.460938 C 117.964844 177.523438 114.007813 177.460938 110.113281 177.523438 C 110.113281 160.863281 110.113281 144.203125 110.113281 127.542969 "/>
<path style=" stroke:none;fill-rule:nonzero;fill:rgb(8.599854%,7.499695%,27.799988%);fill-opacity:1;" d="M 276.527344 127.671875 C 290.890625 127.671875 305.253906 127.671875 319.613281 127.671875 C 319.613281 131.117188 319.613281 134.503906 319.613281 137.949219 C 314.441406 137.949219 309.273438 137.949219 304.039063 137.949219 C 303.976563 151.164063 304.039063 164.375 304.039063 177.589844 C 300.144531 177.589844 296.1875 177.589844 292.230469 177.589844 C 292.164063 164.375 292.292969 151.164063 292.164063 138.011719 C 286.933594 138.011719 281.695313 138.011719 276.527344 138.011719 C 276.527344 134.503906 276.527344 131.117188 276.527344 127.671875 "/>
<path style=" stroke:none;fill-rule:nonzero;fill:rgb(8.599854%,7.499695%,27.799988%);fill-opacity:1;" d="M 328.996094 127.671875 C 340.996094 127.671875 353 127.605469 365 127.671875 C 364.171875 131.882813 361.9375 136.734375 357.339844 137.691406 C 351.785156 138.332031 346.105469 137.503906 340.550781 138.140625 C 340.613281 141.011719 340.613281 143.882813 340.550781 146.757813 C 346.742188 146.820313 352.871094 146.757813 359.0625 146.757813 C 359.0625 150.203125 359.0625 153.589844 359.0625 157.035156 C 352.871094 157.164063 346.679688 156.714844 340.550781 157.289063 C 340.613281 160.480469 340.550781 163.738281 340.613281 166.929688 C 347.765625 166.929688 354.976563 166.929688 362.128906 166.929688 C 362.128906 170.4375 362.128906 173.949219 362.128906 177.523438 C 351.085938 177.460938 340.105469 177.523438 329.0625 177.460938 C 328.996094 160.929688 328.996094 144.265625 328.996094 127.671875 "/>
<g clip-path="url(#clip2)" clip-rule="nonzero">
<path style=" stroke:none;fill-rule:nonzero;fill:rgb(8.599854%,7.499695%,27.799988%);fill-opacity:1;" d="M 238.929688 138.90625 C 230.4375 144.84375 230.503906 159.269531 239.054688 165.078125 C 243.332031 168.078125 249.523438 167.695313 253.480469 164.375 C 259.738281 159.078125 260.503906 149.054688 256.035156 142.351563 C 253.800781 138.839844 249.78125 136.800781 245.632813 136.609375 C 243.332031 136.992188 240.84375 137.375 238.929688 138.90625 Z M 240.777344 126.203125 C 244.992188 125.628906 249.460938 125.5 253.480469 126.96875 C 260.949219 129.265625 267.144531 135.332031 269.570313 142.734375 C 271.867188 149.820313 271.484375 157.863281 268.101563 164.566406 C 265.101563 170.054688 260.121094 174.589844 254.121094 176.632813 C 245.3125 179.949219 234.714844 177.523438 228.140625 170.824219 C 218.117188 161.3125 217.800781 143.695313 227.3125 133.734375 C 230.886719 129.839844 235.671875 127.289063 240.777344 126.203125 "/>
</g>
<path style=" stroke:none;fill-rule:nonzero;fill:rgb(8.599854%,7.499695%,27.799988%);fill-opacity:1;" d="M 18.257813 138.140625 C 18.257813 147.652344 18.257813 157.097656 18.257813 166.609375 C 21.957031 166.671875 25.789063 166.929688 29.300781 165.523438 C 33.128906 164.25 36.386719 161.25 37.726563 157.417969 C 39.386719 152.246094 38.425781 145.925781 34.152344 142.289063 C 29.746094 138.460938 23.746094 137.949219 18.257813 138.140625 Z M 0 127.417969 C 7.019531 127.417969 14.042969 127.417969 21 127.417969 C 28.34375 127.417969 36.128906 129.011719 42.003906 133.671875 C 44.9375 135.96875 47.109375 139.03125 48.578125 142.351563 C 50.9375 148.800781 51.003906 155.949219 48.578125 162.332031 C 45.195313 170.121094 37.535156 175.609375 29.171875 176.886719 C 21.894531 178.035156 14.554688 177.269531 7.277344 177.523438 C 7.085938 165.207031 7.277344 152.886719 7.148438 140.566406 C 7.148438 139.160156 6.894531 137.628906 5.679688 136.734375 C 2.9375 134.246094 0.894531 130.992188 0 127.417969 "/>
<path style=" stroke:none;fill-rule:nonzero;fill:rgb(8.599854%,7.499695%,27.799988%);fill-opacity:1;" d="M 74.175781 152.117188 C 73.535156 153.523438 72.835938 154.863281 72.195313 156.269531 C 76.152344 157.035156 80.109375 158.121094 83.8125 159.652344 C 82.726563 157.097656 81.453125 154.671875 80.300781 152.183594 C 79.28125 150.078125 78.261719 147.90625 77.175781 145.800781 C 76.089844 147.90625 75.070313 150.011719 74.175781 152.117188 Z M 49.726563 177.90625 C 58.28125 161.183594 66.640625 144.394531 75.070313 127.605469 C 76.472656 127.605469 77.8125 127.605469 79.21875 127.605469 C 83.878906 137.566406 88.792969 147.332031 93.582031 157.226563 C 96.898438 164.121094 100.347656 171.015625 103.664063 177.972656 C 98.496094 177.140625 93.324219 175.609375 88.917969 172.738281 C 85.984375 170.886719 82.917969 169.035156 79.601563 168.078125 C 75.707031 167.054688 71.683594 166.097656 67.597656 166.292969 C 66.386719 169.097656 64.855469 171.90625 62.429688 173.757813 C 58.726563 176.441406 54.195313 177.652344 49.726563 177.90625 "/>
</g>
</svg>
