<?xml version="1.0" encoding="UTF-8"?>
<!-- Created with Inkscape (http://www.inkscape.org/) -->
<svg width="456" height="93" version="1.1" viewBox="0 0 120.65 24.606" xmlns="http://www.w3.org/2000/svg">
 <g transform="matrix(.14274 0 0 .14274 7.8513 57.723)">
  <g fill="#21205f">
   <path d="m789.45-261.91-31.3-34 28-32.2-17.7 0.1-24.7 32.3 25.9 33.9zm-63.3 0.3 14.1-0.1-0.4-94.6-14.1 0.1zm-69.1 0.2h14.1l-0.1-27.3c-0.1-15.6 8.9-28.3 20.1-28.3 7.4 0 12.3 4.6 12.3 11.6l0.2 43.8 14-0.1-0.2-46.7c-0.1-12.3-10.3-20.4-25.6-20.3-8.7 0-16.4 6.6-21.1 16.6l-0.9-15.5-13.2 0.1zm-58.5-32.8c0-12.8 6-21.4 15-21.5l16.9-0.1 0.1 20.4c0.1 12.9-7.5 23.4-16.8 23.5-9.1 0.1-15.2-8.8-15.2-22.3zm-14.6 0.1c0.1 20.4 10.9 34 27.1 33.9 8.6 0 16.2-6.3 20.7-15.7l0.8 14.2 12.8 0.7s-0.6-10.5-0.6-18.3l-0.2-48.3-12.3 0.1-1.7 10.9-7.1-10.9-12.7 0.1c-16.2 0.2-26.9 13.4-26.8 33.3zm-50.3-48.4h10.4c10.6-0.1 17.8 4.6 17.8 11.6 0 9.3-7.1 15.6-17.7 15.7h-10.4zm0.2 38.9 13.9-0.1c10.7 0 17.8 6.9004 17.8 17.5 0.1 8.2-7 13.7-17.7 13.7l-13.9 0.1zm-14.8 42.9 31.1-0.1c18.2-0.1 30.4-10.3 30.3-25.4 0-11.9-11.1-21.7-24.9-23.8 11.2-3.3 19.5-11.5 19.5-21-0.1-14-12.3-23.3-30.5-23.2l-25.8 0.1zm-70.4 0.3 14.1-0.1-0.1-26.3c-0.1-16.1 8.9-29.2 20.1-29.3 7.4-0.1 12.3 4.6 12.4 11.6l0.2 43.8 14.1-0.1-0.2-46.7c-0.1-12.3-10.3-20.4-25.6-20.4-8.7 0.1-16.3 6.6-21 16.8l-0.2-44.1-14.1 0.1zm-55.5-3.3c5.6 2.3 13.9 4.4 20.2 4.4 18.3-0.1 28.1-7.3 28-20.6-0.1-14.2-12.1-17.8-22.4-20.8-7-2.1-12.8-5.0004-12.9-9.2004 0-4 4.6-6.2 13.2-6.3 6.7 0 12.7 2.5 17.6 6.3l-0.1-15.6c-5.6-1.5-11.1-2.1-16.7-2.1-17.7 0.1-27.2 6.4-27.2 18 0.1 15.3 12.6 19.1 23 22.1 7.2 2.1 12.3 4.7 12.3 9.1 0 4.9-4.2 7.6-13.2 7.7-6.5 0-15.1-2.9-22-8.3zm-56.7-29.3c-0.1-12.9 5.9-21.4 15-21.5l16.9-0.1 0.1 20.4c0.1 12.9-7.5 23.4-16.7 23.4-9.2 0.2-15.2-8.7-15.3-22.2zm-14.6 0.1c0.1 20.4 10.9 34 27 34 8.7-0.1 16.2-6.3 20.7-15.7l0.8 14.2 12.8 0.7s-0.6-10.5-0.6-18.3l-0.2-48.3-12.3 0.1-1.7 10.9-7.1-10.9-12.6 0.1c-16.2 0-26.9 13.3-26.8 33.2zm-77 33.4 14.1-0.1 13.9-45 14.3 44.8 14.1-0.1 20.8-66.3-17.9 0.1-9.9 54.7-13.9-54.6-14.8 0.1-13.5 54.8-10.7-54.6-17.9 0.1zm-63.4-30.2 13.5-51.1 14 50.9zm-23.9 30.6 15.8-0.1 5.2-19.5 33.4-0.1 5.3 19.4 15.8-0.1-30.4-93.2-15.5 0.1z"/>
   <path d="m116.45-293.01c-0.4-0.9-1-1.6-1.5-2.4-0.6-0.8-1.2-1.5-1.9-2.1s-1.5-1-2.5-1.4c-0.8-0.2-1.8-0.3-2.8-0.2-1.9 0.2-3.8 0.9-5.5 1.7-3.5 1.7-6.8 3.9-10 6.2s-6.3 4.7-9.4 7.1l-8.4 6.5c-2.8 2.2-5.7 4.2-8.5 6.3-2.9 2-5.8 4.1-8.8 5.9l-4.5 2.8-4.7 2.5c-3.1001 1.8-6.5001 3.1-9.8001 4.6l-7.5 2.7-2.7 0.7-5.3 1.3c-1.8 0.4-3.6 0.6-5.4 1-3.6 0.7-7.2 0.9-10.8 1.2-3.6 0.1-7.2 0.3-10.8 0.2l-5.4-0.1-5.4-0.4c-0.5 0-0.9-0.1-1.4-0.1 20.8 15 48.1 20.9 74.9 13.6 28.8-7.8 50.3-28.9 59.5-54.8l-1.4-2.8z"/>
   <path d="m119.95-334.71c-0.6 0-1.6 0.1-2.5 0.4-1.8 0.5-3.7 1.4-5.6 2.4-3.8 2-7.4 4.6-11 7.1l-10.9 7.8c-3.7 2.6-7.4 5.1-11.1 7.6-1.9 1.2-3.8 2.3-5.7 3.5s-3.9 2.2-5.9 3.3003c-1.9 1.1-4 2.1-6 3.1s-4 2-6.1 2.7c-2.1 0.8-4.1 1.8-6.3 2.4l-6.5001 2-6.6 1.5c-2.2 0.5-4.4 0.7-6.6 1-2.2 0.4-4.5 0.5-6.7 0.6-2.3 0.2-4.5 0.3-6.7 0.2-2.3 0-4.5 0.1-6.7 0-2.3-0.1-4.5-0.1-6.7-0.3-4.5-0.3-8.9-0.6-13.4-1.1l-13.3-1.4c-4.4-0.4-8.9-0.8-13.3-0.7-2.2 0-4.4 0.2-6.4 0.7-1 0.2-1.8 0.5-2.6 1 3.6 10.7 9.2 20.2 16.2 28.3 0.4 0.1 0.7 0.1 1.1 0.1 4.8 0.7 9.6 1.3 14.4 1.8s9.6 0.9 14.4 1c2.4 0 4.8 0.1 7.2 0s4.8-0.2 7.1-0.4c2.3-0.3 4.7-0.6 7-0.9l7-1.5 6.8-2.1c2.2-0.8 4.4-1.8 6.6-2.7 2.2-1 4.3-2.1 6.4001-3.1 2.1-1.1 4.2-2.4 6.3-3.5 4.1-2.5 8.1-5.1 12-7.9s7.8-5.7 11.6-8.6c3.9-2.9 7.8-5.8 11.9-8.6 4.1-2.7 8.4-5.3003 13.3-6.7003 2.4-0.6 5.1-0.9 7.7-0.4 2.5 0.5 5 1.7 6.8 3.5003 0.9 0.9 1.8 1.8 2.6 2.8 2.5-11.1 2.7-22.9 0.3-34.7l-0.1-0.2z"/>
  </g>
  <g fill="#f7923a">
   <path d="m-17.952-300.41c4.9 0.6 9.8 1.1 14.6 1.6 4.9 0.4 9.7 0.7 14.6 0.8 2.4 0 4.9 0 7.3-0.1 2.4-0.2 4.8-0.3 7.2-0.5 2.4-0.4 4.8-0.6 7.1-1.1l6.9-1.6 7-2.3003c2.2001-0.9 4.3001-1.9 6.5001-2.8 2.2-1 4.3-2.2 6.4-3.3s4.2-2.5 6.2-3.7c4.1-2.6 8-5.3 11.9-8.2 3-2.2 5.9-4.5 8.9-6.8-4.1 1.3-8.1 2.4-11.9 3.5l-0.5 0.1c-1 0.2-1.9 0.4-2.9 0.7-2 0.5-4 1-6.2 1.4l-0.4 0.1c-0.9 0.1-1.9 0.3-2.8 0.5-2 0.4-4 0.7-6.2 1.1l-0.6 0.1-3 0.3c-1.9 0.2-3.8 0.4-5.8001 0.6l-1 0.1-9.7 0.2-10.1-0.7c-2-0.2-4-0.5-6-0.8-1-0.1-1.9-0.3-2.9-0.4l-0.6-0.1c-2.1-0.4-4-0.8-5.9-1.2-1-0.2-2-0.4-3-0.6l-0.4-0.1c-2.1-0.5-4.1-1.1-6-1.6-1-0.3-1.9-0.6-2.9-0.8l-0.5-0.1c-5.6-1.7-11.4-3.7-17.5-6-6-2.3-11.8-4.7-16.8-6.7-1.4-0.6-3.8-1.6-6.8-2.9-1.5-0.6-3.1-1.3-4.9-2-4.4 13.8-5.2 28.9-1.9 43.9 0.8-0.3 1.6-0.6 2.4-0.8 5.2-1.3 10.3-1.2 15.3-0.9 5.1 0 10 0.5 14.9 1.1z"/>
   <path d="m12.748-387.11c9.9 9.9 30.8 26.3 86.1 11.2-15.9-17-38.7-27.6-64-27.5-10.2 0-20 1.8-29 5.1 1.2 3.7 3.3 7.6 6.9 11.2z"/>
   <path d="m113.25-355.01c-1.3-2.6-2.7-5.1-4.2-7.6-17 3-32.3 4.6-45.8 4.6-28.2 0.1-48.7-6.2-61.2-19-4.8-4.9-7.8-10.2-9.7-15.2-15 8.4-27.2 21.2-34.8 36.6 16.7 10.4 77.7 41.2 155.7 0.6z"/>
   <path d="m242.35-353.71c0.6 0.5 1 1.1 1 1.6 0 0.3-0.4 0.5-1.1 0.7-3 0.4-5.2 0.6-6.5 0.6-0.7 0-1.3-0.4-2-1.3-0.4-0.6-0.8-2.7-1.3-6.4-0.5-4.1-1.1-6.8-1.8-8.2-0.9-2-2.2-3.1-3.8-3.1-0.5 0-1.2 0.1-1.9 0.4-0.7 0.8-1.8 2.8-3.3 6.1-1.6 3.5-2.5 6.2-2.5 8.3 0 1 0.3 1.5 0.8 1.7 0.8 0.3 1.1 0.5 1.2 0.7 0 0.3-0.4 0.5-1.3 0.6-2.5 0.4-5.1 0.5-7.9 0.6-1.5 0.1-2.2-0.9-2.3-2.7 0-3.2 1.7-7.6 5.3-13.2 0.6-1 2.2-3.1 4.6-6.4 2.2-3 3.5-4.6 3.8-4.9h-0.1c-0.6 0-1.5 0.1-2.6 0.4-1.2 0.2-2.1 0.4-2.7 0.4-1 0-1.5-0.1-1.7-0.5-0.3-0.5-0.4-1.5-0.4-3.1 0 0.2 0 0.2 0.1-0.1v-2.5c0-2.4-0.3-3.7-0.9-3.9-0.8-0.4-1.2-0.6-1.2-0.9s1.4-0.7 4.3-1.1c2.3-0.3 3.6-0.5 3.7-0.5 1.6 0 2.4 0.5 2.4 1.4 0 0.3 0.1 0.6 0.1 1v2.2c0 2.6 0.2 4.8 0.6 6.4l1.8-0.2c0.3 0 1.1-0.2 2.2-0.4 1-0.2 1.7-0.3 2.2-0.2 0.7 0 1 0.1 1 0.4 0 0.4-0.9 1.7-2.6 3.9-1.8 2.3-3 4-3.4 5-0.1 0.1 0 0.1 0.2 0.1 0.9 0 2.3-0.3 4.2-0.8 1.8-0.6 3.2-0.8 4.2-0.8 0.5 0 0.9 0 1.2 0.1 2.6 0.9 4.3 5.7 5.1 14.3 0.2 2.1 0.3 3.3 0.3 3.4s0.4 0.4 1 0.9z"/>
   <path d="m270.65-386.71c-0.3 0-0.6 0-0.7 0.1-0.2 0.3-0.5 2.8-1 7.5l-0.7 7.5c0.3 0.1 0.6 0.2 1 0.2 0.8 0 1.5-0.3 2.2-0.9 1.7-1.5 2.5-4.5 2.5-8.9v-0.9c-0.2-3.1-1.2-4.6-3.3-4.6zm-14.1 4.9c-0.9 1.9-1.4 4.1-1.3 6.6 0 1.5 0.1 2.4 0.2 2.8 0.3 1 1 1.5 2.1 1.5s1.9-0.4 2.5-1.3c0.8-6.1 1.4-10.6 1.7-13.8-2.4 0.5-4.1 1.9-5.2 4.2zm23.9 7.9c-1.5 1.8-3.4 3-5.7 3.6-1.6 0.4-2.8 0.6-3.6 0.6-0.5 0-1.6-0.1-3.3-0.4-1.1 7.6-1.7 12.1-1.9 13.7-0.1 0.9-0.1 1.7 0.1 2.2 0 0.1 0.2 0.3 0.5 0.6s0.4 0.5 0.4 0.6c0 0.4-0.5 0.6-1.5 0.7-2.8 0.3-4.5 0.5-5 0.5-2 0-3-0.7-3-2.1s0.3-4.2 1-8.5c0.7-4.5 1-7 1-7.5-2.1 0.8-4 1.2-5.8 1.2-4.7 0-7-2.3-7-7 0-3.9 1.6-6.9 4.8-8.9 2.6-1.7 6-2.7 10.4-3 2.4-0.2 5.1-0.3 8-0.4 1.3-0.2 2.5-0.3 3.8-0.3 1.2 0 2.3 0.1 3.2 0.3 1.8 0.5 3.2 1.4 4.2 2.9s1.5 3.1 1.5 5c0.1 2.3-0.6 4.4-2.1 6.2z"/>
   <path d="m318.85-386.71c-3.7 0-5.8-1.1-6.3-3.4l-3.4 0.2c0 0.6 0.6 1.8 2 3.6 1.2 1.6 2 2.6 2.3 2.9 0.9 0.9 2 1.5 3.2 1.7 2.3 1 3.5 2.9 3.5 5.7 0 0.8-0.1 1.6-0.2 2.4-1.2 7.7-1.8 12.8-1.8 15.4v0.4c0.1 0.8 0.2 1.8 0.5 2.9 0.3 1.5 0.6 2.2 0.8 2.2 0.1 0 0.1-0.1 0.1-0.4 0 0.3-0.5 0.5-1.5 0.6l-4.6 0.4c-1.4 0-2.4-0.6-2.9-2-0.2-0.5-0.3-1.3-0.3-2.4 0-1.3 0.1-2.3 0.2-3.1 0.4-3.2 0.7-6 1-8.2l0.5-3.8c0.5-3.9 0.7-6 0.7-6.2 0-2.5-0.8-3.7-2.5-3.6-1.5 0.1-2.8 1.5-4.1 4.2-1 2.2-1.6 4.2-1.9 6-0.5 3.4-0.9 7.8-1.2 13.1-0.1 2.2 0.1 3.5 0.9 4 0.4 0.4 0.7 0.6 0.7 0.7 0 0.3-0.5 0.5-1.5 0.6-2.6 0.3-4.2 0.4-4.8 0.4-1.4 0-2.3-0.5-2.8-1.6-0.2-0.5-0.3-1.5-0.3-3.2 0-3.5 0.3-7.4 0.8-11.7 0.4-3.3 1.4-5.9 2.8-7.9 1.4-1.8 3.6-3.6 6.7-5.1-0.9-1-2.5-3.5-5-7.7h-3c-0.9 2.6-4.4 4-10.4 3.9-0.6 0-0.9-0.1-0.9-0.5 0-0.1 0.3-0.7 1-1.8 0.6-1.2 1-1.9 1-2.3 0.1-0.1 0.1-0.2 0.1-0.4 0-0.4-0.3-1.1-0.7-2l-0.8-1.4c0-0.6 1.5-0.90001 4.6-0.90001 3.5 0 5.5 1.3 6.2 4.1l14.6-0.7c0.7-2.9 3.1-4.4 7.4-4.4 0.3 0 0.7 1e-5 1.1 0.10001 1.8 0.1 2.7 0.29999 2.7 0.59999 0-0.2-0.3 0.3-0.8 1.3-0.5 0.99997-0.7 1.9-0.7 2.4v0.5c0.2 1 0.7 2 1.7 3 0 0.2-0.3 0.4-0.8 0.6-1 0.6-2.3 0.8-3.9 0.8z"/>
   <path d="m370.35-353.11c0 0.7-1.1 1-3.2 1-0.5 0-1.2 0.1-2.2 0.2s-1.7 0.2-2.2 0.2c-1.3 0-2.2-0.5-2.4-1.5-0.1-0.4-0.2-1.4-0.2-3.2 0-1.5 0-3.8 0.2-6.9 0.1-3.9 0.2-5.6 0.2-5.2 0-0.6 0.1-2.3 0.3-4.9 0.2-2.2 0.2-3.9 0.2-5.2 0-5.6-1.7-8.4-5-8.4-1.9 0-3.2 1.2-3.9 3.8-0.4 1.3-0.7 3-0.9 5.1-0.4 4.7-0.6 7.6-0.6 8.8 0 3 0.5 4.8 1.4 5.4 0.5 0.3 0.8 0.6 0.8 0.7 0 0.2-1 0.5-2.9 0.8-2.3 0.3-3.6 0.4-4 0.4-1.6 0-2.5-0.8-2.9-2.4-0.1-0.5-0.2-2-0.2-4.4 0-7.2 1.1-12.2 3.5-14.9 1.3-1.5 3.5-2.7 6.5-3.8 2.8-0.9 5.3-1.4 7.6-1.4 2.8 0 4.9 0.9 6.4 2.8 1.4 1.7 2 3.9 1.9 6.7v1.3c-0.1 3.9-0.2 6.4-0.3 7.6l-0.3 3.5c-0.2 3.3-0.3 6.3-0.3 9.3v1.3c0 0.5 0.1 1 0.4 1.6 0.3 0.7 0.6 1.1 1 1.2 0.8 0 1.1 0.3 1.1 0.5z"/>
   <path d="m400.45-370.21-1.5 2.8c-2.2 4.3-4 8-5.3 11.3-0.2 0.4-0.2 0.7-0.2 1 0 0.5 0.2 0.8 0.7 1 0.2 0.1 0.4 0.2 0.4 0.4 0 0.3-0.4 0.5-1.3 0.6-3.2 0.5-5.2 0.8-6.1 0.8-1.8 0-2.9-0.7-3.1-2.2v-0.2c0-0.8 0.7-2.6 2.2-5.4l1.7-3c3.5-6.5 5.3-10.5 5.3-11.9v-0.4c-0.5-0.4-1.3-0.6-2.3-0.5-0.3 0-1.1 0.1-2.3 0.2-0.9 0.1-1.6 0.2-2 0.2-0.8 0-1.2-0.2-1.2-0.7l0.5-1.1c0.6-1.3 1-2.3 1.3-2.7 1.2-2.3 1.9-4.4 2.4-6.4-0.4-1.3-1.4-2-3-2-0.6 0-1.2 0.1-1.8 0.4-0.8 0.3-1.2 0.6-1.2 1 0 2.5-0.9 4.5-2.7 6s-3.9 2.3-6.5 2.3h-0.7c-0.5 0-0.8-0.2-0.8-0.4l0.9-1.7c0.6-1.1 0.9-1.9 1-2.4 0-0.1 0.1-0.3 0-0.6 0-0.4-0.2-1-0.4-1.8-0.3-0.8-0.4-1.4-0.4-1.7s0.3-0.6 0.8-0.7c6-1.3 10.6-1.9 13.8-1.9 3.5 0 6.3 0.5 8.3 1.6 0.8 0.4 1.2 1.2 1.2 2.2 0 0.8-0.7 2.8-2 6.2-0.8 2-1.2 3-1.2 3.2 0 0.5 0.4 0.7 1.1 0.6 0.6 0 1.4-0.1 2.5-0.3s1.9-0.3 2.5-0.3c1.3 0 2 0.4 2 1.2-0.5 0.7-1.2 2.5-2.6 5.3z"/>
   <path d="m437.15-358.81c-0.2 2.4 0.1 3.7 0.9 4 0.3 0.1 0.4 0.2 0.4 0.4 0 0.4-0.4 0.6-1.3 0.8-3.2 0.6-5.1 0.9-5.9 0.9-1.9 0-2.8-0.8-2.8-2.4v-0.6c0-1 0.4-4.6 1.2-10.6 0.7-5.1 1-8.4 1-10.1 0-1.8-0.3-3.1-0.7-3.9-0.6-1.2-1.8-1.8-3.4-1.8-2 0-3.7 1-5.2 3.1-1.1 1.6-1.9 3.5-2.4 5.8 1-0.2 1.7-0.3 2.2-0.3 0.6 0 0.9 0.2 0.8 0.6 0 0.2 0 0.3-0.1 0.4-0.8 2.3-1.3 3.9-1.6 4.7-0.9 3.1-1.6 6.3-2.2 9.6-0.1 0.6-0.1 1.2-0.1 1.8 0 1.1 0.3 1.8 0.9 2 0.4 0.2 0.6 0.3 0.6 0.5 0 0.4-0.7 0.7-2.2 0.9-3 0.4-4.6 0.6-4.9 0.6-1.9 0-2.8-1-2.8-3.2 0-2.1 0.4-4.8 1.2-7.9 0.9-3.3 1.9-5.7 3.1-7.4h-0.1-0.5l-1 0.2c-0.9 0.1-1.6 0.2-2 0.2s-0.6-0.1-0.7-0.2-0.1-0.4-0.1-0.8c0-2.2 1.5-4.8 4.7-7.8-0.6 0-1.4 0.1-2.6 0.4-1.1 0.2-2 0.4-2.6 0.4s-0.9-0.1-1-0.3c-0.3-0.5-0.5-1.7-0.5-3.5v-1-1.4c0-0.7 0.1-1.2 0.1-1.5v-1.1c0-2.5-0.4-3.9-1.1-4.1-0.5-0.1-0.8-0.3-0.8-0.6s0.6-0.7 1.9-1.1c2.9-0.8 5.1-1.2 6.6-1.2 1.1 0 1.6 0.20001 1.7 0.70001v1.3c0 0.4 0 1.8-0.1 4.2-0.1 1.6-0.1 3.2-0.1 4.6s0.1 2.3 0.3 2.8c1.2-0.6 2.9-1.3 5.1-2.1 2.9-1 5.5-1.4 7.8-1.4 1 0 1.8 0.1 2.4 0.2 2.6 0.5 4.5 1.4 5.6 2.5 1.2 1.3 1.8 3.2 1.8 5.7 0 1.5-0.1 3-0.2 4.4-0.5 5.5-1 9.6-1.3 12.6z"/>
  </g>
 </g>
</svg>
