<svg xmlns="http://www.w3.org/2000/svg" viewBox="0 0 116.73 72.08"><defs><style>.cls-1,.cls-2{fill:#7dc242;}.cls-1{opacity:0.59;}</style></defs><title>Asset 5</title><g id="Layer_2" data-name="Layer 2"><g id="Layer_1-2" data-name="Layer 1"><path class="cls-1" d="M32,31.1H95.85a0,0,0,0,1,0,0v0A17.67,17.67,0,0,1,78.18,48.77H32a8.83,8.83,0,0,1-8.83-8.83v0A8.83,8.83,0,0,1,32,31.1Z"/><path class="cls-1" d="M31.18,7.79a7.46,7.46,0,0,0-.95.06c.63,0,1.27-.06,1.91-.06Z"/><path class="cls-1" d="M95.09,7.79,82.31,25.46H99.06A17.67,17.67,0,0,0,116.73,7.79Z"/><path class="cls-1" d="M60.7,25.19,73.28,7.79H32.15A32.12,32.12,0,0,1,60.7,25.19Z"/><path class="cls-2" d="M60.83,25.46c0-.09-.08-.18-.13-.27l-.19.27Z"/><path class="cls-2" d="M31.55,25.46v0c.2,0,.39,0,.59,0Z"/><polygon class="cls-2" points="32.15 7.79 32.14 7.79 32.15 7.79 32.15 7.79"/><path class="cls-2" d="M73.62,7.32l-.34.47L60.7,25.19c0,.09.09.18.13.27h-.32l-4.09,5.65L43.14,49.34A14.47,14.47,0,1,1,31.55,25.49v0h29l.19-.27A32.12,32.12,0,0,0,32.15,7.79h0c-.64,0-1.28,0-1.91.06A32.14,32.14,0,1,0,57.51,59.66l1.18-1.61h0L78.22,31.11l4.09-5.65L95.09,7.79l3.2-4.44A17.67,17.67,0,0,0,73.62,7.32Z"/></g></g></svg>