<?xml version="1.0" encoding="UTF-8" standalone="no"?>
<!-- Created with Inkscape (http://www.inkscape.org/) -->

<svg
   width="512"
   height="512"
   viewBox="0 0 135.46666 135.46666"
   version="1.1"
   id="svg5"
   inkscape:version="1.1.2 (0a00cf5339, 2022-02-04)"
   sodipodi:docname="amhara_bank.svg"
   xmlns:inkscape="http://www.inkscape.org/namespaces/inkscape"
   xmlns:sodipodi="http://sodipodi.sourceforge.net/DTD/sodipodi-0.dtd"
   xmlns="http://www.w3.org/2000/svg"
   xmlns:svg="http://www.w3.org/2000/svg">
  <sodipodi:namedview
     id="namedview7"
     pagecolor="#ffffff"
     bordercolor="#999999"
     borderopacity="1"
     inkscape:pageshadow="0"
     inkscape:pageopacity="0"
     inkscape:pagecheckerboard="0"
     inkscape:document-units="mm"
     showgrid="false"
     units="px"
     width="512px"
     inkscape:zoom="0.20884525"
     inkscape:cx="835.5469"
     inkscape:cy="-723.0234"
     inkscape:window-width="1920"
     inkscape:window-height="1043"
     inkscape:window-x="0"
     inkscape:window-y="0"
     inkscape:window-maximized="1"
     inkscape:current-layer="g856" />
  <defs
     id="defs2" />
  <g
     inkscape:label="Layer 1"
     inkscape:groupmode="layer"
     id="layer1">
    <g
       id="g856"
       transform="matrix(0.01320842,0,0,0.01320842,0.66657878,-0.6713036)">
      <g
         id="l145X3MsFSjK64PTVPq8GMO"
         fill="#0c63a4"
         transform="matrix(1.0007954,0,0,1.0056544,-40.062829,0)"
         inkscape:export-filename="/home/brookmg/Desktop/amhara_bank.png"
         inkscape:export-xdpi="96.275902"
         inkscape:export-ydpi="96.275902">
        <g
           id="g825">
          <path
             id="pqmbh3E6Z"
             d="M 0,5120 V 0 h 5120 5120 v 5120 5120 H 5120 0 Z m 5460,3250 c 5,-10 35,-88 64,-172 56,-158 171,-477 296,-818 39,-107 95,-263 125,-346 29,-82 67,-186 83,-230 17,-43 55,-149 85,-234 30,-85 62,-173 71,-195 8,-22 74,-202 145,-400 72,-198 158,-436 192,-530 33,-93 99,-276 145,-405 47,-129 89,-246 95,-260 6,-14 35,-92 64,-175 29,-82 97,-269 150,-415 53,-146 118,-326 145,-400 26,-74 51,-143 55,-152 7,-17 -44,-18 -996,-17 -552,1 -1291,5 -1642,8 l -639,6 -64,180 c -36,99 -96,266 -133,370 -38,105 -74,201 -80,215 -6,14 -36,97 -66,185 -31,88 -74,207 -95,265 -22,58 -114,312 -205,565 -91,253 -170,470 -175,483 l -10,22 318,-5 c 174,-2 471,-5 660,-5 265,0 344,-3 347,-12 4,-13 165,-458 360,-998 59,-162 122,-335 140,-385 18,-49 51,-142 73,-205 22,-63 47,-132 56,-152 9,-21 16,-42 16,-47 0,-6 -51,-12 -127,-13 l -128,-3 -3,-36 c -3,-35 -2,-36 45,-49 26,-7 134,-37 238,-68 281,-80 398,-112 420,-112 12,0 122,45 245,99 l 225,100 3,35 3,36 h -133 -133 l -18,48 c -21,55 -140,383 -202,557 -24,66 -57,158 -74,205 -18,47 -54,146 -80,220 -27,74 -87,241 -134,370 -47,129 -151,417 -231,640 -81,223 -155,428 -166,455 -11,28 -42,113 -69,190 -26,77 -62,176 -79,220 -17,44 -56,150 -86,235 -30,85 -87,243 -126,350 -39,107 -102,281 -139,385 -38,105 -87,241 -110,303 l -41,112 h 655 c 639,0 655,0 665,-20 z M 3463,3105 c 388,-42 415,-44 617,-65 107,-12 256,-27 330,-35 74,-8 225,-24 335,-35 110,-11 299,-31 420,-45 121,-13 272,-29 335,-35 63,-7 165,-17 225,-24 l 110,-11 -125,-18 c -69,-10 -186,-27 -260,-37 -74,-11 -280,-40 -457,-65 -177,-25 -335,-45 -351,-45 -41,0 -51,-17 -51,-81 1,-69 -39,-195 -86,-274 -123,-206 -389,-357 -755,-429 -133,-26 -327,-52 -334,-45 -3,3 4,31 15,63 38,116 53,225 52,381 0,276 -67,496 -219,727 -31,46 -58,86 -60,91 -7,10 4,10 259,-18 z" />
        </g>
      </g>
      <g
         id="l4AfE00Ol2myUK80TwIsmjL"
         fill="#fdcf0e"
         transform="matrix(0.99909545,0,0,1.0047689,-0.03623867,0)"
         inkscape:export-filename="/home/brookmg/Desktop/amhara_bank.png"
         inkscape:export-xdpi="96.275902"
         inkscape:export-ydpi="96.275902">
        <g
           id="g830">
          <path
             id="ps75JmGzG"
             d="m 3030,5935 c 0,-8 7,-32 15,-52 7,-21 89,-245 180,-498 91,-253 183,-507 205,-565 21,-58 64,-177 95,-265 30,-88 60,-171 66,-185 6,-14 42,-110 80,-215 37,-104 97,-271 133,-370 l 64,-180 639,-6 c 701,-7 2723,-11 2723,-6 0,2 -34,98 -76,213 -41,115 -106,295 -144,399 -38,105 -103,285 -145,400 -245,677 -297,822 -324,900 -17,48 -20,50 -62,57 -58,10 -329,43 -549,68 -96,11 -206,25 -245,30 -38,5 -117,15 -175,20 -58,6 -150,17 -204,25 -55,8 -121,15 -147,15 -26,0 -49,5 -51,11 -2,6 -13,9 -25,7 -21,-3 -19,-11 49,-198 118,-329 210,-581 240,-665 17,-44 49,-134 73,-200 62,-174 181,-502 202,-557 l 18,-48 h 134 c 74,0 131,-3 128,-7 -4,-3 -105,-50 -224,-103 l -218,-96 -100,27 c -55,15 -185,51 -290,81 -104,31 -211,61 -237,68 -26,7 -45,16 -42,21 3,5 66,9 140,9 104,0 134,3 134,13 0,7 -12,42 -26,78 -14,35 -52,138 -84,229 -32,91 -94,264 -138,385 -44,121 -112,308 -151,415 -39,107 -106,292 -149,410 l -78,215 -31,-3 c -17,-2 -68,2 -114,8 -46,6 -145,17 -219,25 -74,8 -146,17 -160,20 -14,3 -77,9 -140,15 -63,6 -162,17 -220,25 -58,8 -126,17 -152,20 -27,4 -48,10 -48,16 0,5 -73,9 -175,9 -148,0 -175,-2 -175,-15 z" />
          <path
             id="pXw3l8x5p"
             d="m 3110,3164 c 0,-3 22,-30 48,-60 59,-66 161,-235 202,-333 39,-95 77,-254 90,-373 17,-156 -16,-380 -76,-517 -14,-30 -22,-56 -19,-59 8,-9 290,27 425,54 367,73 632,223 755,429 44,74 86,201 90,277 4,71 9,78 46,78 17,0 157,18 312,40 155,22 365,52 467,66 102,14 246,34 320,44 74,11 167,22 205,26 39,4 79,10 90,14 30,11 20,13 -540,70 -55,6 -201,22 -325,35 -124,13 -315,34 -425,45 -110,11 -261,27 -335,35 -74,8 -223,23 -330,35 -107,11 -238,24 -290,30 -705,76 -710,76 -710,64 z" />
        </g>
      </g>
      <g
         id="l2oM6hcXRYdujIiQgnJpZ9K"
         fill="#f6eb1e"
         transform="matrix(0.99909545,0,0,1.0047689,-0.03623867,0)"
         inkscape:export-filename="/home/brookmg/Desktop/amhara_bank.png"
         inkscape:export-xdpi="96.275902"
         inkscape:export-ydpi="96.275902">
        <g
           id="g836">
          <path
             id="pOHvUwnkW"
             d="m 4095,8403 c 4,-10 26,-72 50,-138 82,-229 185,-511 255,-705 39,-107 96,-265 126,-350 30,-85 69,-191 86,-235 17,-44 53,-143 79,-220 27,-77 58,-162 69,-190 11,-27 76,-205 144,-395 68,-190 136,-377 152,-416 l 27,-72 37,5 c 21,3 88,-2 151,-11 63,-9 159,-21 214,-26 55,-6 132,-15 170,-20 39,-5 149,-19 245,-30 409,-46 612,-74 630,-85 6,-3 -1,24 -15,62 -15,37 -85,230 -156,428 -72,198 -137,378 -145,400 -9,22 -41,110 -71,195 -30,85 -68,191 -85,234 -16,44 -54,148 -83,230 -30,83 -86,239 -125,346 -125,341 -240,660 -296,818 -29,84 -59,162 -64,172 -10,20 -27,20 -706,20 -659,0 -696,-1 -689,-17 z" />
          <path
             id="peKYje7yP"
             d="m 3268,5942 c -49,-1 -88,-7 -88,-12 0,-12 21,-16 165,-30 66,-6 161,-18 210,-25 50,-8 146,-19 215,-25 69,-6 134,-13 145,-16 11,-2 81,-11 155,-19 74,-8 193,-21 264,-30 71,-8 131,-13 135,-10 5,6 -37,143 -48,157 -6,7 -989,16 -1153,10 z" />
          <path
             id="p17WdeHRSd"
             d="m 5980,2860 c 0,-6 25,-9 58,-9 56,1 57,1 17,10 -55,11 -75,11 -75,-1 z" />
        </g>
      </g>
    </g>
  </g>
</svg>
