<?xml version="1.0" encoding="UTF-8" standalone="no"?>
<!-- Created with Inkscape (http://www.inkscape.org/) -->

<svg
   width="512"
   height="512"
   viewBox="0 0 135.46667 135.46667"
   version="1.1"
   id="svg1321"
   inkscape:version="1.1.2 (0a00cf5339, 2022-02-04)"
   sodipodi:docname="dashne_icon.svg"
   xmlns:inkscape="http://www.inkscape.org/namespaces/inkscape"
   xmlns:sodipodi="http://sodipodi.sourceforge.net/DTD/sodipodi-0.dtd"
   xmlns="http://www.w3.org/2000/svg"
   xmlns:svg="http://www.w3.org/2000/svg">
  <sodipodi:namedview
     id="namedview1323"
     pagecolor="#ffffff"
     bordercolor="#999999"
     borderopacity="1"
     inkscape:pageshadow="0"
     inkscape:pageopacity="0"
     inkscape:pagecheckerboard="0"
     inkscape:document-units="mm"
     showgrid="false"
     units="px"
     inkscape:zoom="1.2672786"
     inkscape:cx="369.68981"
     inkscape:cy="256.45505"
     inkscape:window-width="1920"
     inkscape:window-height="1043"
     inkscape:window-x="0"
     inkscape:window-y="0"
     inkscape:window-maximized="1"
     inkscape:current-layer="layer1" />
  <defs
     id="defs1318" />
  <g
     inkscape:label="Layer 1"
     inkscape:groupmode="layer"
     id="layer1">
    <path
       style="fill:#172169;stroke:none;stroke-width:0.170132"
       d="m 67.937127,53.361773 c -15.924913,0 -31.910414,-0.05186 -47.827154,0.337572 -2.946391,0.0721 -5.903164,0.0026 -8.850576,0.0026 -1.2821414,0 -2.8366092,-0.237406 -4.084881,0.07126 -1.7959865,0.444024 -5.1345259,2.754299 -6.41360387,4.098286 -0.93441764,0.98176 -0.39453195,3.896598 -0.39453195,5.183785 0,4.81815 0.17020305,9.630523 0.17020305,14.45514 V 135.33095 H 135.33766 V 3.5340457 c -12.62977,0 -25.34702,-0.3882478 -37.955349,0.1634283 -3.220925,0.1408105 -6.477433,0.00666 -9.701595,0.00666 -1.311588,0 -2.989792,-0.2771987 -4.255083,0.08673 -1.550383,0.4460682 -3.058894,1.9233845 -4.42529,2.7716464 -3.79315,2.3546562 -7.51703,4.8708726 -11.233424,7.3452526 -3.955013,2.633216 -7.960069,5.188886 -11.914234,7.822783 -0.860547,0.573274 -3.762858,1.817436 -3.910935,2.906844 -0.09293,0.683133 0.724045,1.627309 1.041302,2.194971 1.015264,1.817266 2.033255,3.634193 3.065366,5.441936 3.999948,7.005812 7.817099,14.124035 11.888709,21.087502 M 37.811125,3.8741672 V 39.586872 h -0.170203 c -1.778796,-3.354953 -6.992296,-3.512089 -9.871797,-1.708938 -3.600993,2.255172 -4.548515,7.582998 -1.81624,10.892205 0.822252,0.995875 1.802284,1.80094 3.007664,2.27609 1.384434,0.545724 2.798484,0.643849 4.255084,0.42209 1.894705,-0.288593 3.275394,-1.382761 4.595492,-2.69818 0,0.677012 -0.204073,4.004246 1.429198,2.716206 0.565075,-0.445728 0.272836,-2.073377 0.272836,-2.716206 V 40.777295 13.907736 c 0,-3.09408 0.934416,-7.7755052 -1.702034,-10.0335688 m -1.361627,4.4215723 c -1.104619,3.8605445 -3.231141,7.7302715 -4.883816,11.3940545 -0.675197,1.496531 -1.147851,3.62586 -2.213495,4.884477 -1.075344,1.270181 -3.39811,0.908294 -4.513113,2.13528 -1.48162,1.63054 -2.506415,4.01734 -3.639799,5.90484 -2.252642,3.751365 -4.555664,7.472799 -6.808136,11.223993 -1.40639,2.341903 -3.881999,5.159807 -4.4933696,7.822784 H 27.428718 c -1.718713,-2.109601 -3.551123,-3.377912 -4.010161,-6.292239 -0.753831,-4.785673 3.1634,-9.346694 7.924839,-9.678313 1.970615,-0.137239 3.497,0.699289 5.276305,1.345349 v -20.2372 c 0,-2.387309 0.749917,-6.312135 -0.170203,-8.5030255 M 41.04499,9.6562243 V 51.661168 h 1.531829 V 48.9402 c 1.49643,1.052164 2.545052,2.153476 4.425289,2.506522 1.162659,0.218358 2.246685,0.195739 3.404068,-0.07109 7.977604,-1.839545 6.854088,-13.393285 -0.851018,-14.605135 -1.127427,-0.177374 -2.31902,-0.03997 -3.404068,0.302877 -1.399241,0.441987 -2.541475,1.332934 -3.574271,2.343434 V 18.159249 c 0,-2.808889 0.664816,-6.331692 -1.531829,-8.5030247 m 2.723254,4.9317537 v 22.447987 c 2.470502,-1.027676 4.640595,-1.805192 7.318745,-0.931932 7.373381,2.403975 7.373548,11.312764 1.702034,15.387075 v 0.17006 H 64.022447 L 59.649752,43.328204 50.628972,26.832334 45.88285,18.159249 43.768244,14.587978 M 31.513599,38.277577 c 7.120289,-0.699969 8.528893,10.782686 1.361628,11.651694 -7.988325,0.968325 -9.407141,-10.860914 -1.361628,-11.651694 m 16.679933,0 c 7.104291,-0.69844 8.495363,10.786767 1.361626,11.651694 -7.996154,0.969345 -9.409353,-10.860574 -1.361626,-11.651694 M 25.726685,82.9523 v 0.170059 c 1.141384,0 2.46897,-0.185021 3.574271,0.13418 4.235341,1.223246 1.533702,7.802206 1.53183,10.749698 l -2.382847,0.340109 c -0.409169,-2.477432 1.462387,-5.47067 0.578181,-7.821927 -0.557076,-1.481053 -2.74487,-1.007096 -3.982249,-1.021893 -1.074664,-0.01272 -2.467267,-0.820879 -3.452575,-0.601843 -2.416378,0.537049 -4.297466,2.714847 -6.759628,3.153433 L 13.812448,86.013389 19.93977,82.9523 c -0.638774,-1.65435 -1.041985,-3.147988 -1.02054,-4.931756 0.01549,-1.294328 0.437763,-2.465364 1.097642,-3.57127 0.627369,-1.051486 1.423241,-1.924402 2.475948,-2.563319 6.362373,-3.861735 12.424678,4.252358 6.635379,9.116601 -0.989221,0.831426 -2.153753,1.590577 -3.401514,1.949744 M 56.533496,71.048067 v 2.550908 h -7.318744 v 2.380843 c 9.034053,1.165598 6.637933,11.637923 6.637933,18.19648 l -2.38285,-0.170061 v -8.503028 c 0,-1.343987 0.264159,-3.00429 -0.326791,-4.251511 -1.737945,-3.669059 -7.651321,-3.785377 -9.653423,-0.340123 -0.827699,1.424594 -0.572394,3.179451 -0.572394,4.761691 0,2.786784 -0.170203,5.546186 -0.170203,8.332971 h -2.382848 c 0,-4.194886 -1.035688,-10.028811 0.660389,-13.944967 0.63605,-1.468641 1.82424,-2.580834 3.254288,-3.26754 0.641668,-0.30832 1.977084,-0.427022 2.378082,-1.03737 0.357598,-0.544023 0.17497,-1.534286 0.17497,-2.157385 h -7.318746 v -2.550908 h 17.020337 m 11.744033,6.462295 v 0.170065 c 1.883646,0.14863 5.20908,-0.571744 6.518281,1.208277 0.757235,1.029548 0.489678,2.605156 0.106203,3.723474 -0.967093,2.821471 -2.610239,5.499245 -3.943274,8.162904 -0.425843,0.851152 -1.02207,2.930655 -1.896574,3.378596 -0.607966,0.311377 -1.590383,-0.426349 -2.146261,-0.65762 0.9242,-3.205647 3.059743,-6.368432 4.553445,-9.353336 0.384494,-0.768335 1.705609,-2.6373 1.212869,-3.517189 -0.333088,-0.594871 -1.461364,-0.39335 -2.021842,-0.394199 -1.422221,-0.0019 -4.220532,0.02944 -4.69183,-1.701289 -0.570347,-2.095483 2.385911,-4.441128 4.181219,-4.761012 V 73.598975 L 60.107763,73.42891 v -2.380843 c 3.303988,0 7.758213,-0.774286 10.892848,0.357972 3.813581,1.377495 -0.918925,5.326296 -2.723085,6.104323 m -46.125115,4.251517 c 1.21406,-0.288087 2.465054,-0.83466 3.574271,-1.404533 0.725746,-0.372943 1.405368,-0.821395 1.993251,-1.391094 1.668845,-1.617785 2.128054,-4.752514 -0.631625,-5.547716 -2.074098,-0.597588 -4.20113,0.744354 -5.136567,2.561282 -0.44236,0.859316 -0.667028,1.756046 -0.647795,2.720973 0.02145,1.068144 0.353172,2.122014 0.848465,3.061088 m 72.676854,12.584467 h -1.531841 v -8.67308 c 0,-1.579348 0.163229,-2.963133 -1.361796,-3.912242 -1.652164,-1.028526 -4.112112,-0.510522 -4.896924,1.361335 -0.349254,0.83313 -0.0046,1.88036 -0.466693,2.666718 -0.25599,0.435867 -0.93408,0.447089 -1.171511,-0.01954 -0.241182,-0.474129 -0.113699,-1.280387 -0.100088,-1.796861 0.10604,-4.059007 5.251627,-5.515746 8.164666,-3.164828 1.47515,1.190768 1.364176,2.811271 1.364176,4.525314 v 9.013192 m 8.510166,-10.20362 v 0.170065 c 1.12471,0 2.92613,-0.331279 3.84762,0.459668 0.80438,0.690447 0.58925,1.904682 0.24968,2.771479 -0.94428,2.411624 -2.28072,4.906919 -3.58669,7.14254 l -1.36163,-0.680242 c 1.07654,-2.583729 3.45752,-5.360305 3.74447,-8.1629 -1.18172,0 -2.85993,0.23468 -3.87587,-0.511544 -1.66067,-1.220015 1.12437,-3.180133 2.17384,-3.569908 v -0.170065 h -6.297526 v -1.530549 c 1.981336,0 4.177316,-0.263764 6.127326,0.105273 2.10474,0.398111 1.64434,1.936986 0.33972,3.094422 -0.41751,0.37039 -0.86037,0.643847 -1.36094,0.88176 m 18.55216,10.203621 h -1.53182 v -6.462286 c 0,-0.951832 0.20764,-2.19055 -0.26773,-3.054289 -1.28844,-2.341564 -5.22508,-1.690061 -6.0298,0.673441 0.33871,0.0032 0.6883,-0.01177 1.02191,0.05849 3.13838,0.660173 -1.0277,4.009001 -1.59226,5.043311 -0.64745,1.185992 -0.62107,2.433571 -0.62107,3.741321 h -1.53184 c 0,-2.804457 0.46568,-5.707732 3.23387,-7.142532 v -0.170059 c -0.28934,-0.01241 -0.56882,-0.02655 -0.85509,-0.07482 -2.33077,-0.392841 -0.66551,-1.948042 -0.81324,-3.326384 -0.10395,-0.971044 -0.9688,-2.192421 -1.22512,-3.231147 2.0952,-0.617662 1.26903,1.582074 2.89414,1.874235 1.65999,0.29846 3.13548,-0.743332 4.93521,-0.01529 3.84677,1.555881 2.38284,8.74213 2.38284,12.086029 m -72.33643,7.992836 v 6.4623 c 1.951723,-1.9324 5.608031,-2.61672 6.706181,0.68024 0.819531,2.45993 0.272157,5.76148 0.272157,8.33296 h -1.872234 c 0,-2.28986 0.939691,-7.28607 -1.364183,-8.69723 -1.287929,-0.78874 -2.814653,0.17482 -3.393003,1.3848 -0.941226,1.96879 -0.348918,5.16917 -0.348918,7.31243 h -2.04244 v -15.4755 h 2.04244 m -35.912914,15.4755 v -14.45514 c 2.893287,0 6.306035,-0.30168 8.850576,1.3547 3.645076,2.37268 3.669585,9.0894 0.170034,11.60578 -2.616026,1.88121 -5.981798,1.49466 -9.02061,1.49466 m 2.04244,-12.75454 v 11.05394 c 1.811475,0 3.717413,0.15646 5.276136,-0.9588 2.696362,-1.92917 2.947242,-7.13166 0.169693,-9.13634 -1.576935,-1.13821 -3.609674,-0.9588 -5.445829,-0.9588 m 100.930614,0.68025 v 7.14253 c 1.44043,-1.43938 2.59883,-3.22944 4.76569,-3.23114 -0.64218,1.37578 -2.15274,2.57421 -3.40408,3.40121 v 0.17006 c 1.35074,1.16746 3.16035,2.973 3.91468,4.59163 -2.69006,0 -3.55912,-2.28851 -5.27629,-4.08145 v 4.08145 h -1.53184 v -12.07429 h 1.53184 m -23.828481,6.12217 v 0.17007 c 2.28992,0.41443 3.091061,3.55051 1.183931,4.99331 -1.622035,1.22717 -4.215936,0.78874 -6.119824,0.78874 v -7.65272 c 0,-0.87565 -0.289693,-2.38051 0.102624,-3.17707 0.264669,-0.53722 1.109899,-0.39403 1.599403,-0.3942 1.369798,-6.5e-4 3.08732,-0.0914 4.223599,0.81629 1.671909,1.33582 0.906504,3.89252 -0.989738,4.45558 m -57.188335,5.95212 h -1.702034 v -1.53054 c -1.446559,1.21253 -2.969709,2.16555 -4.935899,1.48819 -2.35987,-0.81288 -2.638493,-4.0493 -0.67826,-5.45927 1.496768,-1.07649 3.696476,-0.96068 5.443955,-0.96068 -0.440996,-3.25359 -3.135146,-2.83065 -5.446508,-1.87066 0,-0.46613 -0.124249,-1.18447 0.174968,-1.58105 1.217295,-1.61336 5.326516,-0.80405 6.354374,0.56749 1.653526,2.2067 0.789404,6.73115 0.789404,9.34652 m 32.679048,-4.76169 h -7.488945 c 1.024282,3.94387 3.405936,3.44678 6.637932,2.89103 -0.0019,2.51128 -3.12579,2.48492 -5.106101,1.90655 -2.309496,-0.67429 -3.487473,-3.20071 -3.386367,-5.47783 0.164585,-3.70459 4.449453,-7.28998 7.795826,-4.21511 1.339841,1.23106 1.546465,3.18115 1.547655,4.89536 m 9.190983,4.76169 c 0,-2.17236 0.84234,-6.5941 -0.747874,-8.2947 -1.194317,-1.27766 -3.062464,-0.52276 -3.832469,0.81221 -1.13781,1.97253 -0.525759,5.28412 -0.525759,7.48249 h -1.872232 v -10.37368 h 1.702031 v 1.7006 c 0.499546,-0.6112 0.983433,-1.19485 1.702032,-1.55793 0.472656,-0.23876 1.007435,-0.37022 1.531831,-0.43297 4.098325,-0.48977 4.084881,4.09982 4.084881,6.92265 0,0.83279 0.361514,2.79205 -0.174968,3.46873 -0.36066,0.4549 -1.356348,0.2726 -1.867473,0.2726 M 44.619248,107.61109 v 1.53054 c -1.076537,-0.15816 -3.89136,-1.27256 -4.297296,0.51749 -0.189776,0.83653 0.982925,1.48276 1.574041,1.81029 1.49762,0.82956 3.500064,1.69976 3.151657,3.79439 -0.512994,3.08422 -6.89579,4.13452 -6.896131,0.51018 1.018327,0.41512 5.627945,1.50164 4.636681,-1.18362 -0.587372,-1.59108 -3.241183,-1.77798 -4.169983,-3.2405 -2.476971,-3.90033 3.919273,-4.1306 6.001031,-3.73877 m 44.763493,3.74132 c 0.671278,0 1.376432,0.06 2.042441,-0.0321 0.364912,-0.0505 0.710088,-0.16497 1.002667,-0.3954 2.324132,-1.82951 -1.754459,-4.2777 -2.87014,-2.87114 -0.519121,0.65458 -0.174968,2.49123 -0.174968,3.29867 m -28.423968,0.51018 c 1.135765,0 4.286572,0.55389 5.171119,-0.17482 0.758598,-0.62497 -0.410701,-2.24751 -0.923351,-2.6424 -2.110185,-1.6256 -4.204366,0.77751 -4.247768,2.81722 m 42.210437,5.95212 h -1.36161 v -1.19042 c -1.15909,1.09791 -2.70725,1.80196 -4.247766,0.94519 -1.581023,-0.87938 -1.270565,-3.32824 0.163573,-4.16121 1.162479,-0.67547 2.626743,-0.52532 3.913993,-0.52532 -0.23641,-2.60294 -2.443956,-2.22863 -4.255089,-1.53054 0.02795,-2.34802 3.919099,-2.41299 5.130949,-0.81884 1.31755,1.73343 0.65597,5.22835 0.65597,7.28114 m 9.53139,0 h -1.53184 c 0,-1.7705 0.67384,-5.30045 -0.86956,-6.55855 -1.03347,-0.84265 -2.27153,-0.0882 -2.79729,0.94673 -0.80064,1.57612 -0.41802,3.90102 -0.41802,5.61182 h -1.36164 v -8.1629 c 1.07246,0.0127 1.34887,0.28893 1.36164,1.36048 1.32434,-1.69585 4.31175,-2.26028 5.27784,0.17075 0.77084,1.93936 0.33887,4.58295 0.33887,6.63167 M 33.726244,112.7129 c -0.787531,0 -1.599061,-0.0556 -2.382848,0.0296 -0.404233,0.0439 -0.819359,0.13656 -1.190742,0.30543 -2.914733,1.32494 0.139736,5.044 2.534499,2.85735 0.346704,-0.31647 0.606604,-0.7105 0.764552,-1.15164 0.23369,-0.65338 0.268922,-1.35487 0.274539,-2.04073 m 55.65651,0 c 0,0.87258 -0.382788,2.93508 0.174968,3.63878 0.326109,0.41138 1.083684,0.26377 1.527063,0.19983 2.154772,-0.31105 3.517258,-3.35444 0.680813,-3.80222 -0.76983,-0.12158 -1.604678,-0.0363 -2.382844,-0.0363 m 12.254646,1.19042 c -0.6187,0 -1.25628,-0.0435 -1.872235,0.0179 -3.968976,0.39607 0.179395,5.24483 1.700495,1.51252 0.19778,-0.48536 0.17021,-1.01696 0.17174,-1.53038 z"
       id="path1099" />
  </g>
</svg>
