<?xml version="1.0" encoding="UTF-8"?>
<!-- Created with Inkscape (http://www.inkscape.org/) -->
<svg width="512" height="512" version="1.1" viewBox="0 0 135.47 135.47" xmlns="http://www.w3.org/2000/svg">
 <g transform="matrix(.026458 0 0 .026458 32.392 77.89)">
  <g id="l3Oh9g5of7HHlLT1g73VZSh" fill="#fff"></g>
  <g id="lZwgWWPGrAVF48Er5FhKar" transform="matrix(1.5681 0 0 1.5681 -1988.8 -3430.3)" fill="#f0a837">
   <path id="pq6O3Cdju" d="m2180 2446c0-26 5-36 20-41 11-3 20-15 20-26 0-12 7-19 20-19 15 0 20-7 20-24 0-16 7-27 20-31 11-3 23-17 26-31 3-13 10-24 15-24s14-11 19-25 17-28 26-32c8-3 19-14 23-25s38-55 77-98c65-74 71-79 112-79 42-1 42-1 42 35 0 39-37 111-60 117-9 2-30 32-48 65-25 46-39 62-54 62-13 0-42 22-73 55-29 30-60 55-69 55-10 0-16 9-16 25 0 15-6 25-14 25s-16 10-18 23c-2 18-10 23-45 25-43 3-43 3-43-32z"/>
   <path id="pkzry4PbW" d="m961 1699c-24-5-63-16-87-25-40-15-44-20-44-50 0-42 8-43 138-13 115 27 142 20 142-36 0-28 8-44 38-74 36-36 42-38 121-45 45-4 107-14 137-22s69-14 86-14h31l-7 63c-6 53-12 67-44 100-20 21-69 54-108 73-57 29-88 37-165 44-112 11-178 11-238-1z"/>
   <path id="pB5FH3mwP" d="m716 1574c-3-9-6-29-6-45 0-24 4-29 25-29 14 0 25 5 25 10 0 6 7 10 15 10 10 0 15 11 15 35 0 33-2 35-34 35-22 0-36-6-40-16z"/>
  </g>
  <g id="l5Pg01Yn7rE070dtlVq1HtQ" transform="matrix(1.5681 0 0 1.5681 -1988.8 -3430.3)" fill="#ffcb00">
   <path id="pJeSOfTmV" d="m1001 3534c-99-27-202-121-254-233l-31-66-4-882-4-883h21c13 0 21 6 21 18 1 20 101 91 175 123 31 13 80 24 128 27 49 3 74 8 65 13-20 13-96 10-167-6-80-19-90-14-17 9 67 21 135 26 245 15 101-9 204-55 265-118 37-38 39-42 26-65-10-20-18-24-41-19-25 5-29 2-29-16 0-15 6-21 23-21 38 0 206-73 287-125 79-50 213-154 242-187 16-18 19-18 24-4 14 36-25 64 687-502 154-123 301-234 326-246 149-75 288-53 417 67 70 65 107 128 124 212 25 121-10 222-127 365-38 47-218 268-400 491-182 224-336 415-341 425-8 14-7 23 4 35 14 15 13 19-8 41-13 13-30 34-38 46s-20 22-26 22-17 7-24 15-20 14-29 14c-12-1-11-2 3-6 15-4 16-7 5-14s-11-9 3-9c10 0 22-9 28-19 14-27 13-31-7-31-15 0-16 2-3 10s13 10-2 10c-18 0-148 137-148 156 0 6-11 19-25 28s-23 21-20 26-5 16-17 24c-12 9-19 16-14 16 4 0 21-11 38-25 16-14 37-25 46-25 15 1 15 2 0 11-10 5-18 15-18 20 0 13-50 81-67 92-7 4-13 14-13 22s-9 20-20 27-20 18-20 25-9 17-20 23-20 15-20 21c0 5-55 77-122 160-68 83-130 162-139 176-10 15-19 21-23 14-4-6-13-11-21-11-7 0-126 138-264 308-247 303-282 342-351 377-87 45-224 57-329 29z"/>
   <path id="pMp4p9umB" d="m2506 2135c9-14 21-25 27-25s0 11-13 25-25 25-27 25 4-11 13-25z"/>
  </g>
  <g id="l6gvxYWuwKW0qmSb1uPj9OT" transform="matrix(1.5681 0 0 1.5681 -1988.8 -3430.3)" fill="#e89725">
   <path id="pjsZgha0q" d="m2206 2478c6-7 50-62 98-121 66-81 95-109 117-114 23-4 36-18 61-66 18-33 41-62 51-65 15-4 16-7 5-13-10-6-8-9 7-9 17 0 17-2 5-10-13-8-13-10 2-10 9 0 22-8 28-17 9-14 10-4 5 42-4 44-18 83-55 154-28 51-55 111-61 133-7 27-18 42-35 48-13 5-24 14-24 20 0 7-15 10-37 8-28-2-41-9-48-25-11-26-25-30-25-8 0 8-6 15-14 15s-16 10-18 23c-2 17-11 23-37 25-28 3-33 1-25-10z"/>
   <path id="pafYqvNLe" d="m919 1637c-67-17-99-32-143-66-31-24-56-47-56-51 0-5-3-15-6-24-4-12 0-16 15-16 24 0 61 33 61 55 0 8 8 15 19 15 10 0 35 7 54 15 20 8 49 15 65 15 28 0 30-3 34-48 3-31 12-56 25-69 20-20 29-21 187-16 122 5 166 9 166 18 0 15-32 25-83 25-32 0-46 7-80 42-24 25-36 43-29 46 7 2 12 14 12 28 0 55-97 68-241 31z"/>
  </g>
  <g id="l89pTbh6ehecbtlkw0KVXd" transform="matrix(1.5681 0 0 1.5681 -1988.8 -3430.3)" fill="#e38620">
   <path id="pMnaXk4OV" d="m1974 2837c-31-27-28-57 5-57 22 0 41 27 41 59 0 27-13 26-46-2z"/>
   <path id="pVjoLP2uD" d="m2047 2676c10-18 211-263 240-293 23-24 43-30 43-13 0 6 7 10 15 10s12 6 9 13c-3 8 2 20 11 27 10 9 15 9 15 1 0-6 11-16 25-21s25-14 25-20c0-5 5-10 10-10 25 0-9 137-40 160-4 3-19 37-35 75-15 39-31 74-35 79-5 5-52 3-110-4-77-10-103-11-112-2-7 7-25 12-40 12-22 0-27-3-21-14z"/>
   <path id="p7shaymUW" d="m2439 2331c7-5 10-14 7-20-4-6-2-11 5-11s10-3 7-6c-6-5 27-44 37-44 7 0 6 55-1 74-4 10-18 16-38 16-21 0-27-3-17-9z"/>
   <path id="pFspzIfMW" d="m2550 2114c0-19 31-74 42-74 9 0 11 51 2 74-8 21-44 21-44 0z"/>
   <path id="pHF8w5EPV" d="m900 1613c-14-2-41-9-60-16-19-6-39-11-43-12-4 0-26-20-47-44l-40-44v-114c0-113 0-113 24-113 14 0 33 10 44 24 11 15 34 27 58 32 21 4 77 24 122 46 46 21 113 47 148 56 50 13 64 21 64 36 0 17-6 18-70 14-62-5-70-3-75 13-4 11-11 16-17 13-7-5-9-1-5 9 3 10 2 17-4 17s-8 14-5 34 1 38-5 41c-14 9-59 13-89 8z"/>
  </g>
  <g id="l2ALMNHOwKjTJEATa32STJQ" transform="matrix(1.5681 0 0 1.5681 -1988.8 -3430.3)" fill="#e27b1a">
   <path d="m3140 3541c0-12 6-21 15-21 8 0 15-4 15-10 0-5 16-10 35-10s35-4 35-10c0-5 9-10 20-10s20-4 20-10c0-5 20-10 45-10 108 0-6 78-142 97-39 5-43 4-43-16z"/>
   <path id="p1EOYCe0Ik" d="m3047 3543c-33-9-15-38 26-41 34-3 37-1 37 22 0 27-16 31-63 19z"/>
   <path id="pzXB2uwkG" d="m2155 2959c-88-60-166-117-173-127-7-9-18-16-23-14-21 5-6-30 32-75 112-131 106-125 125-114 11 5 55 13 99 17 44 3 82 7 84 8 2 0 18-33 34-74 17-41 34-77 39-78 4-2 6-8 2-13-3-5-1-9 5-9s8-7 5-15c-4-8-1-15 7-15 7 0 10-3 7-6-6-5 27-44 37-44 15 0 0 68-34 156-46 120-115 397-105 427 4 12 11 25 16 28s8 18 6 32c-3 24-9 21-163-84z"/>
   <path id="pzlBagvcl" d="m2438 2353c-3-18 19-53 34-53 5 0 8 16 8 35 0 28-4 35-19 35-11 0-21-8-23-17z"/>
   <path id="pkIxp7IAw" d="m1077 1459c-37-10-105-37-150-58-85-40-132-53-132-36 0 6 5 9 12 7 8-2 10 3 7 13-3 8-10 12-16 9-5-3-16 2-23 12-13 17-14 16-15-18 0-21 1-40 3-42 1-2-7-14-18-26l-20-22-6 24c-4 14-7-1-8-39-1-57 1-63 19-63 11 0 40 15 64 34 121 92 288 175 354 176 17 0 22 6 22 25 0 29-4 30-93 4z"/>
   <path id="puV6sHoCQ" d="m1330 1455c0-23 4-25 45-25 37 0 45 3 45 19 0 19-25 31-67 31-18 0-23-6-23-25z"/>
   <path id="p19DSRTdkt" d="m1550 1396c0-35 15-46 68-46 15 0 26-7 29-20 4-16 14-20 49-20 29 0 44 4 44 13 0 16-70 60-137 86l-53 21z"/>
  </g>
  <g transform="matrix(1.5681 0 0 1.5681 -1988.8 -3430.3)" fill="#d65e01">
   <path id="pEyJGnxEQ" d="m3103 3553c-13-2-23-7-23-11s-15-7-34-8c-39-1-49-7-465-288-197-133-312-217-315-230-11-42-5-91 30-239 22-92 61-215 100-312 73-187 214-484 237-504 20-16-30-73 418 479 434 535 443 546 464 610 23 71 22 171-3 243-36 101-128 203-179 199-16-1-21 2-16 14 4 12 0 14-21 8-20-5-26-3-26 11s-6 16-34 11c-21-4-36-2-38 4-4 12-63 20-95 13z"/>
   <path id="pu5nq72br" d="m1140 1469c0-6-7-8-16-5-9 4-22 2-29-4s-17-10-21-9c-5 1-20-2-34-8s-42-18-63-26c-46-20-220-132-239-154-11-14-14-11-19 23-3 21-7-91-8-251 0-160 4-319 10-354 45-283 350-433 610-301 68 35 118 90 361 389 127 157 247 303 265 324 18 20 33 41 33 45 0 10-165 143-225 181-29 19-53 27-67 23-15-4-19-2-14 7 10 15-23 42-42 36-22-8-61 6-56 19 7 18-127 61-183 60-24-1-43 3-43 8 0 4-49 8-110 8-74 0-110-4-110-11z"/>
  </g>
 </g>
</svg>
