<svg viewBox="0 0 132.292 127" xmlns="http://www.w3.org/2000/svg" xmlns:xlink="http://www.w3.org/1999/xlink"><defs><path d="M377.36 158.51l-3.97 5.15" id="b"/><path d="M373.22 144.19l.19 21.59" id="a"/><path d="M377.56 152.2l-4.2 5.16" id="g"/><path d="M375.76 144.31l-2.51 2.4" id="f"/><path d="M0-96l-4.21 12.94 17.34 53.39H-10l-2.6 8h74.16l11.01-8H21.53Z" id="k"/><path d="M370.42 150.14l2.93 5.96" id="j"/><path d="M369.21 155.33l4.17 4.19" id="i"/><path d="M369.42 151.93l3.88 4.54" id="h"/><path d="M369.75 146.6l3.6 4.43" id="d"/><path d="M377.69 155.44l-4.31 5.04" id="c"/><path d="M0 44v52" id="l"/><path d="M376.73 147.53l-3.44 3.63" id="e"/></defs><g transform="translate(-.14583 0)"><g transform="translate(-28.8412-47.9213)"><path fill="#DA121A" d="M94.98 48.48a65.48 62.89 0 1 0 0 125.78 65.48 62.89 0 1 0 0-125.79Z"/><g stroke-width="1.664" fill="#60C1EE" stroke="#000"><path d="M94.98 50.28a63.6 61.08 0 1 0 0 122.17 63.6 61.08 0 1 0 0-122.18Z"/><path fill="#326331" stroke-width=".245" d="M43.97 135.54c1.04 4.07 7.36 5.99 9.23 6.65 3.9 1.46 2.71-3.01 1.12-4.2 -3.41-2.17-6.85-3.14-9.97-3.14 -.34 0-.52.26-.42.58Z"/><path fill="#CAC9CE" stroke-width=".259" d="M56.75 71.33c-5.89 4.33-12 10.14-16.7 16.29 -.13.15-.07.22.11.14l8.99-3.82 -.71 9.65c-.02.21.07.24.2.07 4.93-6.34 11.85-12.02 18.83-16 -3.4-2.09-7.36-4.29-10.75-6.37Zm75.91.63l-10.69 5.98c5.88 3.43 12.1 8.02 16.37 13.38 .74.93 1.45 1.9 2.11 2.9 .06.09.11.08.1-.04l-1.24-10.5 9.87 4.28c.1.04.14-.01.07-.1 -4.59-6.06-10.06-11.51-16.26-15.92 -.1-.07-.26-.08-.36-.01Z"/><g fill="#F4CF49" stroke-width=".218"><path d="M134.46 84.2l4.93 8.85 2.86 3.46 -1.7-4.47v0c-.07-.18-.16-.34-.26-.5l-5.34-7.68v0c-.1-.14-.29-.17-.42-.08 -.13.08-.17.25-.1.39Z"/><path d="M137.56 79.52l2.11 4.23 3.15 5.61 2.59 2.42c-.78-1.15-1.2-1.94-1.2-1.94l-3.92-6.73 -2.26-3.94c-.22-.32-.69-.02-.5.32Z"/><path d="M137.87 77.83l5.13 9.91 2.57 2.45c-.76-1.15-2.07-3.71-2.07-3.71 -1.36-2.84-5.17-8.98-5.17-8.98 -.22-.32-.67-.02-.49.31Z"/><path d="M139.78 79.2l4.96 10 2.52 2.49 -1.35-3.66c-.07-.18-1.35-1.85-1.45-2.01 -2.59-5.41-4.21-7.16-4.21-7.16 -.3-.32-.65-.07-.49.3Z"/></g><g fill="#5D5F5C" stroke-width=".272"><path d="M121.88 68.96c-.42 2-1.06 7.19-.51 8.88 .17.54.31.61 3.2.82 2.89.21 9.89 1.26 9.92 1.12 .02-.14-.47-5.01-.47-5.01v-5.5Z"/><path d="M67.49 68.79c.41 2 1.05 7.19.5 8.88 -.18.54-.32.61-3.21.82 -2.9.21-9.51 1.06-9.53.92 -.03-.14.98-4.8.98-4.8v-5.5Z"/></g><path fill="#CAC9CE" stroke-width=".259" d="M94.19 52.47c-14.76.08-28.45 5.56-40.04 14.4 -.16.12-.29.38-.29.58V80.6c0 .19.11.24.25.1 1.2-1.18 2.73-2.39 4.63-3.7 1.35-.98 3.31-2.14 4.77-2.99 .17-.11.45-.27.62-.37 8.1-4.62 18.56-8.31 30.02-8.38 .19-.01.52-.01.72 0 11.46.07 21.92 3.75 30.02 8.37 .17.09.45.26.62.36 4.31 2.52 7.27 5 9.35 6.91 .14.13.26.08.26-.12V67.61c0-.2-.13-.46-.29-.59 -11.59-8.84-25.24-14.53-40-14.63 -.2-.01-.53-.01-.73-.01Z"/><path fill="#355636" stroke-width=".13" d="M53.28 80.03c-1.91 1.89-4.7 4.84-7.25 8.21 -1.56 3.21 1.41 1.56 1.41 1.56l2.52-3.75s2.33-3.25 3.81-5.64c.65-1.06.36-1.28-.52-.4Z"/></g><g transform="translate(46.2703 54.1835) scale(.51562)"><g transform="translate(-350.527 0)"><g stroke-width=".264" fill="none" stroke="#609852"><path d="M349.67 160.19l14.37 6.11"/><path d="M358.42 167.02l5.21-.94"/><path d="M358.3 161.39l2.74 3.62"/><path d="M355.37 165.68l5.37-.8"/><path d="M350.54 163.1l4.89-.49"/><path d="M353.41 159.18l2.29 3.55"/><path d="M350.37 158.47l1.28 2.56"/></g></g><path fill="none" stroke="#609852" stroke-width=".264" d="M10.51 162.48l2.77 3.73"/></g><path fill="#355636" stroke="#000" stroke-width=".14" d="M48.3 76.53c-.51 2.76-1.13 6.95-1.26 11.35 .65 3.66 2.26.47 2.26.47l-.13-4.71s.02-4.17-.18-7.1c-.09-1.3-.49-1.31-.72-.03Z"/><path fill="#FFF" d="M57.84 82.32l4.05.42 52.66 46.89 -1.04 1.7 -.78.78 -.95.22Z"/><g transform="translate(-134.384 54.1835) scale(.51562)"><g stroke-width=".475" fill="#6A6B6F" stroke="#000"><path d="M365.7-306.87c0 .11-.1.22-.21.2l-8.35-1.05c-.12-.02-.21-.1-.21-.21l-.04-2.58c-.01-.13.01-.17.08-.26l8.41-11.39 .29 15.25Z" transform="matrix(.63414.77321-.77322.63414 0 0)"/><path d="M476.26 97.45c-.09.07-.11.21-.02.29l6.36 5.49c.08.07.2.09.29.01l1.93-1.7c.09-.09.1-.13.13-.24l2.8-13.88 -11.52 10Z"/><g stroke-width=".476"><path d="M393.36 154.92l13.62-12.08s-7.95-1-10.55-1.26c-.11-.01-.37.09-.45.15l-8.5 7.36c-.18.16-.2.43-.05.62l3.67 4.6c.07.09.18.15.3.18Z"/><path d="M400.04 164.19l14.74-13.03 -1.13 7.29c-.21 1.32-.24 2.66-.1 3.99 0 .1-.04.19-.12.26l-8.5 7.62c-.18.16-.46.15-.63-.03l-3.98-4.13c-.09-.09-.14-.21-.15-.33 0 0-.28-1.4-.17-1.69Z"/></g></g><path fill="#6A6B6F" d="M515.02 55.71c-.02-.01-.04 0-.06 0 -1.51.08-7.27 3.61-13.16 7.33 -.37.23-.74.46-1.11.69l0 0c-5.13 3.23-10.22 6.46-12.12 7.99 -1.55 1.24-4.55 3.81-4.55 3.81l-28.88 24.61 -37.9 33.48 -10.32 9.19 -13.61 12.06 -.49.42 -.36.78 -1.89 1.47 -.4.6c-2.02.94-3.31 3.01-3.31 5.29 0 3.21 2.53 5.82 5.66 5.82 2.09 0 4.01-1.19 4.99-3.08l1.42-1.52 .94-.09 .06-.47 14.74-13.01 12.59-11.72 2.33-2.16 35.68-30.57 26.1-22.68s.19-.16 4.27-4.14c1.81-1.75 5.97-6.39 9.99-11.14l0 0c5.15-6.09 10.07-12.38 9.51-13.03 -.06-.07-.15-.09-.27-.09Z"/><path d="M514.97 55.71c-1.51.08-7.27 3.61-13.16 7.33 -.37.23-.74.46-1.11.69l5.07 5.07c5.15-6.09 10.07-12.38 9.51-13.03 -.07-.07-.18-.1-.33-.09Z"/><g stroke-width=".476" fill="none" stroke="#000"><path d="M390.25 158.21l7.35 8.03"/><path d="M399.02 164.74l-6.66-8.54"/><g stroke="#EAEAEA"><path d="M469.05 88.34l7.21 9.11"/><path d="M480.79 78.26l6.99 9.18"/></g></g><path d="M515.03 55.47c-.03-.01-.05 0-.08 0 -.47.02-1.1.27-1.96.68 -.86.4-1.91.97-3.09 1.65 -2.38 1.36-5.29 3.17-8.24 5.03 -.37.23-.74.46-1.11.69l-.26.15 0 0c-5.04 3.17-9.99 6.32-11.89 7.84 -1.56 1.24-4.56 3.82-4.56 3.82l-28.88 24.61 -37.9 33.48 -10.32 9.19 -13.61 12.05 -.53.45 -.31.66v0c-.04.07-.09.14-.16.19l-1.43 1.11v0c-.23.17-.43.39-.58.63 -.09.13-.27.29-.41.36 -1.91 1.05-3.12 3.09-3.12 5.33 0 3.34 2.64 6.06 5.9 6.06 2.15 0 4.13-1.22 5.17-3.16v-.001c.01-.04.03-.06.06-.07l1.12-1.2v0c.11-.12.26-.2.42-.21l.79-.07 .07-.57 14.67-12.95 12.59-11.72 2.33-2.15 35.67-30.57 26.09-22.67s.21-.18 4.29-4.15c1.81-1.74 5.87-6.28 9.84-10.96l.01.01 .16-.2c2.58-3.05 5.1-6.15 6.91-8.57 .9-1.22 1.63-2.26 2.1-3.04 .23-.4.4-.73.5-1 .04-.14.08-.26.09-.38 0-.12-.01-.26-.11-.37 -.12-.14-.29-.18-.45-.18Zm-.01.47c.08 0 .1.02.09 0 -.03-.03-.02-.04-.02.01 -.01.04-.03.13-.07.24 -.09.22-.25.53-.47.91 -.46.76-1.18 1.79-2.08 2.99 -1.76 2.35-4.22 5.36-6.73 8.34l-.01-.01 -.17.19c-4.03 4.74-8.19 9.39-9.99 11.11v0 0c-4.08 3.97-4.26 4.11-4.26 4.11l-.01 0 -26.11 22.67 -35.69 30.56 -2.35 2.15 -12.6 11.71 -14.81 13.05 -.06.36 -.85.07 -1.51 1.6 -.02.02c-.95 1.81-2.79 2.95-4.79 2.95 -3-.01-5.43-2.5-5.43-5.59 0-2.19 1.24-4.18 3.17-5.09l.06-.03 .25-.4 0 0c.09-.16.22-.3.36-.41l1.67-1.32 .36-.8 .44-.4 13.6-12.07 10.31-9.2 37.89-33.49 28.86-24.62v-.01s3-2.59 4.54-3.82c1.86-1.5 6.96-4.75 12.08-7.98l.25-.16 -.01-.01c.28-.18.56-.36.85-.54v0c2.94-1.86 5.85-3.68 8.21-5.03 1.17-.68 2.22-1.25 3.05-1.64 .83-.4 1.48-.62 1.77-.64 .01-.01.02-.01.04-.01Z"/></g><path fill="#D5D7D6" d="M60.13 82.56l53.33 48.8 1.1-1.72 -52.67-46.9Z"/><g stroke-width=".136" fill="#355636" stroke="#000"><path d="M56.72 81.44c-.23.52-1.89 2.78-5.06 5.41 -.89.58-1.41.9-1.41.9l-1.31.2 1.46-1.88 3.63-3.77 2.07-1.08c.28-.15.75-.2.59.18Z"/><path fill="#326331" stroke-width=".245" d="M54.36 131.89c.22 1.92.19 4.38 1.11 5.3 1.03 1.03 2.07 1.33 2.07 1.33l3.4 1.27s.11-3.91.12-5.03c-.08-.96-.12-2.89-.58-4.82 -.54-2.26-1.54-4.41-2.74-4.5 -1.54-.11-3.58 4.38-3.41 6.41Z"/></g><g transform="translate(-134.47 54.1835) scale(.51562)"><g stroke-width=".264" fill="none" stroke="#609852"><use xlink:href="#a"/><use xlink:href="#b"/><use xlink:href="#c"/><use xlink:href="#d"/><use xlink:href="#e"/><use xlink:href="#f"/><use xlink:href="#g"/><use xlink:href="#h"/><use xlink:href="#i"/></g></g><g stroke-width=".133" fill="#355636" stroke="#000"><path d="M55.16 79.28c-1.54 1.41-3.22 3.58-4.96 6.05 -.64.9-1.28 1.84-1.93 2.8 -1.4 3.35 1.13.8 1.13.8l1.12-2.39c2.22-1.84 3.83-4.3 5.2-6.82 .71-1.24.2-1.21-.59-.48Z"/><path stroke-width=".168" d="M52.6 76.75c-1.9 2.87-3.59 7.99-4.2 13.16 -.15 4.53 1.24-.96 1.24-.96l1.48-3.32s1.69-4.71 2.08-8.27c.07-.72-.14-1.37-.63-.63Z"/><path stroke-width=".185" d="M49.96 77.2c-1.73 3.4-2.94 9.37-2.95 15.26 .41 5.04 2.7 1.56 2.7 1.56l.39-6.4s.52-5.66.6-9.65c.02-1.17-.41-1.46-.77-.79Z"/><path fill="#326331" stroke-width=".245" d="M51.76 88.19c-.81.51-1.74 1.24-2.61 2.21 -1.13 1.25-2.15 2.84-2.71 3.96 -1.19 2.38-1.67 2.6-1.34 5.2 .37.17 1.8-.67 2.3-.81 2.42-.94 3.4-.87 4.75-3.05 2.22-3.61 2.7-6.71 2.9-8.07 .02-.18.06-.33-.04-.44 -.07-.08-.21-.13-.31-.12 -1.24.08-1.95.4-2.99 1.06Z"/><path stroke-width=".129" d="M46.7 77.61c-.35 2.63-.75 6.62-.7 10.8 .73 3.45 2.05.36 2.05.36l-.3-4.46s-.14-3.96-.44-6.72c-.13-1.23-.49-1.22-.65 0Z"/><path stroke-width=".136" d="M45.09 79.66c-.37 2.77-.79 6.99-.74 11.39 .77 3.64 2.17.38 2.17.38l-.31-4.71s-.15-4.17-.46-7.09c-.14-1.3-.51-1.29-.68 0Z"/></g><g transform="translate(-134.47 54.1835) scale(.51562)"><g stroke-width=".264" fill="none" stroke="#609852"><path d="M363.21 69.26l-9.99 12.49"/><path d="M355.54 72.03l-.61 7.56"/><path d="M359.01 74.48l.11-6.2"/><path d="M358.76 74.86l5.2-1.15"/><path d="M361.75 71.09l2.72-.32"/></g></g><path fill="#326331" stroke="#000" stroke-width=".245" d="M44.92 88.18c-1.05 2.58-1.46 5.25-.43 7.8 2.19-1.09 3.92-2.97 4.98-5.15 1.25-3.09 1.57-4.18 1.32-9.11 -.02-.08-.16-.11-.23-.08 -2.52 1.08-4.63 4.03-5.66 6.52Z"/><g transform="translate(-134.47 54.1835) scale(.51562)"><g stroke-width=".264" fill="none" stroke="#609852"><path d="M356.92 59.09s-4.96 9.37-8.75 19.12"/><path d="M353.16 59.54l.62 5.93"/><path d="M358.92 60.06l-3.18 1.37"/><path d="M358.72 63.11L353.45 66"/><path d="M356.42 69.22l-5.89 3.27"/><path d="M349.75 63.32l1.25 8.06"/><path d="M347.92 68.28l1.56 6.73"/><path d="M355.12 72.49l-5.77 2.77"/><path d="M353.31 75.55l-4.96 2.12"/></g></g><g stroke-width=".245" fill="#326331" stroke="#000"><path d="M41.38 86.31c-.04.03-.08.06-.12.1 -1.05.99-1.85 5.97-1.31 8.7 .6 3.01 2.43 6.96 4.38 8.32 1.18-2.12 1.04-5.78.9-7.79 -.09-1.14-1.13-6.54-3.51-9.12 -.04-.04-.08-.09-.12-.12 -.05-.04-.09-.08-.14-.12 -.04-.03-.1-.03-.13 0Z"/><path d="M51.83 93.95c-.82-.1-2.83 1.03-3.66 1.61 -1.4.98-2.25 2.31-3.31 4 -1.42 2.35-1.42 5.29-.73 7.91 .4.12 1.12-.41 1.61-.62 2.36-1.29 3.47-1.38 4.55-3.79 1.91-4.27 2.48-7.78 1.81-8.89 -.04-.07-.09-.14-.15-.18 -.05-.04-.1-.07-.16-.08Z"/></g><g transform="translate(-134.47 54.1835) scale(.51562)"><g stroke-width=".264" fill="none" stroke="#609852"><path d="M340.63 68.83l4.31 23.01"/><path d="M342.07 76.6l-3.43-3.74"/><path d="M345 70.93l-2.82 6.03"/><path d="M341.14 71.49l2.02-3.01"/><path d="M346.72 76.71l-3.32 6.89"/><path d="M347.5 80.54l-3.49 6.37"/><path d="M347.56 84.09l-3.07 5.51"/></g></g><g transform="matrix(.4377.27255-.27256.4377-74.4592-67.3348)"><g stroke-width=".264" fill="none" stroke="#609852"><use xlink:href="#a"/><path d="M376.72 157.29l-3.35 4.21"/><path d="M376.67 144.23l-3.38 3.07"/><path d="M377.84 147.85l-4.53 5.53"/><path d="M369.59 146.94l3.71 5.55"/><path d="M368.43 152.86l4.93 6.87"/></g></g><g stroke-width=".245" fill="#326331" stroke="#000"><path d="M39.66 91.21c-.04.03-.08.07-.11.11 -.99 1.05-1.49 6.07-.79 8.76 .78 2.97 2.84 6.8 4.87 8.04 1.05-2.18.69-5.83.44-7.83 -.16-1.13-1.51-6.46-4.05-8.9 -.04-.04-.09-.09-.12-.11 -.05-.04-.1-.08-.15-.11 -.04-.03-.1-.02-.13.01Z"/><path d="M50.2 103.32c-2.78-.23-3.74 1.34-6.12 4.33 -.46.82-.96 1.67-1.24 2.57 -.53 1.82.28 4.08.96 5.82 .56-.04.96-.55 1.44-.81 .91-.66 1.8-1.39 2.55-2.23 .74-.84 1.41-1.77 1.9-2.78 .61-1.28 1.29-2.51 1.23-4.07 -.02-.32-.04-1.96-.52-2.74 -.07-.11-.14-.11-.25-.12Z"/></g><g transform="translate(-134.47 54.1835) scale(.51562)"><g stroke-width=".264" fill="none" stroke="#609852"><path d="M339.19 80.12l3.31 23"/><path d="M345.31 97.56l-2.9 5.21"/><path d="M345.24 93.75l-3.3 5.82"/><path d="M344.31 90.36l-2.93 5.41"/><path d="M343.54 82.66l-3.11 6.26"/><path d="M335.73 83.04l4.6 5.02"/><path d="M341.78 79.89l-2.19 3.12"/></g></g><g transform="matrix(.47692.19599-.196.47692-101.527-35.8854)"><g stroke-width=".264" fill="none" stroke="#609852"><path d="M373.08 144.21l.17 20.24"/><path d="M375.31 158.97l-2.08 2.24"/><path d="M370.07 145.47l3.07 4.4"/><path d="M376.48 146.84l-3.34 4.14"/><path d="M375.51 154.64l-2.29 2.92"/><path d="M369.2 151.26l4.01 5.94"/><path d="M368.49 155.2l4.76 6.02"/></g></g><path fill="#326331" stroke="#000" stroke-width=".245" d="M37.17 107.1c1.18 2.83 3.49 4.52 5.67 5.48 .75-2.31.65-4.42.12-6.36 -1.18-5.54-5.6-8.25-5.82-8.13 -1.07.58-.98 5.46 0 8.99Z"/><g transform="translate(-134.47 54.1835) scale(.51562)"><g stroke-width=".264" fill="none" stroke="#609852"><path d="M335.1 91.69s6.71 13.72 6.66 19.15"/><path d="M336.1 93.81l-3.34-1.6"/><path d="M338.77 91.58l-1.04 5.93"/><path d="M332.88 95.28l5.29 3.22"/><path d="M334.17 100.78l6.34 4.11"/><path d="M334.8 103.78l6.57 4.31"/><path d="M339.85 102.83l2.17-6.01"/></g></g><path fill="#326331" stroke="#000" stroke-width=".245" d="M35.76 109.55c.91 3.68 4.34 6.36 6.03 7.76 2.96 2.84 4.72.63 3.76-1.77 -.6-1.87-4.17-5.35-9.56-8.79 -.28-.18-.52-.27-.59.09 -.05.26.16 1.96.33 2.68Z"/><g transform="translate(-134.47 54.1835) scale(.51562)"><g stroke-width=".264" fill="none" stroke="#609852"><path d="M333.95 108.27l10.91 10.54 4.76 5.09"/><path d="M335.09 109.38l-2.74-.34"/><path d="M336.75 107.76l.57 3.77"/><path d="M333.57 111.52l4.99 1.19"/><path d="M340.76 110.44l1.74 6.08"/><path d="M343.72 113.7l1.78 5.73"/></g></g><g stroke-width=".245" fill="#326331" stroke="#000"><path d="M50.63 106.78c-.81.24-2.33 1.81-3.46 3.7 -.62 1.03-1.08 2.28-1.32 3.19 -.7 2.68-.77 6.6.27 8.47 1.79-1.25 3.74-3.64 4.11-5.42 .54-2.61 1.17-6.92.67-9.82 -.05-.17-.17-.2-.31-.15Z"/><path d="M50.12 116.7c-1.87 1.74-2.32 4.62-2.6 6.08 -.71 2.67 1.86 3.83 2.96 2.49 .75-.8 2.51-6.81 1.72-7.15 -.5-.21-.32-1.17-.31-1.81 0-.26-.04-.8-.33-.71 -.18.06-1.11.73-1.47 1.07Z"/></g><g transform="translate(46.2703 54.1835) scale(.51562)"><g transform="matrix(.68004.19333-.19334.68004-217.968-44.3356)"><g stroke-width=".264" fill="none" stroke="#609852"><path d="M373.29 140.83l.14 23.12"/><path d="M375.76 156.26l-2.36 4.76"/><path d="M371 143.7l2.43 4.74"/><path d="M375.6 145.23l-2.28 3.39"/><path d="M376.75 150.85l-3.39 5.13"/><use xlink:href="#j"/><path d="M370.21 154.58l3.18 5.59"/></g></g><path fill="none" stroke="#609852" stroke-width=".187" d="M10.07 123.78l-1.75 1.1"/></g><path fill="#326331" stroke="#000" stroke-width=".245" d="M35.52 115.12c1.6 3.43 5.48 5.41 7.4 6.47 3.45 2.22 4.22-.88 2.82-3.05 -1.14-2.06-3.8-4.7-8.77-6.17 -.08-.03-.57-.04-1.01-.1 -.48-.06-.98-.1-1.06-.09 -.16.01-.25.1-.23.31 .12 1.03.51 1.94.82 2.6Z"/><g transform="translate(-134.47 54.1835) scale(.51562)"><g stroke-width=".264" fill="none" stroke="#609852"><path d="M332.08 116.68l15.7 10.89"/><path d="M346.18 126.47l-4.73-.15"/><path d="M344.01 121.36l2.93 5.63"/><path d="M341.06 119.39l3.14 5.69"/><path d="M342.91 124.22l-6.37-.29"/><path d="M332.94 114.81l1.22 3.3"/><path d="M335.82 116.07l2.4 4.82"/><path d="M332.88 120.3l4.52.09"/></g></g><path fill="#326331" stroke="#000" stroke-width=".245" d="M37.14 121.03c1.99 3.22 6.07 4.73 8.11 5.56 3.69 1.8 3.69-1.15 2.23-3.28 -.98-1.67-4.75-3.73-10.95-5.13 -.33-.08-.61-.06-.54.27 .24 1 .73 1.94 1.12 2.56Z"/><g transform="translate(46.2703 54.1835) scale(.51562)"><g transform="matrix(.95455.29803-.29804.95455-307.725-138.912)"><g stroke-width=".264" fill="none" stroke="#609852"><use xlink:href="#a"/><path d="M376.1 155.48l-2.64 6"/><path d="M370.83 144.64l2.43 4.74"/><path d="M375.67 145.51l-2.41 4.61"/><path d="M376.63 151.25l-3.3 5.29"/><use xlink:href="#j"/><path d="M370.21 154.58l3.17 4.94"/></g></g><path fill="none" stroke="#609852" stroke-width=".264" d="M7.76 108.75l-2.41 1.95"/></g><g transform="translate(-134.47 54.1835) scale(.51562)"><g stroke-width=".264" fill="none" stroke="#609852"><path d="M336.78 128.12l17.95 10.92"/><path d="M337.28 126.46l1.12 2.64"/><path d="M342.84 131.78l-2.39-4.2"/><path d="M342.36 131.51l-4.3-.07"/><path d="M348.12 135.03l-8.78-.41"/><path d="M351.29 136.94l-8.26.27"/><path d="M345.85 130.67l2.64 4.56"/><path d="M351.38 136.98l-2.6-5.43"/><path d="M350.96 133.39l2.95 5.13"/></g></g><path fill="#326331" stroke="#000" stroke-width=".245" d="M38.77 126.21c1.99 3.22 6.07 4.73 8.11 5.56 1.32.53 4.75 1.52 4.75 1.52 .04-1.79.36-2.65-.82-3.67 -3.46-3.47-7.56-5.07-12.7-6.49 -.33-.09-.57.17-.5.49 .24 1 .73 1.94 1.12 2.56Z"/><g transform="translate(-134.47 54.1835) scale(.51562)"><g stroke-width=".264" fill="#305F2F" stroke="#609852"><path d="M339.81 139.48l20.63 11.21"/><path d="M339.89 137.16l1.62 3.24"/><path d="M343.3 138.44l2.7 4.4"/><path d="M345.8 142.7l-6.27-.26"/><path d="M348.66 140.51l3.7 5.77"/><path d="M351.42 148.07l3.58-.37"/><path d="M351.87 146.04l-4.63.43"/><path d="M352.17 142.67l4.06 5.72"/><path d="M355.47 144.77l3.83 5.31"/></g></g><path fill="#326331" stroke="#000" stroke-width=".245" d="M41.58 130.94c1.99 3.22 6.07 4.73 8.11 5.56 1.32.53 4.75 1.52 4.75 1.52 .04-1.79-2.16-4.44-3.34-5.46 -3.48-2.48-6.95-3.66-10.21-4.77 -.32-.11-.53.23-.46.55 .24 1 .73 1.94 1.12 2.56Z"/><g transform="translate(-134.47 54.1835) scale(.51562)"><g stroke-width=".264" fill="none" stroke="#609852"><path d="M364.86 159.61l-18.43-9.72"/><path d="M346.64 147.89l1.16 2.7"/><path d="M347.23 152.7l4.32-.12"/><path d="M349.75 148.92l2.55 4.05"/><path d="M355.52 151.79l2.61 4.27"/><path d="M351.17 155.93l6.87.06"/><path d="M354.73 158.11l6.41-.48"/><path d="M359.13 154.28l2.35 3.53"/></g></g><g transform="translate(46.2703 54.1835) scale(.51562)"><g stroke-width=".492" fill="#D12E29" stroke="#000"><path d="M.61 77.45a2.19 2.19 0 1 0 0 4.38 2.19 2.19 0 1 0 0-4.39Z"/><path d="M-1.54 77.98a2.19 2.19 0 1 0 0 4.38 2.19 2.19 0 1 0 0-4.39Z"/></g></g><path fill="#D12E29" stroke="#000" stroke-width=".254" d="M43.56 98.84a1.12 1.12 0 1 0 0 2.25 1.12 1.12 0 1 0 0-2.26Z"/><g transform="translate(46.2703 54.1835) scale(.51562)"><g stroke-width=".492" fill="#D12E29" stroke="#000"><path d="M-8.13 100.6a2.19 2.19 0 1 0 0 4.38 2.19 2.19 0 1 0 0-4.39Z"/><path d="M-3.45 100.6a2.19 2.19 0 1 0 0 4.38 2.19 2.19 0 1 0 0-4.39Z"/><path d="M-5.68 102.89a2.19 2.19 0 1 0 0 4.38 2.19 2.19 0 1 0 0-4.39Z"/><path d="M-1.21 125.3a2.19 2.19 0 1 0 0 4.38 2.19 2.19 0 1 0 0-4.39Z"/><path d="M-.36 129.49a2.19 2.19 0 1 0 0 4.38 2.19 2.19 0 1 0 0-4.39Z"/><path d="M2.3 127.19a2.19 2.19 0 1 0 0 4.38 2.19 2.19 0 1 0 0-4.39Z"/></g></g><path fill="none" stroke="#000" stroke-width=".136" d="M50.64 76.83l-.38-.11"/><g transform="translate(46.2703 54.1835) scale(.51562)"><g><path d="M24.85 26.09q-.28-.48-.49-.74 -.21-.29-.39-.39 -.18-.11-.36-.06 -.19.03-.42.16 -.36.2-.62.65t-.24.9q.01.39.02.71 0 .3.03.56 .05.25.14.5 .08.23.23.49 .05.08.15.26 .11.16.24.35 .13.15.29.3 .14.12.27.14 .78-.76 1.12-1.32 .34-.6.39-1.05 .06-.46-.09-.82 -.15-.39-.35-.73Zm1.6-1.3q.29.55.44 1.06 .15.47-.07 1.04 -.22.56-.89 1.32 -.69.73-2.04 1.81 .74.11 1.28.32 .54.2.77.61l1.15 2.03q.35.61.73 1.03 .39.4.99.39l-1.53 1.26q-.35.05-.59 0 -.24-.06-.44-.23 -.21-.19-.42-.52t-.5-.83l-.8-1.4q-.14-.24-.51-.35 -.38-.12-.86-.31 -.49-.2-1.01-.58 -.54-.41-.99-1.2 -.3-.52-.48-1.21 -.19-.7.01-1.49 .19-.82.9-1.67 .7-.87 2.18-1.72 .33-.2.67-.3 .34-.13.65-.09 .32.02.63.24 .3.2.59.67Z"/><path d="M43.94 26.93q-.36.16-.74.16 -.39-.01-.69-.47l-2.45 1.83q-.24-.08-.42-.17 -.17-.11-.33-.26 -.17-.17-.34-.39 -.18-.24-.4-.56l-1.28-1.84q-.62-.89-1.05-1.34 -.42-.46-.72-.62 -.29-.19-.49-.14 -.2.02-.36.09l-.17.07 -.42.3 .11 4.84q-.01.18.01.41 .03.21.09.35 .16.35.39.51 .25.15.63.24l-1.8 1.41q-.27.1-.56.01 -.29-.1-.58-.61l-.01-.02q-.13-.28-.22-1.34t-.07-2.71l.06-4.31 -1.53 1.31q.04-.16-.03-.44 -.06-.32-.18-.58 -.26-.56-.77-.93 -.5-.38-.93-.36l1.61-1.45q.08-.07.12-.08 .04-.05.02-.04 .22-.11.44.08 .23.16.43.4l.92 1.59 1.83-1.38 -.18 2.71 2.27-1.44q.49-.24 1-.02 .49.19.96.87l2.04 2.95q.14.2.31.43 .17.23.34.4 .18.16.38.24 .18.06.37-.02l.56-.47 -.02-.04q-.15-.32-.06-.7 .1-.41.4-.62l1.34-.92q-.02.2.04.49 .08.27.16.44 .21.41.54.64 .32.2.67.2Z"/><path d="M56.23 19.07q-.2-.56-.48-.83 -.28-.3-.65-.39 -.36-.1-.82 0 -.47.09-1.01.27 -.52.19-.85.48 -.34.28-.51.6 -.18.29-.23.61 -.03.29.04.5 .13.32-.06.47 -.19.14-.47.22l-.59.17q-.14-.52-.36-1.22 -.22-.71-.4-1.23 -.2-.56-.68-.79 -.48-.25-.96-.09 -.22.07-.23.09l-1.04.63q.5-.87 1.04-1.74 .55-.91.93-1.75 .39-.87.54-1.68 .16-.84-.1-1.59 -.14-.28-.28-.43 -.12-.16-.6-.1l-1.67 1.04q.3.08.44.29 .15.2.23.43l0 .01q.01.05.05.21 .04.13.03.35 0 .21-.06.47 -.07.25-.23.53 -.49.96-1.14 1.96 -.66.97-1.17 1.99 -.5 1-.71 2.09 -.22 1.06.17 2.2 .19.55.49.86 .31.28.68.41 .36.11.74.09 .37-.05.7-.16 .19-.07.35-.15 .16-.08.24-.16 .13-.12.46-.4 .35-.3.73-.62 .4-.34.75-.63 .35-.3.48-.41 .35-.28.79-.45 .43-.2.58-.25 .25-.09.3-.05 .05.02.12.23l.08.25q.21.61.65.76 .43.15.99-.05 .48-.17.98-.54 .16-.04.33-.1 .18-.05.35-.1 .67-.24.92-.84 .24-.61-.16-1.76Zm-7.56 1.96q.17.5.24.97 .07.46-.19.72 -.47.46-.63.55 -.15.09-.18.1 -.24.07-.48-.08 -.25-.16-.47-.41 -.2-.26-.36-.55 -.17-.29-.23-.47 -.17-.49-.18-.89 -.02-.43.06-.76 .07-.35.2-.61 .12-.28.22-.49l.84-.49q.21.05.44.62 .25.55.65 1.71Zm5.78-2.1l.42 1.25q.05.21.1.43 .07.21.07.4 .01.16-.08.34 -.08.15-.3.27l-.08.02q-.43.14-.71-.13 -.27-.28-.42-.72L53 19.47q-.12-.35-.08-.73 .06-.39.44-.52 .34-.12.63.08 .27.18.41.56Z"/><path d="M69.33 17.85q-.38.08-.76 0 -.38-.09-.58-.6l-2.6 1.15q-.28.06-.51-.12 -.22-.21-.3-.54l.03-3.88q-.06-.24-.24-.29 -.18-.05-.44.01 -.34.07-.69.21 -.33.13-.63.28 -.3.15-.59.28 -.27.12-.47.16 -.24-.14-.37-.23 -.14-.12-.39-.33l-.38.29q.1.45.12.91 .01.43-.11.83 -.11.37-.35.66 -.24.26-.65.35 -.4.09-.78.07 -.39-.02-.7-.12 .39-.28.46-.53 .06-.25.04-.35 -.09-.3-.21-.46 -.13-.17-.15-.28 -.04-.16.2-.28 .22-.1.53-.23 .31-.16.63-.34 .33-.21.6-.39 .28-.22.44-.42 -.26-.2-.51-.47 -.24-.31-.46-.61 -.21-.34-.36-.63 -.14-.33-.19-.55 -.12-.52-.06-1.06t.29-1.01q.22-.47.56-.84 .34-.4.8-.61 .81-.38 1.28-.59 .48-.24.73-.34 .26-.13.33-.17 .09-.05.13-.06 .27-.07.59-.04 .34.02.64.16 .3.13.52.38 .23.21.31.53 .13.57.13 1.11 .01.51-.33 1.05 -.33.51-1.08 1.06 -.74.54-2.11 1.12 .17.21.36.41 .19.2.39.36 .2.16.39.26 .2.07.38.03l2.32-.91q.27-.07.56.08 .27.12.34.4l-.03 3.8q-.02.02.01.14 .03.15.15.31 .11.14.23.11l.79-.37 -.01-.04q-.08-.34.08-.71 .18-.4.52-.54l1.5-.62q-.06.2-.06.49 .02.28.06.46 .12.45.4.74 .27.27.62.33Zm-6.01-9.43q-.09-.38-.29-.63 -.19-.28-.83-.13 -.4.09-.69.4 -.27.31-.44.72 -.16.41-.2.88 -.05.44.04.82 .05.21.1.37 .05.13.13.3 .08.16.21.38 .14.19.37.52 .81-.38 1.17-.9 .36-.53.47-1.05 .1-.55.03-1.02t-.13-.73Z"/><path d="M80.28 12.27q.12.96-.63 1.66 -.74.67-2.33 1.23l-2.62 1.06q-.47.06-.94-.05 -.45-.13-.84-.39 -.37-.28-.66-.72 -.27-.44-.35-1.05 -.09-.65.25-1.33 .33-.71.95-1.45l3.13-4.21q.33-.54.41-.88 .07-.36 0-.89 -.05-.35-.57-.57l2.08-.84q.22-.03.36.25 .13.26.18.61 .07.58-.04 1.09 -.1.48-.33.94 -.23.44-.55.85 -.3.38-.62.78l-2.59 3.55q-.11.13-.25.34 -.14.18-.26.42 -.12.22-.19.45 -.08.23-.05.45 .04.3.2.63 .18.32.44.57 .28.25.65.4 .36.13.79.07l1.14-.49q.55-.33.74-.72 .19-.4.19-.87 -.09-.65-.23-.92 -.13-.3-.51-.43l1.82-.93q.01-.03.09-.04 .18-.03.32.12 .16.12.29.33 .12.18.2.42 .09.21.1.35Z"/><path d="M98.94 14.48q-.19-.17-.29-.33 -.11-.17-.17-.37 -.07-.23-.13-.49 -.05-.29-.11-.68l-.4-2.2q-.19-1.06-.4-1.65 -.19-.6-.39-.86 -.19-.29-.39-.33 -.19-.07-.37-.06l-.19 0 -.51.1 -1.97 4.36q-.09.16-.17.42 -.09.24-.09.4 0 .38.16.63 .16.24.47.48l-2.22.53q-.29-.02-.52-.23 -.23-.21-.27-.8l-.01-.03q-.01-.31.34-1.29 .36-1 1.07-2.49l1.88-3.9 -1.9.55q.1-.13.16-.41 .08-.31.07-.6 -.01-.62-.31-1.17 -.29-.55-.7-.72l2.07-.64q.1-.03.14-.03 .06-.03.04-.03 .24-.01.36.26 .14.24.22.54l.16 1.83 2.4-.48 -1.46 2.38 2.66-.36q1.12-.01 1.43 1.6l.68 3.54q.06.65.41 1.13 .34.46.71.67Z"/><path d="M107.51 5.84q.07-.55.05-.88 0-.35-.07-.55 -.08-.2-.26-.27 -.18-.09-.44-.13 -.41-.06-.89.14 -.49.2-.74.57 -.23.31-.41.58 -.18.24-.32.47 -.12.23-.2.48 -.08.23-.12.53 -.02.1-.05.3 -.01.2-.02.42 .01.2.04.41 .03.19.12.28 1.08-.12 1.69-.37 .63-.27.94-.59 .33-.33.42-.71 .11-.4.16-.78Zm2.06-.05q-.11.62-.3 1.11 -.17.47-.69.78 -.52.31-1.52.51 -1 .17-2.73.19 .52.54.82 1.03 .3.49.23.95l-.33 2.32q-.1.7-.06 1.26 .06.56.55.91l-1.99.07q-.31-.17-.47-.36 -.16-.19-.21-.44 -.05-.28-.02-.66 .03-.39.11-.96l.22-1.6q.03-.27-.19-.59 -.23-.32-.49-.77 -.27-.45-.45-1.08 -.18-.65-.06-1.55 .08-.59.35-1.25 .27-.67.92-1.17 .64-.53 1.73-.77 1.08-.27 2.78-.03 .38.05.71.18 .35.11.57.32 .23.21.35.58 .11.34.06.89Z"/><path d="M119.89 17.44q-.53.03-.89.04 -.36.01-.83-.03l-.23-.03q-.34-.07-.66-.28 -.29-.23-.29-.75l-3.72.05q-.64-.16-1.07-.37 -.44-.22-.69-.6 -.24-.41-.28-1.02 -.03-.61.17-1.57l.07-.36q.43-2.04.91-3.46 .48-1.45 1.29-2.28 .81-.84 2.1-1.05 1.31-.22 3.4.21l1.97.4q.18.2.15.36 -.04.15-.18.35 -.13.2-.19.48 -.03.11-.03.2 0 .08.04.19 .04.09.14.21 .11.12.32.35 -.93.16-1.53.04 -.87-.35-1.16-.88 -.29-.56-.14-1.28l.03-.16q-.72-.09-1.42 0 -.69.08-1.34.72 -.65.63-1.27 2.02 -.6 1.39-1.11 3.91l-.05.23q-.09.41-.08.89 .03.46.17.86 .16.4.45.71 .31.31.78.41l2.1-.05 0-.04q.04-.22.31-.52 .26-.3.69-.34 .29-.05.63-.04 .33-.02.99.01 -.12.14-.2.35 -.07.21-.11.39l-.03.11q-.12.97.56 1.4Z"/><path d="M139.85 18.33q-.59 1.4-2.7 1.93 -2.02.53-5-.3 -1.02 2.35-2.77 1.87 -.71-.2-1.13-.68 .85-.49.99-1 .02-.08 0-.64 -.01-.37-.03-.31 .03-.14.29-.09l3.03.63q.56.11 1.33.14 .77.02 1.53-.13 .76-.17 1.4-.56 .63-.4.94-1.12l1.23-3.3 -2.94-.47 .51-1.09 -1.48-.16q-.3 1.05-.81 1.44 -.51.38-1.38.29 -.57-.16-.89-.55 .42-.31.62-.57 .21-.26.27-.46 .03-.12.04-.23 .01-.13-.03-.29 0-.17-.01-.15 .01-.06.2-.07l3.53.45 .51-1.32q.14-.53-.32-.83l2.05.13q.3.25.37.54 .07.27-.04.66 -.07.23-.26.68l-.74 1.5 1.79.22q.07.02.14.01 .06-.01.12.01 .72.2.45 1.18Z"/><path d="M150.27 19.49q.26-.55.36-.9 .12-.37.11-.6 -.02-.23-.18-.36 -.16-.15-.42-.28 -.41-.2-.98-.16 -.57.04-.97.34 -.52.39-.99 1.08 -.46.67-.77 1.29l.01-.03q-.11.22-.23.51 -.11.27-.22.59 1.14.26 1.87.19 .72-.07 1.17-.32 .47-.27.71-.65 .26-.4.45-.78Zm.88 6.24q-.42.84-1.07 1.14 -.63.31-1.35.3 -.7 0-1.42-.23 -.69-.24-1.19-.49 -.67-.33-1.11-.7 -.42-.38-.68-.71 -.27-.33-.39-.59 -.1-.27-.13-.41l-.98-.06q.04.16 0 .39 -.01.21-.07.44 -.05.2-.1.35 -.05.15-.06.17 -.35.7-1.15.75 -.77.04-1.56-.35 -.71-.35-1-.87 .66-.15.92-.32 .28-.19.38-.39 .08-.19.07-.42 -.02-.23.04-.36 .04-.11.37-.07l3.01.31q-.16-.95.03-2.3 .19-1.36.85-2.7 .29-.61.75-1.13 .45-.53 1.19-.76 .76-.25 1.88-.15 1.14.11 2.8.78 .38.18.68.43 .33.23.47.55 .17.3.16.72 0 .39-.25.95 -.33.61-.71 1.07 -.36.47-1.04.68 -.67.19-1.79.09 -1.12-.13-2.93-.7 -.28.56-.39 1.28 -.11.72-.07 1.38 .06.67.25 1.19 .19.51.53.68 .64.31 1.23.18 .61-.15 1.03-.99 .22-.47.3-.83 .07-.37-.12-.68l2.39.3q.2.09.28.28 .08.18.07.4 0 .19-.06.42 -.06.22-.14.38Z"/><path d="M156.89 31.39q.33-.73.44-1.31 .11-.6-.14-.72 -.06-.03-.09-.02l-.78.01q-.06.02-.26.2 -.19.19-.43.45 -.22.27-.44.54 -.2.28-.29.47 -.24.49-.11.78 .12.28.46.44l.15.07q.44.2.8-.08 .36-.3.64-.9Zm3.28 4.07q-.26-.31-.33-.71 -.05-.42 0-.82 .04-.4.11-.7 .09-.31.11-.4l.84-3.41q.14-.78.22-1.3 .08-.55.09-.92 0-.37-.07-.62 -.08-.25-.25-.44 -.37-.03-.87.25 -.48.27-1.05.7 -.58.43-1.21.95 -.61.51-1.24.96l1.14-.01q.53.05.76.16 .23.1.39.29 .19.18.23.5 .06.3-.05.79 -.09.49-.41 1.18 -.24.51-.61.81 -.35.28-1.08.2 -.03-.04-.23-.13l-.18-.08q-.33-.16-.55-.19 -.2-.03-.69-.13 -.6-.12-1.17-.1 -.57.01-.92-.15 -.16-.08-.28-.27 -.1-.21-.14-.46 -.05-.26-.04-.53 .03-.29.15-.54 .03-.08.11-.25 .1-.19.21-.37 .13-.2.23-.36 .11-.16.2-.24 .38-.48 1.06-1.21 .71-.75 1.59-1.46 .91-.72 1.9-1.27 1.02-.56 1.99-.64 -.06-.1-.09-.32 -.01-.24-.02-.52 .01-.28.04-.56 .03-.29.13-.5l1.94.26q-.01.2.01.47 .03.27.06.56 .03.27.09.55 .06.26.18.45 .69 1.32.41 3.49 -.26 2.16-1.08 4.95 -.07.24-.12.59 -.04.33-.04.68 .02.35.08.66 .07.29.21.44Z"/></g></g><g transform="matrix(.55066-.00063.00297.47207 49.2722 53.9001)"><g><path d="M50.83 181.13v.77h.79v8.6h-.8v.77h2.48v-.78h-.85v-4.08h1.78v-.78h-1.79v-3.77h1.99v1.77h.77v-2.55Z"/><path d="M54.28 189.82v1.47h.91v-1.48Z"/><path d="M56.19 181.11v.77h.76v8.6h-.77v.77h1.83c2.07 0 3.1-1.75 3.1-5.18 0-3.31-1.03-4.99-3.11-4.99Zm1.61.77h.24c.75 0 1.3.34 1.66 1.04 .36.7.54 1.76.54 3.19 0 1.48-.19 2.57-.55 3.3 -.36.71-.91 1.07-1.67 1.07h-.26Z"/><path d="M61.12 189.81v1.47h.91v-1.48Z"/><path d="M63.14 181.13v.77h.76v8.6h-.77v.77h2.37v-.78h-.76v-3.97h.59l1.36 4.74h1.41v-.78h-.73l-1.25-4.2c.39-.2.73-.5.98-.92 .26-.45.4-.99.4-1.63 0-.81-.2-1.45-.6-1.92 -.4-.49-.99-.73-1.75-.73Zm1.61.77h.43c.47 0 .84.16 1.09.49 .26.33.39.79.39 1.39 0 .65-.14 1.14-.42 1.48 -.27.33-.65.5-1.14.5h-.39Z"/><path d="M68.38 189.82v1.47h.91v-1.48Z"/><path d="M69.83 181.15v.77h.79v8.6h-.8v.77h4.35v-2.58h-.78v1.8h-1.95v-4.07h1.73v-.78h-1.74v-3.78h1.94v1.77h.77v-2.55Z"/><path d="M79.75 181.13v.77h.64l-1.54 8.6h-.69v.77h2.22v-.78h-.71l.52-3.05h1.73l.53 3.04h-.67v.77h2.2v-.78h-.67l-1.55-8.61h.65v-.78Zm1.34 1.35l.74 4.21h-1.49Z"/><path d="M84.61 181.12v.77h.78v8.6h-.79v.77H87v-.78h-.78v-8.61h.77v-.78Z"/><path d="M87.66 181.14v.77h.76v8.6h-.77v.77h2.37v-.78h-.76v-3.97h.59l1.36 4.74h1.41v-.78h-.73l-1.25-4.2c.39-.2.73-.5.98-.92 .26-.45.4-.99.4-1.63 0-.81-.2-1.45-.6-1.92 -.4-.49-.98-.73-1.75-.73Zm1.61.77h.43c.47 0 .84.16 1.09.49 .26.33.39.79.39 1.39 0 .65-.15 1.14-.42 1.48 -.27.33-.65.5-1.14.5h-.39Z"/><path d="M96.39 181.14v.77h.79v8.6h-.8v.77h2.48v-.78h-.85v-4.08h1.78v-.78H98v-3.77h1.99v1.77h.77v-2.55Z"/><path d="M103.28 180.96c-.78 0-1.35.46-1.73 1.38 -.38.9-.56 2.16-.56 3.77 0 1.73.16 3.04.5 3.94 .34.9.93 1.36 1.77 1.36 1.49 0 2.21-1.74 2.21-5.14 0-1.23-.07-2.22-.2-2.99s-.35-1.36-.68-1.76c-.33-.41-.78-.61-1.36-.61Zm-.02.83c.52 0 .87.34 1.07 1.06 .19.72.29 1.83.29 3.33s-.12 2.62-.33 3.34c-.22.71-.56 1.05-1.03 1.05 -.46 0-.81-.32-1.05-.97 -.24-.67-.36-1.81-.36-3.44 0-2.97.47-4.41 1.38-4.41Z"/><path d="M106.24 181.13v.77h.76v8.6h-.77v.77h2.37v-.78h-.76v-3.97h.59l1.36 4.74h1.41v-.78h-.73l-1.25-4.2c.39-.2.73-.5.98-.92 .26-.45.4-.99.4-1.63 0-.81-.2-1.45-.6-1.92 -.4-.49-.98-.73-1.75-.73Zm1.61.77h.43c.47 0 .84.16 1.09.49 .26.33.39.79.39 1.39 0 .65-.14 1.14-.42 1.48 -.27.33-.65.5-1.14.5h-.39Z"/><path d="M113.68 180.96c-.74 0-1.29.48-1.63 1.42 -.35.93-.51 2.21-.51 3.83 0 1.64.16 2.92.5 3.82 .34.91.91 1.38 1.71 1.38 .64 0 1.13-.26 1.46-.78 .32-.52.54-1.33.65-2.43l0-.05 -.77-.25 -.01.06c-.08.88-.22 1.54-.41 1.97 -.19.41-.49.62-.89.62 -.51 0-.88-.37-1.09-1.13 -.22-.78-.32-1.87-.32-3.3 0-1.39.09-2.46.29-3.25 .2-.78.52-1.15.96-1.15 .71 0 1.15.84 1.3 2.59l0 .04h.75v-3.32h-.75v.85c-.13-.31-.27-.59-.44-.74 -.22-.2-.51-.29-.875-.29Z"/><path d="M116.21 181.125v.77h.79v8.6h-.8v.77h4.35v-2.58h-.78v1.8h-1.95v-4.07h1.73v-.78h-1.74v-3.78h1.94v1.77h.77v-2.55Z"/></g></g><g stroke-width=".204" fill="#DA121A" stroke="#000"><path d="M120.44 161.28c.02-.78.02-1.6.03-2.28 0-.55-.01-1.07-.01-1.62 -7.88 3.11-16.48 4.82-25.49 4.82 -8.7 0-17.1-1.67-24.85-4.71l-.07 3.88c-.01.07.05.15.12.18 7.78 2.94 16.14 4.55 24.79 4.55 11.73 0 18.07-1.81 25.27-4.61 .09-.04.17-.16.17-.26Z"/><path fill="#FCDD09" d="M52.83 138.35c-.02 1-.03 2.37-.03 3.23 5.71 4.6 12.1 7.86 18.63 10.49l2.94-3.08c-8.19-2.48-15.38-6.12-21.55-10.67Z"/><path d="M52.8 141.59c-.09.32-.18.69-.22.9 -.06.35-.03 2.35 0 3.61 0 .07.04.16.1.2 5.66 4.11 11.94 7.34 18.64 9.46l.08-3.69c-6.7-2.63-12.98-5.97-18.64-10.5Z"/><g fill="#FAC933" stroke-width=".272"><path d="M146.65 88.26c.39 1.46-.23 7.16-1.16 8.38 -1.24-.31-2.37-4.97-2.51-5.79 -.49-4.35.93-6.34 1.82-6.21 .44.06 1.16 1.15 1.83 3.6Z"/><path d="M148 89.97c.54.68.95 2.53 1.14 3.58 .4 2.34-1.25 7.11-2.34 8.2 -1.18-.47-1.68-5.24-1.72-6.07 .27-3.08.59-5.21 2.13-5.87 .39-.18.52-.16.77.14Z"/><path d="M150.33 96.9c.41.76.6 2.67.6 3.74 0 1.77-1.42 6.26-3.71 7.67 -1.09-.67-.86-5.47-.76-6.29 .79-2.98 1.64-5.13 2.96-5.44 .41-.1.69-.04.88.3Z"/></g><g fill="#F4CF49" stroke-width=".218"><path d="M135.3 77.73l5.13 9.91 2.57 2.45c-.76-1.15-.94-2.1-.94-2.1l-6.29-10.59c-.22-.32-.67-.02-.49.31Z"/><path d="M135.65 83.4l4.86 8.98 3.32 3.07 -1.84-4.41c-.08-.18-.59-.33-.7-.48l-5.16-7.52c-.23-.31-.7 0-.5.33Z"/><path d="M134.81 79.84l2.16 4 3.34 5.7 2.66 2.35 -1.56-3.58c-.08-.18-.88-1.17-.99-1.32l-5.17-7.52c-.23-.31-.67 0-.48.33Z"/></g><g fill="#FAC933" stroke-width=".272"><path d="M140.06 86.97c-.49.19-.02 3.88.03 6.88 .05 3.21.34 3.15 2.18 3.4 .85-1.14 1.72-1.49 1.84-3.31 .33-3.06-.57-4.63-1.58-5.63 -1.06-1.04-2.33-1.44-2.5-1.37Z"/><path d="M137.99 91.74c-.44.28-.14 3.24 1.65 5.69 1.74 2.38 1.32 3.96 3.17 3.7 .51-1.33 2.61-4.24 1.56-5.72 -2.73-3.88-6.14-3.86-6.4-3.69Z"/><path d="M138.96 97.08c-.41.32.02 3.49 1.48 5.62 1.67 2.43 2.38 3.71 4.19 3.28 .39-1.37 2.44-5.32 1.01-6.45 -2.62-2.05-6.46-2.67-6.71-2.48Z"/><path d="M139.89 101.87c-.39.3-.04 2.96.65 4.53 .92 2.09 4.17 3.82 4.74 3.82 .36-1.29 2.12-4.9.77-5.95 -2.48-1.92-5.95-2.61-6.18-2.42Z"/><path d="M140.96 107.77c.04 2.1-.6 3.21 2.06 7.03 2.58 3.72 3.18-.02 3.18-.02l-.29-4.25 -.94-1.46c-1.2-.82-2.33-.97-2.96-1.11 -.24-.06-.44-.21-.51-.3 -.25-.35-.58-.16-.57.08Z"/><path d="M141.05 112.99c-.49.18-1.12 2.92-.92 4.73 .31 2.94 1.8 5.25 3.66 5.38 .78-1.19 3.73-4.27 2.7-5.77 -1.89-2.74-5.16-4.48-5.45-4.36Z"/><path d="M140.39 120.06c-.51.13-1.57 2.84-1.57 4.66 0 2.95 1.38 5.44 3.22 5.77 .9-1.1 4.16-3.85 3.29-5.45 -1.59-2.93-4.67-5.08-4.97-5Z"/><path d="M138.38 126.7c-1.37.94-2.52 3.76-2.23 7.47 .06.89 1.24 1.8 2.4 1.59 1.6-.29 3.31-2.05 3.27-2.85 -.09-.57-1.29-4.36-2.6-5.84 -.36-.4-.55-.61-.86-.4Z"/><path d="M132.54 138.79c.16 2.12 5.74.14 5.68-1.25 -.38-2.79-2.19-5.61-3-6.25 -.22-.17-.48-.2-.84.28 -2.56 3.33-1.94 6.02-1.85 7.21Z"/><path d="M131.39 135.47c-1 .49-2.81 3.71-2.05 7.25 .42 1.96 5.4-.02 5.31-1.33 -.5-3.09-2.68-6.23-3.27-5.94Z"/><path d="M152.67 118.15c-.6-.33-2.66.98-3.73 1.88 -1.14.94-3.59 4.74-2.48 6.07 1.16.55 3.32-.91 3.97-1.46 2.49-2.55 2.89-6.15 2.23-6.51Z"/><path d="M151.65 123.68c-.58-.36-2.85.81-4.98 2.49 -1.3 1.03-5.64 4.2-3.54 5.93 2.05 1.01 3.91-.77 5.55-1.87 2.97-2.1 3.68-6.12 2.95-6.58Z"/><path d="M150.04 130.29c-.55-.39-2.87.65-4.92 1.86 -1.44.83-6.32 3.49-4.34 5.36 1.98 1.14 4.56-.38 5.81-1.11 3.1-1.89 4.14-5.62 3.43-6.12Z"/><path d="M145.74 137.12c-.42-.3-3 .32-5.08 1.19 -1.53.63-6.28 3.77-4.3 5.64 1.98 1.14 4.56-.38 5.81-1.11 2.83-1.73 4.02-5.41 3.55-5.74Z"/><path d="M151.84 103.86c.59.07.99 2.55.82 3.92 -.21 1.71-2.96 7.44-4.64 7.23 -1.09-.67-.29-5.45-.18-6.27 .78-2.76 3.22-5 3.98-4.9Z"/><path d="M152.81 110.56c.56.32.43 2.71-.04 4.03 -.6 1.66-4.62 6.75-6.25 6.17 -.93-.91 1.08-4.91 1.37-5.7 1.4-2.98 4.24-4.9 4.91-4.52Z"/><path d="M143.61 93.3c-.64.16-1.13 2.45-1.13 3.85 -.01 2.85 1.4 5.16 3.13 5.16 .19-.01.38-.04.56-.09 .38-.96.58-2.1.58-3.28 .19-2.72-2.01-5.98-3.17-5.66Z"/><path d="M145.47 98.51c-.38.1-1.13 2.45-1.13 3.85 -.01 2.85 1.45 5.68 3.18 5.68 .19-.01.38-.04.56-.09 .38-.96.49-1.23.62-3.82 .13-2.72-2.48-5.84-3.26-5.63Z"/><path d="M146.35 105.29c-.78 0-1.66 2.17-1.91 3.55 -.27 1.45.43 6.16 2.14 6.47 1.25-.32 1.8-3.77 1.84-3.95 .7-2.62-1.32-6.09-2.09-6.09Z"/><path d="M147.58 112.64c-.64-.17-2.15 1.69-2.74 2.96 -.63 1.34-1.12 6.07.45 6.8 1.29 0 2.28-2.34 2.63-3.11 1.07-3.12.39-6.47-.36-6.67Z"/><path d="M146.2 118.98c-.65-.12-1.75 1.47-2.37 3.17 -.51 1.38-1.18 6.42.93 6.72 1.29-.11 1.9-1.59 2.36-3.32 .78-2.92-.34-6.48-.94-6.59Z"/><path d="M145.11 125.99c-.82-.17-2.55 1.31-3.69 2.96 -.93 1.33-3.08 6.69-.38 7.17 2.65-.02 3.31-1.71 4.24-3.39 1.18-2.15.59-6.6-.18-6.76Z"/><path d="M143.76 133.11c-.43-.3-2.85-.02-4.61 1.32 -1.3.98-5.33 6.04-3.03 7.52 2.25.93 4.21-1.37 5.23-2.39 1.7-1.78 2.84-6.15 2.38-6.47Z"/></g><path fill="#078930" d="M137.01 134.55c-3.95 3.26-9.85 6.37-15.48 8.64 -6.05 2.44-8.18 3.04-11.17 2.98 -.11-.01-.16.09-.16.18l-.09 3.6 .02 1.1c2.12-.34 4.18-.8 6.21-1.41 8.15-2.45 15.43-6.6 21.77-11.83 -.03-1.38-.05-3.05-.05-3.05s-.03-.11-.1-.24c-.18-.32-.7-.27-.98-.03Z"/><path fill="#FCDD09" d="M138.2 141.73c-.02-.87-.04-2.1-.07-3.84 -6.35 5.22-13.68 9.29-21.75 11.8l2.98 2.54c6.6-2.38 11.09-5.3 11.09-5.3 2.74-1.56 5.31-3.31 7.72-5.22Z"/><path fill="#73787B" stroke-width=".295" d="M110.23 147.33l9.53 2.58v0c.07.02.11.09.09.17 -.01.03-.04.06-.07.08l-3.23 1.9 -6.49 1.67 -.41-.51s.23-4.73.4-5.83c.01-.07.07-.11.13-.09Z"/><path d="M138.39 146.48c.03-.5.06-1.03.07-1.46 0-.26.01-.53 0-.79s-.02-.52-.04-.75c-.03-.35-.07-.67-.19-.98 -.03-.06-.05-.15-.05-.2 -.01-.18-.01-.53-.02-.67 -2.37 1.85-4.89 3.57-7.57 5.16 -4.62 2.73-7.25 3.92-11.26 5.4l-.04 4.07c7.38-2.29 13.65-5.66 18.97-9.69 .03-.03.07-.09.07-.14Z"/><path fill="#FAC933" stroke-width=".259" d="M109.67 132.74c.31.06.47.08.6.04 .2-.07.31-.29.45-.54 .05-.1.21-.19.38-.18 .11 0 .26-.01.35.11 .05.05.13.16.3.16 .27.01.42-.08.6-.15 1.26-.49 2.27-2.78 2.35-3.54 0-.05.03-.11.08-.14 .42-.24 2.03-1.18 4.11-1.37 1.14-.04 1.86.15 2.78.66 1.63.89 3.15 2.22 4.31 3.68 2.23 2.94 2.43 6.51 2.23 9.1 -.01.07-.07.17-.14.21l-.19.11 .04.74c0 .03-.02.07-.04.1l-3.39 4.11s-1 .52-1.9-.09c-.91-.62-1.21-1.07-.85-3.31 .32-.44.63-.44.63-.44l.67-.01c.05-.01.11-.02.16-.04l3.04-1.36 .25-.32 .16-.04 .11-.63c.11-.59-.03-1.9-.67-3.58 -.6-1.56-1.63-2.53-2.93-3.6 -1.1-.9-1.79-1.62-3.59-1.63 -1.51-.01-2.59.99-5.13 2.72 -1.47.99-4.58 1.04-5.19-.55 -.05-.17.04-.43.25-.39Z"/><path fill="none" stroke-width=".188" d="M126.65 140.37s.77.21 1.29.6"/><path fill="#E66129" stroke-width=".272" d="M112.98 134.31s.52 1.81 2.37 2.06c.05 0 .08.05.08.1 -.03.27.01.48.08.64 .04.09.18.21.26.3 .48.52 2.33 1.84 2.66 2.09 .02.02.06.07.07.1l.15.33c.01.03.04.09.06.11 .28.32 1.82 2.03 3.03 2.62 .31-.87 1.11-.51 1.44-.61l2.86-1.25c.42-.15.54-.48.54-.48l-.26-.22c-.02-.02-.04-.03-.06-.05 -.18-.2-1.35-1.43-2.22-2.04 -.05-.04-.11-.11-.13-.17 -.12-.36-.52-1.23-2.77-2.28 -.03-.02-.06-.05-.07-.08 -.23-.72-.63-2.33-3.46-2.96 -.04-.01-.09-.04-.1-.08l-.29-.72c-.87.55-1.32.88-2.52 1.72 -.62.42-1.23.59-1.84.76Z"/><g fill="none" stroke-width=".491"><path d="M118.44 139.59l5.6-1.62"/><path d="M115.34 136.51l5.85-1.01"/></g><path fill="#F4CF49" stroke-width=".272" d="M48.83 103.97c-2.19 0-1.6 2.91 2.13 3.35 -1.4 1.89 2.35 2.59 4.92 3.12 -.46.6-.4 1.01.01 1.45 .8.87 2.62 1.37 3.39 1.48 .04 1.2.69 1.45 1.53 1.89 1.38.7 2.86.92 4.85 1.23 0 0 1.68.25 2.79.43 -.07.47.03.64.14.93 .08.22.21.39.37.59 .31.39.99.99 1.64 1.45 .67.48 1.11.64 2.2 1.18 2.76 1.22 4.49 1.53 6.98 2.2 3.85 1.25 8.23 2.81 15.42 3.14 7.19-.33 11.57-1.89 15.42-3.15 2.49-.68 4.21-.99 6.98-2.21 1.08-.54 1.52-.71 2.2-1.19 .64-.47 1.32-1.06 1.64-1.46 .15-.21.29-.38.37-.6 .1-.29.21-.46.14-.94 1.11-.18 2.79-.44 2.79-.44 1.99-.31 3.47-.54 4.85-1.24 .84-.44 1.48-.69 1.53-1.9 .76-.11 2.58-.61 3.39-1.49 .41-.45.47-.86.01-1.46 2.56-.54 6.32-1.24 4.92-3.13 3.73-.44 4.32-3.36 2.13-3.36l-22.55.48 -14.9 4.25 -8.99 2.36 -8.99-2.37 -14.9-4.26Z"/><g fill="none" stroke-width=".245"><path d="M105 112.22h-9.74m9.35 6.67h-9.36m7.35 4.05h-7.36m19.75-14.18c-.7.97-2.53 3.24-3.29 4.03 -.04.03-.18 0-.22.02 -.04 0-.73 1.03-.73 1.03 -.67.98-2.08 2.55-2.08 2.55 -1.44 1.5-2.68 2.47-2.68 2.47h-.62 -.82m-2 4.05h.42c.22 0 .47 0 .75-.01 2.52-.13 7.27-.92 10.01-3.31 .48-.4.96-.89 1.16-1.43 .02-.08.02-.2.02-.2m1.14-.36s-.02-.19.03-.26c.01-.03.07-.1.12-.13 .73-.42 1.31-.94 1.63-1.74v-.12 -.09m.72-.36l.53-.31c.55-.38.85-.6 1.29-1.17 .15-.3.2-.61.23-.94m.91-.45l.13-.28c.42-.58.75-.84.99-2.07m.67-.02s.26-.29.38-.45c.14-.21.27-.41.34-.64 .13-.44.1-1.36.1-1.36m-3.04 11.4s-.43-.02-.59.01c0 0-.55.14-.81.2 -1.46.27-2.8.48-4.18.71 -.67.12-1.46.24-1.58.21 -.09-.03-.22-.15-.29-.27m8.82-2.79s-1.72.24-2.58.37c-.62.09-1.24.17-1.85.26 -.37.05-.74.08-1.11.1 -.33.01-.65.02-.98.03 -.14 0-.28 0-.41.04 -.25.07-.57.28-.71.31 -.52.05-.71.13-1.06.25 -.45.14-.92.22-1.37.32 -.65.13-1.31.26-1.96.35 -.61.08-1.21.16-1.81.21 -.36.02-.72.04-1.08.04 -.69.04-.93.03-1.44-.01 -.51-.04-.88-.29-.88-.29m26.8-5.75s-1.71.2-2.32.31c-2.9.53-5.73.97-8.6 1.38 -.7.08-1.82.23-2.37.17l-.33-.04 -.77.38 -.53.01s-.22.1-.34.14c-.23.08-.47.13-.71.19 -.96.21-1.93.37-2.9.52 -.43.06-.86.13-1.29.17 -.47.05-.95.1-1.42.12 -.72.02-1.33.08-1.94-.18m26.68-6.1s-2.11.36-2.73.45c-2.16.32-4.31.71-6.47 1.01 -.84.11-1.67.21-2.51.31 -1.1.09-1.76.43-2.19.09 0 0-.52.29-.84.36 -.14.02-.35.04-.48.06 -.23.03-.99.29-1.49.41 -.9.22-1.52.35-2.71.58 -.59.11-1.18.2-1.77.28 -.44.05-.87.07-1.3.1 -.38.02-.75.05-1.13.07 -.43.02-.82.01-1.15-.11m29.14-6.67l-.54.04c-2.75.56-5.74 1.07-8.18 1.49 -2.57.43-4.78.89-7.39 1.15 -.44-.02-.37-.27-.67-.23 0 0-.52.01-.77.07 -1.59.37-4.52 1.01-4.52 1.01 -2.52.44-2.96.38-4.77.38m26.69-5.52c-7.07.96-9.05 1.21-12.77 1.58 0 0-1.81.05-2.82.06 0 0-2.79.08-4.02.17 -.35.02-1.96.46-2.54.59 -3 .68-8.45 2.06-12.69 4.08m-19.464 0h9.73m-9.36 6.67h9.35m-7.36 4.05h7.35m-19.76-14.18c.69.97 2.52 3.24 3.28 4.03 .03.03.17 0 .21.02 .03 0 .72 1.03.72 1.03 .66.98 2.07 2.55 2.07 2.55 1.43 1.5 2.67 2.47 2.67 2.47h.61 .81m1.99 4.05h-.43c-.23 0-.48 0-.76-.01 -2.53-.13-7.28-.92-10.02-3.31 -.49-.4-.97-.89-1.17-1.43 -.03-.08-.03-.2-.03-.2m-1.15-.36s.01-.19-.04-.26c-.02-.03-.08-.1-.13-.13 -.74-.42-1.32-.94-1.64-1.74v-.12 -.09m-.73-.36l-.54-.31c-.56-.38-.86-.6-1.3-1.17 -.16-.3-.21-.61-.24-.94m-.92-.45l-.14-.28c-.43-.58-.76-.84-1-2.07m-.68-.02s-.27-.29-.39-.45c-.15-.21-.28-.41-.35-.64 -.14-.44-.11-1.36-.11-1.36m3.03 11.4s.42-.02.58.01c0 0 .54.14.8.2 1.45.27 2.79.48 4.17.71 .66.12 1.45.24 1.57.21 .08-.03.21-.15.28-.27m-8.83-2.79s1.71.24 2.57.37c.61.09 1.23.17 1.84.26 .36.05.73.08 1.1.1 .32.01.64.02.97.03 .13 0 .27 0 .4.04 .24.07.56.28.7.31 .51.05.7.13 1.05.25 .44.14.91.22 1.36.32 .64.13 1.3.26 1.95.35 .6.08 1.2.16 1.8.21 .35.02.71.04 1.07.04 .68.04.92.03 1.43-.01 .5-.04.87-.29.87-.29m-26.81-5.75s1.7.2 2.31.31c2.89.53 5.72.97 8.59 1.38 .69.08 1.81.23 2.36.17l.32-.04 .76.38 .52.01s.21.1.33.14c.22.08.46.13.7.19 .95.21 1.92.37 2.89.52 .42.06.85.13 1.28.17 .46.05.94.1 1.41.12 .71.02 1.32.08 1.93-.18m-26.69-6.1s2.1.36 2.72.45c2.15.32 4.3.71 6.46 1.01 .83.11 1.66.21 2.5.31 1.09.09 1.75.43 2.18.09 0 0 .51.29.83.36 .13.02.34.04.47.06 .22.03.98.29 1.48.41 .89.22 1.51.35 2.7.58 .58.11 1.17.2 1.76.28 .43.05.86.07 1.29.1 .37.02.74.05 1.12.07 .42.02.81.01 1.14-.11m-29.15-6.67l.53.04c2.74.56 5.73 1.07 8.17 1.49 2.56.43 4.77.89 7.38 1.15 .43-.02.36-.27.66-.23 0 0 .51.01.76.07 1.58.37 4.51 1.01 4.51 1.01 2.51.44 2.95.38 4.76.38m-26.7-5.52c7.06.96 9.04 1.21 12.76 1.58 0 0 1.8.05 2.81.06 0 0 2.78.08 4.01.17 .34.02 1.95.46 2.53.59 2.99.68 8.44 2.06 12.68 4.08"/><path fill="#326331" d="M52.54 117.91c-1.39 1.97-1.74 4.45-1.88 6.8 -.07 2.64-.04 5.3.36 7.92 .24 1.53.78 3.1 1.92 4.21 .65.51 1.31-.22 1.48-.83 1.44-2.89 1.61-6.2 1.47-9.37 -.2-3.09-.99-6.22-2.74-8.8 -.15-.22-.5-.16-.65.05Z"/></g></g><g transform="matrix(.51553.00371-.0042.58196-138.577 36.7834)"><g stroke-width=".264" fill="#305F2F" stroke="#609852"><path d="M373.22 144.19l.14 21.14"/><use xlink:href="#b"/><use xlink:href="#c"/><use xlink:href="#d"/><use xlink:href="#e"/><use xlink:href="#f"/><use xlink:href="#g"/><use xlink:href="#h"/><use xlink:href="#i"/></g></g><g transform="translate(46.2703 54.1835) scale(.51562)"><path fill="#0F47AF" stroke="#000" stroke-width=".478" d="M116.26 118.42l0-.001c0 12.04-9.56 21.8-21.35 21.8 -.01 0-.01 0-.01 0h-.001c-11.79 0-21.35-9.77-21.35-21.81 0-.01 0-.01 0-.01l-.001 0c0-12.05 9.55-21.81 21.34-21.81h0c11.78 0 21.34 9.76 21.34 21.8Z"/><g transform="translate(-1e-05 .15529)"><g transform="translate(94.9252 118.273) scale(.18021)"><use fill="#FCDD09" xlink:href="#k"/><use stroke="#FCDD09" stroke-width="4" transform="rotate(-144) skewX(.00046)" xlink:href="#l"/></g><g transform="matrix(.05569.17139-.1714.05569 94.9252 118.273)"><use fill="#FCDD09" xlink:href="#k"/><use stroke="#FCDD09" stroke-width="4" transform="rotate(-144) skewX(.00046)" xlink:href="#l"/></g><g transform="matrix(-.1458.10593-.10593-.1458 94.9253 118.273)"><use fill="#FCDD09" xlink:href="#k"/><use stroke="#FCDD09" stroke-width="4" transform="rotate(-144) skewX(.00046)" xlink:href="#l"/></g><g transform="matrix(-.1458-.10593.10593-.1458 94.9253 118.273)"><use fill="#FCDD09" xlink:href="#k"/><use stroke="#FCDD09" stroke-width="4" transform="rotate(-144) skewX(.00046)" xlink:href="#l"/></g><g transform="matrix(.05569-.1714.17139.05569 94.9252 118.273)"><use fill="#FCDD09" xlink:href="#k"/><use stroke="#FCDD09" stroke-width="4" transform="rotate(-144) skewX(.00046)" xlink:href="#l"/></g></g><g stroke-width=".492" fill="#D12E29" stroke="#000"><path d="M10.81 147.89a2.19 2.19 0 1 0 0 4.38 2.19 2.19 0 1 0 0-4.39Z"/><path d="M15.12 149.9a2.19 2.19 0 1 0 0 4.38 2.19 2.19 0 1 0 0-4.39Z"/><path d="M11.94 151.82a2.19 2.19 0 1 0 0 4.38 2.19 2.19 0 1 0 0-4.39Z"/></g></g><g stroke-width=".204" fill="#078930" stroke="#000"><path d="M53.31 133.93c-.37.22-.43.79-.43 1.55 0 0-.03 1.36-.05 2.9 8.1 5.85 17.46 10.06 27.59 12.14l.42-2.41 -.08-2c-.01-.12-.1-.21-.22-.21 -4.75-.08-10.89-2.78-12.73-3.58 -.11-.05-.28-.12-.38-.17 -4.23-1.86-8.83-4.49-13.33-7.99 -.15-.12-.57-.44-.83-.28Z"/><path fill="#73787B" stroke-width=".295" d="M80.82 147.04l-10.21 2.78 3.88 1.99 6.48 1.67 .24-.54s-.11-4.74-.29-5.84c-.01-.07-.08-.11-.14-.09Z"/><path d="M70.21 153.51c7.72 2.83 16.07 4.38 24.77 4.38 8.9 0 17.5-1.7 25.47-4.77 -.02-1.41-.04-2.5-.05-2.96 -.01-.13-.11-.25-.23-.27l-.96-.2c-.13-.03-.26.01-.38.05 -5.92 2.49-14.46 4.28-23.88 4.28 -8.8 0-17.09-1.67-24.61-4.72 -.06-.03-.1 0-.1.06 -.01.51-.06 2.87-.08 4.1Z"/><path fill="#D12E29" stroke-width=".254" d="M49.49 124.57a1.12 1.12 0 1 0 0 2.25 1.12 1.12 0 1 0 0-2.26Z"/><path fill="#FCDD09" d="M120.47 157.4c0-.91 0-1.83-.01-2.66 -.01-.91-.02-.91-.03-1.62 -7.88 3.07-16.47 4.75-25.47 4.75 -8.8 0-17.14-1.55-24.78-4.38l-.08 4c7.85 3.05 16.25 4.72 24.84 4.72 9.64 0 18.09-1.8 25.48-4.84Z"/></g><g transform="translate(95.0226 160.14) scale(.03976)"><path fill="#0F47AF" d="M120 0v0c0 66.27-53.73 120-120 120h-.001c-66.28 0-120-53.73-120-120v-.001c0-66.28 53.72-120 120-120H-.01c66.27-.001 120 53.72 120 120Z"/><use fill="#FCDD09" xlink:href="#k"/><use stroke="#FCDD09" stroke-width="6.451" transform="rotate(-144) skewX(.00046)" xlink:href="#l"/><g transform="matrix(.30901.95105-.95106.30901 0 0)"><use fill="#FCDD09" xlink:href="#k"/><use stroke="#FCDD09" stroke-width="4" transform="rotate(-144) skewX(.00046)" xlink:href="#l"/></g><g transform="matrix(-.80902.58778-.58779-.80902 0 0)"><use fill="#FCDD09" xlink:href="#k"/><use stroke="#FCDD09" stroke-width="4" transform="rotate(-144) skewX(.00046)" xlink:href="#l"/></g><g transform="rotate(-144) skewX(.00046)"><use fill="#FCDD09" xlink:href="#k"/><use stroke="#FCDD09" stroke-width="4" transform="rotate(-144) skewX(.00046)" xlink:href="#l"/></g><g transform="matrix(.30901-.95106.95105.30901 0 0)"><use fill="#FCDD09" xlink:href="#k"/><use stroke="#FCDD09" stroke-width="4" transform="rotate(-144) skewX(.00046)" xlink:href="#l"/></g></g></g></g></svg>